<?xml version="1.0" encoding="utf-8"?>
<!-- Generator: Adobe Illustrator 23.0.1, SVG Export Plug-In . SVG Version: 6.00 Build 0)  -->
<svg version="1.1" id="Layer_1" xmlns="http://www.w3.org/2000/svg" xmlns:xlink="http://www.w3.org/1999/xlink" x="0px" y="0px"
	 viewBox="0 0 160 64.67" style="enable-background:new 0 0 160 64.67;" xml:space="preserve">
<style type="text/css">
	.st0{fill:#F8BC2E;}
	.st1{fill:#201E1A;}
</style>
<path class="st0" d="M78.38,1.85c1.28,0,2.56,0,3.84,0c0.88,0.9,2.13,1.31,2.93,2.33c1.94,2.49,2.64,5.47,3.31,8.44
	c0.95,4.25,1.03,8.61,1.29,12.92c0.25,4.25,0.28,8.53-0.1,12.8c-0.28,3.17-0.18,6.38-0.74,9.52c-0.26,1.47-0.26,3.01-0.97,4.39
	c-0.48-0.36-0.83-0.85-1.02-1.39c-0.61-1.79-1.46-3.19-3.71-2.76c-0.28,0.05-0.59-0.44-0.85-0.05c-0.23,0.36-0.1,0.82,0.12,1.13
	c1.54,2.18,2.61,4.63,3.99,6.9c0.33,0.54,0.54,1.04,0.23,1.66c-0.3,0.61-0.85,0.49-1.35,0.52c-0.36,0.02-0.73,0.06-1.07-0.02
	c-1-0.23-1.19,0.34-1.15,1.12c0.02,0.39,0.12,0.77,0.18,1.15c-0.16,0.44-0.22,0.88-0.13,1.34c-1.6,0-3.2,0-4.8,0
	c-0.14-0.38-0.28-0.76-0.43-1.13c0.09-0.07,0.17-0.19,0.26-0.2c1.68-0.15,1.67-0.15,1.68-1.85c0.01-3.25,0.03-6.5,0.05-9.75
	c0.61,0.61,1.28,0.15,1.45-0.26c0.47-1.12,1.12-2.19,1.27-3.45c0.19-1.56,0.2-3.14,0.3-4.69c0.47-7.29,0.57-14.6-0.3-21.88
	c-0.14-1.14-0.25-2.28-0.8-3.34c-0.32-0.61-0.63-1.17-1.38-1.09c-0.79,0.08-1.39,0.47-1.67,1.31c-0.57,1.72-0.75,3.49-0.95,5.27
	c-0.71,6.57-0.49,13.16-0.19,19.74c0.1,2.29,0.49,4.57,0.75,6.86c-2.18,0.44-4.37,0.2-6.56,0.13c-0.24-0.37-0.03-0.77-0.08-1.16
	c-0.75-5.71-0.68-11.46-0.66-17.21c0.03-7.54,0.25-15.07,2.95-22.24c0.74-1.95,1.64-3.9,3.9-4.64C78.19,2.19,78.31,2.04,78.38,1.85z
	"/>
<path class="st0" d="M111.02,21.05c0,6.72,0,13.44,0,20.16c-0.29,0.39-0.41,0.83-0.44,1.32c-0.23,3.65-0.67,7.27-1.54,10.82
	c-0.39,1.57-0.75,3.18-1.53,4.64c0.09-0.77,0.43-1.51,0.24-2.34c-0.46-2.02-1.68-2.93-4.23-3.04c-0.96-0.04-1.91,0.01-2.87-0.04
	c-0.88-0.05-0.89-0.69-0.87-1.38c0.02-0.73,0.45-1.06,1.06-0.98c1.55,0.18,3.11-0.06,4.65,0.06c0.99,0.08,1.27-0.42,1.3-1.27
	c0.03-0.87-0.36-1.17-1.23-1.16c-2.66,0.02-5.32-0.02-7.98-0.08c-0.52-0.01-0.75,0.22-0.81,0.66c-0.07,0.51-0.1,1.03-0.1,1.55
	c-0.04,2.94,0.11,5.89-0.09,8.83c-0.41,0.3-0.56,0.09-0.61-0.31c-0.09-0.67-0.33-1.28-0.56-1.91c-0.7-1.91-1.5-3.8-1.72-5.85
	c-0.07-0.43,0.23-0.74,0.4-1.08c0.91-1.85,0.82-2.02-1.15-2.1c-0.03-0.52-0.02-1.04-0.09-1.55c-0.55-4.21-0.64-8.45-0.61-12.68
	c0.05-7.26,0-14.53,1.51-21.71c0.45-2.16,1.11-4.2,2.03-6.17c0.65-1.4,1.83-2.42,2.79-3.59c1.6,0,3.2,0,4.8,0
	c0.2,0.39,0.61,0.48,0.93,0.71c0.68,0.46,1.39,0.84,1.92,1.54c1.27,1.66,2.2,3.43,2.6,5.51c0.67,3.5,1.62,6.94,1.79,10.52
	C110.6,20.47,110.36,20.99,111.02,21.05z M104.22,30.29c0-3.11,0.01-6.23,0-9.34c-0.01-1.4-0.14-2.79-0.47-4.15
	c-0.23-0.96-0.49-1.94-1.17-2.71c-0.63-0.7-1.55-0.82-1.93-0.22c-0.44,0.7-0.85,1.41-1.12,2.22c-0.41,1.25-0.27,2.54-0.51,3.78
	c-0.78,3.99-0.28,8.03-0.52,12.04c-0.14,2.24,0.06,4.6,0.31,6.9c0.27,2.49,0.2,5.01,0.73,7.48c0.18,0.84,0.59,1.28,1.47,1.21
	c0.52-0.04,1.03-0.11,1.55-0.1c0.71,0.02,0.99-0.35,1.08-1c0.18-1.38,0.54-2.76,0.56-4.14C104.27,38.28,104.22,34.29,104.22,30.29z"
	/>
<path class="st0" d="M51.02,60.41c0-3.68,0-7.36,0-11.04c0.49-0.22,0.62-0.74,0.81-1.14c1.68-3.51,3.37-7.03,4.96-10.59
	c1.46-3.26,2.72-6.58,3.57-10.09c0.88-3.64,1.12-7.2,0.25-10.84c-0.63-2.64-3.27-3.09-4.93-1.47c-1.01,0.98-2.01,1.89-2.51,3.25
	c-0.18,0.48-0.55,1.03-1.08,0.91c-0.57-0.12-0.59-0.78-0.59-1.31c0-0.24-0.02-0.48-0.02-0.72c0-3.44,0.03-6.87,0-10.31
	c-0.01-1.2,0.46-2.08,1.33-2.9c0.88-0.83,2.06-1.29,2.77-2.31c1.84,0,3.68,0,5.52,0c0.1,0.41,0.48,0.52,0.79,0.67
	c1.9,0.96,3.31,2.35,4.15,4.34c0.44,1.04,0.47,2.17,0.73,3.24c0.65,2.66,1.02,5.4,1,8.17c-0.02,4.12-0.37,8.18-1.28,12.22
	c-0.86,3.81-2.18,7.44-3.74,11c-0.73,1.67-1.57,3.28-2.34,4.93c-0.55,1.17-0.35,1.42,0.95,1.47c0.9,0.03,1.72-0.32,2.59-0.43
	c1.07-0.14,1.98,0.53,3.04,0.45c1.34-0.1,1.73,0.38,1.74,1.73c0.02,2.15,0.07,4.3,0.11,6.46c-0.16,0.71-0.39,1.45-1.25,1.48
	c-0.96,0.03-1.09,0.59-1.1,1.31c-0.01,0.43,0.01,0.87,0.02,1.3c-0.37,0.45-0.8,0.72-1.43,0.65c-2.52-0.27-5.03-0.64-7.56-0.72
	c-0.02-1.27-0.05-2.55-0.06-3.83c0-0.36-0.03-0.77,0.43-0.87c0.34-0.07,0.59,0.13,0.79,0.41c0.62,0.87,1.35,1.66,1.87,2.59
	c1.07,1.9,2.75,2.18,4.67,1.98c0.6-0.06,0.83-0.46,0.4-0.87c-1.32-1.27-2.22-2.87-3.44-4.21c-0.38-0.41-0.76-0.88-0.7-1.47
	c0.13-1.23,2.07-3.3,3.34-3.49c0.82-0.13,0.63-0.7,0.67-1.17c0.03-0.5-0.07-0.94-0.71-1.05c-1.79-0.31-3.26,0.35-4.25,1.86
	c-0.58,0.89-0.88,1.98-1.83,2.61c-0.29,0.19-0.51,0.61-0.91,0.4c-0.37-0.19-0.31-0.63-0.32-0.97c-0.02-0.92,0.03-1.84,0.03-2.76
	c-0.01-1.41-0.24-1.56-2.55-1.5c-1.02,0.03-0.85,0.89-0.86,1.5c-0.04,2.08-0.03,4.15,0.01,6.23c0.04,1.63-0.2,3.27,0.15,4.89
	C53.17,60.41,52.09,60.41,51.02,60.41z"/>
<path class="st0" d="M105.93,59.74c0.25,0.47-0.07,0.64-0.43,0.73c-0.79,0.19-0.99,0.65-0.72,1.38c-1.92,0-3.84,0-5.76,0
	c0.02-0.37,0.04-0.74,0.06-1.12c0.32-0.24,0.68-0.14,1.03-0.13C102.1,60.62,104.09,60.72,105.93,59.74z"/>
<path class="st1" d="M78.43,47.38c0.72,0.3,1.66,0.38,1.51,1.53c-0.02,3.25-0.04,6.5-0.05,9.75c-0.01,1.7,0,1.7-1.68,1.85
	c-0.09,0.01-0.18,0.13-0.26,0.2c-0.5-0.18-1.21,0.04-1.4-0.73c0.03-2.98,0.06-5.96,0.07-8.94c0-0.73-0.35-1.03-1.12-1.05
	c-2.63-0.05-2.63-0.08-2.95,2.61c-0.03,0.24-0.05,0.48-0.07,0.71c-0.03-0.05-0.1-0.12-0.09-0.15c0.06-0.12,0.12-0.1,0.11,0.04
	c-0.09,2.42-0.45,4.76-2.17,6.64c-0.14-0.35-0.35-0.15-0.49-0.03c-0.19,0.15-0.19,0.3,0.1,0.33c-0.19,0.14-0.37,0.28-0.55,0.42
	c-0.27-0.42-0.52-0.3-0.77,0.02c-0.7-0.12-1.52,0.35-2.1-0.41c-0.01-0.44-0.02-0.87-0.02-1.3c0.01-0.73,0.14-1.29,1.1-1.31
	c0.86-0.02,1.09-0.77,1.25-1.48c0.7-1.79,0.45-3.7,0.74-5.54c0.12-0.78-0.04-1.63,0.2-2.36c0.33-0.98,1.48-0.12,2.08-0.68
	C74.05,47.58,76.25,47.82,78.43,47.38z"/>
<path class="st1" d="M93.67,50.73c-1.32,1.99-2.14,4.23-3.21,6.35c-0.47,0.94-0.84,1.93-1.76,2.62c-1.68,1.26-3.54,0.89-5.39,0.81
	c-0.06-0.38-0.17-0.77-0.18-1.15c-0.04-0.78,0.15-1.35,1.15-1.12c0.34,0.08,0.72,0.03,1.07,0.02c0.5-0.03,1.04,0.1,1.35-0.52
	c0.31-0.63,0.1-1.12-0.23-1.66c-1.38-2.27-2.45-4.72-3.99-6.9c-0.22-0.31-0.35-0.77-0.12-1.13c0.25-0.39,0.57,0.11,0.85,0.05
	c2.25-0.43,3.1,0.97,3.71,2.76c0.18,0.54,0.54,1.03,1.02,1.39c0.07,0.18,0.16,0.36,0.22,0.55c0.09,0.27,0.16,0.56,0.52,0.54
	c0.33-0.02,0.27-0.33,0.36-0.53c0.48-1.08,0.96-2.16,1.43-3.25c0.47-1.08,0.92-2.2,2.44-2.01c1.97,0.08,2.06,0.25,1.15,2.1
	C93.89,49.99,93.6,50.3,93.67,50.73z"/>
<path class="st1" d="M105.93,59.74c-1.84,0.98-3.84,0.88-5.82,0.85c-0.34,0-0.71-0.11-1.03,0.13c-0.23-0.05-0.47-0.19-0.69-0.15
	c-1.44,0.25-1.94-0.44-1.83-1.78c0.2-2.94,0.05-5.89,0.09-8.84c0.01-0.52,0.04-1.04,0.1-1.55c0.06-0.44,0.29-0.67,0.81-0.66
	c2.66,0.05,5.32,0.1,7.98,0.08c0.87-0.01,1.26,0.29,1.23,1.16c-0.03,0.85-0.31,1.35-1.3,1.27c-1.55-0.13-3.1,0.12-4.65-0.06
	c-0.61-0.07-1.03,0.25-1.06,0.98c-0.02,0.69-0.01,1.33,0.87,1.38c0.95,0.05,1.91,0,2.87,0.04c2.55,0.11,3.77,1.02,4.23,3.04
	c0.19,0.83-0.15,1.56-0.24,2.34c-0.22,0.35-0.44,0.69-0.66,1.04c-0.18,0.02-0.29,0.12-0.33,0.3
	C106.32,59.47,106.12,59.61,105.93,59.74z M101.82,58.36c0.63-0.16,1.35,0.22,1.88-0.45c0.72-0.91,0.75-2.07,0.02-2.81
	c-0.36-0.36-3.07-0.61-3.43-0.32c-0.06,0.05-0.14,0.11-0.15,0.18c-0.22,0.98-0.3,2.01-0.02,2.96
	C100.36,58.73,101.24,58.18,101.82,58.36z"/>
<path class="st1" d="M57.43,60.39c-1.06,0.28-2.12,0.21-3.18,0.02c-0.35-1.62-0.11-3.26-0.15-4.89c-0.05-2.08-0.05-4.15-0.01-6.23
	c0.01-0.61-0.15-1.47,0.86-1.5c2.31-0.06,2.54,0.09,2.55,1.5c0,0.92-0.05,1.84-0.03,2.76c0.01,0.34-0.05,0.78,0.32,0.97
	c0.4,0.21,0.63-0.21,0.91-0.4c0.95-0.63,1.25-1.72,1.83-2.61c1-1.52,2.46-2.18,4.25-1.86c0.64,0.11,0.75,0.55,0.71,1.05
	c-0.03,0.47,0.15,1.04-0.67,1.17c-1.27,0.2-3.21,2.26-3.34,3.49c-0.06,0.6,0.32,1.06,0.7,1.47c1.22,1.34,2.12,2.94,3.44,4.21
	c0.43,0.42,0.21,0.81-0.4,0.87c-1.91,0.2-3.6-0.08-4.67-1.98c-0.52-0.92-1.25-1.72-1.87-2.59c-0.2-0.29-0.45-0.49-0.79-0.41
	c-0.46,0.1-0.43,0.51-0.43,0.87c0.01,1.28,0.04,2.55,0.06,3.83c-0.03,0.03-0.04,0.07-0.03,0.11c-0.05,0.03-0.09,0.07-0.14,0.1
	C57.37,60.35,57.4,60.37,57.43,60.39z"/>
<path class="st0" d="M72.48,53.32c0.02-0.24,0.05-0.48,0.07-0.71c0.32-2.68,0.32-2.66,2.95-2.61c0.77,0.01,1.12,0.32,1.12,1.05
	c-0.02,2.98-0.05,5.96-0.07,8.94c-1.67-1.12-2.35-2.88-2.95-4.66C73.35,54.58,73.1,53.85,72.48,53.32z"/>
<path class="st0" d="M68.62,60.6c0.25-0.32,0.51-0.44,0.77-0.02C69.13,60.68,68.88,60.71,68.62,60.6z"/>
<path class="st0" d="M69.95,60.16c-0.29-0.03-0.29-0.19-0.1-0.33c0.14-0.11,0.35-0.32,0.49,0.03C70.2,59.96,70.07,60.06,69.95,60.16
	z"/>
<path class="st0" d="M57.43,60.39c-0.03-0.02-0.05-0.04-0.08-0.06c0.05-0.03,0.09-0.07,0.14-0.1c0,0.05,0.01,0.09,0.01,0.14
	C57.5,60.38,57.45,60.38,57.43,60.39z"/>
<path class="st0" d="M106.51,59.33c0.04-0.18,0.15-0.28,0.33-0.3c0.21,0.14,0.18,0.31,0.01,0.43
	C106.72,59.55,106.58,59.49,106.51,59.33z"/>
<path class="st0" d="M101.82,58.36c-0.58-0.17-1.46,0.37-1.7-0.45c-0.28-0.94-0.2-1.97,0.02-2.96c0.02-0.07,0.09-0.13,0.15-0.18
	c0.37-0.3,3.07-0.04,3.43,0.32c0.73,0.73,0.7,1.89-0.02,2.81C103.17,58.58,102.44,58.2,101.82,58.36z"/>
</svg>
