<?xml version="1.0" encoding="utf-8"?>
<!-- Generator: Adobe Illustrator 23.0.1, SVG Export Plug-In . SVG Version: 6.00 Build 0)  -->
<svg version="1.1" id="Layer_1" xmlns="http://www.w3.org/2000/svg" xmlns:xlink="http://www.w3.org/1999/xlink" x="0px" y="0px"
	 viewBox="0 0 612 792" style="enable-background:new 0 0 612 792;" xml:space="preserve">
<style type="text/css">
	.st0{fill:#C2C2C1;}
	.st1{fill:#FEFEFE;}
	.st2{fill:#717170;}
	.st3{fill:#95C02B;}
	.st4{fill:#7FA629;}
	.st5{fill:#7F7F7E;}
	.st6{fill:#828281;}
	.st7{fill:#9F9F9E;}
	.st8{fill:#90B146;}
	.st9{fill:#7FA529;}
	.st10{fill:#ACCB53;}
	.st11{fill:#8CAF3F;}
	.st12{fill:#93B44C;}
	.st13{fill:#97C230;}
	.st14{fill:#B5D069;}
	.st15{fill:#B5CF67;}
	.st16{fill:#7FA62A;}
	.st17{fill:#81A72C;}
	.st18{fill:#9D9E9E;}
	.st19{fill:#737372;}
	.st20{fill:#7E7F7E;}
	.st21{fill:#848483;}
	.st22{fill:#80807F;}
	.st23{fill:#7B7B7B;}
	.st24{fill:#8C8C8B;}
	.st25{fill:#7E7E7D;}
	.st26{fill:#759F01;}
	.st27{fill:#A2A2A2;}
	.st28{fill:#7D7D7C;}
	.st29{fill:#898989;}
	.st30{fill:#787878;}
	.st31{fill:#76A006;}
	.st32{fill:#76A002;}
	.st33{fill:#759F02;}
	.st34{fill:#8D8D8C;}
	.st35{fill:#9C9C9B;}
	.st36{fill:#6E6E6D;}
	.st37{fill:#F1F1F1;}
	.st38{fill:#EFEFEF;}
	.st39{fill:#FDFDFC;}
	.st40{fill:#F7F7F7;}
	.st41{fill:#F8F8F7;}
	.st42{fill:#F5F5F5;}
	.st43{fill:#F8F8F8;}
</style>
<path class="st0" d="M255.58,343.41c0.86,0.11,1.83,0.16,1.77-1.56c-0.04-1.2-0.95-0.84-1.51-0.86c-0.93-0.02-1.85,0.07-2.78,0.12
	C253.57,342.68,255.46,340.95,255.58,343.41z"/>
<path class="st1" d="M237.11,351.66c-7.29,0-14.58,0-21.87,0c0-0.36,0-0.72,0-1.08c1.39-0.1,2.63,0.22,3.99,0.09
	c-1.28-0.12-3.33-0.05-3.25-0.63c0.1-0.68-1.32-1.52,1.84-1.97c-0.27-0.03-0.65,0.03-1.04,0.05c-0.54,0.03-1.05,0.03-1.54-0.05
	c0-0.78,0-1.56,0-2.34c8.53,0.85,17.3,0.39,25.99,0.38c0.95,0,1.91-0.07,2.87-0.09c8.74-0.19,13.73-1.52,14.43-3.98
	c0.47-1.67,0.82-3.36-2.23-4.92c-0.8-0.41-0.41-0.81,0.27-1.2c2.94-1.7,2.6-3.51,1.65-5.29c-0.93-1.73-5.1-2.71-11.26-2.98
	c-3.62-0.16-7.24-0.21-10.88-0.16c-3.02,0.04-4.4,0.46-4.29,1.23c0.11,0.75,1.35,1.08,4.35,1.11c2.78,0.03,5.57-0.02,8.35,0.02
	c5.82,0.1,8.25,0.82,8.33,2.45c0.12,2.4-2.72,3.22-11.42,3.27c-5.35,0.03-10.71,0-16.06,0.01c-3.4,0-6.82-0.07-10.09,0.28
	c0-9.49,0.02-18.98-0.05-28.46c0-0.55,0.4-0.69,2.44-0.69c27.93,0.02,55.86,0.02,83.79,0.02c0.27,0.23-0.37,0.32-0.85,0.43
	c-7.07,1.56-14.04,3.14-20.99,4.74c-0.66,0.15-1.38,0.29-1.9,0.48c-0.77,0.29-1.15,0.61-0.23,0.9c1.06,0.34,2.17,0.12,3.12-0.08
	c7.23-1.5,14.06-3.13,21.08-4.71c2.46-0.55,1.51-1.14,1.05-1.77c23.58,0,47.16,0.01,70.74-0.02c2.2,0,2.64,0.12,2.63,0.74
	c-0.08,13.55-0.06,27.1-0.06,40.65c-1.63,0-1.66-0.42-2.09-0.68c-9.49-5.8-19.44-11.53-28.83-17.34c-1.66-1.03-2.43-1.15-5.28-0.87
	c-2.64,0.76-1.5,1.57-0.17,2.33c3.46,1.96,6.44,3.99,9.87,5.95c6.39,3.66,12.34,7.38,18.59,11.06c0.92,0.54,1.74,1.23,4.83,1
	c1.65-0.14,1.18-0.84,3.08-0.91c0,0.87-0.09,1.74,0.04,2.61c0.06,0.39-0.26,0.47-1.65,0.46c-4.18-0.03-8.36-0.01-12.54-0.01
	c-0.24-0.65,0.74-1.28,0.47-1.94c-0.19-0.46-0.21-0.94-2.31-1.01c-1.58-0.05-2.7,0.2-2.92,0.65c-0.25,0.49-0.59,1.03,1.56,1.31
	c2.97,0.38,2.98,0.37,0.63,0.99c-23.58,0-47.16,0-70.75,0c-0.76-0.76,0.41-1.52-0.02-2.18c-0.08,0.44,0.61,1.11-2.61,1.12
	c-2.35,0.01-2.85-0.25-2.84-1.26c0.01,0.1-0.06,0.37,0.01,0.63c0.1,0.38,0.5,0.7,2.22,0.72c0.94,0.01,2.22,0.03,2.49,0.3
	c0.33,0.35-1.25,0.43-1.82,0.67c-15.86,0-31.73,0-47.59,0c-0.62-0.21-0.72-0.43-0.35-0.68c0.31-0.13,0.79-0.23,1.3-0.22
	c3.46,0.06,3.55-0.57,3.35-1.26c-0.09-0.29,0.18-0.63-1.1-0.76c-1.33-0.14-2.48-0.03-3.3,0.31
	C237.49,349.91,238.65,350.84,237.11,351.66z"/>
<path class="st2" d="M215.24,335.83c0.89-0.49,2.33-0.6,4.23-0.6c6.97,0.03,13.93,0.01,20.9,0.01c1.07,0,2.15,0.01,3.21-0.01
	c6.28-0.15,8.08-0.75,8.31-2.5c0.23-1.74-0.06-2.61-9.33-2.64c-2.68-0.01-5.36-0.01-8.04,0c-2.94,0.01-3.56-0.58-3.67-1.2
	c-0.1-0.61-0.42-1.46,2.44-1.55c6.15-0.2,12.43-0.28,18.36,0.4c5.12,0.59,7.49,1.8,7.77,3.25c0.34,1.81,1.24,3.68-2.73,5.32
	c-0.83,0.34,0.18,0.54,0.56,0.8c3.52,2.48,3.93,4.98-0.62,7.36c-2.29,1.2-6.75,1.71-11.58,1.82c-8.56,0.19-17.14,0.07-25.71,0.1
	c-1.86,0.01-3.35-0.14-4.12-0.66c0-0.48,0-0.96,0-1.44c0.33-0.78,2.08-1,4.67-0.99c6.95,0.01,13.9,0.01,20.85,0c1.5,0,3,0,4.46-0.12
	c4.06-0.33,5.6-0.89,5.71-2.07c0.21-2.22-1.78-2.81-9.85-2.84c-7.06-0.03-14.12-0.02-21.17,0c-2.59,0-4.34-0.21-4.67-0.99
	C215.24,336.79,215.24,336.31,215.24,335.83z"/>
<path class="st1" d="M215.24,337.27c0.82,0.6,2.29,0.79,4.64,0.77c6.94-0.05,13.89-0.01,20.83-0.02c1.93,0,3.83,0.04,5.72,0.16
	c3.95,0.25,5.4,0.74,5.42,1.86c0.01,0.3-0.11,0.6,0.01,0.9c0.73,1.8-3.49,2.55-9.1,2.59c-7.58,0.05-15.17,0.05-22.75,0
	c-2.33-0.01-3.83,0.17-4.77,0.75C215.24,341.95,215.24,339.61,215.24,337.27z"/>
<path class="st3" d="M376.03,348.61c-0.78,0.37-0.87,0.88-2.56,1.08c-1.55,0.05-1.57-0.35-2-0.58c-4.77-2.61-8.78-5.31-13.18-7.97
	c-4.45-2.68-9.15-5.33-13.47-8.03c-1.79-1.12-3.47-2.25-5.33-3.36c-0.41-0.24-0.79-0.5-0.17-0.77c2.89-0.5,4.14-0.39,5.75,0.57
	c6.27,3.74,12.5,7.48,18.74,11.22c4.07,2.43,8.14,4.87,12.21,7.3C376.03,348.25,376.03,348.43,376.03,348.61z"/>
<path class="st4" d="M302.71,306.69c2.5,0.82,2.29,1.31-0.76,1.99c-6.69,1.49-13.32,3-20.06,4.47c-1.43,0.31-2.93,0.97-5.16,0.33
	c-1.6-0.45-0.84-1.15,1.58-1.68c7.71-1.7,15.41-3.41,23.11-5.11C301.85,306.69,302.28,306.69,302.71,306.69z"/>
<path class="st5" d="M359.31,351.66c-0.04-0.32,0.66-0.51,1.71-0.68c-4.29-0.08-6.34-1.15-4.28-2.14c0.84-0.4,2.3-0.39,3.68-0.36
	c1.39,0.04,2.54,0.24,2.57,0.66c0.07,0.85,0.73,1.73-1.12,2.52C361.02,351.66,360.16,351.66,359.31,351.66z"/>
<path class="st6" d="M285.99,351.66c-0.29-0.34-0.17-0.61,1.62-0.6c-5.31-0.23-5.9-0.55-4.59-2.56c1,0.46,0.56,0.9,0.56,1.3
	c0,0.48,0.74,0.61,2.34,0.62c1.68,0.01,2.25-0.16,2.23-0.62c-0.02-0.4-0.46-0.83,0.78-1.2c0.21,1.02,0.87,2.04-0.36,3.06
	C287.7,351.66,286.84,351.66,285.99,351.66z"/>
<path class="st5" d="M215.24,348.07c1.5-0.31,3.24-0.25,4.93-0.24c0.57,0.01,1.45-0.04,1.4,0.23c-0.05,0.24-0.89,0.25-1.47,0.22
	c-3.27-0.13-3.85,0.33-3.85,1.15c0,0.78,0.71,1.12,3.6,1c0.76-0.03,1.93-0.07,1.86,0.3c-0.06,0.31-1.1,0.21-1.77,0.22
	c-1.69,0.02-3.46,0.09-4.7-0.36C215.24,349.75,215.24,348.91,215.24,348.07z"/>
<path class="st7" d="M238.49,350.97c-0.03,0.23-0.06,0.46-0.09,0.7c-0.43,0-0.86,0-1.29,0c0.19-0.97-0.7-1.96,0.54-2.92
	c0.64,0.09,1,0.24,1.25,0.43c0.38,0.35,0.37,0.71,0.14,1.07C238.86,350.49,238.59,350.72,238.49,350.97z"/>
<path class="st8" d="M267.39,340.52c-0.04-2.45-0.07-4.91-0.13-7.36c-0.01-0.56,0.56-1.1,2.46-1.24c1.98-0.14,3.32,0.35,4.06,0.82
	c2.9,1.86,5.67,3.74,8.51,5.61c0.49,0.32,0.77,0.69,2.3,0.9c2.78-1.28,4.22-2.73,6.41-4.08c1.23-0.76,2.29-1.55,3.5-2.31
	c0.86-0.54,2.32-1.07,4.49-0.93c2.05,0.12,2.48,0.75,2.47,1.32c-0.06,2.42-0.09,4.85-0.14,7.27c-0.28,0.07-0.6,0.13-0.96,0.17
	c-2.93,0.03-3.98,0.45-3.82,1.27c0.2,1.04,0.09,2.08,0.02,3.11c-0.02,0.38,0.18,0.78-1.06,1.07c-1.09-0.29-0.66-0.67-0.67-1.02
	c-0.04-2.32-0.02-4.64-0.51-7c-1.48,0.86-2.96,1.72-4.44,2.58c-3.66,0.15-7.39-0.06-11.03,0.18c-1.53-0.91-3.05-1.81-4.58-2.72
	c-0.19,0-0.39,0.01-0.58,0.01c0,0.75,0,1.5,0,2.24c0.01,1.64,0.04,3.28,0.04,4.92c0,0.26,0.23,0.54-0.61,0.75
	c-1.14-0.31-0.94-0.71-0.96-1.09c-0.05-0.98,0-1.97-0.02-2.96c-0.02-1.12-0.04-1.12-3.82-1.35
	C267.99,340.65,267.68,340.59,267.39,340.52z"/>
<path class="st9" d="M334.14,345.9c-0.58,0.56-2.01,0.77-3.89,0.64c-1.89-0.13-2.63-0.54-2.61-1.09c0.05-1.04-0.08-2.09,0.03-3.14
	c0.06-0.55-0.66-0.75-2.6-0.73c-2.77,0.03-5.56,0.04-8.32,0c-2.06-0.03-2.53,0.22-2.48,0.74c0.11,0.98-0.02,1.97,0.04,2.96
	c0.04,0.67-0.6,1.24-3.33,1.27c-2.85,0.03-3.43-0.54-3.39-1.21c0.09-1.61,0.11-3.22,0.16-4.83c0.86-0.2,1.88-0.27,2.96-0.27
	c6.67-0.02,13.35-0.02,20.02,0c0.96,0,1.91,0.04,2.72,0.2c0.95,0.96,0.19,1.93,0.41,2.9C334.07,344.19,333.58,345.05,334.14,345.9z"
	/>
<path class="st10" d="M339.32,328.98c3.22,2.04,6.41,4.08,9.66,6.11c5.3,3.31,11.36,6.52,16.25,9.88c2.35,1.62,5.46,3.14,8.22,4.71
	c-3.15,0.5-4.49-0.12-5.57-0.76c-4.47-2.64-8.86-5.3-13.28-7.94c-5.42-3.24-10.87-6.48-16.26-9.73
	C337.02,330.46,336.61,329.66,339.32,328.98z"/>
<path class="st11" d="M307.8,338.18c-0.41-1.6-0.16-3.16,2.82-4.6c4.95-2.39,15.46-2.43,20.5-0.06c3.19,1.5,3.32,3.16,3.1,4.84
	c-1.84-0.09-1.4-0.53-1.44-0.84c-0.09-0.63-0.73-1.06-3.36-0.98c-1.39,0.04-2.14-0.21-2.71-0.52c-0.59-0.28-1.06-0.58-1.73-0.85
	c-2.69-1.08-6.55-0.97-8.65,0.22c-0.73,0.42-0.59,0.95-2.16,1.25c-3.92-0.09-3.91-0.08-4.96,1.09
	C309.03,337.93,309.09,338.23,307.8,338.18z"/>
<path class="st12" d="M307.8,338.18c0.74-0.14,0.65-0.35,0.71-0.56c0.38-1.4,1.38-1.59,5.73-1.06c1.5,0.45,0.93,1.01,0.96,1.53
	c0.05,0.63,0.97,0.94,3.27,0.91c1.16-0.01,2.34,0,3.5,0c4.74-0.01,4.87-0.07,4.91-1.43c0.02-0.57-1.21-1.17,0.28-1.72
	c0.8,0.21,0.83,0.63,2.83,0.46c2.2-0.2,3.56,0.16,3.62,0.86c0.03,0.4-0.59,0.84,0.61,1.2c0,0.72,0,1.44,0,2.16
	c-0.2,0.09-0.41,0.09-0.63,0c-8.61,0-17.22-0.01-25.83-0.01C307.78,339.73,307.79,338.95,307.8,338.18z"/>
<path class="st13" d="M316.86,322.03c0,1.59,0.01,3.17-0.01,4.76c0,0.27-0.04,0.54-0.21,0.8c-0.21,0.31-0.8,0.55-2.12,0.57
	c-1.29,0.02-2.04-0.18-2.3-0.5c-0.23-0.29-0.34-0.59-0.34-0.88c-0.02-3.14-0.01-6.28-0.01-9.42c0-0.06-0.01-0.12,0-0.18
	c0.07-0.55,0.09-1.24,2.56-1.23c2.51,0.01,2.41,0.71,2.42,1.25C316.88,318.8,316.86,320.41,316.86,322.03z"/>
<path class="st14" d="M307.83,324.04c0,1.67,0,3.35,0.01,5.02c0,0.48-0.19,0.97-2.22,1.03c-2.23,0.06-2.39-0.46-2.45-0.93
	c-0.47-3.46-0.48-6.93,0.01-10.39c0.06-0.46,0.55-0.9,2.42-0.87c1.82,0.03,2.2,0.5,2.21,0.94
	C307.84,320.57,307.82,322.31,307.83,324.04z"/>
<path class="st15" d="M293.83,316.95c0.08-0.36,0.58-0.66,1.54-0.87c7.43-1.66,14.86-3.32,22.31-4.97c1.25-0.28,2.87-0.48,3.9-0.01
	c1.03,0.47,1.14,1.07-0.63,1.47c-6.23,1.41-12.53,2.79-18.82,4.18c-1.34,0.3-2.69,0.59-4.09,0.86c-0.86,0.16-1.82,0.36-2.92,0.12
	C294.21,317.52,293.85,317.25,293.83,316.95z"/>
<path class="st4" d="M271.34,323.79c0-0.43,0.55-0.71,1.54-0.92c1.26-0.26,1.96,0.07,2.73,0.24c7.27,1.61,14.52,3.22,21.79,4.83
	c1.34,0.3,2.3,0.62,2.1,1.13c-0.29,0.72-2.24,0.99-4.27,0.55c-7.46-1.64-14.85-3.3-22.25-4.96
	C271.94,324.42,271.42,324.09,271.34,323.79z"/>
<path class="st15" d="M299.59,320.85c0.08,0.37-0.21,0.67-1.36,0.87c-1.16,0.2-2.11,0-2.92-0.17c-7.42-1.65-14.81-3.31-22.21-4.97
	c-0.89-0.2-1.29-0.46-1.36-0.78c-0.08-0.34,0.01-0.7,0.98-0.91c1.14-0.24,2.31,0.01,3.17,0.19c3.83,0.8,7.59,1.64,11.34,2.47
	c3.59,0.8,7.1,1.62,10.74,2.4C299.12,320.21,299.63,320.48,299.59,320.85z"/>
<path class="st3" d="M285.14,314.75c-0.11-0.27,0.75-0.54,1.91-0.8c7.42-1.65,14.8-3.32,22.19-4.98c1.01-0.23,2-0.38,2.99,0
	c1.29,0.49,1.53,1.03-0.14,1.46c-2.84,0.72-5.87,1.38-8.86,2.06c-4.5,1.01-9.04,2-13.55,3c-0.91,0.2-1.68,0.5-3.04,0.29
	C285.47,315.59,285.26,315.26,285.14,314.75z"/>
<path class="st3" d="M299.56,324.94c-0.01,0.31-0.25,0.61-1.27,0.78c-1.22,0.2-2.29,0.02-3.23-0.18
	c-7.26-1.62-14.51-3.24-21.75-4.86c-1.35-0.3-2.06-0.68-1.75-1.18c0.4-0.65,1.96-0.87,3.84-0.47c7.75,1.68,15.42,3.4,23.1,5.1
	C299.39,324.34,299.6,324.63,299.56,324.94z"/>
<path class="st16" d="M321.45,314.62c0.07-0.45,1.01-0.66,2.51-0.6c1.78,0.07,1.95,0.48,1.96,0.89c0.01,2.06,0.01,4.12,0.01,6.18
	c0,1.4-0.01,2.81-0.02,4.21c0,0.42-0.48,0.82-2.01,0.91c-1.53,0.09-2.18-0.27-2.46-0.65c0.55-1.06,0.25-2.13,0.22-3.2
	C321.59,319.79,322.01,317.2,321.45,314.62z"/>
<path class="st17" d="M267.96,340.52c6,0,5.09-0.16,5.14,1.4c0.05,1.4,0.03,2.79,0.04,4.19c-2.59,0.75-4.56,0.62-5.74-0.38
	c0.61-1.38,0.08-2.77,0.28-4.16C267.73,341.21,267.39,340.86,267.96,340.52z"/>
<path class="st9" d="M295.53,346.15c0.03-1.41,0.05-2.81,0.11-4.22c0.07-1.56-0.88-1.41,5.17-1.41c0.64,1.35,0.1,2.71,0.3,4.06
	c0.05,0.38-0.24,0.77,0.23,1.14C300.12,346.7,298.3,346.83,295.53,346.15z"/>
<path class="st18" d="M345.18,346.79c-3.07-0.55-3.34-1.37-2.16-2.19c2.3-1.59,4.98-3.13,7.62-4.77c1.51,0.53,2.13,1.07,2.85,1.58
	c0.01,0.18,0.1,0.37-0.17,0.53C350.7,343.58,348.47,345.25,345.18,346.79z"/>
<path class="st18" d="M360.47,337.67c-0.77-0.45-1.54-0.91-2.31-1.36c-0.42-0.25-0.65-0.47-0.15-0.76c1.81-1.04,3.41-2.11,5.25-3.15
	c1.47-0.83,3.19-0.92,5.73-0.4c0.53,0.34,0.07,0.65-0.45,0.94c-2.66,1.46-4.87,2.98-7.23,4.47
	C361.14,337.53,360.86,337.61,360.47,337.67z"/>
<path class="st19" d="M360.47,337.67c1.15-1.34,3.54-2.54,5.52-3.79c0.99-0.63,2-1.25,3.01-1.88c1.98,0.51,2.31,1.15,1.31,1.79
	c-2.51,1.61-5.21,3.2-7.89,4.83C361.19,338.34,360.96,337.99,360.47,337.67z"/>
<path class="st16" d="M278.88,340.89c0.19-0.1,0.36-0.29,0.57-0.29c3.5-0.06,7.03-0.29,10.46,0.12c-1.39,0.93-2.75,1.86-4.18,2.79
	c-0.28,0.18-0.62,0.43-1.42,0.44c-0.81,0-1.15-0.25-1.44-0.43C281.51,342.64,280.21,341.76,278.88,340.89z"/>
<path class="st19" d="M345.18,346.79c1.09-1.35,3.83-2.51,5.6-3.78c0.77-0.55,1.8-1.07,2.7-1.6c2.32,0.75,2.2,1.5,0.39,2.34
	c-1.57,0.73-2.64,1.55-3.98,2.32C348.95,346.62,347.7,347.05,345.18,346.79z"/>
<path class="st20" d="M299.28,347.82c4.49,0,4.93,0.14,4.49,1.33c-0.04,0.12-0.11,0.23-0.08,0.35c0.36,1.35-1.49,1.77-6.28,1.46
	c-1.2-0.08-1.22-0.28-1.22-0.52c-0.02-0.54,0.13-1.08-0.05-1.62C295.87,348.06,296.6,347.64,299.28,347.82z"/>
<path class="st21" d="M336.22,347.77c0,0.93,0.05,1.64-0.02,2.36c-0.06,0.58-1.2,0.83-3.32,0.84c-2.25,0.02-3.4-0.22-3.64-0.85
	c-0.43-1.1,0.27-1.39,4.11-1.62C334.48,348.43,334.48,348.43,336.22,347.77z"/>
<path class="st22" d="M252.61,349.14c0.03-0.25-1.44-0.3-0.74-0.55c0.6-0.21,1.5-0.1,2.01,0.02c2.14,0.52,1.1,1.21,0.98,1.83
	c-0.1,0.5-1.68,0.5-3.14,0.52c-2.03,0.02-3.55-0.07-3.76-0.77c-0.21-0.68,0.8-1.01,3.2-1.02
	C251.56,349.17,251.98,349.16,252.61,349.14z"/>
<path class="st23" d="M230.09,348.8c-0.77-0.34,0.28-0.34,0.91-0.33c0.96,0.02,2.07,0.09,2.27,0.4c0.36,0.56,0.51,1.13-0.11,1.68
	c-0.51,0.45-2.02,0.35-3.27,0.36c-1.33,0.01-2.76,0.01-3.26-0.4c-0.55-0.45-0.89-0.94,0.95-1.28c0.71-0.06,1.46-0.01,2.16-0.05
	C230.61,349.13,231.12,349.01,230.09,348.8z"/>
<path class="st24" d="M351.74,351.14c-1.08-0.7-0.7-1.18-0.74-1.64c-0.03-0.37-0.49-0.55-1.87-0.55c-1.4,0-2.2,0.12-2.23,0.56
	c-0.03,0.45,0.3,0.92-0.68,1.62c-0.86-0.88-0.69-1.51-0.45-2.13c0.21-0.56,1.95-0.55,3.46-0.55c1.49,0,2.9,0.12,3,0.61
	C352.34,349.66,352.63,350.28,351.74,351.14z"/>
<path class="st25" d="M265.64,348.63c-0.8,0.43-2.01,0.31-2.98,0.3c-1.96-0.01-2.92,0.16-2.93,0.77c-0.01,0.62,0.98,0.79,2.93,0.73
	c0.63-0.02,1.28,0,1.92,0.01c0.63,0.01,0.94,0.12,0.92,0.29c-0.02,0.15-0.42,0.22-0.85,0.2c-1.82-0.06-4.25,0.3-5.31-0.27
	c-1.13-0.6-1.39-1.44,0.15-1.96C260.87,348.24,263.46,348.37,265.64,348.63z"/>
<path class="st26" d="M321.45,314.62c0.75,0.19,0.55,0.44,0.55,0.67c0.01,3.2,0.01,6.41,0,9.61c0,0.23,0.2,0.49-0.56,0.67
	C321.18,321.92,321.16,318.27,321.45,314.62z"/>
<path class="st27" d="M275.77,347.75c1.29,0.25,1.07,0.7,2.45,0.79c0.43,0.03,0.54,0.23,0.16,0.3c-2.63,0.42-1.17,1.13-1.55,1.7
	c-0.1,0.14-0.02,0.32-0.68,0.36c-0.7,0.04-0.98-0.12-0.92-0.27C275.6,349.7,274.06,348.75,275.77,347.75z"/>
<path class="st28" d="M238.37,349.14c-0.59-0.08-0.6-0.25-0.72-0.4c1.93-0.41,4.43-0.51,5.59,0.04c1.14,0.55,1.19,1.35-0.24,1.95
	c-1,0.42-3,0.13-4.51,0.23c-0.95-0.18-1-0.38-0.05-0.57c0.16-0.04,0.32-0.08,0.51-0.11c1.09-0.17,3.1-0.06,2.94-0.63
	C241.7,349.04,239.62,349.28,238.37,349.14z"/>
<path class="st29" d="M309.11,350.23c3.76,0.39,4.34,0.29,4.43-0.73c0.03-0.31-0.38-0.64,0.4-0.94c1.29,0.67,1.34,1.95-0.18,2.2
	c-1.74,0.29-3.75,0.41-5.34-0.15C308.23,350.43,307.85,350.22,309.11,350.23z"/>
<path class="st30" d="M271.26,347.94c0,0.97,0,1.94,0,2.91C270.12,349.88,269.52,348.91,271.26,347.94z"/>
<path class="st31" d="M333.59,340.52c0.21-0.01,0.42-0.01,0.63,0c0.14,1.8,0.3,3.59-0.09,5.39c-1.18-0.74-0.42-1.51-0.52-2.27
	C333.48,342.59,333.59,341.55,333.59,340.52z"/>
<path class="st32" d="M267.96,340.52c0.01,1.45,0.03,2.91,0.01,4.36c-0.01,0.28,0.36,0.6-0.57,0.84c0-1.73,0-3.47-0.01-5.2
	C267.58,340.51,267.77,340.51,267.96,340.52z"/>
<path class="st33" d="M301.32,345.72c-1.16-0.86-0.36-1.75-0.51-2.62c-0.14-0.86-0.02-1.72-0.01-2.58c0.18-0.01,0.35,0,0.53,0
	C301.33,342.25,301.33,343.99,301.32,345.72z"/>
<path class="st34" d="M320,350.76c-1.01,0.34-1.16,0.04-1.18-0.15c-0.06-0.89-0.03-1.77-0.03-2.75c1.82,0.2,1.14,0.51,1.14,0.76
	C319.65,349.33,319.56,350.05,320,350.76z"/>
<path class="st35" d="M309.11,350.23c-0.56,0.09-0.59,0.24-0.69,0.39c-1.08-0.66-0.76-1.32,0.1-1.98
	C309.49,349.16,309.12,349.7,309.11,350.23z"/>
<path class="st23" d="M323.31,350.85c0-0.95,0-1.89,0-2.84c0.34,0,0.68,0,1.02,0c0,0.95,0,1.89,0,2.83
	C323.99,350.84,323.65,350.85,323.31,350.85z"/>
<path class="st36" d="M341.29,347.97c0,0.96,0,1.91,0,2.87c-0.15,0-0.3,0-0.45,0c0-0.96,0-1.91,0-2.87
	C340.99,347.97,341.14,347.97,341.29,347.97z"/>
<path class="st5" d="M320,350.76c-0.97-0.71-0.84-1.42-0.07-2.13C319.95,349.33,319.97,350.04,320,350.76z"/>
<path class="st37" d="M361.9,349.74c0.21,0.43-0.07,0.72-2.12,0.7c-1.82-0.02-2.46-0.22-2.35-0.71c0.08-0.4-0.07-0.8,2.01-0.81
	C361.45,348.92,362.07,349.22,361.9,349.74z"/>
<path class="st38" d="M238.37,349.14c1.17-0.31,2.6-0.31,3.77-0.09c1.21,0.23,0.85,0.68,0.55,0.99c-0.66,0.69-2.74,0.3-4.25,0.35
	C238.42,349.98,238.39,349.56,238.37,349.14z"/>
<path class="st39" d="M327.16,335.83c0.49,0.89,0.48,1.78,0.51,2.68c0.02,0.48-0.47,0.72-2.35,0.71c-2.88-0.03-5.77-0.02-8.65,0
	c-1.83,0.01-2.42-0.2-2.35-0.7c0.09-0.66-0.04-1.31-0.07-1.97c0.55-0.51,0.82-1.05,1.83-1.51c2.57-1.18,7.51-1.15,9.9,0.07
	C326.42,335.34,326.77,335.59,327.16,335.83z"/>
<path class="st38" d="M300.02,349.17c-1.13-0.03-2.54,0.09-2.61-0.42c-0.08-0.57,1.46-0.47,2.66-0.47c1.12,0,2.54-0.05,2.62,0.42
	C302.79,349.27,301.13,349.13,300.02,349.17z"/>
<path class="st40" d="M300.05,350.43c-0.92-0.08-2.59,0.18-2.59-0.38c0-0.6,1.79-0.36,2.89-0.43c1.15-0.07,2.27-0.04,2.31,0.39
	C302.71,350.55,301.17,350.39,300.05,350.43z"/>
<path class="st41" d="M335.09,350.02c0.17,0.3-0.83,0.41-2.54,0.41c-2.14,0.01-2.03-0.35-2.1-0.76c-0.09-0.56,0.88-0.72,2.72-0.72
	C335.5,348.96,334.85,349.43,335.09,350.02z"/>
<path class="st42" d="M251.56,349.65c1,0.02,2.26-0.06,2.27,0.4c0,0.47-1.28,0.38-2.27,0.38c-0.98,0-2.37,0.1-2.46-0.33
	C248.98,349.61,250.41,349.66,251.56,349.65z"/>
<path class="st43" d="M229.67,350.43c-1.03-0.03-2.46,0.09-2.45-0.37c0.01-0.48,1.5-0.41,2.65-0.42c1.07-0.01,2.3-0.04,2.2,0.43
	C231.97,350.56,230.6,350.39,229.67,350.43z"/>
</svg>
