<?xml version="1.0" encoding="utf-8"?>
<!-- Generator: Adobe Illustrator 23.0.1, SVG Export Plug-In . SVG Version: 6.00 Build 0)  -->
<svg version="1.1" id="Layer_1" xmlns="http://www.w3.org/2000/svg" xmlns:xlink="http://www.w3.org/1999/xlink" x="0px" y="0px"
	 viewBox="0 0 160 142.01" style="enable-background:new 0 0 160 142.01;" xml:space="preserve">
<style type="text/css">
	.st0{fill:#DACBC8;}
	.st1{fill:#E60707;}
	.st2{fill:#C20B0B;}
	.st3{fill:#0E0E0E;}
	.st4{fill:#404040;}
	.st5{fill:#626262;}
	.st6{fill:#525252;}
	.st7{fill:#1A1A1A;}
	.st8{fill:#FB1D1B;}
	.st9{fill:#F20F10;}
	.st10{fill:#DA373B;}
	.st11{fill:#C50908;}
	.st12{fill:#C90B11;}
	.st13{fill:#1B1B1B;}
	.st14{fill:#3A3A3A;}
	.st15{fill:#A21D1E;}
	.st16{fill:#636363;}
	.st17{fill:#BCB4B4;}
	.st18{fill:#D83333;}
	.st19{fill:#723032;}
	.st20{fill:#FD2B2B;}
	.st21{fill:#FC1415;}
	.st22{fill:#DB0B0C;}
	.st23{fill:#85080A;}
	.st24{fill:#E44746;}
	.st25{fill:#EC1F1E;}
	.st26{fill:#C60B0C;}
	.st27{fill:#E2312F;}
	.st28{fill:#F43F3F;}
	.st29{fill:#910C0E;}
	.st30{fill:#F24648;}
	.st31{fill:#F96A66;}
	.st32{fill:#F23739;}
	.st33{fill:#F12C2E;}
	.st34{fill:#1E1E1E;}
	.st35{fill:#2E2E2E;}
	.st36{fill:#A4A4A4;}
	.st37{fill:#818181;}
	.st38{fill:#FC5655;}
	.st39{fill:#F82526;}
	.st40{fill:#FB7E73;}
	.st41{fill:#5D1618;}
	.st42{fill:#8D0909;}
	.st43{fill:#750604;}
	.st44{fill:#8F0708;}
	.st45{fill:#FC5F58;}
	.st46{fill:#58080A;}
</style>
<path class="st0" d="M53.38,120.12c0.53-0.03,1.06-0.05,1.58-0.08c-1.66-1.37-4.44-0.99-6.66-1.11c-3.59-0.2-7.15-0.46-10.7-0.82
	c-3.41-0.35-6.86-0.14-9.79,0.82c-2.88,0.94-2.87,2.51-1.38,4.08c0.38-0.26,0.42-0.53,0.08-0.81c-0.71-2.01,1.74-2.55,4.45-2.98
	c0.79,0.13,1.59,0.21,2.42,0.2C40.08,119.48,46.66,120.47,53.38,120.12z"/>
<path class="st1" d="M103.64,89.02c2.06,6.61,4.64,13.07,6,19.89c1.06,3.44,0.86,7.11,2,10.54c0.57,1.72-0.28,3.14-1.54,4.32
	c-1.37,1.28-2.9,2.34-4.52,3.27c-1.89,0.28-3.78,0.56-5.69,0.5c-1.97-0.27-4.29,0.69-5.69-1.59c0.19-2.94-0.59-5.77-1.13-8.62
	c-0.09-0.47,0.01-0.97-0.33-1.38c-0.23,0.34-0.16,0.91-0.75,0.96c-2.33-1.56-0.82-4.67-2.6-6.44c-2.68-1.97-5.83-0.42-8.68-1.09
	c-0.14-0.03-1.41-1.4-1.01,0.41c-1.19,1.52-2.91,1.21-4.49,1.24c-3.48,0.06-6.95,0.19-10.43,0.53c-3.22,0.31-5.08,1.58-5.65,4.77
	c-0.18,0.97-0.67,1.87-1.32,2.65c-0.69,0.75-1.46,1.42-2.32,1.97c-4.49,0.69-9.14,0.82-12.88,4.04c-0.99,0.85-2.14,0.39-2.74-0.85
	c-0.54-1.11-1.1-2.23-1.07-3.52c1.04-4.58,4.72-6.71,8.52-8.18c4.98-1.93,7.88-6.36,12.15-9.1c1.67-1.07,1.86-3.46,2.66-5.25
	c1.78-4,4.48-6.08,9.02-5.61c2.22,0.23,4.48,0.03,6.71,0.02c2.56-0.13,5.44,0.78,7.1-2.23c2.29-3.9-0.5-7.01-1.62-10.38
	c-1.46-4.87-3.03-9.71-3.94-14.72c-2.93-4.81,1.06-8.83,1.51-13.26c0.66-3.82,1.16-7.65,1.66-11.49c0.79-2.26,0.29-4.66,0.71-6.96
	c0.23-1.3,0.18-2.93,2.33-2.39c2.14,2.5,2.27,5.76,3.03,8.7c2.51,9.75,5.86,19.26,8.33,29.02c0.85,3.36,2.29,6.55,2.97,9.97
	C100.78,82.32,102.06,85.72,103.64,89.02z"/>
<path class="st2" d="M27.04,112.87c3.3-12.02,8.09-23.54,11.97-35.36c4.54-13.83,9.79-27.43,14.16-41.31
	c1.69-5.38,5.29-7.39,9.97-8.76c0.65,2.27-0.26,4.68-1.68,5.72c-2.03,1.48-1.81,3.12-1.95,4.99c-0.28,3.77-3.15,6.62-3.61,10.43
	c-0.24,2-1.01,4.07-1.62,6.08c-1.43,2.31-1.58,5.03-2.36,7.55c-2.13,6.33-5.14,12.34-6.65,18.89
	c-6.03,17.23-12.13,34.43-18.03,51.71c-0.61,0.77-0.95,1.76-1.87,2.28c-4.04-0.72-4.62-1.41-4.56-5.51
	C23.55,124.25,25.7,118.71,27.04,112.87z"/>
<path class="st3" d="M129.6,90.64c-3.5,0.08-7.84,0.8-10.19-1.13c-2.49-2.05-0.76-6.52-0.8-9.92c-0.12-9.86,0.03-19.72,0.07-29.58
	c0.43-0.2,0.77-0.11,1.03,0.29c0.69,1.31,0.57,2.74,0.6,4.15c0.03,2.22-0.1,4.44,0.06,6.65c0.19,2.53,1.36,4.08,4.05,4.43
	c3.04,0.4,5.92,2.67,9.16,0.63c0.38-0.24,0.9,0.24,1.2,0.67c0.73,1.48,0.49,3.07,0.57,4.63c-0.01,4.71,0.02,9.41-0.01,14.12
	C135.34,91,135.11,91.19,129.6,90.64z"/>
<path class="st4" d="M103.51,49.28c-0.07-4.45-0.12-8.9-0.24-13.35c-0.04-1.34,0.64-1.95,1.69-2.57c2.56-1.51,5.03-3.14,7.54-4.72
	c1.33,2.17,1.46,5.41,4.33,6.2c4.28,1.18,8.59,2.71,13.19,1.83c4.09-0.78,4.48-0.48,4.53,3.75c0.02,1.85,0.31,3.75-0.55,5.52
	c-4.49,3.46-8.88,1.39-13.26-0.29c-1.11-0.43-1.93-1.64-3.35-1.24c-0.35,0.07-0.71,0.1-1.06,0.1c-3.67,0.2-6.11,3.17-9.41,4.19
	C105.79,49.04,104.86,50.29,103.51,49.28z"/>
<path class="st5" d="M134.42,70.9c-0.07-1.45-0.14-2.91-0.2-4.36c-1.58-2.43-1-5.04-0.68-7.63c0.8-7.33,0.86-14.69,0.66-22.05
	c-0.08-3.12-0.1-6.24-0.19-9.35c-0.37-3.48,1.1-6.85,0.68-10.14c-0.02,1.11,0.03,2.43-0.03,3.76c-2.71,5.85-6.39,8.35-11.88,8.08
	c-4.77-0.23-6.03-2.26-4.09-6.57c0.15-0.34,0.1-0.73,0.02-1.09c1.03-5.4,3.9-8.31,9.8-7.82c2.65,0.22,5.41-1.75,8.03,0.31
	c0.24,1.1,0.49,2.18,0.49,3.32c-0.03,16.22,0.04,32.43-0.04,48.65c0,0.87-0.07,1.75-0.28,2.6C136.27,69.7,136.01,70.96,134.42,70.9z
	"/>
<path class="st6" d="M118.7,21.54c0.92,0.49,1.16,0.95,0.5,2.03c-1.61,2.6-0.73,4.22,2.33,4.67c4.98,0.72,8.75-1.28,11.5-6.04
	c0.2-0.35,0.82-0.45,1.24-0.67c0.87,1.72,0.21,3.56,0.41,5.33c0,6.11,0,12.22,0,18.33c0.04,0.48-0.11,0.88-0.45,1.22
	c-0.22-0.05-0.44-0.1-0.66-0.15c0-2.62,0.01-5.24-0.02-7.85c-0.01-1.17-0.23-1.91-1.78-1.24c-5.51,2.41-10.76-0.15-15.87-1.49
	c-2.71-0.71-4.06-3.81-3.4-7.05C114.57,26.26,116.64,23.9,118.7,21.54z"/>
<path class="st7" d="M135.77,69.47c0.02-17.19,0.02-34.38,0.08-51.57c0-1.29-0.6-2.76,0.68-3.86c1.93,1.12,2.46,2.81,2.45,5.01
	c-0.06,22.41-0.07,44.82,0.01,67.23c0.01,2.41-0.81,3.75-3.06,4.31c-0.56,0.1-1.15-0.13-1.09-0.65c0.69-6.33-0.26-12.71,0.52-19.03
	C135.42,70.4,135.54,69.92,135.77,69.47z"/>
<path class="st8" d="M85.46,31.28c-2.31,1.05-0.88,3.18-1.34,4.77c-0.39,1.36,0.47,2.99-0.77,4.23c-3.13-4.8-4.81-5.07-9.48-1.48
	c-0.5,0.38-0.95,0.82-1.45,1.19c-3.63,2.7-5.89,1.89-6.99-2.55c-0.36-1.44-0.25-3-1.32-4.22c-0.76-3.05,0.55-4.84,3.46-5.65
	c6.08,0.53,12.04,1.69,17.97,3.1c0.17,0.16,0.22,0.3,0.14,0.43C85.6,31.22,85.53,31.28,85.46,31.28z"/>
<path class="st9" d="M67.57,27.57c-2.13,1.41-3.29,3.31-2.99,5.94c0.91,1.09,0.28,2.13-0.15,3.12c-2.99,6.84-5.22,13.91-6.64,21.23
	c-1.12,1.73-2.06,3.55-2.72,5.51c-0.38,1.12-0.63,2.41-2.19,2.54c-2.53-2.9-0.41-5.81,0.04-8.7c0.14-0.89,1.24-1.63,0.42-2.69
	c1.47-4.84,1.56-10.15,4.98-14.34c0.45-0.55,0.24-1.67,0.25-2.53c0.02-1.76-0.16-3.25,1.94-4.47c1.77-1.04,1.11-4.07,2.63-5.75
	C64.66,26.14,66.09,27.53,67.57,27.57z"/>
<path class="st10" d="M85.46,31.28c0.04-0.2,0.06-0.41,0.07-0.62c1.84-0.26,1.92,1.27,2.24,2.36c4.72,16.15,9.41,32.32,14.1,48.48
	c-2.3,0.94-1.71-1.68-2.77-2.26c-2.85-9.66-5.76-19.3-8.53-28.99C88.77,43.96,87.16,37.61,85.46,31.28z"/>
<path class="st11" d="M55.53,125.71c-0.24,0.47-0.48,0.93-0.72,1.4c-0.41,0.52-0.52,1.17-0.33,1.72c0.9,2.65-0.53,3.78-2.77,4.43
	c-0.69,0.04-1.39,0.08-2.08,0.12c-0.51,0.33-1.06,0.55-1.68,0.56c-2.65-0.53-5.68,0.03-7.56-2.69c-0.66-2.04,0.66-3.3,2.18-3.7
	c4.95-1.29,8.71-4.63,12.98-7.08c0.05-0.97,0.57-1.46,1.52-1.53C58.08,121.55,57.22,123.73,55.53,125.71z"/>
<path class="st12" d="M105.79,126.41c0.05-1.63,1.71-1.66,2.58-2.37c2.15-1.75,3.16-3,1.74-6.16c-1.15-2.54-0.39-5.95-0.48-8.97
	c1.99,4.29,2.9,8.92,4.01,13.47c0.36,1.49,1.4,4.35-2.23,4.17C109.54,126.89,107.65,127.37,105.79,126.41z"/>
<path class="st13" d="M116.27,43.97c0.26,0,0.52,0,0.79,0.01c3.29,1.35,3.88,2.95,2.23,6.04c-0.2,0-0.4-0.01-0.6-0.01
	c-0.11-0.94-0.22-1.87-0.36-3.05c-4.25,2.25-8.14,5.22-13.21,3.71c-0.13-0.37-0.12-0.82,0.21-0.98
	C109.04,47.91,112.43,45.51,116.27,43.97z"/>
<path class="st14" d="M135.77,69.47c-0.11,6.74,0.58,13.5-0.43,20.23c-0.04,0.26,0.38,0.59,0.59,0.88
	c-2.09,1.66-4.21,0.51-6.33,0.06c4.06,0.45,5.14-1.4,4.83-5.31c-0.38-4.78-0.05-9.61-0.02-14.42
	C134.87,70.42,135.32,69.94,135.77,69.47z"/>
<path class="st15" d="M21.18,129.51c-0.03-0.49-0.05-0.98-0.08-1.46c2.09-5.02,3.42-10.33,5.94-15.18
	C27.1,119.13,24.35,124.39,21.18,129.51z"/>
<path class="st16" d="M116.27,43.97c-3.23,3.04-7.33,4.65-11.15,6.7c-1.1,0.19-1.88,0-1.61-1.4c3.3-1.67,6.62-3.3,9.89-5.02
	C114.38,43.74,115.17,42.68,116.27,43.97z"/>
<path class="st17" d="M53.8,133.26c0.78-0.42,0.37-1.93,0.75-2.72c-0.02,0.83,0.19,1.14,0.65,1.09c0.25-0.03,0.63-0.16,0.68,0.43
	c0.04,0.56-0.35,0.63-0.58,0.81c-0.18,0.15-0.42,0.02-0.57,0.37C54.42,133.25,54.11,133.26,53.8,133.26z"/>
<path class="st18" d="M99.11,79.25c1.71-0.21,1.17,2.34,2.77,2.26c0.52,2.52,1.93,4.83,1.75,7.51
	C100.75,86.4,100.23,82.69,99.11,79.25z"/>
<path class="st19" d="M103.57,128.06c-1.44-0.11-2.88-0.22-4.33-0.32c-0.31-0.55-0.03-0.79,0.47-0.91c2.02-0.14,4.05-0.28,6.07-0.42
	c1.88,0.05,3.75,0.1,5.63,0.14C108.86,127.34,106.31,128.2,103.57,128.06z"/>
<path class="st20" d="M57.18,57.45c0-4.93,2.1-9.34,3.54-13.89c1.08-3.41,2.56-6.7,3.86-10.05c0.74-0.24,1.47-0.52,1.5,0.75
	c0.02,1.12-0.03,2.28,0.26,3.33c1.02,3.69,2.57,4.13,5.53,1.73c1.35-1.1,2.63-2.34,4.13-3.17c4.05-2.25,6.93-0.58,7.35,4.12
	c0.03,4.06-0.72,8.02-1.54,11.97c-1.59,2.52-3.72,3.96-6.83,3.41C72.19,57,70,59.08,66.68,59.97c-3.3,0.89-5.95,4.82-6.7,8.49
	c-0.97,4.76-2.86,8.79-5.47,12.85c-3.68,5.73-5.96,12.23-8.21,18.67c-0.46,1.33-0.4,3.64-3.03,2.46c-1.25-3.2,0.84-5.79,1.7-8.53
	c2.7-8.66,5.81-17.19,8.47-25.87C55.36,64.74,55.9,60.96,57.18,57.45z"/>
<path class="st21" d="M78.03,93.5c-1.74,0-3.49-0.01-5.23-0.01c-7.3,0-9.23,1.47-11.19,8.79c-0.25,0.93-0.62,1.52-1.36,2.06
	c-5.22,3.84-9.91,8.58-16.09,10.86c-2.82,1.04-2.97,3.96-5.07,5.31c-0.32-0.26-0.54-0.58-0.68-0.96c-0.22-0.73-0.47-1.66-0.06-2.19
	c2.62-3.46,2.22-8.38,5.82-11.45c2.09-1.78,3.17-4.56,3.9-7.17c1.05-3.72,3.57-6.45,5.38-9.65c1.98-3.51,3.83-7.28,4.78-11.27
	c1.45-6.07,4.92-10.82,9.1-15.21c0.73-0.77,1.55-1.3,2.65-0.94c1.14,0.37,1.37,1.38,1.48,2.39c0.2,1.87,0.09,3.75,0.14,5.62
	c-0.2,4.3-2.59,7.94-3.66,11.99c-0.52,1.99-0.47,4.2-1.78,5.97c-0.53,0.52-1.41,0.64-1.79,1.23c-0.45,0.7-1.39,1.23-0.52,2.51
	c1.01,1.48,1.61,0.14,2.38,0.03c0.36-0.05,0.7-0.21,1.07-0.29c2.74-0.24,5.49-0.27,8.21-0.04C76.81,91.18,78.83,91.01,78.03,93.5z"
	/>
<path class="st22" d="M39.07,119.74c0,0.26,0,0.51,0.01,0.77c1.19,3.61,2.59,4.76,6.12,1.71c2.76-2.39,6.77-1.84,10.35-1.73
	c-2.91,3.79-6.85,6.12-11.32,7.42c-1.86,0.54-3.08,1.31-3.68,3.09c-3.35,1.34-6.52,3.37-10.4,2.57c-1.28-3.87-0.47-5.69,3.87-8.78
	c1.13-0.92,2.18-1.86,2.76-3.28C37.17,120.53,37.59,119.38,39.07,119.74z"/>
<path class="st23" d="M87.93,123.33c-0.33-1.82-0.66-3.64-0.98-5.47c-0.05-2.75-2.36-6.13,2.12-7.62c0.35-0.19,0.73-0.32,1.12-0.4
	c2.14,1.85,0.72,4.76,2.03,6.86c1.85,2.42,2.16,5.3,2.44,8.19c0.77,3.03,3.51,0.93,5.06,1.94c-0.16,0.31-0.32,0.61-0.48,0.92
	c-1.36,0.09-2.73,0.17-4.1,0.26C91.57,128.25,88.84,127.21,87.93,123.33z"/>
<path class="st24" d="M80.31,65.01c1.26,4.99,2.52,9.98,3.78,14.97c0.46,1.6,2.2,3.16,0.13,4.82c-2.66-0.51-2.27-3.02-3.1-4.73
	c-1.28-4.52-2.27-9.12-3.71-13.6c-0.2-1.03-0.22-2.03,0.41-2.94C79.63,62.35,79.73,64.08,80.31,65.01z"/>
<path class="st25" d="M80.31,65.01c-0.78-0.46-1.08-1.61-2.23-1.53c-0.84-0.43-1.35-1.24-1.39-2.07c-0.09-2.37-1.82-2.38-3.44-2.62
	c-0.87-2.06,0.74-3.06,1.83-4.28c3.06,1.67,4.42-1.69,6.73-2.26c-0.06,0.85,0.17,1.89-0.24,2.51C79.41,58,78.58,61.33,80.31,65.01z"
	/>
<path class="st26" d="M78.03,93.5c-0.2-1.91-1.68-1.46-2.82-1.46c-3.08-0.01-6.16,0.06-9.23,0.1c-0.91-0.22-1.02-0.65-0.34-1.29
	c4.07-1.4,8.32-0.26,12.44-0.82c3.01,0.57,4.95-0.79,6.17-3.44c1.81,0.8,2.09,2.15,1.38,3.85C84.55,95.06,80.79,93.05,78.03,93.5z"
	/>
<path class="st27" d="M85.62,90.43c-0.49-1.24-0.98-2.48-1.48-3.72c-0.69-0.64-0.72-1.35-0.22-2.12c1.98-1.46-0.43-3.1,0.18-4.61
	C86.78,83.3,87.49,88.13,85.62,90.43z"/>
<path class="st28" d="M94.66,124.89c-1.04-2.66-2.08-5.32-2.44-8.19c0.39-0.37,0.28-2.05,0.72-1.22
	C94.46,118.34,95.74,121.46,94.66,124.89z"/>
<path class="st29" d="M84.38,110.01c-1.47-1.37-3.37-0.05-4.94-0.8c-0.12-0.03-0.25-0.03-0.36-0.09c-0.11-0.05-0.19-0.16-0.28-0.24
	c3.82,0,7.79-1.81,11.38,0.96c0,0-0.18,0.23-0.18,0.23C88.12,110.96,86.24,111.37,84.38,110.01z"/>
<path class="st30" d="M44.4,80.83c1.45-6.54,4.4-12.55,6.69-18.8c1.72,0.08,1.14,1.36,0.92,2.11c-1.25,4.18-0.84,8.55-1.59,12.78
	c-0.31,4.14-2.42,7.73-3.66,11.58c-2.44,7.51-4.68,15.1-7.58,22.46c-0.41,1.03-0.65,2.15-1.62,2.85c-1.15-0.13-2.59,0.66-3.26-1.02
	c2.74-10.28,7.22-19.98,10.1-30.22C44.56,81.97,44.82,81.42,44.4,80.83z"/>
<path class="st31" d="M44.4,80.83c1.11,3.86-1.09,7.14-2.12,10.52c-2.24,7.33-5.05,14.48-7.63,21.71c0.88,1.32,0.31,2.6-0.09,3.9
	c-1.54,4.95-3.85,9.62-5.33,14.6c-0.64,2.16-1.23,2.23-2.92,0.94c3.5-10.08,6.99-20.17,10.51-30.24
	C39.32,95.1,41.87,87.97,44.4,80.83z"/>
<path class="st32" d="M26.31,132.49c0.87,1.1,1.65,0.5,1.95-0.35c2.19-6.34,4.28-12.72,6.4-19.08c0.74,0.25,1.48,0.51,2.22,0.76
	c0.57,0.56,0.63,1.25,0.53,1.99c-0.95,2.9-1.82,5.81-2.62,8.76c-0.03,0.17-0.06,0.33-0.09,0.5c-2.74,2.06-4.75,4.53-4.57,8.22
	c-0.05,2.11-2.29,1.01-3.05,2.07c-0.58,0.12-1.13,0.19-1.44-0.48C25.68,134.02,25.4,133.09,26.31,132.49z"/>
<path class="st33" d="M49.6,77.17c0.44-4.3-0.19-8.76,1.79-12.84c0.4-0.82,0.6-1.64-0.31-2.3c0.61-2.54,0.63-5.26,2.24-7.51
	c1.38,1.25,0.49,2.47,0,3.73c-0.96,2.48-1.39,4.99-0.04,7.49c0.31,0.27,0.49,0.61,0.56,1.02c-0.24,2.84-1.57,5.37-2.36,8.05
	C51.22,75.73,51.15,77.13,49.6,77.17z"/>
<path class="st34" d="M134.43,58.87c-0.07,2.55-0.15,5.11-0.22,7.66c-4.34,4.16-8.35-0.49-12.54-0.64c-1.52-0.05-2.31-2.44-2.34-4.3
	c-0.04-2.37,0-4.74,0-7.11c1.59-1.22,3.34-0.4,5-0.31c2.85,0.15,5.65-0.23,8.46-0.46c0.4,0.03,0.78,0.13,1.14,0.31
	C135.07,55.54,133.95,57.29,134.43,58.87z"/>
<path class="st35" d="M133.59,54.49c-4.75,1.08-9.5,1.1-14.24,0c-0.02-1.49-0.03-2.98-0.05-4.46c0.66-2.54-0.12-4.53-2.23-6.04
	c0.49-0.69,1.05-1.85,1.97-0.94c4.2,4.18,9.27,4.08,14.54,3.21l0,0C134.74,49,134.72,51.74,133.59,54.49z"/>
<path class="st36" d="M134.43,58.87c-1.15-1.4-0.92-2.86-0.2-4.34c-0.46-2.75-0.39-5.5-0.04-8.25c0.07-6.49,0.15-12.98,0.22-19.47
	c0.2-0.39,0.4-0.39,0.59,0c0.02,9.37,0.07,18.73,0.03,28.1C135.03,56.23,135.43,57.68,134.43,58.87z"/>
<path class="st37" d="M135.01,26.81l-0.3-0.02l-0.3,0.02c-0.04-1.76-0.09-3.52-0.14-5.28c0-2.21,0-4.43,0-6.64c0.24,0,0.49,0,0.73,0
	C135.01,18.86,135.01,22.84,135.01,26.81z"/>
<path class="st4" d="M134.19,46.28c0.01,2.75,0.03,5.5,0.04,8.25c-0.21-0.02-0.43-0.04-0.64-0.05c-0.01-2.74-0.01-5.49-0.02-8.23
	C133.78,46.25,133.99,46.26,134.19,46.28z"/>
<path class="st38" d="M53.4,66.59c-0.03-0.28-0.07-0.56-0.1-0.85c1.16-2.83,1.49-6.04,3.88-8.29c0.05,3.84-0.49,7.52-3.04,10.61
	C53.48,67.78,53.88,66.96,53.4,66.59z"/>
<path class="st2" d="M27.07,135.35c0.16-1.95,2.37-0.89,3.05-2.07c3.66,0.05,6.63-3.02,10.43-2.28c2.25,1.59,4.98,1.53,7.49,2.25
	C41.08,134.22,34.16,135.64,27.07,135.35z"/>
<path class="st39" d="M75.08,54.51c-0.02,1.65-1.98,2.65-1.51,4.47c0.43,0.39,0.6,0.88,0.62,1.44c-0.38,2.22-1.33,4.35-1.03,6.67
	c-0.5,1.16-0.96,2.35-2.46,2.54c-0.04-1.87-0.08-3.74-0.13-5.61c-0.02-0.75,0-1.59-0.92-1.83c-0.83-0.21-1.26,0.46-1.85,0.95
	c-6.87,5.74-8.16,14.49-11.46,22.05c-1.23,2.82-2.63,5.45-4.39,7.75c-2.6,3.41-2.77,7.81-5.28,11.16c-0.44,0.58-0.53,1.61-1.06,1.9
	c-4.5,2.38-2.9,8.21-6.38,11.18c-0.45,0.38-0.12,1.68-0.15,2.55c-2.05,1.29-1.53,4.69-4.38,5.32c0,0-0.17-0.1-0.17-0.1
	c0.41-3.18,1.69-6.11,2.66-9.13c1.38-3.7,2.57-7.48,4.17-11.1c0.45-1.02,0.67-2.19,2.11-2.28c3.05-2.49,3.2-6.39,4.51-9.68
	c2.13-5.34,4.33-10.58,8.01-15.07c1.56-1.91,2.37-4.3,2.46-6.54c0.23-5.82,3.69-10.44,7.97-12.18
	C69.5,57.72,71.93,55.41,75.08,54.51z"/>
<path class="st40" d="M43.45,102.45c-2.71,4.2-3.5,9.22-5.87,13.56c-0.27,0.26-0.55,0.26-0.83,0.01c0.04-0.73,0.08-1.47,0.12-2.2
	c3.29-7.59,5.92-15.43,8.27-23.35c1.33-4.49,4.05-8.51,4.46-13.29c1.26-3.53,2.53-7.06,3.79-10.59c0.25,0.49,0.49,0.98,0.74,1.48
	c-0.87,5.99-3.73,11.38-5.24,17.18C47.37,91.07,44.47,96.46,43.45,102.45z"/>
<path class="st1" d="M65.42,87.54c-0.19,1.17-0.66,2.34,0,3.52c0.19,0.36,0.37,0.72,0.56,1.08c-0.76,0.58-1.53,1.15-2.6,1.96
	C63.67,91.52,60.52,88.35,65.42,87.54z"/>
<path class="st41" d="M84.38,110.01c1.88,0.02,3.75,0.04,5.62,0.06c-2.9,1.86-3.38,4.67-3.06,7.8
	C85.61,115.41,85.22,112.63,84.38,110.01z"/>
<path class="st42" d="M78.79,90.41c-0.92-3.72-1.83-7.44-2.75-11.16c0.81-1.84,1.83-1.17,2.72-0.15c0.89,1.02,1.77,1.63,3.1,0.85
	c1.16,1.34,0.57,3.45,2.06,4.65c0.07,0.71,0.15,1.41,0.22,2.12C83.91,90.96,82.73,91.77,78.79,90.41z"/>
<path class="st43" d="M81.86,79.95c-0.51,4.34-2.37,1.02-3.29,0.4c-0.83-0.56-0.86-2.44-2.53-1.1c-1.02-1.35-0.94-3.02-1.38-4.55
	c-0.28-3.05,3.09-4.99,2.49-8.13c0.28-0.27,0.58-0.3,0.9-0.07C80.1,70.76,80.86,75.39,81.86,79.95z"/>
<path class="st44" d="M78.05,66.5c-0.24,0.01-0.49,0.02-0.73,0.02c-2.57-1.16-1.87-4.34-3.67-5.97c-0.03-0.52-0.05-1.04-0.08-1.56
	c0.86-0.41,0.82-2.06,2.05-1.76c1.02,0.26,1.19,1.48,1.49,2.37c0.42,1.26,0.66,2.58,0.97,3.88C78.07,64.48,78.06,65.49,78.05,66.5z"
	/>
<path class="st45" d="M36.75,116.02c0.28,0,0.55,0,0.83-0.01c-1.02,2.98-2.04,5.97-3.06,8.95
	C33.97,121.66,35.47,118.86,36.75,116.02z"/>
<path class="st46" d="M73.65,60.54c3.46,0.62,2.32,4.06,3.67,5.97c1.14,1.8,0.82,3.4-0.58,4.91c-0.89,0.96-1.73,1.97-2.08,3.27
	c-0.69-2.62-1.38-5.24-2.08-7.87C71.79,64.54,72.49,62.5,73.65,60.54z"/>
</svg>
