<?xml version="1.0" encoding="utf-8"?>
<!-- Generator: Adobe Illustrator 19.0.0, SVG Export Plug-In . SVG Version: 6.00 Build 0)  -->
<svg version="1.1" id="Layer_1" xmlns="http://www.w3.org/2000/svg" xmlns:xlink="http://www.w3.org/1999/xlink" x="0px" y="0px"
	 viewBox="0 0 160 160" style="enable-background:new 0 0 160 160;" xml:space="preserve">
<style type="text/css">
	.st0{fill:#30BEEC;}
	.st1{fill:#40B5E6;}
	.st2{fill:#816BAA;}
	.st3{fill:#41B2E1;}
	.st4{fill:#1E2F5C;}
	.st5{fill:#352154;}
	.st6{fill:#7C63A1;}
	.st7{fill:#163962;}
	.st8{fill:#143B5B;}
	.st9{fill:#1A3E5E;}
	.st10{fill:#1B3E5C;}
	.st11{fill:#143B56;}
	.st12{fill:#183D5E;}
	.st13{fill:#A8CADF;}
	.st14{fill:#AACCE0;}
	.st15{fill:#173A63;}
	.st16{fill:#183D5F;}
	.st17{fill:#204E70;}
	.st18{fill:#C1DCEB;}
	.st19{fill:#144469;}
	.st20{fill:#C4E0F1;}
	.st21{fill:#2C99C1;}
	.st22{fill:#1A3D58;}
	.st23{fill:#3992BD;}
	.st24{fill:#BEE0F1;}
	.st25{fill:#2D6A8E;}
	.st26{fill:#6FB1D2;}
	.st27{fill:#B2CFDF;}
	.st28{fill:#4294BB;}
	.st29{fill:#15496F;}
	.st30{fill:#71BFE2;}
	.st31{fill:#0C5E8D;}
	.st32{fill:#83C7E8;}
	.st33{fill:#0D6395;}
	.st34{fill:#4588AF;}
	.st35{fill:#369FC4;}
	.st36{fill:#57B0D5;}
	.st37{fill:#7CC1E2;}
	.st38{fill:#7EC2E3;}
	.st39{fill:#68BCDE;}
	.st40{fill:#AED0E6;}
	.st41{fill:#53B8D7;}
	.st42{fill:#57799A;}
	.st43{fill:#3EB5D4;}
	.st44{fill:#09517B;}
	.st45{fill:#4581A4;}
	.st46{fill:#9ABFD8;}
	.st47{fill:#A9BDC8;}
	.st48{fill:#379EBF;}
	.st49{fill:#5B89AD;}
	.st50{fill:#3379A2;}
	.st51{fill:#115882;}
	.st52{fill:#164C6F;}
	.st53{fill:#478FB7;}
	.st54{fill:#B0CBDC;}
	.st55{fill:#93D1EC;}
	.st56{fill:#568AAC;}
	.st57{fill:#5AA0C2;}
	.st58{fill:#ACCADC;}
	.st59{fill:#1F5276;}
	.st60{fill:#486A88;}
	.st61{fill:#1C80AA;}
	.st62{fill:#88A3B7;}
	.st63{fill:#4B7596;}
	.st64{fill:#C5E3EE;}
	.st65{fill:#235070;}
	.st66{fill:#3EA1C7;}
	.st67{fill:#4B94B7;}
	.st68{fill:#7DAED3;}
	.st69{fill:#163E56;}
	.st70{fill:#477BA0;}
	.st71{fill:#ABCBDE;}
	.st72{fill:#4D91B3;}
	.st73{fill:#5183A5;}
	.st74{fill:#4C82A6;}
	.st75{fill:#5D7EA6;}
	.st76{fill:#7BAFD0;}
	.st77{fill:#B0CADE;}
	.st78{fill:#70A1C4;}
	.st79{fill:#246F93;}
	.st80{fill:#26618A;}
	.st81{fill:#69B8D9;}
	.st82{fill:#4E7F9F;}
	.st83{fill:#A7D0E7;}
	.st84{fill:#0E445A;}
	.st85{fill:#A5C3DB;}
	.st86{fill:#A6D6EE;}
	.st87{fill:#52A5BF;}
	.st88{fill:#5D92B4;}
	.st89{fill:#66B3D1;}
	.st90{fill:#3C6C94;}
	.st91{fill:#317099;}
	.st92{fill:#B8CEDF;}
	.st93{fill:#5888AB;}
	.st94{fill:#3D8FB6;}
	.st95{fill:#4A87A7;}
	.st96{fill:#366889;}
	.st97{fill:#398BB5;}
	.st98{fill:#245F88;}
	.st99{fill:#2C6174;}
	.st100{fill:#5D90B2;}
	.st101{fill:#1F4159;}
	.st102{fill:#A7CBE5;}
	.st103{fill:#79A8CA;}
	.st104{fill:#94B9D1;}
	.st105{fill:#96D1E9;}
	.st106{fill:#BBD6E5;}
	.st107{fill:#AECBDA;}
	.st108{fill:#AFC9D9;}
	.st109{fill:#A9C4D7;}
	.st110{fill:#A6C3D5;}
	.st111{fill:#B1D0E2;}
	.st112{fill:#2AB7E6;}
	.st113{fill:#153A5E;}
	.st114{fill:#2EB5E3;}
	.st115{fill:#48BBDF;}
	.st116{fill:#7CC9E8;}
	.st117{fill:#80CCEA;}
	.st118{fill:#52B9E0;}
	.st119{fill:#3FB3DD;}
	.st120{fill:#37AEDC;}
	.st121{fill:#58BCDC;}
	.st122{fill:#38AEDB;}
	.st123{fill:#144D72;}
	.st124{fill:#125981;}
	.st125{fill:#339DC5;}
	.st126{fill:#226E97;}
	.st127{fill:#5DC0E1;}
	.st128{fill:#43BBE2;}
	.st129{fill:#1D6A97;}
	.st130{fill:#1B3E6D;}
	.st131{fill:#B0DCEE;}
	.st132{fill:#357196;}
	.st133{fill:#1B4D72;}
	.st134{fill:#07567B;}
	.st135{fill:#1C5079;}
	.st136{fill:#278FB8;}
	.st137{fill:#164E78;}
	.st138{fill:#2C90BA;}
	.st139{fill:#37AFD5;}
	.st140{fill:#1A6991;}
	.st141{fill:#94CDE4;}
	.st142{fill:#134977;}
	.st143{fill:#065077;}
	.st144{fill:#1A6088;}
	.st145{fill:#246184;}
	.st146{fill:#32779D;}
	.st147{fill:#4281A5;}
	.st148{fill:#7FB8DA;}
	.st149{fill:#23648E;}
	.st150{fill:#5A90B5;}
	.st151{fill:#3498C3;}
	.st152{fill:#5297BB;}
	.st153{fill:#62BEE1;}
	.st154{fill:#38ADD3;}
	.st155{fill:#69BDE1;}
	.st156{fill:#246C8E;}
	.st157{fill:#7E9DC0;}
	.st158{fill:#316586;}
	.st159{fill:#93CFE7;}
	.st160{fill:#38A7CF;}
	.st161{fill:#1F5881;}
	.st162{fill:#359DBD;}
	.st163{fill:#056090;}
	.st164{fill:#3C779F;}
	.st165{fill:#82BDDC;}
	.st166{fill:#1F5A81;}
	.st167{fill:#2F7995;}
	.st168{fill:#93C4E3;}
	.st169{fill:#205676;}
	.st170{fill:#29769B;}
	.st171{fill:#C0D7E4;}
	.st172{fill:#3AA0CE;}
	.st173{fill:#85C6E4;}
	.st174{fill:#3087AA;}
	.st175{fill:#1E527D;}
	.st176{fill:#135C87;}
	.st177{fill:#3280AB;}
	.st178{fill:#3595C0;}
	.st179{fill:#44A4D0;}
	.st180{fill:#125881;}
	.st181{fill:#0B5688;}
	.st182{fill:#357AA5;}
	.st183{fill:#5D7EA3;}
	.st184{fill:#7CBCDD;}
	.st185{fill:#295A84;}
	.st186{fill:#528CB0;}
	.st187{fill:#0F518E;}
	.st188{fill:#42778F;}
	.st189{fill:#589ECC;}
	.st190{fill:#9CCDE7;}
	.st191{fill:#337DA2;}
	.st192{fill:#6B8DB0;}
	.st193{fill:#6285AA;}
	.st194{fill:#33A3CD;}
	.st195{fill:#B3BFD1;}
	.st196{fill:#7A96BB;}
	.st197{fill:#5E9BC6;}
	.st198{fill:#4E7095;}
	.st199{fill:#154775;}
	.st200{fill:#96B3D0;}
	.st201{fill:#5A799B;}
	.st202{fill:#ABC5DE;}
	.st203{fill:#5B7599;}
	.st204{fill:#406586;}
	.st205{fill:#285D7F;}
	.st206{fill:#2B6D91;}
	.st207{fill:#95C8E6;}
	.st208{fill:#557EA0;}
	.st209{fill:#33A1CE;}
	.st210{fill:#33ADDA;}
	.st211{fill:#24648C;}
	.st212{fill:#5886A9;}
	.st213{fill:#6EA9C9;}
	.st214{fill:#16435E;}
	.st215{fill:#A6D8F3;}
	.st216{fill:#CCDCE3;}
	.st217{fill:#1E3A6A;}
	.st218{fill:#6F86A4;}
	.st219{fill:#5C7DA7;}
	.st220{fill:#A2CCE4;}
	.st221{fill:#5980A6;}
	.st222{fill:#5A738B;}
	.st223{fill:#C8E6F5;}
	.st224{fill:#B3DFF3;}
	.st225{fill:#264C6B;}
	.st226{fill:#173A59;}
	.st227{fill:#257BA4;}
	.st228{fill:#4C779B;}
	.st229{fill:#6699BD;}
	.st230{fill:#3B698D;}
	.st231{fill:#30536B;}
	.st232{fill:#32B3DE;}
	.st233{fill:#134E79;}
	.st234{fill:#195679;}
	.st235{fill:#2086B0;}
	.st236{fill:#5E9FC3;}
	.st237{fill:#427A9D;}
	.st238{fill:#264F75;}
	.st239{fill:#1B4669;}
	.st240{fill:#8AB4D7;}
	.st241{fill:#75A8C7;}
	.st242{fill:#1F6A8F;}
	.st243{fill:#1B4873;}
	.st244{fill:#1A4262;}
	.st245{fill:#6088A9;}
	.st246{fill:#5390B8;}
	.st247{fill:#174C71;}
	.st248{fill:#5D85A8;}
	.st249{fill:#7AA1C5;}
	.st250{fill:#6086AA;}
	.st251{fill:#96D7ED;}
	.st252{fill:#408BAF;}
	.st253{fill:#8ACFEB;}
	.st254{fill:#2BA4C8;}
	.st255{fill:#2CA9CF;}
	.st256{fill:#247BA5;}
	.st257{fill:#2476A1;}
	.st258{fill:#227DA8;}
	.st259{fill:#2792BF;}
	.st260{fill:#2DA2CC;}
	.st261{fill:#4FC0DC;}
	.st262{fill:#40B0D9;}
	.st263{fill:#1B618E;}
	.st264{fill:#2A75A1;}
	.st265{fill:#116091;}
	.st266{fill:#5FBADC;}
	.st267{fill:#76BAD8;}
	.st268{fill:#347899;}
	.st269{fill:#66B7DB;}
	.st270{fill:#56BADA;}
	.st271{fill:#27668A;}
	.st272{fill:#5D9EBE;}
	.st273{fill:#2986B3;}
	.st274{fill:#2CA1CB;}
	.st275{fill:#79BEDD;}
	.st276{fill:#67ACD6;}
	.st277{fill:#6093C1;}
	.st278{fill:#318CB2;}
	.st279{fill:#57B5CB;}
	.st280{fill:#68B9DC;}
	.st281{fill:#8BCFEA;}
	.st282{fill:#33AEDD;}
	.st283{fill:#37B6DA;}
	.st284{fill:#B0DFF3;}
	.st285{fill:#64B0D6;}
	.st286{fill:#30A1C5;}
	.st287{fill:#37A3BD;}
	.st288{fill:#084766;}
	.st289{fill:#3386B1;}
	.st290{fill:#80C6E9;}
	.st291{fill:#30638D;}
	.st292{fill:#91BAD5;}
	.st293{fill:#154366;}
	.st294{fill:#218CBE;}
</style>
<g id="XMLID_645_">
	<g id="XMLID_2_">
		<path id="XMLID_639_" class="st0" d="M3.9,7.6C3.3,4.5,4.5,3.8,7.6,3.9C56.7,4,105.8,4,154.8,3.9c2.1,0,2.5,0.4,2.5,2.5
			c-0.1,49.5-0.1,99,0,148.4c0,2.1-0.4,2.5-2.5,2.5c-49.5-0.1-99-0.1-148.4,0c-2.1,0-2.5-0.4-2.5-2.5C4,106.2,3.9,57.5,3.9,8.9
			c3.5-1.3,4.4-0.7,4.6,2.8c0.1,3-0.6,6.1,1.1,8.9c0.3,8.8,0.2,17.6,0,26.4c-0.9,1.4-1.1,3-1.1,4.7c0,32,0,64,0,96c0,4.2,0.8,5,5,5
			c43.6,0,87.3,0,130.9,0c1.3,0,2.7,0,3.9-0.7c2.2-0.7,3.4-2.1,3.1-4.6c-0.1-0.9,0-1.8,0.6-2.7c0.8-1.4,0.6-3,0.6-4.5
			c0-42,0-84,0-126c0-5.2-0.6-5.8-5.8-5.8c-44.8,0-89.7,0-134.5,0C9.5,8.5,6.7,8.4,3.9,7.6z"/>
		<path id="XMLID_638_" class="st1" d="M8.6,20.5c-2.1-2.4-1-5.3-0.9-7.9c0-2.9-0.8-4.2-3.8-3.7c0-0.4,0-0.8,0-1.2
			c3.2-1,6.5,0.1,9.7,0C58.4,7.6,103.2,7.6,148,7.6c5.3,0,5.7,0.4,5.7,5.5c0,42.9,0,85.9,0,128.8c0,1.3,0.8,3-1.2,3.7
			c-1.5-1.2-0.9-2.8-0.9-4.3c0-41.4,0-82.7,0-124.1c0-7.4-0.1-7.5-7.6-7.5c-42.4,0-84.8,0-127.1,0c-0.2,0-0.4,0-0.6,0
			c-6.3,0-6.3,0-6.4,6.2C9.7,17.6,10.3,19.3,8.6,20.5z"/>
		<path id="XMLID_637_" class="st2" d="M8.6,20.5c0.1-3,0.2-5.9,0.2-8.9c-0.1-2.2,0.8-2.9,2.9-2.8c4.8,0.1,9.6,0,14.4,0
			c39.7,0,79.5,0,119.2,0c1.1,0,2.2,0.1,3.4,0c2.7-0.1,3.6,1.4,3.6,3.8c0,3.9,0,7.8,0,11.6c0,39.7,0,79.5,0,119.2
			c0,0.7,0.1,1.4,0.1,2.1c0,1.3-0.1,2.6-0.1,3.9c-0.1,1.8-1.3,2.6-3,2.8c-1.1,0.8-2.3,0.6-3.5,0.6c-44.2,0-88.4,0-132.6,0
			c-4.2,0-4.9-0.7-4.9-4.7c0-32.7,0-65.3,0-98c0-1.1,0-2.3,0.4-3.3C8.6,38.1,8.6,29.3,8.6,20.5z"/>
		<path id="XMLID_636_" class="st3" d="M8.6,46.9c0.1,1.3,0.2,2.6,0.2,4c0,32.2,0,64.4,0,96.6c0,4.4,0.5,4.8,5,4.8
			c44.7,0,89.3,0,134,0c0.5,0,1,0.1,1.5,0.1c-0.4,1.6-1.7,1.2-2.8,1.2c-45,0-89.9,0-134.9,0c-2.8,0-4.1-1.2-4.1-4.1
			c0-33.2,0-66.4,0-99.6C7.6,48.8,7.5,47.7,8.6,46.9z"/>
		<path id="XMLID_635_" class="st4" d="M81.2,150.6c-0.2,0-0.4,0-0.6,0c-2.2,0.9-4.4,0.3-6.6,0.3c-19.4,0-38.7,0-58.1,0
			c-1.1,0-2.2,0.2-3.3-0.2c-2.4-0.4-1.7-2.3-1.9-3.8c0.6-1.1,0.3-2.2,0.3-3.3c0-38.4,0-76.7,0.1-115.1c0-2.6-1-5.3,0.1-7.8
			c2.1-0.3,2.3,1.3,2.5,2.6c0.3,1.5,0.1,3.1,0.1,4.6c0,37.4,0,74.7,0,112.1c0,1,0,2,0,3.1c0.1,3.9,0.5,4.4,4.5,4.4
			c11.3,0,22.7,0,34,0c1.7,0,3.5,0,5.2,0.3c1.7-0.2,3.4-0.1,5.1-0.1c4.8-0.4,9.5,0,14.3,0.1c0.6,0.1,1.1,0.1,1.7,0.1
			c4.2-0.6,8.4-0.2,12.6-0.3c2.9,0.2,5.8-0.3,8.7,0.3c12-0.6,24-0.2,36-0.2c0.7,0.1,1.4,0.2,2.1,0.2c2.1-0.2,4.1-0.7,6.3-0.4
			c2.8,0.4,3.5-0.5,3.6-3.4c0.1-1.2,0.1-2.4-0.2-3.6c-0.2-3.2-0.1-6.3-0.1-9.5c0-37.2,0-74.3,0-111.5c0-2.7-1-5.4-0.1-8.1
			c2.4-1.1,3.2-0.1,3.2,2.2c0,1,0,2,0,3.1c0,38.4,0,76.8,0,115.2c0,6-0.4,12-0.2,18.1c-0.2,0.9-1.1,0.4-1.6,0.8
			c-6.1,0.7-12.1,0.4-18.2,0.2c-5-0.1-9.9,0.4-14.9-0.3c-0.6,0-1.2,0-1.8,0c-3.2,0.6-6.5,0.3-9.7,0.2
			C96.4,150.7,88.8,151.2,81.2,150.6z"/>
		<path id="XMLID_634_" class="st5" d="M11.3,20.5c0,40.7,0,81.5,0,122.2c0,1.4,0.4,2.9-0.6,4.1c0-7.1-0.1-14.3-0.1-21.4
			c0-32.1,0-64.3,0-96.4c0-1.2-0.1-2.4-0.1-3.7c-0.2-4.2,0-8.4-0.2-12.5c-0.1-2.2,0.8-2.7,2.7-2.4c0.3,0,0.6,0,0.9,0
			c44.4,0,88.8,0,133.3,0c1.1,0,2.2-0.3,3.3,0.3l0,0c0.6,0.9,0.3,2,0.3,3c0,39.9,0,79.8,0,119.7c0,1,0.2,2-0.3,3
			c-0.1,4.5-0.2,8.9-0.3,13.4c-0.7-1.8-0.3-3.6-0.3-5.5c0-43.1,0-86.2,0-129.3c0-1.7,0.7-4-2.4-3.7c-1.5,1.7-3.6,1.3-5.5,1.3
			c-29.3,0-58.6,0-87.9,0c-11.8,0-23.7,0-35.5,0c-4.9,0-5.4,0.5-6,5.2C12.4,18.9,12.2,19.8,11.3,20.5z"/>
		<path id="XMLID_633_" class="st6" d="M150.5,10.7c-39.8,0-79.7-0.1-119.5-0.1c-5.5,0-11,0.1-16.5,0c-2.9-0.1-4,0.8-3.9,3.8
			c0.2,3.7,0,7.3-0.1,11c-0.8-4.7-0.4-9.5-0.6-14.2c0-1.1,1-1.2,2-1.2c44.9,0.1,89.8,0.1,134.8,0.1C148,10.1,149.4,9.6,150.5,10.7z"
			/>
		<path id="XMLID_632_" class="st6" d="M150.5,136.4c0-6.5-0.1-13.1-0.1-19.6c0-35.4,0-70.7,0.1-106.1c1,0.9,0.6,2.1,0.6,3.2
			c0,39.8,0,79.5,0,119.3C151.1,134.3,151.4,135.5,150.5,136.4z"/>
		<path id="XMLID_631_" class="st6" d="M12.6,150.6c9.4-0.1,18.7-0.2,28.1-0.2c13.3,0,26.7,0.1,40,0.1c-1.3,1-2.7,1.2-4.3,0.8
			c-1.1-0.3-2.2-0.2-3.3-0.2c-19,0-37.9,0-56.9,0C14.9,151.1,13.6,151.4,12.6,150.6z"/>
		<path id="XMLID_630_" class="st6" d="M115.6,150.6c11,0,22.1,0,33.1,0c-3.4,1-7.1,1.3-10.4,1c-6.4-0.6-12.8-0.2-19.2-0.4
			C117.9,151.1,116.6,151.5,115.6,150.6z"/>
		<path id="XMLID_629_" class="st6" d="M81.2,150.6c10.8,0,21.7,0,32.5,0c-0.7,0.6-1.5,0.6-2.3,0.6c-9.3,0-18.6,0-27.9,0
			C82.7,151.1,81.9,151.2,81.2,150.6z"/>
		<path id="XMLID_628_" class="st7" d="M11.3,20.5c0.3-2.3-0.4-4.6,0.6-6.9c0.8-1.8,1.8-2.4,3.7-2.3c6.8,0.1,13.7,0,20.5,0
			c37.1,0,74.2,0,111.3,0c1.3,2.1,1.3,4.4,1.3,6.8c0,41.1,0,82.2,0,123.2c-0.7,0.7-1.4,1.3-2.4,1.5c-0.9,0.2-1.8,0.2-2.8,0
			c-1.3-0.4-2.6-1-4.1-0.8c-1.6-0.5-3.1,0.5-4.6,0.7c-0.5,0.1-1,0-1.4-0.1c-3.8-0.7-7.7,0.1-11.5-0.4c-1.7-0.2-2.9-2.7-5-1.1
			c-1.8-0.4-3.3,0.6-4.9,1.1c-0.3,0-0.5,0-0.8,0c-1.1,0-2.2,0.3-3.3,0.5c-2.3,0.2-3.5,2.2-5.4,3.1c-0.3,0.1-0.6,0.1-0.8,0.1
			c-1.2-0.3-1-1.5-1.4-2.5c-1.3,1.2,0.1,2.1,0.3,3.1c-0.1,0.8-0.3,1.5-0.8,2.1c-2.9,0-5.7,0-8.6,0c-0.7-1.1,0.5-2,0.2-3
			c-0.3-0.9-0.2-1.9-1.1-2.5c-0.5-0.2-1.1-0.3-1.6-0.5c-2.8-0.4-5.6-0.3-8.4-1.2c-1.5-0.5-2.9-0.4-4.4,0.3c-2,1-4.2,0.3-6.3,0.5
			c-2.3,0.1-4.7,0.4-7-0.6c-1.2-0.5-1.1-3.6-3.5-1.7c-2.6,2.1-2.8,3.8-0.8,6.5c0.2,0.7,0.4,1.5-0.1,2.1c-13.7,0-27.4,0-41,0
			c-4.1,0-4.4-0.3-4.4-4.3c0-39.9,0-79.8,0-119.7C12.5,23.2,13,21.5,11.3,20.5z"/>
		<path id="XMLID_627_" class="st8" d="M99.6,148.7c0-0.8-0.6-1.8,0.8-1.9c0.3-0.8,1.1-0.9,1.7-1.1l-0.1,0c1.7-0.9,3.6-0.9,5.4-1.1
			c0.5,0.1,1,0.3,1.5,0.3c3.7,0.4,4.2-0.1,2.8-3.5c1.7-0.5,3.1-2.9,5.2-0.8c1.6-1,2.8,0,4.1,0.6c4.3,0.3,8.6-0.4,12.9,0.4
			c0,0.2,0,0.4,0,0.6c0.3,0.8-0.7,1.8,0.4,2.4c0.3,0.1,0.6,0,0.8-0.2c0.8-0.9,0-1.7,0-2.5c1.3-0.8,2.6-1.8,4.3-0.7
			c0.1,0.4,0.2,0.9,0.2,1.3c-0.7,2.2-1.2,4.6-3.3,6.1C124.2,148.7,111.9,148.7,99.6,148.7z"/>
		<path id="XMLID_626_" class="st9" d="M69.6,141.3c2.9,0.3,5.6-1,8.4-1.1c3.7-0.1,7.5,1,11.3,1.6c0.2,0.8,0,1.5-0.3,2.3
			c0.7,1.4,2.5,0.4,3.3,1.6c0.2,1.2-0.7,2-1.2,2.9c-4.3,0-8.6,0-12.9,0c-1.4-1.9,1.2-2.9,1-4.2c-0.1,0.3-0.4,1-1,1.4
			c-0.3,0.1-0.5,0.2-0.8,0.2c-1.3-0.2-2-0.9-1.6-2.4c-1.2,0.8-2.1,1.9-3.6,1.2c-0.7-1.1-2.2-1.4-2.8-2.7
			C69.3,141.8,69.4,141.6,69.6,141.3z"/>
		<path id="XMLID_625_" class="st10" d="M139,142.2c0.2-0.3,0.3-0.6,0.5-0.9c1.4-0.7,2.7-0.2,3.8,0.8c0.2,0.4,0.1,0.8,0.1,1.2
			c-0.1,0.5-0.5,1.2,0.4,1.5c0.8,0.3,1.4-0.1,1.6-0.9c0.2-0.7,0.5-1.3,0.8-1.9c0.8-0.4,1.6-0.7,2.5-0.7c0,0.9,0,1.8,0,2.8
			c0,4.4,0,4.7-4.4,4.4c-2.1-0.1-4.1,0.3-6.2,0.1c-1-1.1-0.1-2,0.3-3.1C138.8,144.5,139.9,143.5,139,142.2z"/>
		<path id="XMLID_624_" class="st11" d="M69.6,141.3c0,0.2,0,0.4,0,0.7c-0.4,3.3-1.7,4.1-4.1,2.2c-1.8-1.4-2,0-2.6,1
			c-0.3,1.1,1.1,2.3-0.1,3.5c-1.6,0-3.3,0-4.9,0c-0.2-0.6-0.4-1.3-0.5-1.9c0.3-0.5,0.3-0.9-0.1-1.4c-1.3-1.7-0.6-3.2,0.6-4.6
			c1.5-1.7,2.9-0.9,4.3,0C64.6,141.9,67.1,141.1,69.6,141.3z"/>
		<path id="XMLID_623_" class="st12" d="M62.8,148.7c0.7-1.6-2.3-1.9-1.3-3.7c3.6-0.1,7.2,0.5,10.8,0c1.8-0.1,3.6,0.3,5.3,0.6
			l-0.1,0c1.1,1.3,0.1,2.2-0.6,3.1c-4-0.2-8.1,0.5-12-0.5C64.2,148.1,63.5,148.5,62.8,148.7z"/>
		<path id="XMLID_622_" class="st13" d="M139,142.2c1.2-0.4,2.1-0.7,1.2,1.2c-0.7,1.7-2.1,3.2-2.1,5.2c-0.6,0-1.2,0-1.8,0
			C136.8,146.3,138.3,144.4,139,142.2z"/>
		<path id="XMLID_621_" class="st14" d="M76.9,148.7c0.2-1,0.4-2,0.6-3.1c1.4-0.9,0.9-3.2,3.1-3.9c0.1,2.8-2.1,4.6-2.5,6.9
			C77.7,148.7,77.3,148.7,76.9,148.7z"/>
		<path id="XMLID_620_" class="st15" d="M48.7,99.6c-3.3,4-5.1,4.4-10.7,2.4c-3-1.1-5.2-4.5-5.2-8.6c0-1.9-0.1-3.8,0.8-5.7
			c1.3-2.7-0.6-5.2-3.6-5.3c-0.2,0-0.4,0-0.6,0c-1.9-0.1-4.1,0.2-5.1-1.8c-1.1-2.3,0.1-6.7,1.9-8.2c1.6-1.3,1.8-3.1,1.4-5
			c-0.2-0.9-0.7-1.9,0-2.6c2.7-2.8,1.7-6,0.8-8.9c-0.9-2.9-1.8-5.8-1-8.7c0.8-3.1,1.2-6.7,4.8-8.4c0.9-0.4,0.5-1.7,0.6-2.6
			c0.1-1.3,0.3-2.6,1.8-2.8c1.4-0.1,3.1-0.7,3.9,1.4c0.6,1.5,1.3,1.9,2,0c0.2-0.5,0.4-0.7,0.8-0.3c0.2,0.2,0.4,0.4,0.6,0.7
			c0.8,1,0,1.9-0.2,2.8c-0.2,0.9-0.8,1.5-1.4,2.1c-0.5,0.4-1.1,0.9-1.8,0.8c-1.4,0.1-0.3,1.4-0.8,1.9c-0.8,1.5-1.3,3-1.5,4.7
			c-0.7,2.2-0.8,4.5-1.2,6.7c0,0.3-0.1,0.6-0.1,0.9c-0.9,1.9-1,3.9-0.7,6c-0.6,2.3,0,4.7,0.4,7c0.3,2.5,2.7,1.5,4.3,1.7
			c4.5,0.2,8.9,0.9,13.4,1.3c1.5,0.4,1.7-1,2.3-1.8c1.4-1,1.9-2.6,2.9-3.9c1-1.3,1.1-3.1,2.2-4.4c0.1-0.3,0.2-0.6,0.4-0.8
			c1.7-2,1.4-3.6-0.9-4.9c0.4-1.7,2.1-1.1,3.2-1.7c0.4-0.1,0.8-0.2,1.1-0.3c0.7-0.3,1.1-1.1,1.7-1.6c0.5-0.4,1-1,1.6-1.3
			c1.3-0.4,2.1-1.3,3-2.4c1.6-2,2.6-1.8,3.6,0.5c0.5,1.2,0.3,2.6,0.4,3.9c0.1,0.9-0.4,1.7-0.7,2.5c-0.5,1.3-2.1,1.8-2.5,3.2
			c-0.3,0.5-0.4,1-0.6,1.5c-0.2,0.9-0.8,1.7,0.3,2.4c3.9,1,7.8,0.7,11.7,0.1c2.9-0.5,1.1-2.9,1.4-4.5c-0.3-1.4,0.6-2.9-0.2-4.4
			c-0.4-0.9-0.8-1.7-1.1-2.6c-0.1-0.4-0.1-0.8-0.1-1.2c0.2-0.9,0.4-1.7-0.2-2.6c-0.2-0.6-0.4-1.3-0.4-1.9c0.1-0.9,0.4-1.9-0.3-2.7
			c-1-0.9-1.4,0-1.9,0.6c-0.6,0.7-0.8,1.7-1.3,2.4c-0.2,0.5-0.5,1-0.8,1.4c-0.4,0.6-0.9,1.1-1.6,1.5c-2.7,0.6-3.3-1.2-3.6-3.1
			c-0.2-1.2,0.2-2.4,0-3.6c0-1.3-0.4-2.7,0.9-3.7c0.2-0.2,0.4-0.4,0.7-0.5c1-0.5,2-1,1.6-2.4c-0.1-0.3-0.1-0.5,0-0.8
			c0.6-1,1.8-1.5,2-2.8c0.6-1.2,0.7-2.6,1.5-3.7c0.2-0.8,0-1.5-0.3-2.2c-0.2-0.6-0.3-1.2,0.3-1.6c1.5-1,3.3-0.2,4.9-0.9
			c1.6-0.1,3.2,0.1,4.8,0.1c0.7,0.2,1.4,0.4,2,1c0.2,0.4,0.3,0.8,0.2,1.2c-0.8,1.2-2.2,1-3.3,1.4c-0.5,0.2-1.1,0.5-0.8,1
			c1,1.8,0.6,4,1.9,5.7c0.2,0.4,0.3,0.8,0.3,1.2c0.2,1.1,0.3,2.2,0.6,3.3c0.7,1.4-0.6,3.3,1,4.5c0.4,0.4,0.9,0.5,1.4,0.5
			c0.7,0,1.2-0.2,1.2-1c0.1-0.9,0.5-1.5,1.3-1.7c1.2-0.3,0.5-1.2,0.5-1.9c0.1-0.8,0.3-1.5,0.9-2c1.1-0.6,2-0.1,2.9,0.6
			c0.4,0.2,0.7,0.6,1,0.8c0.5,0.5,0.9,1.1,1,1.8c-0.1,1.3,0.6,2.4,1.4,3.3c0.3,0.5,0.5,1,0.7,1.5c0.2,1.2,0.3,2.4,1.7,2.9
			c1.7,1.3,1.7,3,1.2,4.8c-0.1,0.3-0.3,0.5-0.5,0.7c-0.9,0.5-1.8,0.9-2.9,0.9c-2.3,0.1-3.3-2.5-5.6-2.5c-0.3-0.1-0.5-0.3-0.7-0.5
			c-1.2-3.2,1.3-2.5,2.9-3c-1.1-0.8-2.3-1.5-3.7-1.6c-0.7,0.1-1.4,0.2-2.1,0c-0.9-0.1-1.8-0.3-2.3,0.7c-0.1,0.3-0.1,0.5-0.1,0.8
			c0.7,2,0.2,4.2,1.2,6.2c0.2,0.4,0.4,0.7,0.5,1.1c0.2,0.9-0.2,1.9,0.1,2.8c0,1.1,0.7,2.1,0.7,3.2c1.3,4,1.8,4.3,4.7,2.4
			c0.4-0.6,0.9-1.1,1.4-1.6c1.6-1.8,1.2-3.4-0.8-4.7c-0.8-0.5-2.7-0.6-1.7-2.4c2.5-1.2,5.3-0.3,7.8-1.3c2.7-0.5,5-2.4,8-2.3
			c0.9,0,2.4-1,2.6-2.5c0.1-0.3,0.3-0.5,0.6-0.6c2.5-0.7,2.1,1.8,3.2,2.8c0.6,0.7,1.2,1.4,2.3,1.1c0.4,0,0.9,0,1.3,0
			c1.1,0.1,2.2,0.1,2.4,1.6c0,0.3-0.1,0.6-0.3,0.8c-0.8,0.7-1.8,0.8-2.8,1.2c-1.6,1.7,0.6,2.6,0.8,3.9c0.6,0.8,1.7,0.6,2.5,1.1
			c0.2,0.2,0.4,0.4,0.5,0.7c0,0.7-0.3,1.2-0.9,1.5c-1.3,0.3-2.4,0.8-3.4,1.7c-2.5,2-5.9,2.4-8.6,4.1c-2.3-0.1-1.7,1.6-1.8,2.9
			c-0.1,2,0,4-0.1,6c-0.1,2.2,0.1,4.2,1.5,5.9c0.3,0.9,0,1.7-0.4,2.5c-2.7,2.3-4.3,2.3-7.5,0c-0.4-0.6-0.4-1.2-0.4-1.9
			c-0.3-1.7,0-3.4-0.3-5.2c-0.3-1.8-1.1-2.6-3-2.6c-4.4-0.1-4.7,0.1-3.9,4.6c0.2,1.3,0.4,2.6,0.6,3.9c0.1,2.1,0,4.1-0.8,6.1
			c-2.7,3.4-4.9,3.1-6.7-0.9c-0.4-0.8-0.2-1.7-0.7-2.4c-0.4-0.5-1.1-0.8-1.4-1.5c-0.2-0.7,0.2-1.4,0.2-2c0.1-1.9-0.4-3.7-0.3-5.6
			c-0.1-1.1-0.9-1.3-1.7-0.9c-3.1,1.4-6.6,1.9-9.6,3.4c-2.8,1.8-6.1,2-9,3.2c0.4,0.3,1.4,0.2,1.2,1.3c-1.5,1.7-3.4,0.7-5.2,1
			c-0.9,0-1.9,0-2.8,0c-1.9,0.1-3.5,1.4-5.3,1.8c-1,0.3-1.3,1.3-1.5,2.1c-0.7,1.5-1.3,3.2-3.1,3.8c-2.6,0.3-4.8-0.4-6.1-3
			c-0.5-2.5,1.7-4.1,1.9-6.4c0.3-1.2,1.3-1.8,2-2.6c1.1-1.7,2.6-3.3,3.1-5.3c0.2-0.6,0.4-1.2-0.3-1.7c-4.4-1.5-9.1-1.1-13.6-1.6
			c-0.8,0-1.9-0.4-1.5,1c0.7,2.7,0.6,6.1,4.1,7.2c0.3,0.1,0.5,0.3,0.7,0.5c0.4,0.5,0.5,1.1,0.4,1.7c-0.1,0.4-0.3,0.8-0.5,1.2
			c-0.8,1.2-0.2,2.8-1.1,3.9c-2.2,2.3-1.5,5.1-1,7.7c0.2,1.2,1.5,1.5,2.7,1.6c2.2,0.2,4.4,0,6.5-1.1C48.8,97.1,49.6,97.9,48.7,99.6z
			"/>
		<path id="XMLID_619_" class="st16" d="M89.8,25.5c0-0.4,0-0.9,0-1.3c0-1.2,0.9-1.2,1.7-1.2c2-0.1,4,0,6-0.1c1.1,0.1,2.2,0.5,3.3,0
			c1.1-0.2,2.7,0.5,2.4-1.7c3-1,3.8-0.5,6.1,3.8c-1.1,1-2.5,0.5-3.7,0.8c-0.8,0-1.7-0.4-2.5-0.2c-0.5,0.1-1.3,0.5-1.1,0.7
			c0.6,0.7,0.6-0.3,1-0.4c0.3-0.1,0.6-0.2,0.9-0.2c1,0,1.9,0.5,2.8,0.9c1.5,0.5,3.3,0,4.8,0.9c0.2,0.4,0.3,0.8,0.5,1.1
			c-0.3,0.9-0.8,1.8-1.1,2.7c-0.3,0.7-1.4-0.1-1.6,0.9c0.2,1-0.3,1.9-0.9,2.6c-0.8,1.3-1.9,1.6-3.3,1.4c-1.6,0.1-3.5-1.2-4.4,1.1
			c-0.5,0.8-1.3,1.1-2.2,1.2c-0.2-0.2-0.4-0.3-0.6-0.5c-0.6-0.8-0.7-1.9-1.5-2.6c-0.5-0.7-1.1-1.5-1.1-2.4c0-0.6,0.2-1.1,0.5-1.6
			c0.5-1.4-1.4-2.2-1-3.5c0-0.4,0.1-0.8,0.4-1.2c0.7-0.6,1.5-0.5,2.2,0c-0.4-0.3-0.8-0.6-1.3-0.6c-1.5,0.8-3.2,1-4.8,1.3
			c-0.3,0-0.6-0.1-0.9-0.2C89.9,26.6,89.5,26.2,89.8,25.5z"/>
		<path id="XMLID_618_" class="st17" d="M40.8,37.9c0.3-0.9,0.7-1.8,1-2.6c0.3-0.2,0.6-0.3,0.9-0.5c2.1,1.1,2.8-0.1,3.4-1.8
			c0.2-0.4,0.5-0.8,0.7-1.2c1.4-2.1,3.1-2.3,5-0.7c0.7-0.4,1.5-0.6,2.1-1.1c1.4-1.3,2.6-1,3.9,0c0.3,0.2,0.6,0.5,0.8,0.9
			c0.7,1.2,1.8,2.2,1.1,3.8c-0.2,0.6-0.6,1-1.1,1.4c-1.1,0.8-2.3,0.4-3.5,0.2c-0.4-0.1-0.7-0.3-1.1-0.5c1.3,1,2.9,1.4,4.5,1.5
			c0.8-0.1,1.5,0.1,2.1,0.7c0.8,1.7-0.4,1.9-1.5,2.1c-1.3,0.2-2.6-0.4-4,0c-1.4,0-2.9,0.5-4.3,0.1c-2.1-0.6-4.1-1.3-6.1,0.4
			c-0.5,0.5-1.3,0.4-1.9-0.2C42.3,39.3,41.6,38.5,40.8,37.9z"/>
		<path id="XMLID_617_" class="st18" d="M101.4,134.7c4.1-3.1,4-4.3-0.8-10.9c3.7,0,7.3,0,11,0c-0.9,2.2-4.2,3-2.8,5.9
			c1,2,2.2,3.8,3.4,5.9c-2,0.6-4,0.1-6,0.4c-1.1-0.7-2,0.4-3.1,0.2C102.3,135.9,100.9,136.5,101.4,134.7z"/>
		<path id="XMLID_616_" class="st19" d="M124.1,61.6c0.2-0.4,0.5-0.8,0.7-1.3c0.4-0.7,1.1-0.7,1.8-0.6c3,2.9,3.4,8.3,0.7,10.5
			c-1.4-1-0.5-2.4-0.7-3.5c0.1,1.2-0.4,2.7,0.6,3.9c0,0.3,0,0.5,0,0.8c-0.9,0.7-0.8,1.8-1.1,2.7c-0.5,1.2-0.8,2.4-2.7,2.2
			c-0.9-0.1-0.2,1.1-0.7,1.5c-0.7,0.9-1.4,1.6-2.7,1.3c-1.6-1.8-1.3-4.6-3.1-6.4c-0.1-0.4-0.1-0.9,0.1-1.3c2.3-1.7,3.4-4.1,3.9-6.9
			c0.2-0.2,0.5-0.3,0.8-0.3c1.6,0.4,1.1,1.7,1.2,2.6c0.3-1.3-0.4-2.6-0.1-4.1C123.1,62.2,123.6,62,124.1,61.6z"/>
		<path id="XMLID_615_" class="st20" d="M52.5,123.6c1.8-0.9,3.2,0.4,4.7,0.8c2.3,1,2.7,2.7,1.6,4.8c-0.4,2.7,0.2,6-3.8,6.7
			c-1.8,0.2-3.9,0.9-4.5-1.9c2.4-1.3,3.4-3.4,2.5-5.7c-0.6-1.5-0.8,0.1-1.2,0.3c-0.9,1.5-2,2.2-3.8,1.7c-1.6-0.9-1.6-2.2-1.1-3.7
			c0-0.7,0-1.4-0.6-2c0.5-1.5,1.8-0.6,2.8-0.8C50.1,123.7,51.3,124.1,52.5,123.6z"/>
		<path id="XMLID_614_" class="st21" d="M52.5,123.6c-1.9,1.5-4.4-0.5-6.3,1.1c-0.4,0-0.8,0-1.1,0c-1.6,0.3-3.2-0.6-4.8-0.2
			c-0.4,0.1-0.7,0.1-0.3,0.1c0.1,0,0.1,0.2,0.2,0.2c-0.1,3.6-0.8,7.2,0.6,11c-3.1,0.6-6.2-0.2-9.2,0c-0.3,0-0.6-0.4-0.8-0.3
			c-3.7,1.2-4.7-1.2-5.4-4c-0.7-0.5-1.7-0.8-1.9-1.9c-0.1-0.6,0-1.2,0.2-1.8c1.1-1.3,2.1-0.9,3,0.2c0.8,1,1.6,1.8,3,1.5
			c1,0.9,1.1,2.3,1.6,3.5c0.5,1.1,1.3,1.9,2.5,1.9c1.5,0,1.1-1.4,1.4-2.3c0.2-0.2,0.5-0.2,0.7-0.2c0.7,0.1,1.4,0.2,2-0.5
			c0.9-1.6,0.8-3.1-0.1-4.6c-0.4-0.5-0.9-0.9-1.3-1.3c-0.4-0.4-0.6-1.1-1.3-1.1c-0.3-0.2-0.9-0.4-0.9-0.6c-0.1-1.2,0.9-0.9,1.5-0.9
			c4.9,0,9.7,0,14.6,0.1C51.1,123.5,51.8,123.6,52.5,123.6z"/>
		<path id="XMLID_613_" class="st22" d="M98.4,38.3c0.4-0.8,1.1-1.2,2-1.3c1.8-0.8,3.8,0.3,5.5-0.8c0.9-0.2,1.7-0.6,2.6-0.8
			c0.6-0.1,0.6-0.7,0.9-1c0.2-0.2,0.5-0.3,0.8-0.3c1.6,0.1,2.8,1,4.1,1.8c0.6,0.2,1.3,0.2,2,0.2c0.8,0.1,1.7-0.3,2.4,0.3
			c0.6,0.3,1,0.7,1.2,1.3c-0.6,0.7-1.5,0.9-2.4,1.2c-0.6,0.2-1.3,0.3-1.2,1.1c0.1,0.8,0.8,0.7,1.4,0.8c0.6,0.2,1.5-0.1,1.7,0.8
			c0,0.3,0,0.5,0.1,0.8c-0.4,1.2-1.9,0.8-2.4,1.7c0.4,2,0.4,2,3.6,1.7c0.7,0.1,1,0.6,1.2,1.1c0,0.2,0,0.3,0,0.5
			c0.1,0.3,0.1,0.6,0,0.8c-0.3,0.3-0.7,0.6-1.1,0.7c-1.5,0-1.5,1.9-2.7,2.2c-1.8-0.2-0.5-3.5-3-3.1c-1.7-1.3-1.8-3.2-1.6-5.1
			c0-0.3-0.1-0.5-0.1-0.8c-0.4-1.1-0.8-2.3-2.3-2.5c-1.3,0.3-2.5,0.9-3.9,0.7c-1-0.3-2-0.6-3-0.1c-1.2,0.3-2.4,0.5-3.7,0.3
			c-0.4-0.1-0.8-0.4-0.8-0.9C99.2,39.2,98.8,38.8,98.4,38.3z"/>
		<path id="XMLID_612_" class="st23" d="M94.8,108.8c1,0.3,1.8,0.7,0.2,1.2c-1.7,0.6-3.5,1-5.3,1.3c-6.1,1.1-12.1,0.7-18.2-0.1
			c-0.4-1-0.1-1.8,0.5-2.6c2.3-1.1,4.8,0.3,7.2-0.4c3,0.5,6,0.4,9.1-0.1C90.4,107.8,92.8,107.2,94.8,108.8z"/>
		<path id="XMLID_611_" class="st24" d="M78.8,131.5c0-2.8-0.1-5.6,0.1-8.5c0.1-1.9,0.1-4.2,2.9-4.4c1.7,0.6,2.1,2,2.1,3.6
			c0,2.8,0,5.7,0,8.5c0,0.2,0,0.4,0,0.6c-0.2,1.7-1.2,3-2.8,3.2c-1.7,0.2-1.4-1.7-1.9-2.6c0.3-1.3,2.1-1.2,2.5-2.7
			c-1.4,0.3-1.4,1.8-2.3,2.3C79.3,131.7,79,131.7,78.8,131.5z"/>
		<path id="XMLID_610_" class="st25" d="M79.3,131.6c0.6,0.7,1.2,1.3,1.8,2c0.6-1.5,3.2-1.5,2.6-4c-0.5-2.2-0.3-4.7-0.1-7
			c0.2-1.8-1.7-2.5-1.8-4c2-0.8,4.1-0.8,6.2-0.5c-0.1,1.7-1.8,0.9-2.5,1.7c-1.6,0.3-1.3,1.6-1.3,2.6c0,2.9,0,5.7,0,8.6
			c0,1.8-0.4,3.8,2.3,4.8c-2.6-0.9-5,1.4-7-0.2c-1.3-1-2.3,1.2-2.8,0c-0.7-1.5,2-0.7,2-2.1c0-0.7,0.1-1.4,0.2-2.1
			C79,131.6,79.1,131.6,79.3,131.6L79.3,131.6z"/>
		<path id="XMLID_609_" class="st26" d="M114.9,125.4c-1.1-0.7-1.7-1.7,0.2-1.8c3.6-0.2,7.1-0.1,10.7-0.1c0.9,0,1.1,0.5,0.9,1.4
			c-0.7,3.3-0.9,6.6,0,9.8c0.3,1.1-0.4,1-0.9,1c-1.6,0.1-3.3,0.1-4.9,0.1c-0.7-1.1-0.4-2.2,0.3-3.1c0.3-0.3,0.6-0.6,1-0.7
			c1.4-0.3,2-1,2-2.5c0-1.9-1.2-2.1-2.5-2.4c-0.9-0.5-1.7-1.2-2.7-1.5C117.7,125,116.3,125.6,114.9,125.4z"/>
		<path id="XMLID_608_" class="st27" d="M62.3,124.3c2.2-0.9,4.4-1.6,6.6-0.1c1,0.5,1.2,1.3,0.6,2.2c-0.2,0.2-0.4,0.4-0.7,0.5
			c-0.6,0.1-1.1,0-1.7,0c-1.8,0.1-1.2,1.5-1.3,2.5c-0.2,1.6,0.3,3.4-1.1,4.8c-1.5,0.5-2.1-0.6-2.8-1.6c-0.7-1-1.2-2.1-2-3
			C59.1,127.1,60.2,125.4,62.3,124.3z"/>
		<path id="XMLID_607_" class="st28" d="M109.6,96.6c1.7-0.3,3.4-0.7,5.1-0.9c0.4-0.1,1,0.2,1.3,0.6c0.4,0.5-0.1,0.9-0.5,1.3
			c-2.3,2-4.3,4.5-7.1,5.8c-0.2,0.2-0.5,0.2-0.8,0.2c-0.9-0.5-1.6-1.2-2-2c0.1-2.2,2-3.2,3.4-4.4C109.1,96.9,109.3,96.8,109.6,96.6z
			"/>
		<path id="XMLID_606_" class="st29" d="M48.7,99.6c-0.2-1.1-0.5-2.2-1.8-2.4c-0.7-1.5,0.1-2.2,1.4-2.1c1,0.1,2,0,2.9,0.5
			c0.3,0.2,0.7,0.5,0.7,0.9c-0.3,2.4,1.4,3.6,2.9,4.9c0.8,1.2,2.2,1.5,3.4,2.1c0.2,0.2,0.4,0.4,0.6,0.6c1.3,1,2.8,1.6,4.4,2
			c0.8,0.2,1.7,0.3,1.5,1.5c-5.4,1.1-9-2.4-12.8-5.1C50.7,101.6,49.8,100.6,48.7,99.6z"/>
		<path id="XMLID_605_" class="st30" d="M99.8,129.1c-1.1,0.9-2.4,0.2-3.5,0.5c-0.7,0.1-1.8-0.3-2,0.8c-0.2,1.2,0.5,2.1,1.3,2.9
			c0.6,0.6,1.4,0.7,2.2,0.2c0.7-0.4,1.2-2.1,2-1.1c0.8,1-0.6,2.1-1.6,2.8c-0.6,0.5-1.3,1-2.2,0.6c-4.5-0.8-4.8-1.1-4.9-6.2
			c0-1.1-1.5-1.9-0.7-3.1c0.2-0.3,0.4-0.5,0.6-0.8c0.9,0,1.8-0.2,2.6,0.4c0.8,0.8,1.8,1.3,2.9,1.6C97.6,128.1,99,127.8,99.8,129.1z"
			/>
		<path id="XMLID_604_" class="st31" d="M57.9,31.1c0-0.4,0-0.9,0-1.3c0.5-1,2.6,0.2,2.4-1.7c0.1-0.2,0.2-0.3,0.3-0.5
			c0.7-0.6,1.5-0.8,2.3-0.7c4.9,0.6,9.7,0.3,14.6,0.4c0.7,0,1.4,0.2,1.9,0.8c-1.3,0.9-0.6,2.8-1.8,3.8c-0.2,0-0.3,0-0.5-0.1
			c-5.2-0.6-10.3-0.9-15.5-0.8c-0.9,0-1.8,0-2.7,0.4C58.6,31.3,58.2,31.2,57.9,31.1z"/>
		<path id="XMLID_603_" class="st32" d="M120.5,135.8c-2,0-4,0-6.3,0c1-2.8,0.3-5.4,0.7-8c2.7-0.9,3.1-0.6,4.3,3.1
			C120.3,132.4,120.7,134,120.5,135.8z"/>
		<path id="XMLID_602_" class="st33" d="M109.6,96.6c0,0.2-0.1,0.4-0.1,0.5c-1.4,0.7-2.5,2.4-4.4,1.5c-2.1-1-4.8,0.6-6.7-1.3
			c-0.6-2.5,1.6-2.1,2.7-2.8c3.7,0.1,6.9-1.2,9.3-4c2.6-0.3,3.3,0.3,2.6,2.6c-0.2,0.7-0.9,1.1-1,1.9c-0.8,0.7-1.7-0.4-2.5,0.1
			C108.2,95.8,108.2,96.2,109.6,96.6z"/>
		<path id="XMLID_601_" class="st34" d="M135.7,131c-3.9,1.2-4.1,1.7-2.1,4.5c-0.3,0.1-0.5,0.3-0.8,0.3c-1.6-0.4-3.8,1.4-4.6,0.2
			c-1.1-1.6,1.7-2,2.2-3.5c0.9-2.6,1.5-5.5,3.4-7.7c1,0.7,0.3,1.9,1,2.8c0.2,0.6,0.3,1.2,0.7,1.7C135.7,129.8,137.4,130.3,135.7,131
			z"/>
		<path id="XMLID_600_" class="st35" d="M139.5,121.7c1.7,3.3,3.3,6.7,4.4,10.3c0.2,1.1-0.3,1.4-1.3,1.5c-0.6-0.3-0.8-0.8-1-1.5
			c-0.5-1.2-0.8-2.5-2.6-2.1c-1.3,0.2-2-0.7-2.7-1.6c-0.7-0.9-1.3-1.9-1.4-3C136.3,123.9,138.2,123.3,139.5,121.7z"/>
		<path id="XMLID_599_" class="st36" d="M70.8,125.5c1.5,1.9,1.6,4.1,1.2,6.3c-0.7,3.2-2.2,4.1-6.7,4.1c-0.3-0.4-0.4-0.8-0.3-1.3
			c0.5-0.9,1.5-1,2.1-1.5c1.2-0.9,1.4-2.1,0.8-3.5c-0.5-1.2-0.5-2.4,1-3l0,0C69.5,126.1,70,125.6,70.8,125.5z"/>
		<path id="XMLID_598_" class="st37" d="M20.5,125.3c0.8-1.9,1.6-3.9,2.5-5.8c0.3-0.6,0.4-1.5,1.3-1.4c0.8,0,0.8,0.8,1.1,1.3
			c1.1,2.8,2.9,5.3,3.3,8.4c-1.8,0.7-2.5-0.9-3.4-1.8c-1.2-1.2-2-1-2.7,0.5c-0.2,0.4-0.5,0.8-0.9,0.9
			C20.4,127.2,20.3,126.4,20.5,125.3z"/>
		<path id="XMLID_597_" class="st38" d="M139.5,121.7c-0.2,2.6-2,3.4-4.2,3.8c0.4,1,0.2,1.8-0.8,2.2c-2.4-0.6,0-2.1-0.6-3.1
			c0.6-1.5,1.2-3,1.8-4.5c0.3-0.8,0.5-2,1.5-2.1c1.3-0.1,0.9,1.3,1.5,2C139.1,120.5,139.3,121.2,139.5,121.7z"/>
		<path id="XMLID_596_" class="st39" d="M105.8,101.5c1.1,0.1,1.7,0.6,1.7,1.7c-2.6,1.9-5.1,3.9-8.5,4.2c-0.6,0.1-1.2,0.2-1.8,0.2
			c-0.9,0.3-1.8,0.3-2.5-0.5c-0.3-0.9,0.2-1.4,0.8-2c2-1,3.5-2.9,5.8-3.4c0.3,0.1,0.5,0.2,0.7,0.4
			C103.4,103.1,104.4,100.8,105.8,101.5z"/>
		<path id="XMLID_595_" class="st40" d="M93.5,126.6c-0.9-0.1-1.9,0.1-2.5-0.8c1.5-2.4,3.7-3.3,6.2-2c2,1.1,3.6,2.7,2.6,5.4
			c-1.3-0.3-2.7,0.4-3.8-0.8C95.6,127.1,94.6,126.8,93.5,126.6z"/>
		<path id="XMLID_594_" class="st41" d="M50.6,141.4c-3.9,0.6-3.9,0.6-3.8-3.3c0-2,0.1-4,0.1-6c1.5-1.6,2.4-0.5,3.4,0.7
			c-0.3,1.9-0.4,3.7,0.4,5.5C51.1,139.2,51.2,140.3,50.6,141.4z"/>
		<path id="XMLID_593_" class="st42" d="M88,23.6c-1.5,0.9-2.9,0.6-4.4-0.1c-1,0-2,0.1-3,0c-1.5-0.2-2-0.8-1.2-2.2
			c4.5,0,9-0.1,13.5-0.1c0.4,1.5-0.5,2-1.7,2.1C90.1,23.3,89,23.3,88,23.6z"/>
		<path id="XMLID_592_" class="st43" d="M21.8,126c1.4-3.8,1.4-3.8,4.1-0.9c0.9,0.9,1.8,1.8,2.8,2.7c0.8,0.3,0.8,1.1,1.1,1.8
			c-1,2.1-2,2-3.2,0.1c-0.5-0.8-0.6-2.7-2.5-1.7C22.6,128.1,22.6,126.6,21.8,126z"/>
		<path id="XMLID_591_" class="st44" d="M78.2,24.3c0.2,0.4,0.4,0.7,0.6,1.1c-2.6,2.3-5.7,1.4-8.5,1.1c-4.2-0.5-8.3-0.2-12.5-0.7
			c-1-0.4-3.3,1.4-3-1.6c0.6-0.6,1.3-1.2,1.9-1.8c1.9,0.2,3.7,0,5.6,0.3c0.3,0,0.7,0.1,1,0.1c2.8,0.7,5.7,0.4,8.5,0.1
			c1.3-0.1,2.7-0.1,4,0.2C76.7,23.3,77.7,23.3,78.2,24.3z"/>
		<path id="XMLID_590_" class="st45" d="M75.7,24.1c-4.5-0.1-9,0.6-13.5-0.5c1.2-1.5,2.9-1.3,4.4-1c1.7,0.4,0.5-1.1,1.1-1.4
			c1.2-1.2,2.4-1.3,3.7-0.2c1.4,0.1,2.9,0.1,4.3,0.2C76.9,22.2,77.3,23.2,75.7,24.1z"/>
		<path id="XMLID_589_" class="st46" d="M62.3,140.7c-1.3,0.8-1.4,0.9-2-0.1c-0.4-0.7-0.8-0.5-1.1-0.2c-1.1,1-2,2.2-1.8,3.7
			c0.2,1.8,1.9,0.4,2.8,1.2c-0.7,0.9-1.8,1.2-2.8,1.5c-1.6-0.9-2.5-2.4-1.7-4.1c0.9-1.9,1.9-3.9,4.3-4.3
			C61.8,138,62.4,139.1,62.3,140.7z"/>
		<path id="XMLID_588_" class="st47" d="M119.3,41.6c-1.2,0.1-2.4,0.5-3.6,0.3c-1.3-0.2-1.2-1.6-1.4-2.7c-0.2-1.3,0.8-1.2,1.6-1.3
			c1.3-0.1,2.6-0.2,3.9-0.3C119.9,39.1,123.4,40.8,119.3,41.6z"/>
		<path id="XMLID_587_" class="st48" d="M90.3,126.5c1.7,1.1,2.8,2.1,1.5,4.6c-0.7,1.4,0.5,3.4,2.5,3.7c0.8,0.1,1.3,0.3,1.6,1
			c-2,0.7-3.9,0.4-5.1-1.4C89.3,132,88.7,129.3,90.3,126.5z"/>
		<path id="XMLID_586_" class="st49" d="M122.1,77.4c0.2-1.6,0.3-3.1,0.5-5c1.4,1,0.5,2.4,1.2,3.5c1.1-0.4,1.3-1.4,1.5-2.4
			c0.2-1.1,0.5-2,1.9-1.9c-0.5,3.3,0.1,6.9-2.4,9.7c-1-0.6-0.9-1.7-1.4-2.5C123,78.1,122.2,78.1,122.1,77.4z"/>
		<path id="XMLID_585_" class="st50" d="M124.2,84.9c-1.5,2.7-3,5.4-4.6,8.1c-0.6,1.1-1.7,1.3-2.9,1.2c-0.7-1.2,0-2,0.7-2.9
			c1.6-1.1,2.5-2.4,2.3-4.5c-0.1-1.5,0.2-3,1.9-3.8C123.1,82.9,124.6,82.7,124.2,84.9z"/>
		<path id="XMLID_584_" class="st51" d="M94.7,107c0.7,0.7,1.6,0.5,2.4,0.7c-0.8,0.4-1.6,0.7-2.4,1.1c-4.2,0.2-8.3,0.5-12.5,0.7
			c-1.2,0-2.5,0.3-3.5-0.6c0.2-0.7,0.7-1.1,1.3-1.4c1.9-0.3,3.6-1,5.5-1.1c2.2,0.3,4.4,0.8,6.6,0.2C93,106.4,93.9,106.4,94.7,107z"
			/>
		<path id="XMLID_583_" class="st52" d="M124.2,84.9c-0.5-1.9-2-1.1-3.2-1.2c-0.5,0.5-0.6,1.3-1.4,1.6c-1.2,0.1-2.4,0.3-3.2-1
			c-0.4-0.8-0.1-1.5,0.1-2.2c0.3-0.6,0.7-1,1.2-1.4c1.3-0.6,2.6-1.6,4.2-0.7c0.8,0.8,2,1,2.7,1.8C124.6,82.8,126.3,84.2,124.2,84.9z
			"/>
		<path id="XMLID_582_" class="st53" d="M54.8,24.1c0.3,2,1.8,0.1,2.5,0.7c1.1,0.8,4-0.2,3,2.8c0,0.1,0,0.2,0,0.3
			c-2.5-1.8-5.2,0.5-7.7-0.5c-0.5-0.2-1.3,0.3-1.6-0.5c-0.4-0.9,0.7-1.1,1.1-1.6C52.9,24.8,53.8,24.3,54.8,24.1z"/>
		<path id="XMLID_581_" class="st54" d="M111.7,141.4c0.1,1.6,2.9-0.5,2.5,2c-0.3,1.9-0.3,3.4-3,2.6c-1.3-0.4-3,1.4-3.9-0.9
			c0-0.3,0.1-0.5,0.3-0.7c1.1-1.1,2.3-2.3,3.8-2.9L111.7,141.4z"/>
		<path id="XMLID_580_" class="st55" d="M50.6,141.4c0-1.4,0-2.7-1.1-3.9c-1.5-1.6,0.1-3.2,0.4-4.7c0-1.3-2.1-1.5-1.8-3
			c1.5,0.2,2.4-0.4,3-1.8c2,1.9,1.8,4,0.3,6.1c0.3,1.6,0.3,1.6,3.7,1.9c-0.4,0.1-0.7,0.2-1.1,0.4c-0.9,0.3-2.2-1-2.6,0.3
			c-0.4,1.2-0.6,2.7,0.2,3.8C52.8,142.4,50.9,141.1,50.6,141.4z"/>
		<path id="XMLID_579_" class="st56" d="M64.7,107.6c-2.1-1.2-5.1-0.7-6.7-3c0.4-0.5,0.9-0.7,1.6-0.7c1.8,0.1,3.3,1.5,5.2,0.8
			c1.8-0.1,1.9-1.4,2-2.8c0.2-0.4,0.6-0.7,1.1-0.6c1.6,0.7,2.1,2.2,2.3,3.8c-0.1,1-0.4,1.8-1.1,2.5
			C67.5,107.6,66.1,107.6,64.7,107.6z"/>
		<path id="XMLID_578_" class="st57" d="M118.2,91.8c-0.5,0.8-0.9,1.6-1.4,2.4c-1.6,0.2-3.3,0.5-4.9,0.7c-1.2-1,0-1.8,0.3-2.7
			c0.8-2.2-0.7-1.2-1.5-1.2c0.6-2.2,1.1-2.4,3.4-1.2c0.8,1.6,2.3,0.4,3.3,0.8C117.9,91,118.1,91.4,118.2,91.8z"/>
		<path id="XMLID_577_" class="st58" d="M146.1,142c0.9,1.3,0.4,2.9-0.2,3.9c-0.6,1.1-2.3-0.1-3.6,0.4c-0.8,0.3-1.3-1-0.9-1.8
			c0.4-0.9,1.1-1.6,1.7-2.4C144.2,142,145.2,142,146.1,142z"/>
		<path id="XMLID_576_" class="st59" d="M71.5,21.1c-1.3,0.1-2.6,0-3.7,0.7c-1.6,0.8-3.1,0.8-4.3-0.8c1.3-0.3,0.7-1.6,1.3-2.3
			c2.3,0.7,4.6-0.9,6.9,0.2c2.3,0.1,4.9-1.1,6.6,1.5C76,20.9,73.6,19.8,71.5,21.1z"/>
		<path id="XMLID_575_" class="st60" d="M88,23.6c0.4-0.8,0.9-1.3,1.9-0.9c1.5,0.6,2.4-0.4,3-1.5c1.4,0.2,2.8,0.3,4.2,0.5
			c0.6,0.1,1,0.5,1.1,1.2c0,0.3-0.1,0.6-0.4,0.8c-2.6,1.3-5.4-0.3-8,0.6C89.1,24.2,88.4,24.3,88,23.6z"/>
		<path id="XMLID_574_" class="st61" d="M137,127.9c0.8,0.7,1.2,1.7,2.9,0.9c2.6-1.3,1.5,2,2.7,2.7c-1.4,1.7-2.9,1.3-4.4,0.1
			c-0.8-0.2-1.8,0.1-2.5-0.6c0.2-1.3-1.7-0.3-1.6-1.5C135.1,128.9,135.8,128,137,127.9z"/>
		<path id="XMLID_573_" class="st62" d="M135.2,142c1.9-0.1,1.9,0.8,1.8,2.4c-0.1,1.4-0.6,2.4-1.9,1.8c-1-0.4-2.5,1-2.9-0.6
			c-0.4-1.6,0.8-2.8,1.7-4C134.4,141.8,134.8,141.9,135.2,142z"/>
		<path id="XMLID_572_" class="st63" d="M88.6,19.9c-1.5,0.6-3.2,0.6-4.8,0.6c-0.6,0-1.6,0.3-1.7-0.7c-0.1-0.8,0.8-1.2,1.5-1.3
			c3.4-0.3,6.7-0.4,10.1-0.6c-0.3,1.3-1.5,1.1-2.3,1.3C90.4,19.5,89.3,19,88.6,19.9z"/>
		<path id="XMLID_571_" class="st64" d="M118.7,131.5c-1-1.5-0.8-4.2-3.7-3.7c0-0.8-0.1-1.6-0.1-2.4c1.2-2,2.8-1.4,4.4-0.6
			c0.6,1,0.6,2.1,0.5,3.2c-0.3,1.1,0,2.3-0.7,3.2C118.9,131.3,118.8,131.4,118.7,131.5z"/>
		<path id="XMLID_570_" class="st65" d="M107.6,34c0.5-0.6,0.9-1.2,1.4-1.9c0.5-0.6,1.2-0.6,1.8-0.9c1.6-0.7,3.2-0.4,4.8-0.3
			c1.3,0.3,1.8,1.5,2.4,2.5c-1.2,0.7-2.5,1.3-3.6,2.2c-0.3,0-0.5,0-0.8-0.1c-1.4-0.9-2.8-1.6-4.5-1.1C108.5,34.6,108,34.5,107.6,34z
			"/>
		<path id="XMLID_569_" class="st66" d="M63.4,21c1.5,0.2,3-0.3,4.3,0.8c0.4,0.7,1.5,0.6,1.7,1.8c-2.5,0-4.8,0-7.2,0
			c0,0,0-0.1,0-0.1c-1.4-0.5-2.1-1.2-0.6-2.4C62.2,21.1,62.8,21.1,63.4,21z"/>
		<path id="XMLID_568_" class="st67" d="M20.5,125.3c0.4,0.6,0.8,1.2,1.1,1.8c0.9,0.7,1.6,1.7,2.5,2.5c0.4,0.6,0.8,1.3,1.2,1.9
			c-1-0.2-2-0.2-3-0.5c-1.2-0.4-2.9,1.5-3.5-0.1c-0.6-1.5,0.1-3.3,1-4.8C20.1,125.8,20.3,125.6,20.5,125.3z"/>
		<path id="XMLID_567_" class="st68" d="M69,107.5c0-0.8-0.3-1.7,0.6-2.4c0.9-0.6,1.7,0.1,2.6,0.3c2.4,0.6,3,0.2,2.9-2.2
			c0-1-0.3-2,0.2-3c0.2-0.4,0.6-0.7,1.1-0.8c0.5,0,0.9,0.3,1.2,0.7c0.3,0.6,0.4,1.2,0.4,1.9c0.5,1.4,0.8,2.8,0.6,4.4
			c0.1,0.8-0.1,1.4-0.8,1.8c-2.6,0.6-5.1,0.3-7.6-0.4C69.8,107.7,69.4,107.6,69,107.5z"/>
		<path id="XMLID_566_" class="st69" d="M62.3,124.3c-1.2,1.6-2.1,3.3-1.9,5.4c0.2,0.4,0.1,0.6-0.3,0.6c-1.4,0.7-0.7-0.9-1.3-1.1
			c-0.3-1.7-0.6-3.4-1.6-4.8C58.9,123.6,60.6,125,62.3,124.3z"/>
		<path id="XMLID_565_" class="st70" d="M115.6,30.9c-1.5,2-3.3,0.6-4.9,0.5l0-0.3c-0.1-0.8-1.7-1.1-1-2.2c0.5-0.8,1.4-0.3,2.2-0.5
			C113.7,28.4,114.6,29.7,115.6,30.9z"/>
		<path id="XMLID_564_" class="st71" d="M108.3,145c-0.3,0.1-0.6,0.1-0.9,0.2c-1.7,1.5-3.5,1-5.3,0.5c1.8-1.2,2.1-4.8,5.5-3.5
			C108.8,142.8,108.5,143.9,108.3,145z"/>
		<path id="XMLID_563_" class="st72" d="M75.7,24.1c0.7-1,0.2-1.9,0-2.9c1.2,0,2.4,0,3.6,0c0.1,0.8,0,1.5,1.2,1.5c1,0,2.1,0,3,0.7
			c-1.6,1.4-3.6,0.4-5.4,0.8C77.4,24.2,76.5,24.2,75.7,24.1z"/>
		<path id="XMLID_562_" class="st73" d="M97.8,23.1c-0.3-0.5-0.5-1-0.8-1.5c2-0.8,4.1-0.7,6.2-0.5c0.5,0.8,1.7,0.6,2.1,1.8
			c-1.4,0.7-2.8,1.3-4.5,0.7C99.9,23.1,98.8,23.4,97.8,23.1z"/>
		<path id="XMLID_561_" class="st74" d="M121.7,47c-0.4-0.2-0.8-0.4-1.2-0.6c-0.8-2.3-3.5-1.7-4.8-3.2c1.1-0.9,2.4-0.3,3.6-0.7
			c1,0,2-0.1,3,0c1.2,0.1,1.4,1.1,1.7,2.2C124.7,46.9,122.2,45.9,121.7,47z"/>
		<path id="XMLID_560_" class="st75" d="M78.2,20.4c-2.2-0.6-4.5-1.3-6.8-0.7c-0.4-0.5-0.5-1,0-1.5c2.4-0.2,4.8-0.4,7.2,0.3
			c0.8,0.2,1.9,0.3,1.7,1.3C80.1,20.9,78.9,20.2,78.2,20.4z"/>
		<path id="XMLID_559_" class="st76" d="M85.6,119.8c-0.1-0.4-1.5-1,0.1-1.3c0.8-0.1,1.6-0.3,2.3-0.4c2.7,1,1.4,3.1,1.2,4.8
			c-0.1,0.7-1.1,0.6-1.2-0.3C88,120.9,86.5,120.6,85.6,119.8z"/>
		<path id="XMLID_558_" class="st77" d="M102.1,145.6c-0.2,1-1,0.9-1.7,1.1c-0.2-1.5-2.8,0.7-2.5-1.6c0.4-2.5,1.7-3.7,4.4-3
			C103.3,143.4,98.9,144.3,102.1,145.6z"/>
		<path id="XMLID_557_" class="st78" d="M51.9,30.9c0,0.3-0.1,0.6-0.1,0.9c-1.6-1.9-3.3-0.2-4.9-0.1c-0.3-0.1-0.5-0.2-0.8-0.4
			c1.1-1.4,1.9-2.8,4-2.9C52.3,28.3,52.7,29.1,51.9,30.9z"/>
		<path id="XMLID_556_" class="st29" d="M70.2,107.7c2.7,0,5.4,0,8.1-0.1c0.9-0.7,1.4-0.3,1.8,0.5c-0.4,0.2-0.9,0.5-1.3,0.7
			c-2.2,1.2-4.6-0.5-6.8,0.5c-0.9,0.7-1.4,0.2-1.8-0.6C70.2,108.4,70.2,108.1,70.2,107.7z"/>
		<path id="XMLID_555_" class="st79" d="M138.2,131.5c1.5-0.1,2.9,0.4,4.4-0.1c0,0.6,0,1.2,0,1.8c0.2,1.4-1.2,1.7-1.8,2.6
			c-1.6,0.1-3.3,0.2-2-2.3C139,133.1,138.4,132.2,138.2,131.5z"/>
		<path id="XMLID_554_" class="st80" d="M121.7,48c0-0.2,0-0.4,0.1-0.6c4.3,0.3,4.5,0.7,3.1,6.2c-0.2,0.2-0.5,0.1-0.7,0
			c-0.2-1.5-1.5-1-2.4-1.4c-0.9-0.9-1-1.9-0.1-2.9c-0.1-0.4,1.5,0.3,0.4-0.7C121.8,48.4,121.7,48.2,121.7,48z"/>
		<path id="XMLID_553_" class="st81" d="M60.1,130.3c0.1-0.2,0.2-0.4,0.3-0.6c1.3,1.5,2.6,3.1,4.2,4.2c0.2-0.1,0.4-0.1,0.7,0
			c0.1,0.2,0.1,0.4,0,0.6c0,0.5,0,0.9-0.1,1.4C61.2,136.2,61.2,132.7,60.1,130.3z"/>
		<path id="XMLID_552_" class="st82" d="M105.7,24.9c1.2-0.3,2.4-0.3,3.6,0c0.5,1,1.9,1.1,2.1,2.3c-1.7,0.6-3.4,0.9-5.2,0.1
			C106.5,26.5,105.1,25.9,105.7,24.9z"/>
		<path id="XMLID_551_" class="st83" d="M140.8,135.9c0-1.3,1.3-1.7,1.8-2.6c0.6-0.2,1.1-0.6,1.3-1.2c1,1,1,2.6,2.2,3.8
			C144.3,135.9,142.5,135.9,140.8,135.9z"/>
		<path id="XMLID_550_" class="st84" d="M120.5,135.8c-1.6-1-1.3-2.8-1.8-4.3c0,0,0,0,0,0c0.5-1.7,1.4-2.6,3.2-1.4
			c0.6,0.9,0.6,1.7-0.1,2.5c0.1,1.2-0.6,2.1-0.9,3.2C120.8,135.8,120.7,135.8,120.5,135.8z"/>
		<path id="XMLID_549_" class="st85" d="M15.1,135.4c1.3-0.9,1.4-3.3,3-3.1c1.2,0.1,0,3.2,2.8,3C18.8,136.2,17,136.1,15.1,135.4z"/>
		<path id="XMLID_548_" class="st86" d="M74.2,123.9c-1.3-2.2-1.4-4-0.5-5.2c0.7-0.9,2.4-0.7,3.8,0.2
			C76.1,120.2,74.5,121.3,74.2,123.9z"/>
		<path id="XMLID_547_" class="st87" d="M48.1,129.7c0.8,0.9,3.7,0.5,1.8,3c-1.1,0.1-1.8-1.4-3-0.6c-0.5-1.8-0.6-3.6,0-5.4
			C47.3,127.7,46.8,129.1,48.1,129.7z"/>
		<path id="XMLID_546_" class="st88" d="M88.6,19.9c-0.3-1,0.2-1.3,1-1.2c1.4,0.2,2.7-0.4,4-0.8c1.4,0.1,2.7,0.4,3.7,1.4
			C94.4,19,91.5,20.1,88.6,19.9z"/>
		<path id="XMLID_545_" class="st89" d="M46.1,32.9c0.3,0.8,1,0.4,1.5,0.7c-3.8,3.6-3.8,3.6-4.9,1.2C44,34.3,44.4,32.4,46.1,32.9z"
			/>
		<path id="XMLID_544_" class="st90" d="M127.2,70.7c-2.4-2.7-0.4-5.7-0.8-8.6c1.3,2.6,0.6,5.4,1,8.1
			C127.3,70.4,127.2,70.5,127.2,70.7z"/>
		<path id="XMLID_543_" class="st91" d="M70.2,108.8c0.6,0.2,1.2,0.4,1.8,0.6c0.6,0.8,0,1.3-0.5,1.8c-2-0.6-4.2-0.7-6.7-2.2
			C67,108.9,68.6,108.8,70.2,108.8z"/>
		<path id="XMLID_542_" class="st92" d="M92.3,145.7c-1.2,0.9-2.6,0.3-3.9,0.3c-1.5,0-1.3-1.3-0.4-2.3c1.2-0.3,2.1-1.1,3.1-1.8
			C92.2,143,91.8,144.5,92.3,145.7z"/>
		<path id="XMLID_541_" class="st93" d="M124.1,53.6c0.2,0,0.5,0,0.7,0c0.9,2,3.4,3.4,1.8,6.1c-0.5,0.6-1.1,0.7-1.8,0.6
			c0,0,0-0.1,0-0.1C123.7,58.2,123.1,56,124.1,53.6L124.1,53.6z"/>
		<path id="XMLID_540_" class="st94" d="M99,107.5c3.1-0.8,5.3-3.6,8.5-4.2c0.3,0,0.5,0.1,0.8,0.1C105.5,105.5,103,108.1,99,107.5z"
			/>
		<path id="XMLID_539_" class="st95" d="M114.3,35.3c0.1-2.9,1.9-2.4,3.7-1.9c0.1,1,1.9,1.7,0.6,3c-0.8,0.3-1.5,0.9-2.4,0.5
			C115.9,36.1,114.3,36.7,114.3,35.3z"/>
		<path id="XMLID_538_" class="st96" d="M124.7,81.8c-0.9,0-1.8,0.1-2.7,0c-0.9-0.1-0.9-0.6-0.4-1.2c0.3-1.5,0.5-3.1,2.6-3
			c0.9,1.1,0.7,2.3,0.6,3.5C124.8,81.3,124.7,81.5,124.7,81.8z"/>
		<path id="XMLID_537_" class="st97" d="M61.6,21.2c-0.3,0.9-0.3,1.8,0.6,2.4c-1.9-0.1-3.9,0.4-5.5-1.2
			C58.4,22.2,59.5,19.8,61.6,21.2z"/>
		<path id="XMLID_536_" class="st98" d="M77.6,16.1c2.4-0.6,4.8-0.7,7.2,0C82.4,17.1,80,17.1,77.6,16.1z"/>
		<path id="XMLID_535_" class="st99" d="M101.4,134.7c2,1.5,2.6,1.3,3.1-0.8c0.1-0.4,0.4-1.1,0.8-1.2c0.7-0.2,1,0.7,1.1,1.2
			c0.1,0.6-0.1,1.3-0.1,2c-1.6,0.8-3.3,0.4-5,0.4c-0.6,0-1.3-0.2-1.1-1.1C100.3,134.7,100.9,134.6,101.4,134.7z"/>
		<path id="XMLID_534_" class="st100" d="M71.4,18.3c0,0.5,0,1,0,1.5c-2.1-0.9-4.6,0.6-6.7-1C66.9,18.3,69.1,16.8,71.4,18.3z"/>
		<path id="XMLID_533_" class="st101" d="M108.3,145c-1-0.7-0.6-1.9-0.8-2.8c1.2-1.2,2.6-0.7,3.9-0.7
			C110.7,142.9,109.8,144.2,108.3,145z"/>
		<path id="XMLID_532_" class="st102" d="M40.2,124.8c-0.5-0.2-1.2,0.3-1.7-0.6c2.3,0,4.5-0.9,6.7,0.4c-0.1,0.8,0.2,1.6-0.6,2.5
			C43.5,125.5,42.3,124.2,40.2,124.8z"/>
		<path id="XMLID_531_" class="st102" d="M35.2,125c0.3-0.5,0.7-0.8,1.2-0.5c0.2,0.2,0.3,0.7,0.4,1c0.2,2.5,0.9,5.1-1,7.2
			c-0.2,0-0.3,0-0.5-0.1C35.3,130.1,35.3,127.5,35.2,125z"/>
		<path id="XMLID_530_" class="st103" d="M121.1,141.3c-1.5,0.3-2.7-0.6-4.1-0.6C118.7,138.7,119.9,139.5,121.1,141.3z"/>
		<path id="XMLID_529_" class="st104" d="M91.1,142c-0.4,1.6-1.1,2.8-3.1,1.8c0.1-0.8,0.7-1.4,1.2-1.9C89.8,141.9,90.4,142,91.1,142
			z"/>
		<path id="XMLID_528_" class="st105" d="M70.8,125.5c-0.2,1.1-1,1.1-1.8,1.1c0.1-0.8,0.5-1.6,0-2.4
			C69.8,124.2,70.3,124.8,70.8,125.5z"/>
		<path id="XMLID_527_" class="st106" d="M126,145.7c-0.9-0.3-1.5,0.9-2.6,0.4c-0.8-0.4-2.5,1.1-2.5-0.9c0-1.6,0.9-2.9,2.7-3.2
			c1.9-0.4,1.9,0.9,1.8,2.2c0,0.3,0.4,0.7,0.5,1c0.1,0.1,0.2,0.3,0.1,0.4C126.1,145.6,126,145.7,126,145.7z"/>
		<path id="XMLID_526_" class="st107" d="M119.7,142.4c-0.6,1.5,1,4.6-2.9,3.6c-0.6-0.1-1.5,0.8-1.7-0.4c-0.2-1.2,0.5-2.2,1.1-3
			c0.6-0.9,1.1-1,1.6,0.4C117.9,143.4,118.6,141.8,119.7,142.4z"/>
		<path id="XMLID_525_" class="st108" d="M126,145.7c0-0.2,0-0.4,0-0.6c0.9-0.5,1.5-1.3,1.9-2.3c0.7-1.9,2.4,0.7,3.2-0.6
			c0.6,1.1-0.4,2.2,0.2,3.4c0.1,0.3-1.3,1.3-2.3,0C128.1,144.3,127.1,147.6,126,145.7z"/>
		<path id="XMLID_524_" class="st109" d="M72.1,145.7c-2.9,1.2-6-0.1-9,0.6c-0.7,0.1-1.3-0.6-1.5-1.3c0.6-1.3,1.4-2.5,2.8-3
			c0.7-0.2,1.9-0.7,2,0.9c0,0.6-0.9,1.3,0.4,1.7c1.1,0.3,1.4-0.5,1.9-1.1c0.4-0.5,0.7-1,1-1.5c0.9-0.6,1.6,0.3,2.6,0.3
			c1.7-0.1-0.1,1.3-0.1,2.1C72.3,144.8,72.5,145.3,72.1,145.7z"/>
		<path id="XMLID_523_" class="st110" d="M72.1,145.7c-0.1-0.5-0.5-0.9,0-1.4c1.7,0.7,2-0.9,2.8-1.7c0.9-0.8,2-1.3,3-0.5
			c0.9,0.8-0.1,1.7-0.7,2.3c-0.8,0.8,0.9,0.6,0.4,1.2C75.8,146.9,73.9,145.7,72.1,145.7z"/>
		<path id="XMLID_522_" class="st111" d="M81.7,146.1c-0.1-3,1.4-3.9,3.7-3.9c0.5,0,0.9,0.2,0.8,0.6c-0.4,1,0.5,2.2-0.4,3
			c-0.3,0.3-1.1,0.7-1.3,0.3C83.7,144,82.7,145.9,81.7,146.1z"/>
		<path id="XMLID_521_" class="st112" d="M113.8,91.1c-1-2.3-2-1.5-3-0.1c-2,3.9-5.4,4.6-9.3,4.4c-1.1,0.4-2.2,0-3.3,0.4
			c-1.3,0.5-2.7,0.6-3.6-0.7c-0.8-1.1-0.4-2.3,0.3-3.4c0.4-0.6,0.6-1.3,0.9-1.9c0.2-0.4,0.2-0.8,0.3-1.2c0.6-1.2-0.5-3.4,1.3-3.7
			c2.2-0.4,4.5-1.7,6.7-0.1c2.2,0,4.4,2.7,6.7,0.1c1.6-1.5,3.3-2.2,5.4-1C116.9,87.2,116.1,89.6,113.8,91.1z"/>
		<path id="XMLID_520_" class="st7" d="M51.3,96.1c-0.9-0.2-1.8,0.6-2.8-0.1c-1.3-0.8-1.4,0.3-1.6,1.2c-0.2,1.4-1.1,1.8-2.4,1.8
			c-1.5,0-3.1,0.1-4.6,0c-2.1-0.1-3.3-1.4-3.5-3.5c-0.1-1.6,0-3.3,0-4.9c-0.1-1.8,0.7-2.7,2.5-2.6c0.9-0.7,1.8-0.4,2.6,0.1
			c0.4,0.3,0.8,0.6,1.1,1.1c1.8,3.3,4.5,4.9,8.2,4.6c1.1-0.2,2.1,0,3.1,0.4c1.4,1,2,2.9,3.7,3.6c0.5,0.4,0.8,0.9,1,1.4
			c0.4,1,1.2,1.7,1.2,2.9c0.1,1.4-0.5,2-1.9,1.6c-1-0.6-2.3-0.7-3.1-1.6C53.9,100,52.1,98.3,51.3,96.1z"/>
		<path id="XMLID_519_" class="st113" d="M100.2,40.2c1.2-0.9,2.6-0.4,3.8-0.8c1.4-0.6,2,0.4,2.7,1.2c0.4,0.5,0.8,1.3,1.7,0.7
			c2.2-0.9,4,0.1,5.8,1.1c-0.5,1.9,0.9,3.7,0.7,5.6c0,0.2,0,0.3,0,0.5c-2.8,2.8-6.2,4.1-10.2,3.4c-0.7-1.4,0.2-3.3-1.4-4.4
			c-1.6-0.4-1.3-2-1.8-3c-0.2-0.4-0.4-0.8-0.7-1.2C100.4,42.3,99.6,41.4,100.2,40.2z"/>
		<path id="XMLID_518_" class="st114" d="M95.9,84.3c-1.1-2.7-1.1-5.5-1.5-8.3c-0.2-1,0.3-1.5,1.3-1.5c0.2,0,0.4,0,0.6,0
			c7.7-0.8,8.9,0.6,8.1,9.1C101.7,84.6,98.9,85.6,95.9,84.3z"/>
		<path id="XMLID_517_" class="st115" d="M53,71.9c-5,0.5-9.8-0.7-14.7-1.2c-0.2-0.2-0.4-0.5-0.7-0.6c-1.1-0.5-3,0.2-3.1-1.6
			c-0.2-2.3-1.1-4.7,0.1-7.1c0.2-0.5,0.8-0.6,1.3-0.7c0.8-0.1,1.6-0.1,2.3,0.2c1.4,1.8,3.4,2.5,5.4,3.1c1.9,1.2,2.2,3,1.8,4.4
			c0.1,1,0.7,0.5,0.3,0.6c-0.2,0.1-0.2,0-0.3-0.2c-0.3-2.3,0.7-3,2.9-2.3c1.7,1.4,3.5,2.6,4.9,4.4C53.2,71.4,53.2,71.7,53,71.9z"/>
		<path id="XMLID_516_" class="st116" d="M87.4,85.5c0.6,0.2,1.2,0.4,1.8,0.6c0.1,2.2-1.2,4.3-0.7,6.5c0,1.1-0.2,2.1-1.1,2.9
			c-3-0.1-2.1-2.3-2.2-3.9c-0.5-3.8-3.4-2.1-5.4-2.3c-2-0.3-2.5,1.1-2.6,2.8c0,1.3,0.5,3-1.5,3.4c-1.3-0.5-1.5-1.7-1.5-2.9
			c-0.1-0.5-0.1-0.9,0-1.4c-0.1-1.3-0.3-2.8-2.1-2.6c-1.9,0.2-4.4-1.4-5.7,1.4c-0.3,1.6,0.8,3.2,0.1,4.9c-0.2,0.3-0.4,0.5-0.7,0.6
			c-0.3,0.1-0.6,0-0.9-0.2c-0.9-0.8-1.2-1.8-1.1-3c0-0.6-0.2-1.2-0.2-1.7c0-1.5-0.8-2.4-2.1-2.9c-1-0.4-2.2-0.7-2.5-1.9
			c0-0.3,0.1-0.5,0.4-0.7c1,0,1.9,0,2.9-0.1c4,1,8-0.5,12-0.5c3.7,0.1,7.4,1,11.1,0.2C86,84.5,86.8,84.8,87.4,85.5z"/>
		<path id="XMLID_515_" class="st117" d="M62.8,70.1c0.3-0.4,0.7-0.8,0.8-1.2c1.1-5.1,4.8-4.9,8.8-4.6c3.9,0.3,7.9,0.3,11.8,0.4
			c0.5,2.7-1.1,3.4-3.3,3.5c-2.3-1.2-2.8,0-2.8,2c0.2,0.4,0.2,0.8,0,1.2c-0.6,0.3-1.2,0.5-1.8,0.8c-3.8,1.3-7.7-0.4-11.6,0.7
			C63.3,73.2,62.6,71.7,62.8,70.1z"/>
		<path id="XMLID_514_" class="st118" d="M67.7,84.4c-1.2-0.1-2.4-0.2-4.3-0.3c3.4-1.9,6.6-2.8,9.7-3.7c0.8-0.2,1.7,0,2.1-1
			c2.3,0,4.5,0.7,6.9,0.7c2-0.1,3.6-0.3,3.8-2.7c0.1-0.7,0.4-1.8,1.4-1.6c0.9,0.2,0.2,1.3,0.7,1.8c0,2.2,1.1,4.4,0.7,6.7
			c-1.9,1.1-4,0.9-6,0.8c-4.5-0.2-9-0.1-13.5-0.2C68.6,84.8,68.1,84.7,67.7,84.4z"/>
		<path id="XMLID_513_" class="st119" d="M69,59.1c-0.1-0.5,0.2-0.9,0.5-1.2c0.9-1.8,2.7-1.9,4.4-2.3c3.6-0.9,7,0,10.3,1.1
			c0.9,6.6,0.9,6.6-5.8,6.7c-3.2,0-6.5,0.3-9.7-0.5c2-2.5,4.9-0.8,7.6-1.4C73.9,60.4,71.3,60.3,69,59.1z"/>
		<path id="XMLID_512_" class="st120" d="M60.4,27.7c0-2-2.3-1.6-3-2.8c7.1,0.2,14.3,0.3,21.4,0.5c1.6,0.5,1.2,1.5,0.6,2.6
			C73,29,66.7,28.6,60.4,27.7z"/>
		<path id="XMLID_511_" class="st121" d="M33.9,54.8c0.1-0.1,0.2-0.3,0.1-0.4c0.4-1.4,1.3-1.9,2.8-1.8c1.8,0.1,3.6,0.4,5.3,1.2
			c1.2,1.9,2.4,3.8,2.4,6.2c-0.1,0.6-0.4,1-0.9,1.4c-3,1.3-5.7-0.8-8.6-0.8c-1.2,0-1.9-1.5-1.6-2.9C33.7,56.8,33.5,55.8,33.9,54.8z"
			/>
		<path id="XMLID_510_" class="st122" d="M60.3,37.9c-0.7-0.4-1.2,0.2-1.8,0.3c-0.4-1.6-3.3-0.6-3-2.9c1,0,2,0.6,3.1,0
			c1.6-1.9,3.7-1.5,5.8-1.5c2.5,0,5.1,0,7.6,0c1.1,0,2.3-0.1,3.1,1l0,0c1.1,1.8-0.6,2.5-1.3,3.6c-0.2,0-0.3,0-0.4,0.1
			C68.9,39.6,64.6,40,60.3,37.9z"/>
		<path id="XMLID_509_" class="st123" d="M35.2,47.5c0.3-1.8,0.4-3.6,1.9-4.9c0.4-0.7,0.4-1.5,1.2-1.9c0.4-0.4,0.9-0.8,1.3-1.2
			c0.9,0.7,2,0.6,3,1c0.9,0.3,1.8,0.4,2.4-0.5c1.2-1.9,2.3-1.8,3.5,0c0.1,0.2,0.5,0.2,0.8,0.2c1.4,0.2,2.6,1.2,4,1.5
			c0.5,0.1,0.9,0.3,1.2,0.6c0.8,1.1,0.5,1.8-0.7,2.2c-0.5,0.1-0.9,0.1-1.4,0.1c-1.6,0.1-3.1,0.8-4.8,0.3c-1.1-0.4-1.6,0.6-2.5,0.9
			c-0.7,0.2-1.3,0.1-2,0c-0.7-0.2-1.1-0.8-1.5-1.4c-0.7-0.9-1.8-1.3-2.5-0.3c-0.9,1.1,0.5,1.4,1.2,1.9c0.2,0.2,0.5,0.3,0.7,0.6
			c0.4,0.5,0.6,1.1,0.1,1.7c-1.8,0.8-3.5,0.4-5.2-0.2C35.7,48,35.4,47.7,35.2,47.5z"/>
		<path id="XMLID_508_" class="st124" d="M35.2,47.5c0.3,0,0.5,0.1,0.8,0.1c0.5,2.8,2.2,3.9,4.9,3.8c0.3,0,0.6,0,0.8,0
			c0.7,0,1.4-0.3,2.1-0.2c1.6,0.5,3.2,0.7,4.9,0.8c1.3-0.8,2.5-1,4-0.2c1.7,1,3.6,1.3,5.6,1.4c1.5,0.4,3.5-0.8,4.6,1.2
			c-1.1,1-2.7-0.2-3.7,1c-0.7,1-1.7,1.2-2.8,1.1c-0.7-0.2-1.4-0.1-2-0.2c-1.7-0.6-3.5-0.5-5.2-0.5c-0.3,0-0.6-0.1-1-0.1
			c-0.7,0-1.3,0-2,0c-1.6,0.2-3.1,0-4-1.5c-1.8-0.2-3.6-0.4-5.3-0.7c-1.1-0.2-1.9,0-2.6,0.9C34.2,52.1,34.4,49.7,35.2,47.5z"/>
		<path id="XMLID_507_" class="st124" d="M33.9,54.8c0.1,4.7,0.1,4.7,5.1,5.6c1.6,0.3,3.2,0.5,4.8,0.6c0.8-1.5,2.1-0.8,3.2-0.9
			c0.3,0,0.6,0,0.9,0c1.5,0.2,3,0.3,4.5,0.5c0.8-0.1,1.6-0.1,2.4,0.1c1.8,0.5,3.8-0.3,5.5,0.9c-1.4,1.1-0.9,3.3-2.5,4.3
			c-1-0.7-1.8-1.6-3.1-1.5c-0.3,0-0.5,0-0.8,0c-2,0.3-4.2-0.2-5.7,1.7c-0.3,0.1-0.6,0.1-0.9,0.1c-1.5-2.1-3.4-3.4-6.2-3
			c-1.1-0.1-2-0.8-2.9-1.4c-0.8-0.1-1.6-0.1-2.4-0.2c-0.8-0.6-1.8,0.4-2.5-0.5C32.6,58.8,32.8,56.8,33.9,54.8z"/>
		<path id="XMLID_506_" class="st125" d="M36.5,72c5.3,0.4,10.7,0.2,15.9,1.9c-1.2,1.6-2.9,1.2-4.4,1c-2.3-0.4-3,0.3-2.2,2.5
			c0.1,0.4,0.1,0.8,0.1,1.2c-0.1,1.1-0.2,2.2-1.5,2.6c-2.1-0.9-4.9-1.1-4.9-4.4c0-0.4-0.2,0.1-0.2,0.1c-0.3,0.5-0.7,0.7-1.3,0.7
			c-0.3,0-0.6-0.1-0.8-0.2c-1-1.6-1.9-3.1-2.1-5C35.4,71.7,35.9,71.6,36.5,72z"/>
		<path id="XMLID_505_" class="st126" d="M87.9,77.6c-0.3-0.4-0.6-0.7-0.9-1.1c-0.9,4.8-0.9,4.7-6.3,4.8c-2.1,0-4-0.4-5.5-1.8
			c3.6-1.3,7.3-2.7,10.9-3.9C88.4,74.6,87.9,76.3,87.9,77.6z"/>
		<path id="XMLID_504_" class="st127" d="M60.4,61.6c-1.9,0.9-3.7,0.5-5.6,0.1c-1.4-2.9-1.1-4.2,1.3-6.2c1,0,2-0.1,3-0.1
			c0.5,0,1,0.1,1.5,0.1c2.6,0,3.2,0.7,1.4,2.9C61.3,59.3,60.9,60.5,60.4,61.6z"/>
		<path id="XMLID_503_" class="st128" d="M45,78.2c-0.5-1.5-0.9-3-1.5-4.8c3.1-0.4,6,1,8.9,0.4c1,1.2-0.5,1.7-0.7,2.5
			c-1.2,2.5-2.6,4.8-5.8,5.1C44.6,80.6,45.9,79.1,45,78.2z"/>
		<path id="XMLID_502_" class="st129" d="M87.3,95.3c0.1-1,0.1-2,0.2-3c0.8-1.2,1-2.8,2.3-3.7c1.7,3.8,2.9,4.1,5.5,1.3
			c0.2-0.2,0.5-0.2,0.7,0c-1.3,5.5-1.3,5.5,4.5,5.5c0.3,0,0.6,0.1,0.9,0.1c-0.8,0.9-2.6-0.1-3,1.6c-0.3,0.4-0.7,0.5-1.1,0.5
			c-0.9-0.3-1.8-0.9-2.8-0.8c-2.3-0.8-4.8,0.1-7.2-0.7C87.1,95.8,87.1,95.5,87.3,95.3z"/>
		<path id="XMLID_501_" class="st130" d="M72.6,41.3c0.4,1.2,0.1,2.4,0,3.6c-0.2,1.8,0.4,3,2.5,2.6c0.6,0.4,0.9,1,0.9,1.8
			c-0.1,0.9-0.8,1.4-1.4,2c-0.6,0.5-1,1.4-2,1c-0.1-1.8,0-3.6-1.2-5.6c-1.1,2.3-2.3,4.1-4.9,4.4c-1.1-0.9-0.5-1.9,0-2.9
			c0.4-1.1,0.9-2.1,1.5-3.1c0.6-0.9,1.3-1.8,1.9-2.7c0.5-0.7,1-1.4,1.9-1.5C72.1,41,72.4,41.1,72.6,41.3z"/>
		<path id="XMLID_500_" class="st131" d="M69,59.1c2.9-0.9,7.5,0.6,10.1,3.4c-3.5,1-6.9-0.6-10.2,0.4C66,61.5,69,60.4,69,59.1z"/>
		<path id="XMLID_499_" class="st132" d="M97.8,64c-0.9,1.7-2.7,1.1-4.1,1.7c-0.6,0.3-1.3-0.4-1.2-1c0.3-1.4-0.9-2.4-0.7-3.7
			c1.3-1,1.9-2.6,2.7-4c0.5-0.6,1.2-0.7,1.9-1c2,0.9,2.7,3,2,5.7C98.2,62.5,97.3,63.1,97.8,64z"/>
		<path id="XMLID_498_" class="st133" d="M97.8,64c-0.5-0.2-2-0.2-1.2-0.8c2.6-2.2,0.2-4.4,0.5-6.6c0,0-0.2-0.1-0.3-0.1
			c-0.1,0-0.2,0.1-0.3,0.2c-1.1,0.2-2.2-0.1-3.2,0.3c-0.8,0-1.5,0.4-2.3,0.3c-1-1.1,0.3-1.5,0.6-2.2c0.1-0.4,0.3-0.6,0.6-0.8
			c1.4-0.4,2.7-0.7,3.7,0.7c2.5,1.1,5.4,1.5,5,5.5C100.7,62.8,97.9,62.1,97.8,64z"/>
		<path id="XMLID_497_" class="st134" d="M67.7,84.4c7,0,13.9-0.1,20.9-0.1c-0.4,0.4-0.8,0.8-1.2,1.3C78.9,86.1,70.5,86,62.1,85
			C63.9,84.5,65.9,85.4,67.7,84.4z"/>
		<path id="XMLID_496_" class="st135" d="M90.5,54.8c-1.4-2.5-0.7-5.3-1.3-7.9c2.3,1.1,4.2,0.7,5.4-1.7c2.5-0.6,3.8,1.4,5.5,2.6
			c-0.7,1.2-1.9,0.9-3,0.9c-1.3,0-2,0.3-1.3,1.8c-0.1,0.4-0.4,0.9-0.8,0.8C92.6,51.1,91.5,52.8,90.5,54.8z"/>
		<path id="XMLID_495_" class="st136" d="M59.2,85c0,0.2-0.1,0.3-0.1,0.5c-0.6,2.1,1,2.6,2.5,3.1c1.2,0.4,2.4,0.4,3,1.8
			c0,0.6,0,1.3,0,1.9c-1.6,1.6-3.4,0.8-5.1,0.2c-1.2-0.4-2.5-0.9-3.6-1.5c-1.2-0.8-1.7-2.1-1.9-3.5c0-0.3,0.1-0.6,0.3-0.8
			C55.9,86.2,57.6,85.6,59.2,85z"/>
		<path id="XMLID_494_" class="st137" d="M95.5,27.8c1.1-0.1,0.2,1.5,1.8,1.8c1.6,0.3,0.2,1.5-0.9,1.8c-2-0.3-3.9-0.7-5.9-0.7
			c-1.5,0.1-2.4,0.7-2.7,2.2c-0.1,0.3-0.4,0.4-0.7,0.5c-1.8-1.9-1.4-4.5-2.2-6.7c-0.3-1,0.4-2.4,1.9-0.9c0,0.1,0,0.3,0,0.4
			c1.1,2.2,2.9,1.1,4.6,1C92.9,26.4,94.2,26.6,95.5,27.8z"/>
		<path id="XMLID_493_" class="st138" d="M33.4,61c0.8,0.2,1.8-0.1,2.5,0.5c-1.8,2.4-0.1,5-0.8,7.3c1.5,0.9,1.6-1.7,2.7-0.6
			c0.7,0.7,0.4,1.7,0.5,2.6c-4.5,0-4.6-0.1-5.1-4.4C33,64.6,32.5,62.7,33.4,61z"/>
		<path id="XMLID_492_" class="st139" d="M88,38.4c-1.1-1.1-0.4-2.4-0.5-3.6c1.2-1.6,3-0.9,4.5-1.1c1.1,0,2.2-0.1,3,0.8
			c0.5,0.6,0.6,1.2,0.4,2c-0.1,0.6,0.3,1.5-0.6,1.9C92.5,39.1,90.2,39.7,88,38.4z"/>
		<path id="XMLID_491_" class="st140" d="M67.6,48.6c-0.5,0.8-1.3,1.5-1,2.6c-0.4,0.4-0.8,0.8-1.2,1.2c-1.9-2-4.5-1.1-6.8-1.6
			c-0.3,0-0.6,0-0.9,0c-2.2-0.7-4.4,0.2-6.6-0.1c-1.2-0.4-2.8-0.3-3.1-2c0.8-1.2,2.1-0.9,3.3-0.9c1.3,0,2.6-0.1,3.8-0.7
			c1.2-0.4,2.4,0,3.7-0.1C61.8,46.9,64.8,47,67.6,48.6z"/>
		<path id="XMLID_490_" class="st141" d="M72.7,52.4c0.4-0.6,0.8-1.2,1.2-1.8c1.5-0.5,3-1.3,4.6-0.6c1.3,1.7,2.2,3.4,0.5,5.3
			c-2.3-0.2-4.8,1.2-6.9-0.6C72.2,54,72.5,53.2,72.7,52.4z"/>
		<path id="XMLID_489_" class="st142" d="M117.4,71.6c0,0.3,0,0.7,0,1c-0.5,1.2-1.6,1.6-2.7,1.7c-2.7,0.2-3.1,1.8-2.6,4
			c0.3,1.4,0.5,2.8-0.2,4.2c-0.2,0.3-0.4,0.5-0.7,0.6c-1.3-1.1-1.9-2.5-1.8-4.3c0.1-2.9,0.1-5.9,0.1-8.8c1.1-0.2,1.6,1.2,2.7,1
			c1.6-0.1,3.2-0.8,4.8-0.1C117.2,71.1,117.4,71.3,117.4,71.6z"/>
		<path id="XMLID_488_" class="st143" d="M75,34.7c-3.6,0-7.2-0.1-10.8-0.1c-1.6-0.6-3.4,0.1-5-0.4c0.9-1.6-1.2-1.9-1.2-3.1
			c0.1,0,0.2-0.1,0.4-0.1c0.6-0.4,1.4-0.6,2-0.3c5.6,2.4,11.3,1.6,17.1,0.7c0.1,0.1,0.1,0.2,0.2,0.3C77.8,33.7,76,33.8,75,34.7z"/>
		<path id="XMLID_487_" class="st144" d="M72,54.8c2.4,0,4.9,0,7.3,0c1.2-1.3,2.9-1.3,4.4-1.8c2.2,0.9-0.3,2.6,0.6,3.7
			c-3.6-0.1-7.2-0.6-10.9-0.2c-1.5,0.1-2.7,0.6-3.8,1.5C69.6,56.2,71.2,55.8,72,54.8z"/>
		<path id="XMLID_486_" class="st145" d="M124.1,53.6c0.5,2.2,1.7,4.3,0.7,6.7c-1.1-0.7-2.9,2.2-3.7-0.6c0.6-0.9,0.1-1.7-0.3-2.5
			c-0.5-0.9-0.6-1.9,0.2-2.8C121.9,53.3,123,53.7,124.1,53.6z"/>
		<path id="XMLID_485_" class="st146" d="M90.5,54.8c-0.4-4.4,0.4-5,5.4-4.3c0,0,0,0,0,0c1,1,2.3,1.8,2.6,3.4
			c-0.2,0.6-0.8,0.8-1.2,0.6c-2-0.9-3.8,0.3-5.7,0.3c0,0-0.1,0.3-0.1,0.3C91.3,55,90.9,54.9,90.5,54.8z"/>
		<path id="XMLID_484_" class="st147" d="M37.1,76.9c0.2,0,0.3,0,0.5,0c2,0.8,3.3,2,3.1,4.4c-0.1,0.3-0.3,0.5-0.5,0.7
			c-3.2-0.5-6.7-5.9-6-9.5c0.3-1.6,1.4-1.3,2.4-0.6c-0.5,0.1-1,0.2-1.2,0.7C36,74,36.5,75.5,37.1,76.9z"/>
		<path id="XMLID_483_" class="st148" d="M124.1,61.6c0.1,0.6-0.3,0.8-0.7,1.2c0,1.6-1.3,1.6-2.4,1.8l0,0.1c-0.7,1.6-2.7,2-3.4,3.7
			c-0.4,1.3-1.1,2.1-2.5,1.3c-1.1-0.7-2.6-0.8-3.5-1.8c-0.1-0.3-0.1-0.6,0.2-0.8c3-1.7,6.7-2.3,9.4-4.6
			C122.1,61.7,123,61.5,124.1,61.6z"/>
		<path id="XMLID_482_" class="st149" d="M72.6,41.3c-0.2,0-0.5,0-0.7,0c-4.8-0.7-9.6-0.3-14.4-0.8c-0.6-0.2-1.2-0.4-1.7-0.9
			c-0.2-0.2-0.3-0.5-0.4-0.9c1-0.6,1.9,0.1,2.8,0c0.7-0.1,2.1,0.8,2.1-0.9c4.3,0.1,8.6,0.3,12.9,0.4C72,39.1,72.7,40.3,72.6,41.3z"
			/>
		<path id="XMLID_481_" class="st150" d="M50.4,94.6c-4.3-0.1-7.2-2.4-9.2-6c-0.6-1.4-1.3-2.9-1.8-4.4c0.2-0.3,0.4-0.5,0.6-0.8
			c0.6-0.6,1.2-0.8,1.9-0.1c1.4,1.9,2.1,4.1,2.4,6.5c0.9,2.6,3.2,2.9,5.5,3.1C50.7,93.3,51.3,93.7,50.4,94.6z"/>
		<path id="XMLID_480_" class="st151" d="M80.7,67.7c1.9-0.1,3-1.3,3.6-3c2-0.3,1.3,1.3,1.5,2.2c0.3,1.1-0.2,1.7-1.2,2.1
			c-2.1,0.9-4.1,2-6.5,2.3c-0.2-0.2-0.3-0.4-0.5-0.6C77.7,68.8,79.2,68.2,80.7,67.7z"/>
		<path id="XMLID_479_" class="st152" d="M62.8,70.1c0.9,1.3,1.5,2,3.6,1.6c3.2-0.6,6.6,0.2,10,0.4c-4.2,2.1-8.7,1.1-13.1,0.9
			C60.6,72.9,62.1,71.3,62.8,70.1z"/>
		<path id="XMLID_478_" class="st153" d="M83.7,53c-0.3,3.3-2.8,1.5-4.4,1.8c-0.5-1.3-1-2.7-0.6-4.2c1.2-1.3,2.5-1,3.7,0
			C83.5,51,83.4,52.1,83.7,53z"/>
		<path id="XMLID_477_" class="st154" d="M94.6,72.5c2.4-0.9,4.8-1.8,7.2-2.6c1-0.3,1.4,0.5,1.5,1.4c0.1,1-0.2,1.6-1.2,1.7
			C99.7,73.3,97.2,73.4,94.6,72.5z"/>
		<path id="XMLID_476_" class="st155" d="M58.5,50c1.7,0.1,3.4,0.1,5.1,0.1c1.7,0,2,0.9,1.7,2.3c-0.4,0.7-0.3,1.7-1.3,1.9
			c-1.2-1-2.6-0.8-4-1C57.6,53.1,57.3,52.4,58.5,50z"/>
		<path id="XMLID_475_" class="st156" d="M44.4,89.8c-1.6-1.8-2.2-4-2.9-6.2c1.9-1.5,3.5-0.6,5,0.6c0.7,0.9,0.6,1.7-0.3,2.6
			C45.4,87.7,45,88.8,44.4,89.8z"/>
		<path id="XMLID_474_" class="st157" d="M104.8,51.9c3.8,0.1,6.8-2.1,10.2-3.4c0.5,0.2,1.4,0.3,0.6,1.1c-1,1-2.9,1.1-2.8,3.1
			c0,0.1-0.4,0.3-0.4,0.3c-2.8-3.3-5.2,1.3-7.9,0.4c-0.3-0.3-0.3-0.7,0.1-1C104.6,52.3,104.7,52.1,104.8,51.9z"/>
		<path id="XMLID_473_" class="st158" d="M88,38.4c2.3,0.4,4.5-1.4,6.8-0.1c0.3,0.6,1.5,0.9,0.9,1.9c-0.2,0.4,0.3,1.2-0.3,1.3
			C95,41.6,94.5,41,94,40.7c-3.2-0.4-3.8,0.1-4.7,3.1C86.8,42.5,88.7,40.1,88,38.4z"/>
		<path id="XMLID_472_" class="st159" d="M58.5,50c-0.4,1.7,0,2.6,2.1,2.5c1.3-0.1,3,0,3.4,1.8c-0.4,0.1-0.8,0.1-1.2,0.2
			c-1.9-0.1-3.7-0.2-5.6-0.4c-1.2-0.7-3.3-0.3-2.8-2.7c0.9-1,2.4-0.6,3.5-1.4C58.1,49.9,58.3,49.9,58.5,50z"/>
		<path id="XMLID_471_" class="st160" d="M81.8,45.1c0.2,0.6,0.5,1.1,0.7,1.7c0.2,0.4,0.2,0.7-0.1,1c-2,1-4,1.9-6.2,0.5
			c-0.4-0.7-0.3-1.4,0-2.1c0.2-0.4,0.4-0.8,0.6-1.2C78.6,44.1,80.2,43.6,81.8,45.1z"/>
		<path id="XMLID_470_" class="st161" d="M46.5,84.3c-1.7-0.2-3.3-0.4-5-0.6c-0.5,0-0.9-0.1-1.4-0.1c0-0.5,0-1,0.1-1.5
			c0,0,0-0.3,0-0.3c0.8-1.3,1.7-2.3,3.3-1.1c1.4,0.8,3,1.1,4.6,1.2c0.2,0.2,0.5,0.4,0.7,0.6C48.2,83.3,46.8,83.2,46.5,84.3z"/>
		<path id="XMLID_469_" class="st162" d="M54.8,63.4c1.4,0.4,4-0.8,3.2,2.5c-1.1,1.2-1.1,3.2-3,3.8C53.5,67.6,53.5,65.5,54.8,63.4z"
			/>
		<path id="XMLID_468_" class="st163" d="M96,89.8c-0.2,0-0.5,0-0.7,0c0.2-1.8,0.4-3.7,0.6-5.5c2.8-0.2,5.7-0.5,8.5-0.7
			c-0.2,0.4-0.3,0.8-0.5,1.3c-1,0.1-2,0.5-3,0.4C97.6,85,95.9,86.4,96,89.8z"/>
		<path id="XMLID_467_" class="st164" d="M94.6,45.1c0.1,1.3,0.8,2.9-1.2,3.4c-1.7,0.4-3.4,0.3-4.2-1.7c0-0.2-0.1-0.4-0.1-0.6
			c0.8-1,2.4-0.1,3.2-1.2C93.1,45.1,93.8,45.1,94.6,45.1z"/>
		<path id="XMLID_466_" class="st165" d="M89.3,43.8c-0.2-1.2-1.5-2.7,0-3.4c1.3-0.6,3.3-1.7,4.7,0.3c-1.1,0.1-1.6,0.4-0.6,1.4
			c0.8,1,0.2,1.4-0.7,1.4c-0.6,0-1.2-0.2-1.6,0.4C90.5,43.8,89.9,43.8,89.3,43.8z"/>
		<path id="XMLID_465_" class="st166" d="M50.4,94.6c-0.2-0.6-0.3-1.1-0.5-1.7c1.2-1,1.6-2.5,2.4-3.8c1.4,1.3,2.4,2.9,3.5,4.4
			c0.1,0.5,0,0.9-0.3,1.3c-0.5,0.2-0.9,0.2-1.3-0.1C53,94.7,51.7,94.7,50.4,94.6z"/>
		<path id="XMLID_464_" class="st167" d="M91,57.3c0.4-0.8,0.9-1.4,1.9-1.2c0.2,0.9,1.8,0.2,1.8,1.5c-0.3,1.7,0,4-3,3.4
			C91.5,59.8,91.2,58.5,91,57.3z"/>
		<path id="XMLID_463_" class="st168" d="M104.6,52.6c0,0.3,0,0.7-0.1,1c-2.8,0.9-5.7,1.1-8.5,1.4c-1.4-0.1-2.8-0.1-4.3-0.2
			c2.1-1.3,4.5-0.7,6.8-1.1c0.8-1.3,2.2,0.1,3.1-0.6C102.6,52.9,103.6,52.7,104.6,52.6z"/>
		<path id="XMLID_462_" class="st169" d="M101.6,53.1c-1,0.2-2.1,0.4-3.1,0.6c-2.2,0.1-2.1-1.8-2.5-3.1
			C98.9,48.9,99.6,52.6,101.6,53.1z"/>
		<path id="XMLID_461_" class="st170" d="M55.3,93.5c-1.8-0.9-3.2-2.1-3-4.4c-0.2-1.5,0.9-1.9,1.9-2.4c0,0.2,0,0.4,0,0.6
			C54.4,89.4,56.8,91.1,55.3,93.5z"/>
		<path id="XMLID_460_" class="st105" d="M54.8,63.4c0,2.1,0.1,4.2,0.1,6.2c-0.6,0.8,0.2,2.7-1.9,2.3c0-0.1,0-0.2,0-0.3
			c0-2-2.5-2.1-2.8-3.8c0-0.3,0.1-0.6,0.3-0.8c2.1-0.3,2.7-2.3,3.9-3.5C54.5,63.3,54.6,63.3,54.8,63.4z"/>
		<path id="XMLID_459_" class="st171" d="M117.9,51.2c-0.2-1.9-0.3-3.6,2.5-3c1,1.4,0.9,2.9,0,4.3C118.9,53.4,118.2,52.7,117.9,51.2
			z"/>
		<path id="XMLID_458_" class="st172" d="M78.1,42.6c1.5-2.9,2.1-3.1,3.6-1.2c0.7,1.4,0.8,2.6-1,2.9C79.5,44.5,77.8,44.9,78.1,42.6z
			"/>
		<path id="XMLID_457_" class="st173" d="M42.3,41.2c-1.3,0.1-2.9,0.6-2.7-1.7c0.6-0.5,1.1-0.9,1.3-1.7c0.9,0.3,3.5-1.6,2.3,1.6
			C42.8,40,43.5,41.1,42.3,41.2z"/>
		<path id="XMLID_456_" class="st174" d="M89.8,88.6c0.3,1.9-0.4,3.2-2.3,3.7c-0.6-2.4,0.3-4.3,1.7-6.1
			C90.2,86.7,89.6,87.8,89.8,88.6z"/>
		<path id="XMLID_455_" class="st175" d="M39.4,84.3c2.4,0.7,2.4,2.4,1.8,4.4c-0.8-0.2-1.5-0.5-2.2-0.7c-0.2-0.9-0.4-1.7-0.6-2.6
			C38.2,84.6,38.3,83.9,39.4,84.3z"/>
		<path id="XMLID_454_" class="st176" d="M111.2,83.1c0-0.2,0.1-0.5,0.1-0.7c2-1.1,4-1.7,6,0c-0.2,0.6-0.3,1.3-0.5,1.9
			c-0.1,0.1-0.1,0.2-0.2,0.3c-0.3,0.1-0.5,0.1-0.6-0.2c-1.8-0.1-3.6-0.2-5.3,0.6C110.9,84.3,111,83.7,111.2,83.1z"/>
		<path id="XMLID_453_" class="st177" d="M64.7,76.3c-1,0.6-1.9,1.2-3.1,1.1c-0.8-0.4-1.8-0.2-2.4-1.1c1-2.2,2.9-2.1,4.9-1.9
			C64.6,74.9,65.4,75.4,64.7,76.3z"/>
		<path id="XMLID_452_" class="st178" d="M48.7,82.4c-0.2,0-0.4,0-0.6,0c-0.5-0.6-1.5-0.4-1.8-1.3c0.1-0.5,0.2-0.9,0.3-1.4
			c3,0.8,3.5-2.2,5.2-3.4C51.4,78.7,49.4,80.2,48.7,82.4z"/>
		<path id="XMLID_451_" class="st179" d="M111.9,67c0,0.2,0,0.5,0,0.7c1,1.4,1.3,2.9,0,4.3c-1.8,0.5-1.8-1.1-2.4-2
			C109.5,68.4,109.4,66.7,111.9,67z"/>
		<path id="XMLID_450_" class="st180" d="M82.5,50.6c-1.2,0-2.5,0-3.7,0c-1.6,0-3.2,0-4.8,0c0.6-0.4,1.2-0.9,1.8-1.3
			c2.3-0.7,4.6-1.4,6.8,0.1C82.5,49.8,82.5,50.2,82.5,50.6z"/>
		<path id="XMLID_449_" class="st181" d="M78.1,42.6c0.5,1.5,1.7,1.3,2.8,1c1.3-0.3,0.9-1.4,0.8-2.3c1.5,1.2,0.6,2.4,0.1,3.7
			c-1.7,0-3.3,0-5-0.1C77.3,44.3,77.7,43.4,78.1,42.6z"/>
		<path id="XMLID_448_" class="st182" d="M82.5,49.4c-2.3,0-4.5-0.1-6.8-0.1c-0.6-0.5-0.7-1.1-0.6-1.8c0.4-0.4,0.7-0.9,1.1-1.3
			c0,0.6,0,1.2,0,1.8c2.1,0.8,4.2,0.4,6.2-0.5c0-0.2,0.1-0.4,0.1-0.7C83.3,47.7,83.3,48.6,82.5,49.4z"/>
		<path id="XMLID_447_" class="st183" d="M105.3,55.2c1.7,3.6,1.8,3.9,1.2,6.3C104.8,59.6,105.5,57.7,105.3,55.2z"/>
		<path id="XMLID_446_" class="st184" d="M121.1,54.4c-0.5,1.8,1.9,3.5,0.1,5.3c-0.5-1.3-0.8-2.7-1.4-3.9
			C118.4,53.5,120,54.2,121.1,54.4z"/>
		<path id="XMLID_445_" class="st185" d="M89.8,25.5c0.2,0.4,0.4,0.7,0.7,1.1c-1.8,2.2-2.6,2.1-3.8-0.4c0-0.1,0.1-0.2,0.1-0.3
			C87.7,25.4,88.7,24.9,89.8,25.5z"/>
		<path id="XMLID_444_" class="st186" d="M95.4,36.5c-0.5-0.3-0.6-0.7-0.6-1.3c0.5-1.2,1.4-1.1,2.4-0.6c0.9,1,0.8,2.1,0.7,3.3
			C96.9,37.5,96.7,36.1,95.4,36.5z"/>
		<path id="XMLID_443_" class="st187" d="M92.3,34.5c-1.6,0.1-3.2,0.2-4.8,0.3c-0.1-0.4-0.2-0.9-0.3-1.3c0.1,0,0.2-0.1,0.3-0.1
			c1.5-1.5,3.1-1.3,4.7-0.3C92.6,33.5,92.7,34,92.3,34.5z"/>
		<path id="XMLID_442_" class="st158" d="M91,43.8c0.5-0.9-0.6-1.8,0.1-2.7c1.3-0.2,0.9,1.1,1.3,1.5c0.9,0.8,0.8,0,0.9-0.6
			C94.1,43.8,94.1,43.8,91,43.8z"/>
		<path id="XMLID_441_" class="st188" d="M120.5,52.4c-0.1-1.4,0.5-2.9,0-4.3c0.4-0.1,0.8-0.1,1.2-0.2c0.1,0.1,0.1,0.2,0.2,0.3
			c0.4,0.3,0.9,0.5,0.3,1.1c-0.6,0.9-0.4,1.9-0.5,2.9C121.3,52.3,120.9,52.4,120.5,52.4z"/>
		<path id="XMLID_440_" class="st189" d="M59.2,76.3c0.8,0.3,2.5-1.3,2.4,1.1c-0.9,0.4-1.7,1.1-2.7,0.5
			C58.7,77.8,59.1,76.9,59.2,76.3z"/>
		<path id="XMLID_439_" class="st190" d="M92.3,45.1c-0.4,2.2-1.9,1.3-3.1,1.2c-0.5-0.5-0.8-1,0.2-1.2C90.3,45,91.3,45.1,92.3,45.1z
			"/>
		<path id="XMLID_438_" class="st143" d="M73.7,38.2c0.4-1.2,0.9-2.4,1.3-3.6c0.8,0,1.9-0.2,1.2,1.2C75.7,36.9,74.9,37.8,73.7,38.2z
			"/>
		<path id="XMLID_437_" class="st191" d="M64.7,76.3c-0.2-0.6-0.4-1.3-0.6-1.9c1.1,0,2.1,0,3.6,0C66.8,75.9,65.7,76,64.7,76.3z"/>
		<path id="XMLID_436_" class="st192" d="M100.2,40.2c0.1,1,1.2,1.8,0.7,3c-1.2-0.9-2.5-1.7-1.3-3.5C99.8,39.9,100,40.1,100.2,40.2z
			"/>
		<path id="XMLID_435_" class="st193" d="M101.5,44.5c1.1,0.7,1.1,2.1,1.8,3c-0.3,0.5-0.7,1.3-1.3,0.4
			C101.5,46.9,101,45.8,101.5,44.5z"/>
		<path id="XMLID_434_" class="st7" d="M38.3,40.8c0,0.9-0.5,1.4-1.2,1.9c-0.4-0.7-0.3-1.4-0.1-2.1c0.1-0.3,0.3-0.7,0.4-1
			C37.7,40,38,40.4,38.3,40.8z"/>
		<path id="XMLID_433_" class="st194" d="M92.3,33.4c-1.6,0-3.3,0-4.9,0c-1.2-3.1-0.9-3.6,2.3-3.4c2.2,0.1,4.9-1.1,6.6,1.5
			c-0.2,0.4-0.3,0.8-0.5,1.1C95,34.5,93.6,33.7,92.3,33.4z"/>
		<path id="XMLID_432_" class="st195" d="M106.3,36.9c-1.9,2-4,0.8-6,0.1c-1.2-1.7-0.6-2.6,1.4-2.4c1.1,0.1,2.4-0.5,3.4,0.6
			C105.7,35.7,106.6,35.9,106.3,36.9z"/>
		<path id="XMLID_431_" class="st196" d="M95.5,27.8c-1.1,0.5-2.4-0.9-3.5,0.2c-1.2,0.2-1.3-0.4-0.9-1.3c1.3-1.4,3.5-0.6,4.9-1.7
			c2.1,1.4-0.3,1.2-0.6,1.7C95.4,27,95.4,27.4,95.5,27.8z"/>
		<path id="XMLID_430_" class="st197" d="M91,26.7c0.1,0.6,0.4,1.1,0.9,1.3c-1.5,0.8-3.1,0.8-4.7,0.5c-1.6-0.3-1.7-1.1-0.6-2.3
			c1.1,1.5,2.3,2.1,3.8,0.4C90.6,26.6,90.8,26.6,91,26.7z"/>
		<path id="XMLID_429_" class="st198" d="M103.9,26c-2.4,0.7,0.8,1.1-0.1,1.8c-1.7-0.3-3.1-1.2-4.8-2.7c1.5-0.3,2.8,0.6,3.8-0.2
			C103.2,25.3,104.3,24.9,103.9,26z"/>
		<path id="XMLID_428_" class="st199" d="M92.3,33.4c1.2-0.3,2.4-0.5,3.6-0.8c0.1,0.9,0.8,1.4,1.3,2c-0.8,0.2-1.6,0.4-2.4,0.6
			c-0.7-0.7-1.7-0.5-2.5-0.7C92.3,34.1,92.3,33.8,92.3,33.4z"/>
		<path id="XMLID_427_" class="st200" d="M106.3,36.9c-0.4-0.6-0.8-1.1-1.2-1.7c1.2,0.4,2.1,0.1,2.4-1.2c0.6,0,1.2-0.1,1.8-0.1
			c0.6-0.1,0.8,0.1,0.7,0.7c-0.2,0.1-0.3,0.1-0.5,0.1c-0.4,0.3-0.2,1-0.7,1.3C107.9,36,107.1,36.4,106.3,36.9z"/>
		<path id="XMLID_426_" class="st201" d="M95.3,26.6c0.1-0.6,1.4-0.8,0.6-1.7c1.8,0.3,2.5,2.1,4.5,2.8C98,29.2,97.2,25.8,95.3,26.6z
			"/>
		<path id="XMLID_425_" class="st202" d="M103.9,26c-0.4-0.4-0.7-0.7-1.1-1.1c1,0,1.9,0,2.9-0.1c0.3,0.8,2.2,1.3,0.5,2.5
			C105.5,26.9,104.7,26.5,103.9,26z"/>
		<path id="XMLID_424_" class="st203" d="M110.7,31.1c0,0,0,0.3,0,0.3c-0.4,0.7-1.1,0.7-1.7,0.7c-0.7-1-2-1.4-2.3-3
			C108.3,29.4,109,31.4,110.7,31.1z"/>
		<path id="XMLID_423_" class="st204" d="M97.8,23.1c1.2-1,2.2-0.8,3,0.5c-1,0.6-2,0.6-3-0.1C97.8,23.4,97.8,23.2,97.8,23.1z"/>
		<path id="XMLID_422_" class="st205" d="M42.3,41.2c0.3-0.6,0.6-1.1,0.9-1.7c0.3,0.1,0.7,0.4,0.8,0.3c1.8-2.7,4.3-1.7,6.7-1.1
			c0.6,1.4-0.7,1.5-1.4,2.1c-0.6,0.7-1.3,1.6-2.3,1c-1.2-0.7,0.6-1.5,0-2.6C45.5,40.1,44.6,42.5,42.3,41.2z"/>
		<path id="XMLID_421_" class="st206" d="M49.2,40.8c0.1-0.9,0.9-1.4,1.4-2.1c1.6,0,3.2,0,4.8,0c0.1,0.1,0.1,0.2,0.2,0.3
			c0.3,1.8-1.2,2.3-2.3,3.2C51.6,42.6,50.4,41.8,49.2,40.8z"/>
		<path id="XMLID_420_" class="st207" d="M55.5,35.3c0.6,1.4,3.3,0.6,3,2.9c-2-0.1-3.4-1.9-5.6-1.7c-1.7,0.2-0.3-1.1-0.6-1.7
			c-0.5-0.9,0.2-0.9,0.9-0.9C54.4,33.9,55,34.5,55.5,35.3z"/>
		<path id="XMLID_419_" class="st208" d="M47.5,36.5c0.7-1.6,1.9-2.4,3.8-3.8C50.3,35,50.4,37.1,47.5,36.5z"/>
		<path id="XMLID_418_" class="st209" d="M59.2,34.1c1.7-0.3,3.4-0.2,5,0.4c-1.9,0.1-3.8,0-5.6,0.7C58.8,34.9,59,34.5,59.2,34.1z"/>
		<path id="XMLID_417_" class="st210" d="M117.4,82.3c-2-0.1-4,1-6,0c-0.2-1.6-0.4-3.2-0.5-4.8c-0.4-3.8-0.3-4,3.6-4.4
			c1-0.1,2-0.3,3-0.5c3,1.5,2.9,4,2.1,6.7c0.2,1.1-1,1.3-1.5,1.9C117.8,81.6,117.6,82,117.4,82.3z"/>
		<path id="XMLID_416_" class="st211" d="M116.8,67.7c0.6-2.1,2.5-2.5,4.2-3.1c1,3.5-0.4,5.7-3.6,7c0,0,0-0.3,0-0.3
			C116,70.4,117.8,68.8,116.8,67.7z"/>
		<path id="XMLID_415_" class="st212" d="M121,64.6c0.8-0.6,1.6-1.2,2.4-1.8c0.1,2.5,0.3,5.1-0.2,8.2c-1.3-1.5-0.8-2.7-1-3.8
			C122.1,66.2,122.7,64.9,121,64.6z"/>
		<path id="XMLID_414_" class="st213" d="M118.1,81.3c0.5-0.6,1-1.3,1.5-1.9c1-0.5,1.9-1,2.5-2c0.7,0.1,1.5-0.8,2.1,0.2
			c-1.4,0.5-1.4,2.3-2.6,3C120.2,79.7,119.4,81.6,118.1,81.3z"/>
		<path id="XMLID_413_" class="st214" d="M51.3,134c-0.1-2-0.2-4.1-0.3-6.1c0.2-1.1,0.2-2.5,1.7-2.5c1.5,0,1.5,1.4,1.6,2.5
			c0.1,1.5,0,3,0,4.5C54.2,134.7,53.1,134.9,51.3,134z"/>
		<path id="XMLID_412_" class="st215" d="M35.8,132.7c0.3-2.4-0.7-5,1-7.2c0.7,0.2,1.4,0.5,2.1,0.7c0.5,2.3,0.5,4.7,0,7
			C37.8,133.6,36.5,135,35.8,132.7z"/>
		<path id="XMLID_411_" class="st7" d="M24.1,129.6c-1.9,0.3-3.7,0.4-2.5-2.5c0.1-0.4,0.1-0.8,0.2-1.1c1.6-0.4,1.5,1.3,2.3,1.9
			C24.1,128.5,24.1,129,24.1,129.6z"/>
		<path id="XMLID_410_" class="st102" d="M38.9,133.2c0-2.3,0-4.7,0-7C39.6,128.5,39.7,130.8,38.9,133.2z"/>
		<path id="XMLID_409_" class="st216" d="M115.8,43.2c0.7,0,1.4,0.1,2.1,0c2.6-0.4,3.7,0.5,2.7,3.2c-1.4,0.9-2.9,1.8-4.2,0.2
			C115.6,45.7,113.7,44.6,115.8,43.2z"/>
		<path id="XMLID_408_" class="st217" d="M114.2,42.5c-2.2,0.9-4-1.3-6.2-0.5c-1.3-0.3-1.7-1.1-1.4-2.4c1.7,0.3,3-0.9,4.5-1.3
			c0.8,1.4,1.9,2.6,3,3.8C114.3,42.3,114.3,42.4,114.2,42.5z"/>
		<path id="XMLID_407_" class="st218" d="M110,34.6c-0.2-0.2-0.5-0.5-0.7-0.7c1.4,0.7,3.8-2.4,4.4,1.2c0.5,0.6,0.5,1.2,0.1,1.8
			C112.9,35.7,111.2,35.5,110,34.6z"/>
		<path id="XMLID_406_" class="st219" d="M106.7,39.6c0.5,0.8,0.9,1.6,1.4,2.4c-0.4,1.4-0.9,0.5-1.4,0.1c-1-0.8-1.2-2.4-2.7-2.6
			C105,38.8,105.9,38.8,106.7,39.6z"/>
		<path id="XMLID_405_" class="st220" d="M113.8,36.9c0-0.6,0-1.2-0.1-1.8c0.2,0.1,0.4,0.1,0.6,0.2c0.3,0.4,0.7,0.5,1,0.1
			c0.5-0.7,1-1.1,1.7-0.3c0.9,1.1-0.3,1.3-0.8,1.8C115.4,36.9,114.6,36.9,113.8,36.9z"/>
		<path id="XMLID_404_" class="st221" d="M114.3,42.1c-1.8-0.6-2.9-1.8-3-3.8C112.9,39.1,113.8,40.5,114.3,42.1z"/>
		<path id="XMLID_403_" class="st222" d="M108.8,36c0.1-0.5,0-1.1,0.7-1.3c0.3,0.8,0.7,1.6,1.1,2.7C109.4,37.5,108.9,37,108.8,36z"
			/>
		<path id="XMLID_402_" class="st223" d="M79.3,131.6c0-0.7,0.1-1.4,0.1-2.1c0-1.6,1.2-1.6,2.3-1.7c1.2-0.2,1.3,0.5,1.3,1.4
			c0,1.2,0,2.3-1.6,2.3C80.7,131.5,80,131.6,79.3,131.6C79.3,131.6,79.3,131.6,79.3,131.6z"/>
		<path id="XMLID_401_" class="st224" d="M121.8,132.7c-0.1-0.8-0.1-1.6-0.2-2.4c-0.4-0.4-0.7-0.8-0.8-1.3c-0.1-0.9,0-1.7,0.9-2.2
			c1.1-0.1,2.4-1.3,3.1-0.1c1,1.8,0.8,4.1,0.2,6C124.6,133.9,123,132.4,121.8,132.7z"/>
		<path id="XMLID_400_" class="st225" d="M121.8,126.7c-0.1,0.8-0.1,1.6-0.2,2.4c-1.7,1.3-2.5,0.4-3-1.3c0.2-1,0.4-2,0.6-2.9
			C121,124.3,121.8,124.9,121.8,126.7z"/>
		<path id="XMLID_399_" class="st226" d="M65.2,134c-0.2,0-0.4-0.1-0.5-0.1c0-2.3,0-4.7,0.1-7c0-0.8,0.2-1.7,1.2-1.9
			c1-0.3,1,0.8,1.5,1.2c1.1,1.6,0.6,3.4,1,5.2C67.6,132.4,67.6,134.5,65.2,134z"/>
		<path id="XMLID_398_" class="st105" d="M67.6,131.5c0.1-1.8,0.2-3.6-0.2-5.4c0.5,0.2,1,0.4,1.5,0.6c-0.6,1-0.5,2,0,3.1
			c0.7,1.6,0.7,3.3-1.3,4.2C67,133.1,67.3,132.3,67.6,131.5z"/>
		<path id="XMLID_397_" class="st227" d="M105.8,101.5c-1.2,0.9-2.3,2-3.7,2.5c-2,0.7-0.6-0.8-0.6-1.3c0.7-3.8,1.4-4.7,4.2-5
			c1.4,1.2,2.4-1.1,3.7-0.6C108.2,98.6,107,100.1,105.8,101.5z"/>
		<path id="XMLID_396_" class="st228" d="M51.3,96.1c1.5,1.7,3.3,3.2,4.1,5.4c-0.3,0.4-0.7,0.6-1.2,0.7c-0.7-2.2-4.2-1.2-4.2-4.1
			c0.5-0.5,0.8,0.7,1.5,0.4C51.7,97.7,50.7,96.9,51.3,96.1z"/>
		<path id="XMLID_395_" class="st229" d="M54.2,102.1c0.1-0.7,0.4-1.1,1.2-0.7c0.7,0.8,2.1,0.6,2.7,1.7c0.2,0.3,0.1,0.6-0.1,0.8
			C56.3,104.1,55.1,103.5,54.2,102.1z"/>
		<path id="XMLID_394_" class="st230" d="M57.9,104c0-0.3,0.1-0.6,0.1-0.8c0.9,0.1,1.6,0,1.2-1.2c2.3-0.3,2.4,0.9,1.8,2.6
			c-0.5,0.2-1,0.2-1.5-0.2c-0.5,0-1.1,0.1-1.6,0.1C57.9,104.4,57.9,104.2,57.9,104z"/>
		<path id="XMLID_393_" class="st231" d="M93.5,126.6c0.9-0.3,0.5-2.5,1.9-1.7c1.3,0.7,1.3,2.1,0.5,3.4
			C94.8,128.2,93.1,128.8,93.5,126.6z"/>
		<path id="XMLID_392_" class="st209" d="M77.4,31.4c-0.8,1.5-2,2.1-3.7,2c-3.1-0.1-6.3-0.3-9.4-0.1c-2.5,0.2-3.8-2.1-6-2.3
			c0.6-0.9,1.5-1.3,2.6-1.3c5.2-0.1,10.3,0.2,15.4,0.6C77,30.3,77.4,30.6,77.4,31.4z"/>
		<path id="XMLID_391_" class="st232" d="M105.7,97.7c-2.5,0.8-2.4,3.7-4.2,5c0-0.2,0-0.4,0-0.6c-2.5,0.4-4.5,1.4-5.6,3.8
			c-0.4,0.4-0.8,0.8-1.2,1.1c-3.1,1.3-6.2,1.2-9.3,0c0.1-0.1,0.1-0.3,0.2-0.4c2-1.2,4.2-2.3,4.6-5c0.1-0.4,0.5-0.8,0.3-1.1
			c-1.3-2.8-1.3-2.8,2.2-3.3c1.5,0,2.9-0.8,4.4,0c0.4,0,0.8-0.1,1.2-0.1C100.8,97.5,103.4,96.5,105.7,97.7z"/>
		<path id="XMLID_390_" class="st233" d="M137,127.9c-0.2,1.9-1.4,2-2.9,1.7c0.1-0.6,0.2-1.1,0.4-1.7c0.3-0.7,0.6-1.5,0.8-2.2
			C136.4,126,136.5,127.1,137,127.9z"/>
		<path id="XMLID_389_" class="st234" d="M67.6,131.5c0,0.8,0,1.6,0,2.4c-0.7,0.7-1.4,1-2.3,0.6c0-0.2-0.1-0.3-0.1-0.5
			C66.8,133.9,66.5,132,67.6,131.5z"/>
		<path id="XMLID_388_" class="st235" d="M95.9,105.9c-0.4-0.1-1.1-0.3-1.1-0.3c0.3-1.4,1.4-2.4,2.6-2.9c1.3-0.5,2.4-2.5,4-0.5
			C99.6,103.4,98.3,105.4,95.9,105.9z"/>
		<path id="XMLID_387_" class="st236" d="M118.2,91.8c-0.3-0.3-0.6-0.6-0.9-1c-0.6-1.2,0.1-2.2,0.5-3.3c0.4-1.1,0.8-2.2,2.1-2.6
			c0.3-0.5,0.4-1.2,1.2-1.2c0,1.5-0.5,2.9-0.2,4.5C121.2,89.7,120,91.2,118.2,91.8z"/>
		<path id="XMLID_386_" class="st237" d="M80,108.2c-0.6-0.2-1.2-0.4-1.8-0.5c-0.2-0.5-0.3-0.9-0.5-1.4c2.4-1.7,5-1.3,7.6-0.8
			c0.5,0.4,0.5,0.9,0.2,1.4c0,0-0.1,0.2-0.1,0.2C83.7,107.8,81.9,108.1,80,108.2z"/>
		<path id="XMLID_385_" class="st176" d="M119.9,84.9c-0.5,1-0.9,2-1.4,3c-0.8,0.3-1.8,1-2.4,0c-0.7-1.2-0.2-2.5,0.7-3.6
			c0,0,0.1,0,0.1,0C117.8,84.9,119,84.1,119.9,84.9z"/>
		<path id="XMLID_384_" class="st238" d="M76.1,100.1c-0.5,0.9-0.1,1.8,0.1,2.7c0.2,1.3,1,2.9-0.3,3.7c-1.4,0.9-3.2,0.5-4.7,0
			c-0.6-0.2-1.1-0.9-1.7-1.3c-0.7-1.3-0.9-2.9-2.4-3.8c-1.2-2.1-0.3-3.1,1.8-3.2C71.5,98,74.1,98.3,76.1,100.1z"/>
		<path id="XMLID_383_" class="st239" d="M67.2,101.4c0.1,0.3,0.1,0.6,0.2,0.9c1,3.5,1,3.5-2.7,2.8c-1.2,0.7-2-0.2-2.9-0.8
			c-0.8-2.3-3.3-3.7-3.5-6.4c0.9-1.4,2.2-1,3.5-0.7C64.8,97.2,66.8,98.2,67.2,101.4z"/>
		<path id="XMLID_382_" class="st240" d="M67.2,101.4c-1-2.4-3-3.3-5.5-3.2c-0.1-0.6,0.3-0.9,0.7-1.1c2.7-1.1,5.3-0.2,7.9,0.1
			c1.9,0.3,3.9,0.3,5.7,1.1c0.3,0.2,0.5,0.4,0.7,0.7c0.2,0.4,0,0.7-0.3,0.8c0,0-0.2,0.2-0.2,0.2c-2.1-0.3-4.1-0.6-6.2-0.9
			C68.1,98.9,67.2,99.6,67.2,101.4C67.2,101.4,67.2,101.4,67.2,101.4z"/>
		<path id="XMLID_381_" class="st241" d="M62.2,104c0.8,0.4,1.7,0.8,2.5,1.2c0.4,1,0.1,1.4-0.9,1c-1.4-0.5-2.8-1.1-4.2-1.7
			c0.5,0,1,0.1,1.5,0.1C61.3,104.2,61.5,103.6,62.2,104z"/>
		<path id="XMLID_380_" class="st242" d="M116.8,84.3c-0.3,1.6-1.7,3.8,1.7,3.6c-0.4,1-0.8,1.9-1.2,2.9c-0.7,0.5-1.4,1.1-2.2,1.5
			c-1.7,1-1.2-0.5-1.3-1.2c0.8-2.3,1.5-4.5,2.3-6.8C116.3,84.4,116.5,84.3,116.8,84.3z"/>
		<path id="XMLID_379_" class="st32" d="M118.7,127.7c0.6,1.4,1.8,1.3,3,1.3c0,0.4,0,0.8,0,1.2c-1.2-0.1-2.4-0.2-3,1.3
			C118.7,130.3,118.7,129,118.7,127.7z"/>
		<path id="XMLID_378_" class="st243" d="M85.5,105.5c-2.5,1.4-5.1,0.9-7.7,0.8c-0.3-1.4-0.5-2.8-0.8-4.2c2.4-1.7,5-0.8,7.5-0.7
			c1.4,0.7,1.4,1.9,1.4,3.2C85.8,104.9,85.7,105.2,85.5,105.5z"/>
		<path id="XMLID_377_" class="st244" d="M85,102.1c-2.7,0-5.4,0-8.1,0c0-0.6,0-1.2,0-1.8c2.7-1.6,5.6-1,8.4-0.4
			C86.1,100.7,86.4,101.5,85,102.1z"/>
		<path id="XMLID_376_" class="st245" d="M85.5,100.3c-2.8,0-5.7,0-8.5,0c-0.2-0.1-0.4-0.2-0.6-0.3c0-0.3,0-0.6,0-0.9
			c2.9-2.1,6-1.6,9.1-0.4C85.9,99.2,85.9,99.7,85.5,100.3z"/>
		<path id="XMLID_375_" class="st246" d="M122.2,49.4c-0.1-0.4-0.2-0.7-0.3-1.1c2,0.7,2,0.7,2,3.3C122.6,51.3,122.5,50.2,122.2,49.4
			z"/>
		<path id="XMLID_374_" class="st247" d="M85.5,99c-3.1,0-6.1,0-9.2,0.1c0-0.1,0-0.2,0-0.4c-2-0.3-4-1.1-6.1-0.4
			c-2.7,0.1-5.2-1.2-7.9-0.5c-1.7-0.1-3.4-1-4.9,0.6c-1.8-0.5-2.9-1.7-3.2-3.6c0.4,0,0.9,0,1.3,0c0.8-0.4,1.7-0.8,2.6-1
			c2.5,0,5-0.1,7.1,1.6l0,0c3.4-0.6,6.8-1.2,10.2,0.1c0.5,0.2,1,0,1.4-0.2c3.6-0.9,7.1-0.8,10.5,0.7c2.4-1.3,4.8-0.9,7.2,0.1
			c0.3,1.2,0.3,1.2-1.7,2.3c-0.9,0.1-1.8,0.2-3.7,0.4c3.6,0.5,3.4,1.8,1.9,3.4c-0.3,0.6-0.8,1.1-1.2,1.7c-0.6,0.9-1.5,1.5-2.6,1
			c-1.3-0.5-1.4-1.6-0.9-2.7c0-0.9,1.9-0.5,1.3-1.8C86.9,99.8,86.5,98.9,85.5,99z"/>
		<path id="XMLID_373_" class="st248" d="M62.2,104c-0.4,0.2-0.8,0.4-1.2,0.6c-0.1-1.1-0.6-2.1-1.7-2.5c-0.4-0.8-0.8-1.7-1.2-2.5
			c0.3-0.3,0-1,0.5-1.2C59.8,100.2,61,102.1,62.2,104z"/>
		<path id="XMLID_372_" class="st249" d="M58.6,98.3c-0.2,0.4-0.4,0.8-0.5,1.2c-0.2-0.4-0.4-0.8-0.7-1.2c0.1-0.7-1.3-2.3,0.9-1.5
			c1.3,0.4,2.8-0.1,3.9,0.9c-0.2,0.2-0.4,0.3-0.6,0.5C60.6,98.1,59.6,97.3,58.6,98.3z"/>
		<path id="XMLID_371_" class="st250" d="M110.5,48.5c-1.3-1.6-1.9-2.8-2.3-4.3C110.3,45.4,110.3,45.4,110.5,48.5z"/>
		<path id="XMLID_370_" class="st251" d="M50.6,67.2c0,0.2,0,0.4,0,0.6c-0.7,0.7-1.6,0.3-2.4,0.2c-3.1-2.2-2.1,1.2-3.1,2.6
			c0.3-2.5-0.3-4.3-1.9-5.8c0.2-0.3,0.4-0.5,0.7-0.7c1.9-0.7,2.7,0.7,3.7,1.8c0.2,0,0.3,0,0.5,0C49.4,65.4,50.1,66,50.6,67.2z"/>
		<path id="XMLID_369_" class="st252" d="M48.2,67.9c0.8-0.1,1.6-0.1,2.4-0.2c1.4,1,4.3,0.9,2.5,3.9C51,70.9,50,68.8,48.2,67.9z"/>
		<path id="XMLID_368_" class="st253" d="M43.8,64.6c-0.2,0-0.5,0-0.7,0c-1.9-0.5-4.4-0.1-4.8-3c1.1-0.2,2.1,0,3,0.5
			C42.2,63,44,62.8,43.8,64.6z"/>
		<path id="XMLID_367_" class="st254" d="M76.9,95.9c-0.4,0-0.8,0-1.3,0c-0.1-0.1-0.2-0.3-0.1-0.4c0.1-0.1,0.1-0.2,0.2-0.2
			c1-1.4,0.4-2.9,0.6-4.4c0.1-0.7-0.1-1.8,0.2-2.1c2.5-1.9,5.4-0.7,8.2-0.8c2.1-0.1,1.3,1.8,1.4,3c-0.4,0.3-0.7,0.6-1.2,0.8
			c-1.6,0.1-3.1,0.3-4.7,0.2c-1.3-0.1-2.1,0.4-2.1,1.8C78,94.7,77.5,95.3,76.9,95.9z"/>
		<path id="XMLID_366_" class="st255" d="M65.4,89.9c-0.1-1.1,0-2.3,1.2-2.4c2.4-0.2,4.9-0.3,7.2,0c2,0.3,1,2.3,1.2,3.5
			C71.4,93,68.4,92.6,65.4,89.9z"/>
		<path id="XMLID_365_" class="st256" d="M84.9,91c0.4,0,0.8,0,1.3,0c0.5,1.4-1,3.3,1.2,4.2c0,0.2,0.1,0.4,0.1,0.7
			c-3.5,0-7,0-10.5,0c0-0.8,0.1-1.6,0.1-2.4c0.5-1.4,1.5-2.1,3-1.7C81.8,92.3,83.3,91.8,84.9,91z"/>
		<path id="XMLID_364_" class="st257" d="M65.3,95.4c-2.6-0.2-5.3-0.4-7.9-0.6c-1.6-1.1-2-2.5-1.3-4.3c2.9,0.1,5.4,2.4,8.5,1.9
			C64.8,93.3,65,94.3,65.3,95.4z"/>
		<path id="XMLID_363_" class="st258" d="M75.7,95.3c0,0.2-0.1,0.4-0.1,0.6c-3.5-0.2-7,0.1-10.4-0.6c0.2,0,0.3-0.1,0.5,0
			c0.6-0.4,0.4-1.1,0.4-1.7c0-1.7,0.5-2.7,2.3-1.6c2.1,1.2,4.4-0.8,6.5,0.3C75.2,93.3,75.5,94.3,75.7,95.3z"/>
		<path id="XMLID_362_" class="st259" d="M75,92.3c-2.6,0.8-5.2,2.5-7.9-0.1c-1.2,0.6-0.1,2.4-1.3,3c0.3-1.8-0.8-3.6-0.4-5.4
			c3.1,1.4,6.4,1.2,9.6,1.2C75,91.5,75,91.9,75,92.3z"/>
		<path id="XMLID_361_" class="st260" d="M64.5,90.4c-1.1-0.7-2.3-0.5-3.5-0.7c-1.6-0.2-2.5-1.2-3.1-2.6c-0.5-1.1,0.6-1.3,1.2-1.7
			C61.1,87,65,86.3,64.5,90.4z"/>
		<path id="XMLID_360_" class="st261" d="M71.4,70.7c-1.6,0.5-3.1-0.6-4.7-0.7c-0.9-0.1-1.4-0.5-1.3-1.3c0.1-0.8,0.8-0.9,1.4-0.9
			c2.3-0.1,4.7,0.3,6.8-1c0.6-0.4,1.3,0.4,1.3,1.2c0,1.1,0.5,2.4-1.1,2.8C73.2,70.9,72.3,70.7,71.4,70.7z"/>
		<path id="XMLID_359_" class="st262" d="M80.7,67.7c-0.4,1.6-1.7,2.4-3,3.1c-1.9-0.9-1.1-2.9-0.3-3c1.7-0.2,1.2-2,2.3-2.4
			C80.6,65.8,80.4,66.9,80.7,67.7z"/>
		<path id="XMLID_358_" class="st263" d="M42,54.2c1.4,0.4,2.8,0.7,4.2,0.6c0.5,3.7-0.1,4.9-2.5,4.9C43.2,57.9,42.1,56.3,42,54.2z"
			/>
		<path id="XMLID_357_" class="st264" d="M43.8,59.8c0.4-0.6,2,0.1,1.5-1.3c-0.6-1.6,1-2.4,1-3.7c0.6,0,1.2,0,1.9,0
			c0.1,2.2-0.7,4.1-1.3,6.1c-1,0.1-2-0.5-3-0.1C43.8,60.6,43.8,60.2,43.8,59.8z"/>
		<path id="XMLID_356_" class="st265" d="M70.7,43.1c-0.7,0.8-1.3,1.6-2,2.4c-3.1,1-6.2,0.9-9.2,0c-1.9-0.4-3.9,0.7-5.7-0.7
			c-0.3-0.3-0.4-0.6-0.4-1c1.1-0.1,0.9-0.8,0.7-1.5c0-0.6,0.4-0.9,0.9-1.1c4.7-0.2,9.4,0.9,14.1,0.9C69.8,42.2,70.4,42.6,70.7,43.1z
			"/>
		<path id="XMLID_355_" class="st266" d="M41.4,52.4c-0.7,0-1.4,0-2.1-0.1c-4.4-0.4-4.4-0.5-3.2-4.7c1.8-0.3,3.6,0.3,5.3,0.5
			c0.1,0.1,0.3,0.2,0.4,0.3C42.5,49.8,42.4,51.1,41.4,52.4z"/>
		<path id="XMLID_354_" class="st267" d="M40.8,46.9c-1.1-0.9-3.7,0.4-3.4-2.3c0.2-1.1,0.8-2.5,2.4-2.2c1.3,0.2,3-0.2,2.8,2.2
			c0,0.4,0.7,0.9,1.1,1.3c0.6,1,0.1,1.3-0.8,1.4C42.3,46.9,41.6,46.8,40.8,46.9z"/>
		<path id="XMLID_353_" class="st268" d="M47.6,43.7c1.6,1.2,3.3-0.4,4.9,0.2c0.8,1.7,0,3-1.2,4.2c-1.7-0.2-3.5,0.5-4.8-1.1
			c-0.2-0.2-0.4-0.5-0.5-0.8C45.9,45,46.5,44.2,47.6,43.7z"/>
		<path id="XMLID_352_" class="st269" d="M51.3,48c-0.4-1.6,0.8-2.7,1.2-4c0.3,0,0.6,0,1,0c0,0.2,0.1,0.3,0.2,0.5
			c0.8,1.3,1.4,2.7-0.1,3.9C52.7,48.5,51.9,48.7,51.3,48z"/>
		<path id="XMLID_351_" class="st270" d="M54.9,41.7c-0.3,0.3-0.5,0.5-0.8,0.8c-0.3-0.1-0.6-0.1-0.9-0.2c-0.1-1.7,1.8-2,2.3-3.2
			c0.4,0.2,0.7,0.4,1.1,0.5C57.1,41.1,56,41.4,54.9,41.7z"/>
		<path id="XMLID_350_" class="st271" d="M46.2,46.2c0.2,0,0.5,0.1,0.7,0.1c0.6,2.3-1.2,1.8-2.4,2c-0.9-0.1-2-0.1-1.9-1.5
			c0.7,0.1,1.1-0.3,1.1-1c0.3-0.7,0.7-0.4,1.2-0.2C45.3,46,45.7,46.2,46.2,46.2z"/>
		<path id="XMLID_349_" class="st7" d="M42.6,46.9c0.4,0.9,1.1,0.7,1.8,0.6c0.2,0.2,0.3,0.5,0.2,0.8c-0.2,0.4-0.5,0.7-1,0.9
			c-1,0.3-1.7-0.4-2.3-1c0,0,0,0,0,0c-0.2-0.4-0.4-0.8-0.6-1.2C41.4,46.5,42,45.7,42.6,46.9z"/>
		<path id="XMLID_348_" class="st272" d="M46.2,46.2c-0.9,0.7-1.2,0.2-1.3-0.6c0.8-0.8,0.8-2.7,2.7-1.9
			C47.2,44.6,46.7,45.4,46.2,46.2z"/>
		<path id="XMLID_347_" class="st273" d="M52.4,61.5c-1.7,0.1-3.4,0.2-5-0.6c-1.1-2.3,0-4.1,1.2-6c1.9,0.1,3.8-0.6,5.6,0.5
			c-1.3,1.2-2.3,2.4-1.3,4.4C53.3,60.4,52.9,61,52.4,61.5z"/>
		<path id="XMLID_346_" class="st274" d="M52.4,61.5c-0.1-0.6,0-1.3-0.3-1.8c-1.9-3-1.5-3.9,2.1-4.3c0.6,0,1.2,0.1,1.9,0.1
			c-0.9,2-1.3,4-1.3,6.2C54,61.7,53.2,61.6,52.4,61.5z"/>
		<path id="XMLID_345_" class="st275" d="M54.8,51.8c0.8,0.8,1.6,1.5,2.4,2.3c-2-0.7-4.4,0.1-6.1-1.9c-0.9-1-1,1.6-2.2,1.4
			c-1.1-0.8-1.3-2.1-2.3-3c-0.6-0.5-1.1-1.5,0.2-2.2c0.5-0.1,0.9,0,1.3,0.4c0.8,1,2.3,0.1,3.1,1.1C52.1,51.2,54.5,49.6,54.8,51.8z"
			/>
		<path id="XMLID_344_" class="st271" d="M46.9,48.5c-0.3,0.3-0.5,0.8-0.2,1c2,0.7,1.9,2.4,2.3,4c-1.6-1.1-3.8-0.1-5.2-1.8
			c-0.9-0.8-0.3-1.7-0.2-2.5c0-0.2,0.1-0.5,0.1-0.8c0.3-0.1,0.5-0.3,0.8-0.4C45.3,47.8,46.3,47.3,46.9,48.5z"/>
		<path id="XMLID_343_" class="st276" d="M48.7,55c-0.4,2-0.8,4-1.2,6C47.3,61,47,61,46.8,61c-0.9-2.3,0.1-4.3,1.3-6.1
			C48.3,54.9,48.5,54.9,48.7,55z"/>
		<path id="XMLID_342_" class="st271" d="M41.3,48.2c0.8,0.1,1.6,0.2,2.3,0.3c0,0,0.2,0.2,0.2,0.2c0,1.5-0.5,2.8-1.8,3.6
			c-0.2,0-0.4,0-0.6,0C41.4,51,41.3,49.6,41.3,48.2z"/>
		<path id="XMLID_341_" class="st277" d="M42,52.3c0.6-1.2,1.2-2.4,1.8-3.6c1.5,1-0.2,2,0,3.1C43.2,52,42.6,52.2,42,52.3z"/>
		<path id="XMLID_340_" class="st278" d="M50.6,67.2c-1-0.1-1.7-0.7-2.5-1.3c-0.1-1.7,0.5-2.6,2.4-2.5c1.3,0.1,2.6,0.1,3.9,0.1
			C54,68,54,68,50.6,67.2z"/>
		<path id="XMLID_339_" class="st279" d="M43.8,64.6c-0.8-0.8-2-1.2-2.5-2.4c2.8-0.1,5.7-0.3,6.2,3.6C46.4,65.3,45.3,64.3,43.8,64.6
			z"/>
		<path id="XMLID_338_" class="st280" d="M43.2,81.2c-1.2-0.5-2.1,0-3.1,0.6c-0.1-2-1.4-3.4-2.6-4.8c2-0.5,1.3-1.9,1.1-3.2
			c-0.1-0.4,0-0.8,0.5-0.9c0.5,0,0.8,0.3,0.7,0.7c-0.6,3.4,1.5,5.3,4,6.9C43.9,80.9,43.5,81,43.2,81.2z"/>
		<path id="XMLID_337_" class="st281" d="M43.2,81.2c0.2-0.2,0.4-0.4,0.6-0.6c1.6-0.2,1-1.4,1.2-2.3c1,0.7,0.1,2.3,1.3,2.9
			c0.8,0.1,1.5,0.5,1.8,1.3C46.2,82.9,44.8,81.9,43.2,81.2z"/>
		<path id="XMLID_336_" class="st280" d="M37.1,76.9c-1.6-1-1.7-2.6-1.8-4.2C36.6,73.8,37.6,75.1,37.1,76.9z"/>
		<path id="XMLID_335_" class="st33" d="M92.9,98.3c0.4-0.9,1.8-1,1.7-2.3c1,0,2.2-0.4,2.6,1.1C95.7,97.6,94.3,97.9,92.9,98.3z"/>
		<path id="XMLID_334_" class="st282" d="M54.9,41.7c0.6-0.7,1.1-1.4,1.7-2.1c4.3-0.4,8.7-0.1,13,0.3c1,0.1,2.1-0.1,2.3,1.4
			c-0.4,0.6-0.8,1.2-1.2,1.9C65.4,43.5,60.1,43.3,54.9,41.7z"/>
		<path id="XMLID_333_" class="st283" d="M59.8,44.6c2.9,1.3,6.1-0.5,9,1c-0.4,1-0.8,2-1.2,3c-3-0.2-6-0.3-9-0.5
			C56.6,46.1,58.2,45.3,59.8,44.6z"/>
		<path id="XMLID_332_" class="st284" d="M94.7,57.6c-0.8-0.3-1.6,0.7-2.3,0c-0.6-0.6,0.2-1,0.5-1.5c1.2,0.2,2.5,0,3.6,0.6
			C96.3,57.6,95.3,57.3,94.7,57.6z"/>
		<path id="XMLID_331_" class="st285" d="M56.1,90.4c0,1.6,0.5,3,1.3,4.3c-0.6,0.9-1.2,0-1.8,0c-0.1-0.4-0.1-0.8-0.2-1.2
			c-0.1-2.1-1.5-4-1.1-6.2C55.5,88,55.2,89.5,56.1,90.4z"/>
		<path id="XMLID_330_" class="st286" d="M59.8,44.6c-0.6,1.1-1.9,1.9-1.2,3.5c-1.2,0-2.5,0-3.7,0c-0.4,0.4-0.8,0.4-1.2-0.1
			c0.3-1.2-0.7-2.4,0-3.6C55.7,44.5,57.7,44.5,59.8,44.6z"/>
		<path id="XMLID_329_" class="st287" d="M54.8,51.8c-1-1-2.9-0.4-3.6-1.9c2.2,0.3,4.5-0.9,6.7,0.1C57.3,51.1,56.4,52,54.8,51.8z"/>
		<path id="XMLID_328_" class="st288" d="M53.6,48.1c0.4,0,0.8,0,1.2,0.1c-2.1,1.7-4.5,0.1-6.7,0.7c-0.4-0.1-0.8-0.2-1.2-0.2
			c-0.7-0.7-1.7-0.2-2.5-0.4c0-0.2,0-0.4,0-0.6c1,0,2.1,0.3,2.5-1.2c1.1,1.6,3,0.9,4.4,1.7C52.1,48,52.8,48,53.6,48.1z"/>
		<path id="XMLID_327_" class="st289" d="M116.8,67.7c1.5,1,0.2,2.5,0.6,3.7c-1.8,0.2-3.7,0.5-5.5,0.7c0.4-1.5-1.1-2.9,0-4.3
			c1.3,0.7,3.4-1.7,4.2,1.3C116.2,69.5,116.5,68.2,116.8,67.7z"/>
		<path id="XMLID_326_" class="st290" d="M82.4,47.5c-1,1.5-4.3,1.8-6.2,0.5C78.3,48.5,80.3,47.4,82.4,47.5z"/>
		<path id="XMLID_325_" class="st291" d="M86.9,102.1c0.1,0.7-0.6,1.7,0.5,2.1c0.8,0.3,1.5-0.1,2.1-0.7c0.5-0.5,1-0.9,1.6-1.3
			c-0.8,2.7-2.1,5-5.5,4.8c0-0.5,0-0.9-0.1-1.4c0,0,0.1-0.2,0.1-0.2c-0.3-1.7-0.2-3.3,1-4.6C87.1,101.1,87.1,101.5,86.9,102.1z"/>
		<path id="XMLID_324_" class="st238" d="M70.2,98.3c2.1-1.2,4.1-0.9,6.1,0.4C74.2,99.3,72.3,98.2,70.2,98.3z"/>
		<path id="XMLID_323_" class="st292" d="M86.6,100.8c-0.4,1.5-0.7,3-1.1,4.5c-1.1-0.9-0.2-2.1-0.5-3.2c0.7-0.5,0.5-1.2,0.4-1.8
			c0-0.4,0-0.9,0-1.3c1.5-2.3,1.7,0.2,2.4,0.6C87.9,100.4,87.4,100.8,86.6,100.8z"/>
		<path id="XMLID_322_" class="st293" d="M86.6,100.8c0.2-0.7,0.5-1.2,1.3-1.2c0.6,0.6,2.2,0.3,1.9,1.4c-0.3,1.6-2,0.5-3,1.1
			C86.8,101.6,86.7,101.2,86.6,100.8z"/>
		<path id="XMLID_3_" class="st294" d="M84.9,91c-1.4,1.5-2.8,3.2-5.2,1.6c-1.2-0.8-1.8,0.4-2.7,0.9c-0.3-1.9,0.6-2.6,2.4-2.5
			C81.2,91.1,83,91,84.9,91z"/>
	</g>
</g>
</svg>
