<?xml version="1.0" encoding="utf-8"?>
<!-- Generator: Adobe Illustrator 19.0.0, SVG Export Plug-In . SVG Version: 6.00 Build 0)  -->
<svg version="1.1" id="Layer_1" xmlns="http://www.w3.org/2000/svg" xmlns:xlink="http://www.w3.org/1999/xlink" x="0px" y="0px"
	 viewBox="0 0 160 160" style="enable-background:new 0 0 160 160;" xml:space="preserve">
<style type="text/css">
	.st0{fill:#FFFFFF;}
</style>
<g>
	<path d="M8.8,152.2c0-47.6,0-95.2,0-142.8c47.6,0,95.2,0,142.8,0c0,47.6,0,95.2,0,142.8C104.1,152.2,56.4,152.2,8.8,152.2z
		 M46.5,115.6c0.7,0.5,1.5,0.9,2.2,1.4c0.4-0.8,1.2-1.5,1.2-2.3c0.2-3.7,0.2-7.4,0.1-11c-0.1-1.3-0.8-2.5-1.2-3.5
		c-1.2,0.3-2.1,0.3-2.7,0.6c-0.7,0.5-1.4,1.2-1.8,2c-0.4,0.8-0.5,1.7-0.8,2.6c-0.6-0.6-0.6-1.1-0.6-1.6c0.2-1.7-0.2-2.9-2.3-3
		c-2.4-0.1-2.2,1.5-2.2,3.1c0,3.4,0,6.8,0,10.2c-0.9,0.4-1.8,0.7-3.3,1.2c-0.2-3.3-0.4-6.2-0.4-9c0-1.8,0.2-3.8,3.3-3
		c0.2-0.5,0.4-0.9,0.5-1.4c-0.8-0.3-1.7-1.1-2.5-0.9c-0.7,0.1-1.7,1.1-1.7,1.7c-0.1,4.3,0,8.6,0.2,13c0,0.7,0.8,1.3,1.2,2
		c0.1-0.3,0.2-0.6,0.3-0.9c2.2,0,4.4,0,6.9,0c0-1.8,0-3.4,0-4.9c0.1,0,0.2,0,0.3,0c0.6,1.8,1.1,3.7,1.7,5.5c0.3-0.1,0.6-0.1,0.9-0.2
		C46.3,116.7,46.4,116.2,46.5,115.6L46.5,115.6z M23.3,14c-0.5,0.8-1.1,1.5-1.6,2.3c0.7,3,1.5,6.4,2.3,9.9c-0.3,0.1-0.6,0.2-1,0.3
		c-0.5-0.9-1-1.9-1.6-3.2c-0.2,0.8-0.4,1.1-0.4,1.5c-0.1,6.9-0.2,13.9-0.2,20.8c0,0.6,0.6,1.3,1,1.9c1.4,2.2,2.4,4.5,1.5,7.6
		c-0.9-1.2-1.6-2.1-2.3-3c0.8,3.5,4.2,6.3,2.2,10.6c-0.8-0.9-1.5-1.8-2.6-3.1c-0.6,4.5-0.7,8.2,1.8,11.6l-0.1-0.1
		c0.6,2.6,1.2,5.3,1.7,7.9c-4-1.5-5.6-4.1-5.5-7.6c0.1-2.6,0.7-5.3,1-7.9c0.1-0.8-0.4-1.6-0.6-2.4c-0.6,0.6-1.7,1.1-1.8,1.8
		c-1.1,5.2-1.6,10.4,0.2,15.5c0.6,1.7,1.6,3.7,3,4.7c3.2,2.3,3.9,5.3,3.5,8.9c-0.2,1.6,0.1,3.3-0.1,4.8c-0.2,1.3-0.6,2.6-1.3,3.6
		c-4.5,6-4.7,12.7-0.5,18.8c2.9,4.2,2.3,8.4,0.6,12.9c-0.9,2.4-1.3,5.2-0.9,7.7c0.5,3.5,1.9,6.9,2.8,10.3c0.2-0.6,0.8-1.6,0.8-2.6
		c-0.1-2-0.6-3.9-0.7-5.9c-0.1-2.5-0.8-5.6,0.4-7.4c3.6-5.2,3.1-10.4,0.5-15.3c-2.2-4.1-1-8.2-1.3-12.2c0-0.4,0.3-1,0.6-1.3
		c4.5-4,5-9.3,4.5-14.7c-0.3-2.9-1-6.4-2.9-8.3c-3-3-2.5-5.8-1.6-9c0.2-0.6,0.6-1.5,0.4-1.8c-2.1-2.9-0.9-5.6,0-7.9
		c-0.4-1.2-1.1-2.2-0.9-3.1c0.4-2.2,1.1-4.3,1.7-6.4L25.9,54c0.4-0.8,1.1-1.6,1.1-2.4c0-7.3-0.1-14.5-0.2-21.8
		c0-1.4,0.1-2.9,0.1-4.3c-0.2-0.7-0.3-1.5-0.6-2.5c-0.6,1.3-1.1,2.3-1.6,3.3c-0.2-0.1-0.5-0.2-0.7-0.2c0.4-2.6,0.7-5.1,1.1-7.7
		c-0.1-1.8-0.3-3.7-0.4-5.5c-0.2,0-0.5,0-0.7,0C23.8,13.2,23.6,13.6,23.3,14z M103.7,92.2c0.2,0,0.4,0,0.5,0
		c1.2-7.3,2.3-14.5,3.5-21.8c0.4,4.7,0.5,9.4,0.3,14c-0.1,2.4-0.8,4.7-1.1,7.1c-0.1,0.4,0.1,1.3,0.2,1.3c1.4,0.1,2.8,0.1,4.1,0.1
		c-0.1-0.8-0.3-1.6-0.4-2.4c-0.1-0.9-0.3-1.9-0.4-2.8c0-6.4-0.1-12.8,0-19.1c0-1.4,0.8-2.8,0.9-4.2c0-0.6-0.6-1.5-1.2-1.8
		c-0.7-0.3-1.6,0-2.5,0.1c-1,6.1-1.9,12-2.9,17.9c-1.3-5.2-2-10.2-2.8-15.3c-0.5-3.1-0.8-3.3-3.6-2.4c0.2,3.2,0.5,6.4,0.5,9.5
		c0.1,5.1,0,10.3,0,15.4c0,0.8-0.1,1.7-0.2,2.5c-0.2,0.8-0.5,1.7-0.7,2.5c1,0.1,2,0.3,3.3,0.4c-3-7.9-0.8-15.6-1.1-23.2
		C101.4,77.5,102.6,84.9,103.7,92.2z M119.8,62.7c1.9,6.8-1.8,12.4-2.6,18.4c0-6.1,0-12.2,0-18.4c-1.1,0-2.6,0-4.4,0
		c2.3,5.1,1.2,10.2,1.3,15.2c0.1,5-0.3,10-0.4,15.1c1,0,2.5,0,4.7,0c-2.9-3.7-1-7-0.4-10.3c0.7-3.3,1.6-6.7,2.3-9.5
		c0,6.3,0,13,0,19.8c4,0.8,4.1,0.7,3.1-3.2c-0.2-0.7-0.1-1.5-0.1-2.3c0.5-8.2-1.1-16.5,1.1-24.8C122.8,62.7,121.4,62.7,119.8,62.7z
		 M137,103.2c0.4,0,0.8,0.1,1.2,0.1c0,0.8,0,1.5,0,2.3c0.1,2.9,0.1,5.9,0.4,8.8c0.1,0.9,1.1,1.7,1.7,2.6c0.6-0.9,1.6-1.7,1.6-2.6
		c0.2-3.7,0.2-7.4,0-11.1c-0.1-1.2-0.8-2.3-1-2.8c-3.7,0.2-6.6,0.4-9.9,0.6c0,4.3,0,8.2,0,12.2c-0.1,0-0.2,0-0.3,0
		c-0.4-4-0.9-8.1-1.3-12.1c-0.3,0-0.5,0-0.8,0c-0.3,1.8-0.6,3.6-1,6.1c-0.5-2.6-0.9-4.4-1.2-6.2c-0.8,0.7-0.9,1.3-1,1.9
		c-0.3,3.4-0.6,6.8-1,10.2c-0.1,0.6-0.9,1.1-1.4,1.6c-0.3-0.6-1-1.2-1-1.7c0.1-1.2,0.1-2.7,0.8-3.4c1.1-1.2,1.2-1.5-0.1-2.6
		c-1.5-1.2-1.2-2.7,0.3-4c0.5-0.4,0.9-1,1.3-1.5c-0.5-0.3-1.2-0.8-1.6-0.7c-0.7,0.2-1.6,0.9-1.6,1.4c-0.1,4.8-0.1,9.6-0.1,14.7
		c1.5-0.1,2.7-0.1,4-0.2c0.4-3.2,0.8-6.1,1.2-9.7c0.4,2.2,0.7,3.8,1,5.4c0.2,0,0.5,0,0.7,0c0.3-1.7,0.7-3.4,1-5c0.1,0,0.2,0,0.3,0
		c0.3,3.1,0.5,6.2,0.8,9.5c1.6-0.1,3-0.2,4.7-0.3c-0.4-0.8-0.5-1.1-0.7-1.2c-2.5-1.8-2.9-3.7-0.9-5.9c1-1.1,0.9-1.4-0.2-2.4
		c-0.7-0.6-0.8-2.1-0.6-3.2c0.1-0.5,1.7-1.1,2.3-0.9c0.7,0.3,1.1,1.5,1.3,2.3c0.2,0.8,0,1.7,0,2.6c0,2.8,0,5.5,0,8.3
		c0.4,0,0.7,0,1.1,0C137,112,137,107.6,137,103.2z M64.8,76.5c0.3,3.7,0.2,6.3,0.7,8.8c0.4,2.2,1,4.5,2.1,6.4
		c1.4,2.5,4.2,2.3,5.7-0.1c0.6-0.9,1.1-2,1.4-3.1c1.6-7.3,1.7-14.7-0.1-22c-0.5-2-1.4-4-4-4.1c-2.9-0.1-3.8,2.1-4.2,4.2
		C65.5,70.2,65.2,73.9,64.8,76.5z M88,62.7c0.5,10.2,0.9,20.2-0.3,30.5c2.1,0,4.6,0.1,7-0.1c0.6,0,1.6-0.7,1.6-1.1
		c0.2-2.2,0.1-4.4,0.1-6.6c-0.6,0.8-0.8,1.6-0.7,2.4c0,2-1,2.7-2.8,2.7c-2,0-2-1.3-2-2.7c0-1.9-0.1-3.8,0.1-5.7
		c0.1-1.1,0.8-2.2,1.2-3.3c0.6,0.9,1.2,1.8,1.8,2.7c0.1,0.1,0.3,0,0.4,0.1c0-2.6,0-5.2,0-8.3c-0.4,0.6-0.5,0.8-0.7,1
		c-0.5,0.6-1.1,1.2-1.6,1.9c-0.4-0.7-1.2-1.4-1.2-2.1c-0.2-2.4-0.2-4.8,0-7.1c0.1-0.7,1.2-1.7,1.9-1.7c0.7,0,1.7,0.9,2.1,1.6
		c0.4,0.7,0.2,1.7,0.3,2.6c0.2,0,0.3,0,0.5,0c0-2.2,0-4.4,0-6.6C92.8,62.7,90.1,62.7,88,62.7z M55.6,62.8c0.2,3.3,0.5,6.5,0.6,9.7
		c0.1,5.1,0,10.3,0,15.4c0,0.8,0.1,1.9-0.3,2.5c-1.8,2.6-0.3,2.9,1.8,2.8c0.8,0,1.6-0.1,1.9-0.2c-0.5-4-0.9-7.8-1.4-11.8
		c4.1,0.1,5-2.5,5.3-5.2c0.3-2.3,0.3-4.8,0.2-7.1C63.3,63.2,60.9,61.6,55.6,62.8z M86.7,93.2c-3.5-10.4-6.8-20.3-0.3-30.5
		c-1.7,0-2.7,0-3,0c-0.5,3.2-0.9,6.2-1.3,9.1c-0.4,0-0.7,0-1.1,0c-0.3-3-0.5-6.1-0.8-9.1c-1.1,0-2.5,0-4.5,0
		C80.9,73,80.7,83,75.4,93c1.7,0,2.6,0,2.7,0c0.7-4,1.4-7.6,2.1-11.2c0.4,0,0.9,0,1.3,0c0.2,3.2,0.2,6.4,0.5,9.6
		c0.1,0.6,0.7,1.5,1.2,1.7C84.1,93.4,85.2,93.2,86.7,93.2z M40,92.9c4.1,0.7,4.2,0.6,3.3-3.2c-0.1-0.5-0.2-1.1-0.2-1.7
		c-1-7.8-2-15.7-3.1-23.5c-0.1-0.8-0.9-1.4-1.3-2.1c-0.5,0.6-1.3,1.2-1.4,1.9c-1.5,9.1-2.8,18.2-4.2,27.3c-0.1,0.5,0.2,1.3,0.6,1.4
		c0.6,0.2,1.4,0.2,1.9,0c0.3-0.1,0.4-1,0.4-1.5c-0.1-2.1-0.3-4.2-0.4-6.3c-0.1-1.5,0.6-2.2,2.2-2.2c1.6,0,2.3,0.7,2.3,2.2
		C40.1,87.8,40,90.3,40,92.9z M140,93c4.2,0.6,4.2,0.6,3.2-3.4c-0.1-0.6-0.1-1.1-0.2-1.7c-1-7.5-1.9-15.1-3-22.6
		c-0.1-1-1-1.9-1.6-2.8c-0.5,1-1.3,1.9-1.4,3c-0.5,2.7-0.7,5.5-1.1,8.2c-0.9,6-1.9,12-2.8,18c-0.1,0.5,0.2,1.4,0.5,1.5
		c0.7,0.2,1.5,0.1,2.1-0.1c0.2-0.1,0.1-1,0.1-1.5c-0.1-2.1-0.3-4.2-0.3-6.3c-0.1-1.6,1-2.3,2.4-1.9c0.8,0.3,2,1.2,2.1,1.9
		C140.2,87.6,140,90.2,140,93z M44.8,62.7c2.3,5.1,1.2,10.2,1.3,15.2c0.1,5-0.3,10-0.4,15.3c0.6,0,1.8,0,2.9,0
		c1.5,0,1.7-0.8,1.2-2.1c-0.5-1.2-1.1-2.6-1.1-3.9c-0.1-6.3-0.1-12.6,0-18.8c0-1.1,0.1-2.2,0.2-3.2c5.4-1.2,3.3,3.6,4.7,5.8
		c0-3,0-5.6,0-8.3C50.5,62.7,47.8,62.7,44.8,62.7z M86.3,105.2c-0.1-1,0.1-2.1-0.3-2.9c-0.3-0.6-1.3-1.3-2-1.4
		c-0.7,0-2.1,0.7-2.1,1.2c-0.2,4.9-0.1,9.8-0.1,14.9c1.4-0.1,2.8-0.2,4.3-0.3c0.1-1.7,0.2-3.2,0.3-5.4c0.8,2.5,1.4,4.3,2,6.1
		c0.3-0.1,0.6-0.2,0.9-0.2c-1.5-4.6-3.3-9.1-0.3-13.7c0.3,1.2,0.2,2.4,0.3,3.6c0.1,2.7,0.2,5.3,0.5,7.9c0.1,0.7,1.1,1.3,1.7,1.9
		c0.5-0.6,1.4-1.2,1.4-1.8c0.1-4.4,0-8.9-0.2-13.3c0-0.7-0.8-1.4-0.9-1.7C87.8,100,87.2,102.6,86.3,105.2z M126,86.8
		c-0.2,0-0.4,0-0.6,0.1c0,1.3-0.2,2.7,0.1,4c0.1,0.9,0.9,2.4,1.2,2.4c1.1-0.2,2.6-0.6,2.9-1.4c0.8-1.9,1.2-4,1.4-6
		c0.2-2.7,0.1-5.5,0.1-8.3c0.1-4.9,0.2-9.8,0.3-14.7c-1,0-2.4,0-4.2,0c2.5,4.6,1.4,9.4,1.4,14c0,4.7,0.9,9.5-0.7,14.1
		c-0.3,0-0.7,0-1,0.1C126.7,89.5,126.3,88.1,126,86.8z M63.1,101.7c-0.3,0-0.5,0-0.8,0c0,4.3,0,8.7,0,13c-0.4,0-0.7,0-1.1,0
		c0-3.6,0-7.2,0-10.9c-0.4,0-0.8,0-1.1,0c0,3.6,0,7.2,0,10.8c-0.3,0-0.6,0-0.9-0.1c0-4.3,0-8.6,0-12.9c-0.2,0-0.4,0-0.6,0
		c0,3.8,0,7.6,0,11.4c-0.2,0-0.4,0.1-0.6,0.1c-0.6-4-1.3-7.9-1.9-11.9c-0.3,0-0.5,0-0.8,0.1c-0.7,5.1-1.3,10.2-2,15.3
		c0.1,0,0.3,0,0.4,0c0.7-1.4,1.5-2.8,2.2-4.2c0.6,1.5,1.2,3,1.8,4.5c1.8,0,3.6,0,5.4,0C63.1,111.7,63.1,106.7,63.1,101.7z
		 M107.4,99.9c-0.4,0-0.7,0-1.1,0c-0.4,1.4-1,2.8-1.1,4.2c-0.2,2.7,0.1,5.3-0.1,8c-0.1,1.1-0.8,2.2-1.3,3.3c-0.5-0.1-1-0.2-1.5-0.3
		c-0.1-3-0.3-5.9-0.3-8.9c0-1.9,0.4-3.5,3.3-2.5c0-0.3,0-0.5,0-0.8c-0.7-0.6-1.3-1.3-2-1.9c-0.6,0.7-1.7,1.4-1.7,2.2
		c-0.3,3-0.6,6.1-0.4,9.1c0.1,1.9,1,3.7,1.5,5.4c0.8-0.1,1.1-0.1,1.2-0.2c0.6-0.5,1.1-1,1.6-1.5c2.1,1.5,3.2,1.3,3.3-1.2
		c0.2-4,0.1-8,0-12C108.6,101.8,107.8,100.9,107.4,99.9z M67.8,99.6c-0.4,0.1-0.7,0.1-1.1,0.2c-0.2,1-0.5,2.1-0.5,3.2
		c-0.1,3.6-0.1,7.2,0,10.8c0,1.1,0.8,2.2,1.2,3.3c0.8-1,1.7-2,2.4-3.1c0.3-0.4,0.2-1.1,0.2-1.7c-0.2-3.2-0.3-6.4-0.7-9.6
		C69.1,101.6,68.3,100.6,67.8,99.6z M112.5,99.7c-0.1,1.1-0.3,2.1-0.3,3.1c-0.1,3.6-0.1,7.2,0,10.8c0,1.1,0.7,2.3,1,3.4
		c0.9-1.1,1.8-2.1,2.5-3.2c0.3-0.6,0.2-1.5,0.1-2.2c-0.2-2.7-0.3-5.4-0.6-8.1C115.1,101.8,114.9,100.2,112.5,99.7z M72.6,99.6
		c-2.2,2.8-2.8,14.5-1.2,16.7c0.3,0.4,1.1,0.8,1.3,0.7c0.6-0.4,1.3-1,1.3-1.6c0.1-4.4,0-8.9-0.1-13.3
		C73.8,101.3,73.1,100.6,72.6,99.6z M116.5,116.7c0.2,0,0.3,0,0.5,0c0.4-1.3,0.4-2.9,1.2-3.8c2-2.3,3.1-8.5,1.4-11
		c-0.3-0.5-1.2-0.9-1.8-1c-0.4,0-1.2,0.7-1.2,1.2C116.5,107,116.5,111.9,116.5,116.7z M94,116.7c0.2,0,0.4,0,0.5,0
		c0.3-1.2,0.2-2.9,0.9-3.6c3.6-3.2,2.6-7,1.8-10.7c-0.1-0.6-1.3-1-2-1.5c-0.4,0.6-1.2,1.2-1.2,1.8C93.9,107.4,94,112,94,116.7z
		 M79.8,108.2c-0.3,0-0.7,0-1,0c-0.3-2-0.6-3.9-1-5.9c-0.4,1.5-0.4,2.9-0.4,4.3c0.2,3.4,3.5,5.9,2.8,9.5c0,0,0.2,0.1,0.4,0.2
		c0-4.9,0-9.7,0-14.5c-0.1,0-0.2,0-0.3,0C80.2,104,80,106.1,79.8,108.2z M51.1,116.6c0.2,0,0.5,0.1,0.7,0.1c0-3.7,0-7.3,0-11
		c0-0.8,0.4-1.7,0.8-2.5c0.4-0.7,0.9-1.2,1.4-1.8c-0.9-0.2-1.8-0.3-3-0.5C51.1,106.4,51.1,111.5,51.1,116.6z"/>
	<path class="st0" d="M26,53.9c-0.6,2.1-1.4,4.2-1.7,6.4c-0.2,0.8,0.5,1.8,0.9,3.1c-1,2.4-2.1,5.1,0,7.9c0.2,0.3-0.2,1.2-0.4,1.8
		c-0.9,3.3-1.4,6,1.6,9c1.9,1.9,2.6,5.4,2.9,8.3c0.5,5.4-0.1,10.7-4.5,14.7c-0.3,0.3-0.6,0.8-0.6,1.3c0.2,4.1-0.9,8.1,1.3,12.2
		c2.6,4.9,3.1,10.1-0.5,15.3c-1.2,1.7-0.5,4.9-0.4,7.4c0.1,2,0.6,3.9,0.7,5.9c0,1-0.6,2-0.8,2.6c-1-3.4-2.4-6.8-2.8-10.3
		c-0.3-2.5,0.1-5.3,0.9-7.7c1.6-4.5,2.2-8.8-0.6-12.9c-4.2-6.1-4-12.8,0.5-18.8c0.7-1,1.1-2.4,1.3-3.6c0.2-1.6-0.1-3.2,0.1-4.8
		c0.3-3.6-0.3-6.6-3.5-8.9c-1.4-1-2.4-3-3-4.7c-1.9-5.1-1.3-10.3-0.2-15.5c0.1-0.7,1.2-1.2,1.8-1.8c0.2,0.8,0.7,1.7,0.6,2.4
		c-0.2,2.6-0.9,5.3-1,7.9c-0.1,3.5,1.6,6.1,5.5,7.6c-0.6-2.6-1.2-5.3-1.7-7.9c0.4,0,1.1,0.2,1.2,0c1.2-2.7-0.2-7.2-3.3-8.8
		c0.8,3,1.5,5.9,2.3,8.9c-2.6-3.4-2.4-7.1-1.8-11.6c1.1,1.3,1.8,2.2,2.6,3.1c2-4.3-1.4-7.1-2.2-10.6c0.7,0.9,1.4,1.8,2.3,3
		c0.9-3.1-0.1-5.4-1.5-7.6c-0.4-0.6-1-1.3-1-1.9c0-6.9,0.1-13.9,0.2-20.8c0-0.3,0.2-0.7,0.4-1.5c0.7,1.3,1.2,2.2,1.6,3.2
		c0.3-0.1,0.6-0.2,1-0.3c-0.8-3.4-1.6-6.9-2.3-9.9c0.5-0.7,1.1-1.5,1.6-2.3c0,1.9,0,3.8,0,6.5c1-1.2,1.4-1.6,1.8-2
		c-0.4,2.6-0.7,5.1-1.1,7.7c0.2,0.1,0.5,0.2,0.7,0.2c0.5-1,1-2,1.6-3.3c0.2,1,0.4,1.8,0.6,2.5c-2.8,2-2.8,4.8-2.1,7.9
		c0.7-1.2,1.3-2.4,2-3.6c0.1,7.3,0.2,14.5,0.2,21.8C27,52.5,26.3,53.2,26,53.9c0.2-2.1,0.5-4.3,0.8-6.5c-0.4-0.1-0.8-0.1-1.2-0.2
		c-0.6,2.4-1.2,4.7-1.9,7.6C25.1,54.3,25.5,54.1,26,53.9z M24.3,86.6c0,3.8,0,7,0,10.5C26.7,93.6,26.8,90.1,24.3,86.6z M22.5,47.6
		c0.5-0.1,1.1-0.2,1.6-0.4c-0.6-2.4-1.2-4.7-1.8-7.1c-0.5,0.1-0.9,0.2-1.4,0.3C21.4,42.9,22,45.2,22.5,47.6z M22.5,33.6
		c0.5-0.1,1.1-0.2,1.6-0.3c-0.6-2.5-1.2-4.9-1.8-7.4c-0.4,0.1-0.9,0.2-1.3,0.3C21.4,28.6,21.9,31.1,22.5,33.6z M27,40.5
		c-0.3-0.1-0.5-0.1-0.8-0.2c-2.2,2.9-2.5,4.5-0.8,7.3C25.9,45.2,26.5,42.8,27,40.5z M23.6,106.7c-2.6,3.7-2.5,6,0,7.9
		C23.6,112.1,23.6,109.8,23.6,106.7z M22.4,33.5c-0.5,0.1-1,0.2-1.5,0.3c0.6,2.2,1.1,4.3,1.7,6.5c0.4-0.1,0.9-0.2,1.3-0.3
		C23.5,37.8,22.9,35.7,22.4,33.5z M27,33.9c-0.5-0.1-1-0.3-1.5-0.4c-0.5,2.1-1,4.3-1.6,6.4c0.4,0.1,0.8,0.2,1.3,0.3
		C25.8,38.1,26.4,36,27,33.9z"/>
	<path id="XMLID_64_" class="st0" d="M103.7,92.2c-1.1-7.4-2.3-14.8-3.4-22.2c0.3,7.6-1.9,15.3,1.1,23.2c-1.4-0.2-2.3-0.3-3.3-0.4
		c0.2-0.8,0.5-1.6,0.7-2.5c0.2-0.8,0.2-1.7,0.2-2.5c0-5.1,0.1-10.3,0-15.4c-0.1-3.1-0.3-6.2-0.5-9.5c2.8-0.9,3.1-0.7,3.6,2.4
		c0.8,5.1,1.6,10.1,2.8,15.3c0.9-5.9,1.9-11.7,2.9-17.9c0.9-0.1,1.8-0.4,2.5-0.1c0.6,0.2,1.2,1.2,1.2,1.8c-0.1,1.4-0.8,2.8-0.9,4.2
		c-0.1,6.4-0.1,12.8,0,19.1c0,0.9,0.2,1.9,0.4,2.8c0.1,0.8,0.3,1.6,0.4,2.4c-1.4,0-2.8,0-4.1-0.1c-0.1,0-0.2-0.9-0.2-1.3
		c0.4-2.4,1-4.7,1.1-7.1c0.2-4.7,0.1-9.3-0.3-14c-1.2,7.3-2.3,14.5-3.5,21.8C104.1,92.3,103.9,92.2,103.7,92.2z"/>
	<path id="XMLID_63_" class="st0" d="M119.8,62.7c1.7,0,3,0,4.5,0c-2.2,8.3-0.6,16.6-1.1,24.8c0,0.8-0.1,1.6,0.1,2.3
		c1,3.9,0.9,4-3.1,3.2c0-6.8,0-13.5,0-19.8c-0.7,2.8-1.6,6.2-2.3,9.5c-0.7,3.3-2.5,6.6,0.4,10.3c-2.2,0-3.7,0-4.7,0
		c0.2-5.1,0.5-10.1,0.4-15.1c-0.1-5,1-10.1-1.3-15.2c1.7,0,3.2,0,4.4,0c0,6.2,0,12.3,0,18.4C118,75.1,121.7,69.5,119.8,62.7z"/>
	<path class="st0" d="M137,103.2c0,4.4,0,8.8,0,13.2c-0.4,0-0.7,0-1.1,0c0-2.8,0-5.5,0-8.3c0-0.9,0.2-1.8,0-2.6
		c-0.2-0.9-0.6-2-1.3-2.3c-0.6-0.3-2.2,0.4-2.3,0.9c-0.2,1,0,2.5,0.6,3.2c1,1,1.2,1.3,0.2,2.4c-2,2.2-1.7,4.1,0.9,5.9
		c0.2,0.1,0.3,0.5,0.7,1.2c-1.7,0.1-3,0.2-4.7,0.3c-0.3-3.4-0.6-6.4-0.8-9.5c-0.1,0-0.2,0-0.3,0c-0.3,1.7-0.7,3.4-1,5
		c-0.2,0-0.5,0-0.7,0c-0.3-1.6-0.6-3.1-1-5.4c-0.5,3.6-0.8,6.5-1.2,9.7c-1.3,0.1-2.5,0.1-4,0.2c0-5-0.1-9.8,0.1-14.7
		c0-0.5,1-1.2,1.6-1.4c0.4-0.1,1.1,0.4,1.6,0.7c-0.4,0.5-0.8,1.1-1.3,1.5c-1.4,1.3-1.8,2.8-0.3,4c1.3,1,1.2,1.4,0.1,2.6
		c-0.7,0.7-0.8,2.2-0.8,3.4c0,0.6,0.6,1.1,1,1.7c0.5-0.5,1.4-1,1.4-1.6c0.4-3.4,0.7-6.8,1-10.2c0.1-0.6,0.2-1.2,1-1.9
		c0.4,1.8,0.7,3.6,1.2,6.2c0.4-2.5,0.7-4.3,1-6.1c0.3,0,0.5,0,0.8,0c0.4,4,0.9,8.1,1.3,12.1c0.1,0,0.2,0,0.3,0c0-4,0-8,0-12.2
		c3.2-0.2,6.2-0.4,9.9-0.6c0.2,0.4,1,1.6,1,2.8c0.2,3.7,0.2,7.4,0,11.1c0,0.9-1.1,1.7-1.6,2.6c-0.6-0.9-1.6-1.7-1.7-2.6
		c-0.3-2.9-0.3-5.9-0.4-8.8c0-0.8,0-1.5,0-2.3C137.8,103.3,137.4,103.3,137,103.2z M140.1,102.9c-1.2,3.9-1.6,7.9,0.2,11.8
		C141.8,110.7,141.7,106.8,140.1,102.9z"/>
	<path class="st0" d="M64.8,76.5c0.4-2.6,0.7-6.3,1.4-9.9c0.4-2.1,1.4-4.3,4.2-4.2c2.6,0.1,3.5,2,4,4.1c1.8,7.3,1.8,14.7,0.1,22
		c-0.2,1.1-0.8,2.2-1.4,3.1c-1.6,2.4-4.3,2.6-5.7,0.1c-1.1-1.9-1.7-4.2-2.1-6.4C65,82.8,65.1,80.2,64.8,76.5z M73.4,78.8
		c-0.2-3-0.2-6.7-0.7-10.3c-0.2-1.3-1.4-2.4-2.1-3.6c-0.8,1.1-2.1,2.2-2.2,3.4c-0.5,3.7-0.6,7.4-0.6,11.1c0,2.6,0.1,5.3,0.6,7.9
		c0.2,1.3,1.4,2.4,2.1,3.6c0.8-1.2,2-2.4,2.3-3.7C73.1,84.6,73.1,82,73.4,78.8z"/>
	<path id="XMLID_58_" class="st0" d="M88,62.7c2.1,0,4.8,0,7.8,0c0,2.3,0,4.4,0,6.6c-0.2,0-0.3,0-0.5,0c-0.1-0.9,0.1-1.9-0.3-2.6
		c-0.4-0.7-1.4-1.6-2.1-1.6c-0.7,0-1.8,1-1.9,1.7c-0.2,2.4-0.2,4.8,0,7.1c0,0.7,0.8,1.4,1.2,2.1c0.5-0.6,1.1-1.2,1.6-1.9
		c0.2-0.2,0.3-0.4,0.7-1c0,3,0,5.6,0,8.3c-0.1,0-0.4,0-0.4-0.1c-0.6-0.9-1.2-1.8-1.8-2.7c-0.4,1.1-1.1,2.2-1.2,3.3
		c-0.2,1.9-0.1,3.8-0.1,5.7c0,1.4,0,2.7,2,2.7c1.9,0,2.9-0.7,2.8-2.7c0-0.8,0.1-1.6,0.7-2.4c0,2.2,0.1,4.4-0.1,6.6
		c0,0.4-1,1.1-1.6,1.1c-2.5,0.1-4.9,0.1-7,0.1C88.9,82.9,88.6,72.9,88,62.7z"/>
	<path class="st0" d="M55.6,62.8c5.3-1.3,7.8,0.4,8.1,6.1c0.1,2.4,0.1,4.8-0.2,7.1c-0.3,2.7-1.2,5.3-5.3,5.2c0.5,4,0.9,7.8,1.4,11.8
		c-0.3,0-1.1,0.1-1.9,0.2c-2.1,0.1-3.7-0.2-1.8-2.8c0.4-0.6,0.3-1.6,0.3-2.5c0-5.1,0.1-10.3,0-15.4C56.1,69.3,55.8,66.1,55.6,62.8z
		 M58.9,65.1c0,4.7,0,9,0,13.5C62.1,76.1,62.1,67.5,58.9,65.1z"/>
	<path class="st0" d="M46.6,115.6c-0.2,0.6-0.3,1.2-0.5,1.8c-0.3,0.1-0.6,0.1-0.9,0.2c-0.6-1.8-1.1-3.7-1.7-5.5c-0.1,0-0.2,0-0.3,0
		c0,1.5,0,3.1,0,4.9c-2.5,0-4.7,0-6.9,0c-0.1,0.3-0.2,0.6-0.3,0.9c-0.4-0.7-1.2-1.3-1.2-2c-0.2-4.3-0.3-8.6-0.2-13
		c0-0.6,1-1.6,1.7-1.7c0.8-0.1,1.6,0.6,2.5,0.9c-0.2,0.5-0.4,0.9-0.5,1.4c-3.2-0.8-3.3,1.2-3.3,3c0,2.9,0.2,5.8,0.4,9
		c1.5-0.6,2.4-0.9,3.3-1.2c0-3.4,0-6.8,0-10.2c0-1.6-0.2-3.1,2.2-3.1c2.1,0.1,2.5,1.2,2.3,3c0,0.5,0,0.9,0.6,1.6
		c0.2-0.9,0.3-1.8,0.8-2.6c0.4-0.8,1.1-1.5,1.8-2c0.6-0.4,1.4-0.4,2.7-0.6c0.3,1,1.1,2.2,1.2,3.5c0.2,3.7,0.1,7.4-0.1,11
		c0,0.8-0.8,1.6-1.2,2.3C48,116.5,47.2,116.1,46.6,115.6c-0.1-4.1-0.1-8.3-0.1-12.4c-2.6,3.1-2.7,9.7-0.7,12.4
		C45.8,115.7,46.3,115.6,46.6,115.6z M48,115.2c2.1-3,2-10-0.1-12.7C47,106.8,46.8,110.8,48,115.2z M42,115.6c0-4.6,0-8.4,0-13.1
		c-1.2,0.9-2.2,1.3-2.4,2c-0.2,0.9,0,2.3,0.6,2.7c1.6,1,1.2,1.4,0.2,2.7c-0.8,1-0.7,2.8-0.7,4.2C39.7,114.5,40.9,114.9,42,115.6z"/>
	<path id="XMLID_52_" class="st0" d="M86.7,93.2c-1.6,0-2.7,0.2-3.6-0.1C82.6,93,82,92,81.9,91.4c-0.3-3.2-0.4-6.4-0.5-9.6
		c-0.4,0-0.9,0-1.3,0c-0.7,3.6-1.3,7.3-2.1,11.2c-0.1,0-1,0-2.7,0c5.3-10,5.5-20,0.4-30.3c2,0,3.3,0,4.5,0c0.3,3,0.5,6.1,0.8,9.1
		c0.4,0,0.7,0,1.1,0c0.4-2.9,0.8-5.9,1.3-9.1c0.3,0,1.3,0,3,0C79.9,72.9,83.2,82.8,86.7,93.2z"/>
	<path class="st0" d="M40,92.9c0-2.6,0-5.2,0-7.7c0-1.5-0.7-2.2-2.3-2.2c-1.6,0-2.3,0.7-2.2,2.2c0.1,2.1,0.3,4.2,0.4,6.3
		c0,0.5-0.1,1.3-0.4,1.5c-0.5,0.3-1.3,0.3-1.9,0c-0.3-0.1-0.6-0.9-0.6-1.4c1.3-9.1,2.7-18.2,4.2-27.3c0.1-0.7,0.9-1.3,1.4-1.9
		c0.5,0.7,1.2,1.4,1.3,2.1c1.1,7.8,2.1,15.6,3.1,23.5c0.1,0.6,0.1,1.1,0.2,1.7C44.3,93.5,44.1,93.6,40,92.9z M38,69.4
		c-0.2,0.1-0.3,0.1-0.5,0.2c-0.4,3-0.9,6-1.1,9c0,0.6,0.9,1.3,1.3,1.9c0.5-0.6,1.5-1.3,1.4-1.8C38.9,75.5,38.4,72.5,38,69.4z"/>
	<path class="st0" d="M140,93c0-2.8,0.2-5.4-0.1-7.9c-0.1-0.7-1.2-1.7-2.1-1.9c-1.4-0.4-2.4,0.3-2.4,1.9c0.1,2.1,0.2,4.2,0.3,6.3
		c0,0.5,0.1,1.4-0.1,1.5c-0.7,0.2-1.5,0.3-2.1,0.1c-0.3-0.1-0.5-1-0.5-1.5c0.9-6,1.9-12,2.8-18c0.4-2.7,0.6-5.5,1.1-8.2
		c0.2-1,0.9-2,1.4-3c0.5,0.9,1.4,1.8,1.6,2.8c1.1,7.5,2,15.1,3,22.6c0.1,0.6,0.1,1.1,0.2,1.7C144.2,93.5,144.2,93.5,140,93z
		 M138,69.2c-0.1-0.1-0.3-0.1-0.4-0.2c-0.4,3.2-0.9,6.3-1.2,9.5c-0.1,0.6,0.8,1.3,1.2,2c0.5-0.7,1.5-1.4,1.5-2
		C138.9,75.3,138.4,72.3,138,69.2z"/>
	<path id="XMLID_47_" class="st0" d="M44.8,62.7c3,0,5.7,0,8.7,0c0,2.7,0,5.3,0,8.3c-1.5-2.2,0.7-7-4.7-5.8c-0.1,1-0.2,2.1-0.2,3.2
		c0,6.3-0.1,12.6,0,18.8c0,1.3,0.6,2.6,1.1,3.9c0.5,1.3,0.4,2-1.2,2.1c-1.1,0-2.2,0-2.9,0c0.2-5.3,0.5-10.3,0.4-15.3
		C46,72.9,47.1,67.8,44.8,62.7z"/>
	<path class="st0" d="M86.3,105.2c1-2.6,1.5-5.3,5.5-5c0.2,0.3,0.9,1,0.9,1.7c0.2,4.4,0.2,8.9,0.2,13.3c0,0.6-0.9,1.2-1.4,1.8
		c-0.6-0.6-1.6-1.2-1.7-1.9c-0.3-2.6-0.4-5.3-0.5-7.9c-0.1-1.2,0-2.4-0.3-3.6c-3.1,4.5-1.2,9.1,0.3,13.7c-0.3,0.1-0.6,0.2-0.9,0.2
		c-0.6-1.8-1.2-3.6-2-6.1c-0.1,2.2-0.2,3.7-0.3,5.4c-1.5,0.1-2.9,0.2-4.3,0.3c0-5.1-0.1-10,0.1-14.9c0-0.4,1.4-1.2,2.1-1.2
		c0.7,0,1.7,0.7,2,1.4C86.3,103.2,86.2,104.3,86.3,105.2z M85.2,115.5c0-4.3,0-8.3,0-13.2c-1.2,1-2.4,1.5-2.5,2.2
		c-0.2,0.9,0.2,2.2,0.8,2.8c1,1,1.1,1.4,0.1,2.4C81.4,111.8,82.2,114.5,85.2,115.5z M91.3,102.8c-1.2,4-1.5,8,0.2,11.9
		C92.8,110.7,92.8,106.7,91.3,102.8z"/>
	<path id="XMLID_43_" class="st0" d="M126,86.8c0.3,1.4,0.6,2.7,1,4.1c0.3,0,0.7,0,1-0.1c1.6-4.6,0.7-9.4,0.7-14.1
		c0-4.6,1.1-9.3-1.4-14c1.8,0,3.1,0,4.2,0c-0.1,5-0.2,9.9-0.3,14.7c0,2.8,0.1,5.5-0.1,8.3c-0.2,2-0.6,4.1-1.4,6
		c-0.3,0.8-1.9,1.2-2.9,1.4c-0.3,0-1-1.5-1.2-2.4c-0.2-1.3-0.1-2.6-0.1-4C125.6,86.8,125.8,86.8,126,86.8z"/>
	<path id="XMLID_42_" class="st0" d="M63.1,101.7c0,5,0,10,0,15.2c-1.8,0-3.6,0-5.4,0c-0.6-1.4-1.2-2.9-1.8-4.5
		c-0.7,1.4-1.5,2.8-2.2,4.2c-0.1,0-0.3,0-0.4,0c0.7-5.1,1.3-10.2,2-15.3c0.3,0,0.5,0,0.8-0.1c0.6,4,1.3,7.9,1.9,11.9
		c0.2,0,0.4-0.1,0.6-0.1c0-3.8,0-7.6,0-11.4c0.2,0,0.4,0,0.6,0c0,4.3,0,8.6,0,12.9c0.3,0,0.6,0,0.9,0.1c0-3.6,0-7.2,0-10.8
		c0.4,0,0.8,0,1.1,0c0,3.6,0,7.2,0,10.9c0.4,0,0.7,0,1.1,0c0-4.3,0-8.7,0-13C62.5,101.6,62.8,101.6,63.1,101.7z"/>
	<path class="st0" d="M107.4,99.9c0.4,1,1.2,2,1.3,3c0.2,4,0.3,8,0,12c-0.1,2.5-1.2,2.7-3.3,1.2c-0.5,0.5-1.1,1-1.6,1.5
		c-0.1,0.1-0.4,0.1-1.2,0.2c-0.5-1.8-1.4-3.6-1.5-5.4c-0.2-3,0.1-6.1,0.4-9.1c0.1-0.8,1.1-1.5,1.7-2.2c0.7,0.6,1.3,1.3,2,1.9
		c0,0.3,0,0.5,0,0.8c-2.9-1-3.3,0.6-3.3,2.5c0,3,0.2,5.9,0.3,8.9c0.5,0.1,1,0.2,1.5,0.3c0.5-1.1,1.2-2.2,1.3-3.3
		c0.2-2.6,0-5.3,0.1-8c0.1-1.4,0.7-2.8,1.1-4.2C106.7,99.9,107,99.9,107.4,99.9z M107.1,102.3c-1.9,3.9-1.6,10.5,0.4,12.6
		C108.5,110.7,108.7,106.7,107.1,102.3z"/>
	<path class="st0" d="M67.8,99.6c0.5,1,1.3,2,1.5,3.1c0.4,3.2,0.5,6.4,0.7,9.6c0,0.6,0.1,1.3-0.2,1.7c-0.7,1.1-1.6,2.1-2.4,3.1
		c-0.4-1.1-1.2-2.2-1.2-3.3c-0.1-3.6-0.1-7.2,0-10.8c0-1.1,0.3-2.1,0.5-3.2C67.1,99.7,67.4,99.7,67.8,99.6z M67.3,115.3
		c2.3-3.1,2.2-4.7,0-6.3C67.3,110.9,67.3,112.7,67.3,115.3z"/>
	<path class="st0" d="M112.5,99.7c2.4,0.4,2.6,2.1,2.8,3.7c0.3,2.7,0.4,5.4,0.6,8.1c0,0.7,0.2,1.7-0.1,2.2c-0.7,1.2-1.6,2.2-2.5,3.2
		c-0.4-1.1-1-2.3-1-3.4c-0.1-3.6,0-7.2,0-10.8C112.2,101.8,112.3,100.9,112.5,99.7z M113.3,114.6c0.3,0,0.6,0,0.9,0
		c0-1.9,0-3.7,0-5.6c-0.3,0-0.6,0-0.9,0C113.3,110.9,113.3,112.7,113.3,114.6z"/>
	<path class="st0" d="M72.6,99.6c0.6,1,1.3,1.7,1.3,2.4c0.1,4.4,0.2,8.9,0.1,13.3c0,0.6-0.7,1.2-1.3,1.6c-0.2,0.1-1.1-0.3-1.3-0.7
		C69.7,114,70.4,102.4,72.6,99.6z M72.4,102.8c-1.1,4-1.6,8,0.2,11.8C74.1,110.7,73.9,106.7,72.4,102.8z"/>
	<path class="st0" d="M116.5,116.7c0-4.9,0-9.7,0.1-14.6c0-0.4,0.8-1.2,1.2-1.2c0.6,0,1.5,0.5,1.8,1c1.6,2.5,0.6,8.7-1.4,11
		c-0.8,0.9-0.8,2.5-1.2,3.8C116.8,116.8,116.7,116.8,116.5,116.7z M117.5,111.2c2.5-3.2,2.4-6.3,0-8
		C117.5,105.7,117.5,108,117.5,111.2z"/>
	<path class="st0" d="M94,116.7c0-4.6,0-9.3,0.1-13.9c0-0.6,0.8-1.2,1.2-1.8c0.7,0.5,1.9,0.9,2,1.5c0.8,3.7,1.8,7.6-1.8,10.7
		c-0.8,0.7-0.6,2.4-0.9,3.6C94.3,116.7,94.2,116.7,94,116.7z M95.2,102.8c0,3,0,5.3,0,8.3C97.5,108.1,97.5,105.5,95.2,102.8z"/>
	<path id="XMLID_29_" class="st0" d="M79.8,108.2c0.2-2.1,0.4-4.2,0.6-6.3c0.1,0,0.2,0,0.3,0c0,4.8,0,9.6,0,14.5
		c-0.2-0.1-0.4-0.1-0.4-0.2c0.7-3.7-2.6-6.1-2.8-9.5c-0.1-1.4,0-2.8,0.4-4.3c0.3,2,0.6,3.9,1,5.9C79.2,108.2,79.5,108.2,79.8,108.2z
		"/>
	<path id="XMLID_28_" class="st0" d="M51.1,116.6c0-5.1,0-10.2,0-15.7c1.2,0.2,2.1,0.3,3,0.5c-0.5,0.6-1.1,1.2-1.4,1.8
		c-0.4,0.8-0.8,1.6-0.8,2.5c-0.1,3.7,0,7.3,0,11C51.6,116.6,51.3,116.6,51.1,116.6z"/>
	<path id="XMLID_27_" d="M26.8,29.9c-0.7,1.2-1.3,2.4-2,3.6c-0.7-3.1-0.6-5.9,2.1-7.9C26.9,27,26.8,28.4,26.8,29.9z"/>
	<path id="XMLID_26_" d="M25.1,18.4c-0.4,0.4-0.7,0.8-1.8,2c0-2.7,0-4.6,0-6.5c0.2-0.4,0.4-0.7,0.6-1.1c0.2,0,0.5,0,0.7,0
		C24.8,14.7,25,16.6,25.1,18.4z"/>
	<path id="XMLID_25_" d="M22.5,71c-0.8-3-1.5-5.9-2.3-8.9c3.1,1.6,4.5,6.2,3.3,8.8C23.5,71.1,22.8,70.9,22.5,71
		C22.4,70.9,22.5,71,22.5,71z"/>
	<path id="XMLID_24_" d="M24.3,86.6c2.5,3.5,2.4,7,0,10.5C24.3,93.6,24.3,90.4,24.3,86.6z"/>
	<path id="XMLID_23_" d="M26,53.9c-0.5,0.2-0.9,0.4-2.3,0.9c0.7-2.9,1.3-5.3,1.9-7.6c0.4,0.1,0.8,0.1,1.2,0.2
		C26.5,49.6,26.2,51.8,26,53.9C25.9,54,26,53.9,26,53.9z"/>
	<path id="XMLID_22_" d="M22.5,47.6c-0.5-2.4-1.1-4.8-1.6-7.1c0.5-0.1,0.9-0.2,1.4-0.3c0.6,2.4,1.2,4.7,1.8,7.1
		C23.6,47.4,23,47.5,22.5,47.6z"/>
	<path id="XMLID_21_" d="M22.5,33.6c-0.5-2.5-1-5-1.5-7.4c0.4-0.1,0.9-0.2,1.3-0.3c0.6,2.5,1.2,4.9,1.8,7.4
		C23.5,33.3,23,33.4,22.5,33.6z"/>
	<path id="XMLID_20_" d="M27,40.5c-0.5,2.4-1.1,4.7-1.6,7.1c-1.7-2.7-1.4-4.4,0.8-7.3C26.5,40.3,26.8,40.4,27,40.5z"/>
	<path id="XMLID_19_" d="M23.6,106.7c0,3.1,0,5.4,0,7.9C21.2,112.7,21.1,110.3,23.6,106.7z"/>
	<path id="XMLID_18_" d="M22.4,33.5c0.5,2.1,1,4.3,1.6,6.4c-0.4,0.1-0.9,0.2-1.3,0.3c-0.6-2.2-1.1-4.3-1.7-6.5
		C21.4,33.7,21.9,33.6,22.4,33.5z"/>
	<path id="XMLID_17_" d="M27,33.9c-0.6,2.1-1.2,4.2-1.8,6.3c-0.4-0.1-0.8-0.2-1.3-0.3c0.5-2.1,1-4.3,1.6-6.4
		C26,33.6,26.5,33.8,27,33.9z"/>
	<path id="XMLID_16_" d="M140.1,102.9c1.6,3.9,1.7,7.9,0.2,11.8C138.5,110.8,138.9,106.8,140.1,102.9z"/>
	<path id="XMLID_15_" d="M73.4,78.8c-0.3,3.3-0.2,5.9-0.7,8.4c-0.3,1.3-1.5,2.5-2.3,3.7c-0.7-1.2-1.9-2.3-2.1-3.6
		c-0.5-2.6-0.6-5.3-0.6-7.9c0-3.7,0.2-7.4,0.6-11.1c0.2-1.2,1.5-2.3,2.2-3.4c0.7,1.2,2,2.3,2.1,3.6C73.1,72.1,73.2,75.8,73.4,78.8z"
		/>
	<path id="XMLID_14_" d="M58.9,65.1c3.2,2.4,3.2,11,0,13.5C58.9,74,58.9,69.7,58.9,65.1z"/>
	<path id="XMLID_13_" d="M48,115.2c-1.2-4.5-1-8.4-0.1-12.7C49.9,105.2,50.1,112.2,48,115.2z"/>
	<path id="XMLID_12_" d="M42,115.6c-1.1-0.7-2.3-1.1-2.3-1.4c0-1.4-0.1-3.2,0.7-4.2c1-1.3,1.4-1.7-0.2-2.7c-0.6-0.4-0.8-1.8-0.6-2.7
		c0.1-0.6,1.2-1,2.4-2C42,107.1,42,110.9,42,115.6z"/>
	<path id="XMLID_11_" d="M46.6,115.6c-0.3,0-0.7,0.1-0.8,0c-1.9-2.7-1.8-9.3,0.7-12.4C46.5,107.3,46.5,111.5,46.6,115.6
		C46.5,115.6,46.6,115.6,46.6,115.6z"/>
	<path id="XMLID_10_" d="M38,69.4c0.4,3.1,0.9,6.1,1.2,9.2c0,0.6-0.9,1.2-1.4,1.8c-0.5-0.6-1.4-1.3-1.3-1.9c0.2-3,0.7-6,1.1-9
		C37.7,69.5,37.8,69.5,38,69.4z"/>
	<path id="XMLID_9_" d="M138,69.2c0.4,3.1,0.9,6.1,1.1,9.2c0,0.6-1,1.4-1.5,2c-0.4-0.7-1.3-1.4-1.2-2c0.3-3.2,0.8-6.3,1.2-9.5
		C137.7,69,137.9,69.1,138,69.2z"/>
	<path id="XMLID_8_" d="M85.2,115.5c-3-1-3.8-3.7-1.6-5.8c1-1,1-1.4-0.1-2.4c-0.6-0.6-1-1.9-0.8-2.8c0.1-0.7,1.3-1.2,2.5-2.2
		C85.2,107.2,85.2,111.2,85.2,115.5z"/>
	<path id="XMLID_7_" d="M91.3,102.8c1.5,3.9,1.6,7.9,0.2,11.9C89.7,110.8,90.1,106.8,91.3,102.8z"/>
	<path id="XMLID_6_" d="M107.1,102.3c1.6,4.4,1.4,8.3,0.4,12.6C105.5,112.9,105.3,106.3,107.1,102.3z"/>
	<path id="XMLID_5_" d="M67.3,115.3c0-2.5,0-4.3,0-6.3C69.5,110.6,69.5,112.2,67.3,115.3z"/>
	<path id="XMLID_4_" d="M113.3,114.6c0-1.9,0-3.7,0-5.6c0.3,0,0.6,0,0.9,0c0,1.9,0,3.7,0,5.6C113.9,114.6,113.6,114.6,113.3,114.6z"
		/>
	<path id="XMLID_3_" d="M72.4,102.8c1.6,3.9,1.7,7.9,0.2,11.8C70.7,110.8,71.2,106.8,72.4,102.8z"/>
	<path id="XMLID_2_" d="M117.5,111.2c0-3.2,0-5.5,0-8C119.9,104.9,120.1,108,117.5,111.2z"/>
	<path id="XMLID_1_" d="M95.2,102.8c2.3,2.7,2.3,5.3,0,8.3C95.2,108.1,95.2,105.7,95.2,102.8z"/>
</g>
</svg>
