<?xml version="1.0" encoding="utf-8"?>
<!-- Generator: Adobe Illustrator 23.0.1, SVG Export Plug-In . SVG Version: 6.00 Build 0)  -->
<svg version="1.1" id="Layer_1" xmlns="http://www.w3.org/2000/svg" xmlns:xlink="http://www.w3.org/1999/xlink" x="0px" y="0px"
	 viewBox="0 0 194.52 71.56" style="enable-background:new 0 0 194.52 71.56;" xml:space="preserve">
<style type="text/css">
	.st0{fill:#F8BC2E;}
	.st1{fill:#7AB462;}
	.st2{fill:#757577;}
</style>
<path class="st0" d="M85.62,61.04c0.25-0.32,0.51-0.44,0.77-0.02C86.13,61.13,85.88,61.15,85.62,61.04z"/>
<path class="st0" d="M86.94,60.6c-0.29-0.03-0.29-0.19-0.1-0.33c0.14-0.11,0.35-0.32,0.49,0.03C87.2,60.4,87.07,60.5,86.94,60.6z"/>
<path class="st0" d="M74.42,60.83c-0.03-0.02-0.05-0.04-0.08-0.06c0.05-0.03,0.09-0.07,0.14-0.1c0,0.05,0.01,0.09,0.01,0.14
	C74.5,60.82,74.45,60.83,74.42,60.83z"/>
<path class="st1" d="M191.68,50.92c-0.23,0.07-0.55,0.06-0.66,0.21c-0.91,1.2-0.48,4.14-2.41,3.57c-2.12-0.63-0.93-3.38-0.64-4.93
	c2.82-15.27-6.73-32.36-21.88-35.71c-7.3-1.62-14.13-0.48-19.43,5.26c-2.44,2.64-4.65,3.34-8.15,1.88
	c-3.16-1.33-6.77-1.45-10.27-1.1c-0.83,0.08-1.64,0.1-1.77-0.81c-0.16-1.12,0.93-1.05,1.58-1.06c3.36-0.09,6.74-0.25,10.09-0.08
	c2.1,0.11,3.36-0.58,2.92-2.62c-0.67-3.1,1.86-5.55,1.38-8.54c-0.05-0.31,0.22-0.72,0.44-1c0.52-0.69,1.08-1.58,2.09-1.19
	c1.25,0.49,0.66,1.57,0.26,2.21c-1.45,2.29-1.6,4.86-2.01,7.42c-0.41,2.53,0.47,2.55,2.4,1.71c2.68-1.17,5.01-2.91,7.72-4.09
	c11.98-5.21,27.45,1.6,33.07,12.73c1.55,3.07,1.72,7,5.27,8.9C191.68,39.42,191.68,45.17,191.68,50.92z"/>
<path class="st2" d="M69.53,47.36c0.08-8.49,2.66-10.39,10.93-7.78c1.39,0.44,2.34,0.04,3.53-0.29c4.99-1.39,8.4,1.05,8.71,6.25
	c0.14,2.36-0.01,4.74,0.06,7.12c0.05,1.81-0.6,2.87-2.54,2.9c-2.3,0.03-2.12-1.57-2.11-3.11c0.02-2.12,0-4.25,0-6.37
	c0-1.57-0.66-2.81-2.27-2.9c-1.63-0.08-2.49,1.19-2.59,2.67c-0.16,2.36-0.09,4.74-0.09,7.11c0.01,1.58-0.41,2.73-2.3,2.62
	c-1.79-0.1-1.79-1.38-1.79-2.68c0.01-1.87-0.04-3.75-0.01-5.62c0.03-1.86-0.1-3.75-2.46-3.87c-2.55-0.13-2.5,1.9-2.52,3.69
	c-0.02,2,0,4-0.02,5.99c-0.01,1.4-0.48,2.47-2.12,2.49c-1.74,0.02-2.45-0.94-2.43-2.6C69.55,51.11,69.53,49.24,69.53,47.36z"/>
<path class="st2" d="M131.27,43.76c2.88-1.95,3.85-5.42,7.73-4.71c0.59,0.11,1.43,0.09,1.68,0.46c0.49,0.7-0.03,1.49-0.62,1.94
	c-4.15,3.1-3.83,6.35-0.45,9.78c0.17,0.17,0.31,0.44,0.32,0.67c0.07,1.37,2.85,2.55,1.03,3.66c-1.67,1.02-4.17,0.85-5.63-1.34
	c-0.21-0.31-0.37-0.66-0.6-0.95c-0.73-0.92-0.92-2.75-2.36-2.47c-1.59,0.31-0.93,2.06-1.06,3.21c-0.16,1.4-0.89,1.9-2.23,1.92
	c-1.37,0.01-2.17-0.55-2.17-1.93c-0.02-6.23,0.01-12.46,0-18.69c0-1.64,0.88-2.12,2.38-2.1c1.46,0.02,1.99,0.79,2,2.11
	C131.28,38.12,131.27,40.94,131.27,43.76z"/>
<path class="st1" d="M34.97,48.55c0,2.37,0.03,4.73-0.01,7.09c-0.04,2.63-1.29,4.54-3.78,5.36c-2.64,0.88-5.36,1.06-7.93-0.31
	c-0.62-0.33-1.31-0.92-0.9-1.81c0.43-0.92,1.08-1.76,2.2-1.75c0.86,0.01,1.71,0.35,2.57,0.4c1.33,0.07,2.77-0.21,2.7-1.81
	c-0.06-1.42-1.47-0.89-2.4-0.92c-4.4-0.12-5.79-1.42-6.04-5.74c-0.09-1.61-0.13-3.25,0.05-4.84c0.43-3.75,2.61-5.52,6.31-5.3
	c0.12,0.01,0.25,0.03,0.37,0.04c6.9,0.6,6.9,0.6,6.9,7.73c0,0.62,0,1.24,0,1.87C35,48.55,34.99,48.55,34.97,48.55z M30.39,47.3
	c-0.24-1.58-0.04-3.63-2.17-3.73c-2.11-0.1-2.37,2.09-2.45,3.51c-0.1,1.55,0.64,3.49,2.54,3.52C30.21,50.64,30.12,48.7,30.39,47.3z"
	/>
<path class="st2" d="M109.14,49.02c-0.45,2,1.23,5.68-0.83,6.31c-3.1,0.94-6.87,1.3-10.2,0c-3.04-1.18-3.87-5.5-1.82-7.92
	c1.22-1.44,2.99-1.02,4.47-1.56c1.09-0.4,3.32,0.68,2.99-1.55c-0.31-2.09-2.21-1.62-3.62-1c-1.63,0.72-2.77,0.23-3.33-1.27
	c-0.75-2.03,1.21-2.25,2.31-2.66c5.87-2.18,10.04,0.84,10.01,7.14C109.14,47.26,109.14,48.01,109.14,49.02z M101.85,52.04
	c1.08-0.34,2.28-0.59,2.17-2.08c-0.09-1.27-1.13-1.08-1.97-1.07c-1.05,0.01-2.12,0.27-2.2,1.5
	C99.77,51.64,100.79,51.95,101.85,52.04z"/>
<path class="st2" d="M150.04,38.97c4.64,0.04,7.67,3.48,7.45,7.88c-0.07,1.47-0.68,1.99-2.05,1.97c-1.74-0.02-3.49-0.05-5.23,0.06
	c-0.86,0.05-2.28-0.55-2.33,1.02c-0.04,1.34,1.16,1.98,2.3,2.01c1.21,0.03,2.42-0.4,3.64-0.6c1.16-0.19,1.92,0.3,2.24,1.44
	c0.3,1.1-0.44,1.59-1.21,2.02c-2.68,1.5-7.95,0.92-10.28-1.13c-1.73-1.52-2.53-7.63-1.11-10.68
	C144.77,40.1,147.21,38.76,150.04,38.97z M152.35,44.93c-0.15-1.01-0.6-1.86-1.71-2.06c-1.08-0.2-1.99,0.22-2.33,1.3
	c-0.43,1.35,0.5,1.75,1.58,1.83C150.84,46.06,151.9,46.23,152.35,44.93z"/>
<path class="st1" d="M66.06,47.53c-0.1,6.1-1.92,8.19-7.11,8.12c-4.7-0.06-6.86-2.53-6.79-7.79c0.07-6.03,2.66-9.09,7.55-8.91
	C64.23,39.1,66.15,41.7,66.06,47.53z M61.87,47.7c-0.05-2.03-0.44-4-2.62-4.03c-2.48-0.03-2.13,2.33-2.3,3.96
	c-0.17,1.67,0.04,3.58,2.18,3.66C61.51,51.39,61.49,49.2,61.87,47.7z"/>
<path class="st2" d="M165.58,55.86c-2.64-0.52-4.73-1.7-4.9-4.96c-0.16-3.03,0.16-6-1.17-9.08c-0.7-1.62,1.02-4.29,1.71-6.46
	c0.08-0.25,0.6-0.49,0.93-0.5c1.19-0.06,3.46-0.21,3.1,0.93c-1.02,3.14,5.55,3.86,2.04,7.32c-2.24,2.22-2.51,6.12-0.27,8.27
	c1.19,1.14,1.46,2.24,0.96,3.63C167.6,56.1,166.59,55.84,165.58,55.86z"/>
<path class="st1" d="M18.06,48.61c0.05,6.66,0.05,6.66-7.67,7c-4.5,0.2-5.79-1.21-5.58-5.67c0.11-2.31,1.22-3.4,3.33-3.76
	c0.61-0.1,1.26,0,1.86-0.13c1.27-0.28,3.59,0.78,3.36-1.58c-0.17-1.79-2.12-1.84-3.65-1.3c-1.84,0.65-3.57,0.35-3.82-1.6
	c-0.22-1.72,1.79-2.17,3.17-2.51c4.89-1.22,8.88,1.9,8.99,6.92C18.07,46.86,18.05,47.74,18.06,48.61z M13.49,50
	c-0.18-1.51-1.34-1.14-2.24-1.17c-1.16-0.04-2.49,0.47-2.6,1.47c-0.11,0.94,0.87,1.94,2.22,1.79C12.2,51.95,13.18,51.39,13.49,50z"
	/>
<path class="st2" d="M112.49,47.28c0-7.72,0-7.76,7.43-8.24c1.78-0.11,4.54-0.65,4.73,1.61c0.18,2.11-1.88,3.56-4.47,3.17
	c-2.08-0.31-2.57,1.01-2.58,2.72c-0.01,2.24-0.06,4.48-0.01,6.72c0.04,1.85-0.82,2.75-2.65,2.83c-2.05,0.09-2.53-1.06-2.47-2.84
	C112.54,51.27,112.48,49.27,112.49,47.28z"/>
<path class="st1" d="M51.3,40.75c-1.48,1.53-2.49,3.4-5.19,2.89c-1.84-0.35-2.64,1.04-2.67,2.75c-0.04,2.24,0,4.47-0.01,6.71
	c0,1.36-0.27,2.47-1.99,2.52c-1.62,0.04-2.11-0.9-2.31-2.3c-0.61-4.21,0.13-8.39,0.23-12.58c0.01-0.49,0.74-1.44,0.97-1.39
	C43.9,40.14,47.9,37.46,51.3,40.75z"/>
</svg>
