<?xml version="1.0" encoding="utf-8"?>
<!-- Generator: Adobe Illustrator 23.0.1, SVG Export Plug-In . SVG Version: 6.00 Build 0)  -->
<svg version="1.1" id="Layer_1" xmlns="http://www.w3.org/2000/svg" xmlns:xlink="http://www.w3.org/1999/xlink" x="0px" y="0px"
	 viewBox="0 0 160 45" style="enable-background:new 0 0 160 45;" xml:space="preserve">
<style type="text/css">
	.st0{fill:#454243;}
	.st1{fill:#322F30;}
	.st2{fill:#4E4C4D;}
	.st3{fill:#383536;}
	.st4{fill:#363334;}
	.st5{fill:#302D2E;}
	.st6{fill:#2D2A2B;}
	.st7{fill:#3C393A;}
	.st8{fill:#282526;}
	.st9{fill:#2D2B2C;}
	.st10{fill:#3A3839;}
	.st11{fill:#A4A4A5;}
	.st12{fill:#FEFEFE;}
	.st13{fill:#E3E3E4;}
	.st14{fill:#7D7E80;}
	.st15{fill:#E6E6E7;}
	.st16{fill:#838486;}
	.st17{fill:#2A2627;}
	.st18{fill:#353233;}
	.st19{fill:#282525;}
	.st20{fill:#464445;}
	.st21{fill:#5D5B5D;}
	.st22{fill:#4B494A;}
	.st23{fill:#FAFAFA;}
	.st24{fill:#CACBCD;}
</style>
<path d="M148.42,13.06c-1.08,1.12-2.28,1.41-3.68,0.6c-0.32-0.19-0.72-0.25-1.09-0.34c-1.28-0.3-2.9-0.79-3.62,0.4
	c-0.59,0.99,0.78,1.95,1.52,2.78c2.34,2.64,2.89,4.79,1.72,6.81c-1.24,2.13-4.55,3.27-7.55,2.68c-1.2-0.24-1.75-0.9-1.65-2.06
	c0.1-1.14,0.73-1.82,1.94-1.82c0.38,0,0.77,0.08,1.15,0.06c0.92-0.04,1.98-0.04,2.39-1c0.4-0.93-0.51-1.5-1.04-2.13
	c-1.8-2.16-3.59-4.37-1.99-7.4c1.14-2.16,4.04-3,7.61-2.26c1.63,0.34,3.31,0.7,4.3,2.29C148.42,12.14,148.42,12.6,148.42,13.06z"/>
<path class="st0" d="M78.45,43.44c-1.74-1.75-0.94-3.86-0.74-5.85c0.06-0.6,0.76-0.98,1.43-0.92c0.74,0.07,1.35,0.47,1.41,1.27
	c0.16,1.88,0.65,3.81-0.72,5.5C79.37,43.44,78.91,43.44,78.45,43.44z"/>
<path class="st1" d="M56.36,43.44c-0.23-1.94,0.45-3.77,0.66-5.66c0.06-0.54,0.27-1.05,1.01-0.97c0.61,0.07,0.66,0.51,0.73,0.97
	c0.27,1.88,0.55,3.77,0.82,5.65c-0.31,0-0.61,0-0.92,0c-0.61-0.82-1.23-0.48-1.84,0C56.66,43.44,56.51,43.44,56.36,43.44z"/>
<path class="st2" d="M83.98,43.44c-0.74-1.92-0.2-3.92-0.33-5.88c-0.04-0.56,0.35-0.86,0.88-0.78c0.58,0.09,1.32-0.36,1.71,0.22
	c0.36,0.53-0.08,0.81-0.63,0.79c-0.8-0.03-1.05,0.75-0.76,1.03c1.81,1.76-0.68,3.06-0.4,4.62C84.28,43.44,84.13,43.44,83.98,43.44z"
	/>
<path class="st3" d="M70.17,43.44c-0.02-1.52-0.11-3.05-0.02-4.57c0.04-0.7-0.63-1.82,0.71-2.03c0.72-0.11,1.65-0.19,2.01,0.68
	c0.41,1,0.63,2.65-0.28,2.91c-1.93,0.55-1.3,1.88-1.5,3.01C70.78,43.44,70.47,43.44,70.17,43.44z"/>
<path class="st4" d="M45.77,43.44c-0.3-0.43-0.65-0.84-0.88-1.3c-0.13-0.26-0.05-0.62,0.29-0.76c0.37-0.16,0.55,0.08,0.59,0.41
	c0.07,0.52,0.26,0.94,0.82,0.5c0.29-0.23,0.27-0.67,0.01-1.02c-0.49-0.66-0.99-1.31-1.45-2c-0.42-0.63-0.39-1.3,0.06-1.91
	c0.52-0.71,1.16-0.94,1.94-0.36c0.1,0.49-0.11,0.66-0.58,0.54c-1.53,0.93-0.34,1.6,0.27,2.21c1.16,1.17,1.44,2.35,0.32,3.69
	C46.69,43.44,46.23,43.44,45.77,43.44z"/>
<path class="st5" d="M91.89,42.48c1.43-0.37,0.81-1.09,0.29-1.77c-0.41-0.54-0.99-0.99-1.24-1.58c-0.43-1.04-0.15-2,1.01-2.38
	c0.76-0.25,1.31,0.26,1.65,0.9c0.11,0.21,0.04,0.73-0.11,0.81c-0.85,0.49-0.61-0.9-1.43-0.77c-0.61,0.78-0.2,1.43,0.48,1.98
	c1.33,1.08,1.45,2.35,0.65,3.79c-0.61,0-1.23,0-1.84,0c0.06-0.15,0.06-0.29-0.01-0.43C91.19,42.5,91.42,42.36,91.89,42.48z"/>
<path class="st6" d="M51.75,43.44c-0.02-1.13-0.03-2.27-0.05-3.4c-0.02-1.06,0.29-2.22-1.51-3.09c1.57,0,2.49,0,3.55,0
	c-1.78,2.07-0.72,4.38-1.07,6.49C52.37,43.44,52.06,43.44,51.75,43.44z"/>
<path class="st7" d="M97.79,43.44c-0.04-1.14-0.08-2.28-0.13-3.42c-0.04-1.07,0.46-2.32-1.69-2.7c1.61-0.74,2.56-0.46,3.92-0.44
	c-2.32,1.95-0.4,4.55-1.64,6.56C98.09,43.44,97.94,43.44,97.79,43.44z"/>
<path class="st4" d="M104.77,39.92c-0.32,1.15,0.2,2.44-0.54,3.53c-0.15,0-0.31,0-0.46,0c-0.02-2.26-0.92-4.34-1.44-6.73
	c1.64,0.36,1,1.99,1.87,2.57C104.69,39.23,105,39.32,104.77,39.92z"/>
<path class="st8" d="M62.8,43.44c-0.06-1.61-0.15-3.21-0.14-4.82c0-0.61-0.42-1.59,0.56-1.72c1.19-0.16,0.89,0.96,1.02,1.64
	c0.04,0.22-0.01,0.46-0.02,0.69c0.22,0.32,0.01,0.53-0.18,0.74c-0.59,1.08,0.24,2.49-0.78,3.47C63.11,43.44,62.96,43.44,62.8,43.44z
	"/>
<path class="st9" d="M66.49,36.97c1,2.1,0.2,4.33,0.46,6.48c-0.31,0-0.61,0-0.92,0c-0.91-0.92-0.43-2.12-0.61-3.18
	C65.39,39.04,66.03,38.03,66.49,36.97z"/>
<path class="st10" d="M63.69,39.77c0.18-0.18,0.35-0.36,0.53-0.54c0.27,0.48,0.54,0.96,0.82,1.43c0.22-0.19,0.43-0.18,0.63,0.02
	c0.25,1.01,0.02,1.92-0.57,2.76c-0.15,0-0.31,0-0.46,0c-0.87-0.43-0.95-1.22-0.93-2.05C63.75,40.85,63.29,40.32,63.69,39.77z"/>
<path class="st11" d="M63.69,39.77c0.12,0.49,0.25,0.97,0.37,1.46c-0.35,0.7,0.19,1.54-0.34,2.21c-0.15,0-0.31,0-0.46,0
	C63.47,42.23,62.76,40.9,63.69,39.77z"/>
<path class="st12" d="M65.1,43.44c0.16-0.92,0.31-1.84,0.47-2.76c-0.16-0.1-0.2-0.18-0.13-0.25c0.06-0.06,0.12-0.09,0.18-0.09
	c0.64,0.97,0.29,2.06,0.4,3.1C65.72,43.44,65.41,43.44,65.1,43.44z"/>
<path class="st13" d="M56.82,43.44c0.25-0.56,0.22-1.44,1.15-1.34c0.78,0.08,0.78,0.72,0.69,1.34
	C58.05,43.44,57.43,43.44,56.82,43.44z"/>
<path class="st14" d="M111.14,42.52c0.56,0.11,0.29,0.62,0.46,0.93c-0.92,0-1.84,0-2.76,0c0-0.15,0-0.3-0.01-0.46
	C109.48,42.26,110.47,43.16,111.14,42.52z"/>
<path class="st15" d="M63.72,43.44c0.03-0.75-0.28-1.56,0.34-2.21c0.14,0.75,0.02,1.57,0.58,2.21
	C64.34,43.44,64.03,43.44,63.72,43.44z"/>
<path class="st16" d="M114.36,43.44c0.02-0.17,0.04-0.33,0.06-0.5c0.89-0.44,1.77-0.2,2.66,0.01c0.02,0.16,0.03,0.33,0.05,0.49
	C116.2,43.44,115.28,43.44,114.36,43.44z"/>
<path d="M110.42,13.09c1.3-0.33,1.78-1.47,2.55-2.21c3.86-3.71,8.3-5.75,13.74-4.72c5.64,1.06,8.04,6.06,5.07,10.36
	c-1.22,1.77-3.11,2.39-5.03,2.95c-0.8,0.23-1.64,0.32-2.79,0.53c5.33,3.19,10.15,6.62,14.42,10.74c1.04,1.01,2.07,2.04,3.04,3.12
	c1.1,1.22,2.9,2.6,1.17,4.24c-1.73,1.64-3-0.35-4.16-1.41c-3.67-3.37-7.31-6.76-11.36-9.68c-3.48-2.51-7.14-4.71-11.21-6.14
	c-1.32-0.46-2.48-1.11-2.1-2.75c0.39-1.68,1.79-1.63,3.13-1.51c3.32,0.3,6.58,0.13,9.7-1.15c1.21-0.49,2.55-1.03,2.51-2.62
	c-0.04-1.69-1.44-2.24-2.78-2.63c-3.78-1.1-6.92,0.31-9.7,2.72c-4.31,3.74-6.97,8.67-9.58,13.61c-0.64,1.22-1.25,2.45-1.8,3.71
	c-0.55,1.25-1.35,2.19-2.79,1.68c-1.55-0.55-1.27-1.98-0.96-3.14c0.47-1.77,1.21-3.46,1.74-5.21c1.57-5.19,3.09-10.39,4.62-15.59
	c0.13-0.44,0.25-0.88,0.4-1.31c0.41-1.19,1.24-1.81,2.47-1.45c1.23,0.37,1.58,1.37,1.25,2.57C111.5,9.52,110.97,11.23,110.42,13.09z
	"/>
<path d="M89.96,23.72c-1.44,1.9-2.48,3.62-4.28,4.64c-2.77,1.57-5.04,0.46-5.41-2.7c-0.12-0.98,0.09-2.01-0.07-2.98
	c-0.12-0.72,1.01-2.15-0.72-2.06c-1.36,0.07-3.39-1.11-3.86,1.52c-0.29,1.65-0.8,3.27-1.12,4.92c-0.28,1.4-0.91,2.35-2.47,1.99
	c-1.55-0.36-1.69-1.56-1.38-2.9c0.21-0.89,0.37-1.8,0.61-2.69c0.31-1.12,0.5-2.05-0.38-3.17c-0.83-1.05-0.69-2.53,0.88-2.93
	c1.2-0.31,1.3-1.11,1.56-1.95c0.62-2.04,1.22-4.1,1.85-6.14c0.36-1.14,1.03-1.91,2.37-1.52c1.41,0.41,1.68,1.47,1.35,2.72
	c-0.46,1.7-0.95,3.39-1.55,5.04c-0.36,1-0.04,1.09,0.87,1.19c2.13,0.22,3.63-0.11,3.92-2.68c0.16-1.41,0.83-2.77,1.29-4.15
	c0.4-1.19,1.04-2.17,2.48-1.71c1.43,0.46,1.69,1.59,1.31,2.97c-1,3.68-2.31,7.29-2.95,11.07c-0.12,0.73-0.36,1.45,0,2.39
	c1.23-0.74,1.79-1.93,2.42-3.01c1.94-3.31,3.16-6.94,4.52-10.51c0.19-0.5,0.34-1.02,0.56-1.5c0.44-0.96,1.1-1.86,2.26-1.44
	c1.22,0.44,1.72,1.55,1.32,2.81c-0.73,2.35-1.19,4.75-1.42,7.19c-0.14,1.52-0.19,3.06-0.15,4.58c0.02,0.8,0.01,1.95,0.95,2.13
	c0.76,0.15,1.21-0.85,1.57-1.5c1.96-3.49,3.26-7.24,4.21-11.12c0.18-0.74,0.3-1.51,0.57-2.22c0.38-1.01,1.08-1.75,2.26-1.46
	c1.08,0.27,1.78,1.09,1.5,2.23c-1.34,5.49-2.37,11.11-5.92,15.76c-1.19,1.55-2.7,2.95-4.82,2.56c-2.2-0.41-3.12-2.27-3.75-4.23
	C90.26,24.6,90.17,24.33,89.96,23.72z"/>
<path d="M133.71,7.28c0.01-0.08,0.01-0.15,0.02-0.23c0.07-1.41-0.21-3.06,1.88-3.25c1.08-0.1,1.69,0.61,1.92,1.58
	c0.26,1.09-1.42,4.26-2.4,4.35C133.09,9.91,133.59,8.45,133.71,7.28z"/>
<path class="st17" d="M117.07,42.95c-0.89,0-1.77,0-2.66-0.01c-0.02-1.29-0.06-2.59-0.07-3.88c-0.01-2.52,0-2.52,2.7-1.91
	c-1.65,0.91-1.65,0.9-0.55,2.5c0.1,0.14,0.11,0.44,0.03,0.58C115.39,42.06,115.39,42.06,117.07,42.95z"/>
<path class="st6" d="M111.14,42.52c-0.62,0.89-1.54,0.3-2.31,0.47c-0.04-1.59-0.1-3.18-0.09-4.77c0-0.46-0.28-1.29,0.44-1.29
	c0.94-0.01,0.53,0.9,0.56,1.42c0.06,0.98,0.11,1.98,0,2.96C109.6,42.51,110.44,42.39,111.14,42.52z"/>
<path class="st18" d="M120.21,41.66c0-1.36,0-2.73,0-4.09c0-0.3,0.06-0.65,0.41-0.71c0.32-0.05,0.62,0.13,0.6,0.51
	c-0.04,1.45,0.31,2.96-0.36,4.33C120.66,41.7,120.44,41.68,120.21,41.66z"/>
<path class="st19" d="M65.62,40.35c0.09,0.13,0.07,0.24-0.05,0.34c-0.18-0.01-0.36-0.01-0.53-0.02c0.14-1.01,0.29-2.02,0.42-3.04
	c0.08-0.65,0.38-0.92,1.03-0.66C66.88,38.27,65.84,39.2,65.62,40.35z"/>
<path class="st20" d="M104.77,39.92c-0.19-0.21-0.38-0.42-0.57-0.63c0.72-0.56-0.18-2.36,1.21-2.05
	C105.91,37.35,105.22,39.03,104.77,39.92z"/>
<path class="st21" d="M46.57,37.54c0.19-0.18,0.39-0.36,0.58-0.54c0.68,0.36,1.14,1.06,0.48,1.51
	C46.95,38.99,46.88,37.94,46.57,37.54z"/>
<path class="st22" d="M91.89,42.48c-0.19,0.18-0.37,0.35-0.56,0.53c-0.68-0.42-0.92-1.27-0.35-1.58
	C91.77,40.99,91.62,42.06,91.89,42.48z"/>
<path d="M104.78,3.36c-1.76-0.14-3.51-0.32-5.27-0.47C91.4,2.24,83.27,2.35,75.15,2.38c-0.87,0-1.69,0.02-2.22-0.83
	c-0.46,0-0.92,0-1.38,0C71,2.58,70.02,2.39,69.13,2.4c-3.68,0.03-7.35,0.03-11.03,0.38c-1.44,0.14-2.47,0.56-2.32,2.14
	c0.14,1.53,1.21,1.89,2.65,1.79c3.51-0.23,7.02-0.34,10.78-0.51c-2.07,6.63-3.93,13.05-5.33,19.82c-3.12-2.49-6.43-4.23-9.94-6.29
	c0.68-0.14,0.9-0.18,1.12-0.24c2.9-0.71,5.78-1.49,8.23-3.31c1.35-1,2.38-2.28,2.13-4.05c-0.25-1.77-1.57-2.73-3.2-3.25
	c-0.65-0.21-1.32-0.43-1.99-0.52c-2.25-0.31-4.52-0.56-6.87-0.85c0.58-1.06,1.04-2.05,0.04-2.99c-0.51-0.48-1.37-1.06-1.83-0.6
	c-1.73,1.76-3.9,3.47-4.69,5.64c-0.52,1.42-0.83,3.11-1.46,4.61c-1.73,4.08-3.46,8.16-5.22,12.23c-0.57,1.32-0.85,2.55,0.79,3.26
	c1.69,0.73,2.32-0.39,2.84-1.71c0.78-1.99,1.64-3.95,2.4-5.95c0.36-0.94,0.62-1.34,1.78-0.79c5.14,2.41,10.13,5.05,14.45,8.8
	c2.66,2.31,4.28,1.73,4.98-1.75c1.36-6.83,3.19-13.53,5.3-20.16c0.49-1.54,1.17-1.97,2.73-1.93c9.64,0.22,19.29,0.08,28.89,1.13
	c1.52,0.17,2.19-0.58,2.32-1.87C106.82,4.15,106.07,3.46,104.78,3.36z M50.73,12.27c0.18-0.37,0.42-0.61,0.86-0.61
	c3.17-0.01,6.35-0.05,9.87,1.11c-4.07,2.5-8.22,3.13-12.93,3.93C49.39,14.97,50.07,13.62,50.73,12.27z"/>
<path d="M44.41,5.4c-1.56,0.42-3.27,0.05-4.75,1.3c-3.34,2.81-6.73,5.56-9.79,8.67c-0.79,0.8-1.56,1.27-2.75,1.34
	c-4.05,0.25-8.09,0.58-12.12,1.04c-1.59,0.18-3.37-0.03-4.68,1.29c0,0.61,0,1.23,0,1.84c0.86,0.91,1.76,1.27,3.15,1.06
	c3.59-0.55,7.22-0.81,11.21-1.22c-1.77,2.26-3.26,4.16-4.76,6.06c-0.9,1.15-1.33,2.26,0.13,3.32c1.37,0.99,2.18,0.24,3.02-0.86
	c1.49-1.94,3.31-3.66,4.57-5.74c2.02-3.34,4.91-3.54,8.32-3c-0.81,2.06-1.56,4.05-2.39,6c-0.57,1.34-0.23,2.2,1.1,2.73
	c1.26,0.49,2.01,0.01,2.49-1.2c2.7-6.73,5.5-13.41,8.94-19.8C46.83,6.9,45.8,5.03,44.41,5.4z M35.15,16.14
	c0.92-1.59,2.42-2.4,3.75-3.41C38.17,16.4,38.15,16.41,35.15,16.14z"/>
<path class="st23" d="M79.08,37.69c0.85,1.54,0.8,3.11-0.05,4.71C78.47,40.85,78.35,39.28,79.08,37.69z"/>
<path class="st24" d="M58.07,39.13c0.12,0.73,0.47,1.44-0.13,2.19C57.4,40.18,57.4,40.18,58.07,39.13z"/>
<path class="st12" d="M71.64,37.46c0.52,1.04,0.56,1.68,0.19,2.3c-0.03,0.04-0.47-0.04-0.53-0.16
	C71.01,38.97,71.08,38.37,71.64,37.46z"/>
</svg>
