<?xml version="1.0" encoding="utf-8"?>
<!-- Generator: Adobe Illustrator 23.0.1, SVG Export Plug-In . SVG Version: 6.00 Build 0)  -->
<svg version="1.1" id="Layer_1" xmlns="http://www.w3.org/2000/svg" xmlns:xlink="http://www.w3.org/1999/xlink" x="0px" y="0px"
	 viewBox="0 0 324.48 91.26" style="enable-background:new 0 0 324.48 91.26;" xml:space="preserve">
<style type="text/css">
	.st0{fill:#DB127A;}
	.st1{fill:#8F5344;}
	.st2{fill:#8E5344;}
	.st3{fill:#8E5546;}
	.st4{fill:#85C028;}
	.st5{fill:#DA177C;}
	.st6{fill:#FEFEFE;}
</style>
<path class="st0" d="M153.02,31.48c12.68,3.51,20.34,13.03,20.9,25.99c0.4,9.11,5.66,15.86,13.91,17.84
	c7.72,1.85,16.08-2.01,19.81-9.17c3.95-7.57,2.31-16.06-4.32-22.24c-0.49-0.45-1.01-0.86-1.53-1.28c-2.3-1.86-2.94-4.13-1.08-6.51
	c1.77-2.26,4.14-1.9,6.26-0.47c6.62,4.46,10.31,10.81,11.05,18.68c1.2,12.61-4.95,23.43-15.66,28.08c-11,4.78-22.33,1.97-31.09-7.71
	c-0.55-0.61-1.12-1.2-1.74-1.87c-7.11,9.1-16.06,13.66-27.58,11.2c-12.17-2.6-20.72-13.18-20.95-25.3
	c-0.25-13.03,7.73-23.8,20.05-27.08c0.96-0.26,1.9-0.57,2.86-0.86C147.03,30.07,150.11,29.65,153.02,31.48z"/>
<path class="st1" d="M63,39.7c7.77-5.85,15.63-7.81,24.18-5.6c12.47,3.23,21.05,15.64,19.49,27.83
	c-1.71,13.31-12.21,23.26-24.94,23.62c-13.53,0.38-25-8.54-26.76-21.87c-1.79-13.56-0.36-27.28-0.68-40.92
	c-0.06-2.69,1.51-2.58,3.28-1.86c3.43,1.41,5.19,4.14,5.39,7.73C63.15,31.95,63,35.29,63,39.7z"/>
<path class="st2" d="M273.35,67.43c0,4.5-0.06,9,0.02,13.5c0.05,2.58-1.07,2.73-3.07,1.86c-3.63-1.59-5.31-4.42-5.36-8.25
	c-0.08-5.5,0.02-11-0.07-16.49c-0.2-11.16-7.14-18.61-17.24-18.58c-9.97,0.03-17.07,7.6-17.35,18.64c-0.14,5.5-0.03,11-0.11,16.49
	c-0.05,3.84-1.71,6.66-5.38,8.21c-2.05,0.87-3.06,0.66-3.03-1.88c0.13-8.99-0.37-18.03,0.34-26.98
	c1.12-14.19,12.63-23.86,26.79-23.36c12.4,0.44,23.96,12.38,24.43,25.35c0.14,3.83,0.02,7.66,0.02,11.5
	C273.34,67.43,273.34,67.43,273.35,67.43z"/>
<path class="st2" d="M153.02,31.48c-3.04-0.18-6.16,0.71-9.1-0.71c0.93-14.53,11.05-25.98,23.95-27.12
	c13.44-1.19,25.11,6.91,28.6,19.85c2.75,10.19-0.93,21.93-8.83,27.93c-2.44,1.85-5.21,3.86-7.86,0.67
	c-2.61-3.14-0.35-5.32,2.04-7.51c7.59-6.96,8.68-17.51,2.78-25.18c-5.47-7.11-15.51-8.89-23.31-3.97
	C155.44,19.12,152.86,24.62,153.02,31.48z"/>
<path class="st3" d="M118.03,55.63c0,8.67-0.09,17.33,0.05,26c0.05,3.15-1.08,3.3-3.51,2.16c-3.87-1.81-5.12-5.19-5.14-9
	c-0.11-17.33-0.02-34.66-0.1-51.99c-0.01-3.18,1.33-3.3,3.66-2.16c3.77,1.84,5.06,5.03,5.05,9
	C118.01,38.3,118.03,46.96,118.03,55.63z"/>
<path class="st4" d="M220.5,16.5c-2.12-0.75-2.98-1.06-3.85-1.36c0.31-1.64,2.41-1.63,3.11-3.15c-3.45-1.11-5.52,1.05-7.62,2.76
	c-3.98,3.25-6.34,7.67-8.14,12.38c-0.8,2.1-2.27,2.45-3.94,1.75c-2.07-0.87-0.42-2.29-0.04-3.31c5.73-15.16,16.49-22.03,30.6-19.79
	c3.75,0.6,5.12,1.68,3.13,5.69c-5.1,10.28-16.11,17.34-27.23,16.94C209.4,19.82,212.31,17.06,220.5,16.5z"/>
<path class="st5" d="M251.91,63.22c0,2.82,0.11,5.65-0.03,8.46c-0.13,2.62-1.57,4.61-4.24,4.66c-2.69,0.06-4.28-1.92-4.36-4.51
	c-0.16-5.64-0.19-11.28,0.02-16.92c0.09-2.53,1.56-4.48,4.44-4.35c2.86,0.12,3.99,2.15,4.14,4.7
	C252.02,57.91,251.91,60.57,251.91,63.22z"/>
<path class="st6" d="M165.17,57.94c-0.08,10.19-8.01,17.91-18.21,17.75c-9.79-0.15-17.41-8.14-17.31-18.15
	c0.1-9.9,7.96-17.82,17.72-17.87C157.29,39.62,165.25,47.8,165.17,57.94z"/>
<path class="st6" d="M80.46,76.74c-9.76-0.04-17.44-7.66-17.46-17.32c-0.01-9.55,7.81-17.43,17.41-17.53
	c9.79-0.1,17.77,7.91,17.66,17.73C97.96,69.35,90.32,76.78,80.46,76.74z"/>
</svg>
