<?xml version="1.0" encoding="utf-8"?>
<!-- Generator: Adobe Illustrator 23.0.1, SVG Export Plug-In . SVG Version: 6.00 Build 0)  -->
<svg version="1.1" id="Layer_1" xmlns="http://www.w3.org/2000/svg" xmlns:xlink="http://www.w3.org/1999/xlink" x="0px" y="0px"
	 viewBox="0 0 160.4 45.11" style="enable-background:new 0 0 160.4 45.11;" xml:space="preserve">
<style type="text/css">
	.st0{fill:#242021;}
	.st1{fill:#2F2B2C;}
	.st2{fill:#262223;}
	.st3{fill:#272324;}
	.st4{fill:#231F20;}
	.st5{fill:#FEFEFE;}
</style>
<path class="st0" d="M40,8.47c4.26,2.15,5.49,4.16,5.22,8.28c-0.12,1.91-1.14,3.3-2.42,4.59c4.27,2.51,5.8,5.57,4.73,9.3
	c-0.86,2.99-2.98,4.66-5.9,5.31c-3.04,0.68-6.14,0.32-9.22,0.39c-1.54,0.03-0.98-1.14-0.99-1.85c-0.03-8.67-0.02-17.35-0.02-26.02
	C34.27,8.47,37.14,8.47,40,8.47z"/>
<path class="st1" d="M129.07,14.49c-0.74,0.48-1.43,1.28-2.44,0.63c-0.89-0.57-1.26-1.39-0.61-2.33c0.97-1.4,2.03-0.74,3.05-0.02
	C129.07,13.34,129.07,13.92,129.07,14.49z"/>
<path class="st0" d="M103.11,33.9c-4.09,3.47-9.3,3.51-12.38,0.28c-3.13-3.3-3.32-9.32-0.4-12.64c3.16-3.58,8.18-3.71,12.52-0.32
	c0.63-0.18,0.33-0.7,0.33-1.05c0.01-0.68,0.15-1.05,0.95-1.06c0.98-0.01,0.98,0.56,0.97,1.26c-0.01,3.3,0,6.59,0,9.89
	c0,1.51,0.03,3.01-0.01,4.52c-0.02,0.63,0.33,1.51-0.87,1.57c-1.37,0.07-0.94-0.92-1.02-1.62C103.18,34.52,103.16,34.32,103.11,33.9
	z"/>
<path class="st0" d="M50.32,27.64c0.02-4.97,4.07-8.91,9.12-8.87c4.89,0.04,8.91,4.02,8.94,8.88c0.03,4.93-4.06,9-9.05,9
	C54.3,36.64,50.29,32.64,50.32,27.64z"/>
<path class="st2" d="M74.19,20.96c0.95-1.06,2-1.77,3.26-2.07c3.7-0.89,6.37,0.86,6.96,4.67c0.6,3.91,0.14,7.86,0.27,11.79
	c0.02,0.74-0.32,0.98-1.03,1.01c-0.92,0.04-1.04-0.46-1.04-1.2c0.02-2.94,0.01-5.87,0-8.81c0-0.64,0.02-1.29-0.05-1.93
	c-0.2-1.79-0.66-3.41-2.79-3.8c-1.94-0.36-4.16,0.77-4.99,2.55c-0.71,1.53-0.81,3.17-0.81,4.82c0.01,2.29,0.01,4.58-0.01,6.87
	c-0.01,0.65,0.29,1.48-0.93,1.5c-1.27,0.02-1.11-0.8-1.11-1.59c0-4.65-0.01-9.31,0.01-13.96c0-0.69-0.38-1.6,0.95-1.72
	C74.35,18.96,73.81,20.15,74.19,20.96z"/>
<path class="st3" d="M110.61,28.55c0-1.93,0.01-3.86,0-5.8c-0.01-0.87,0.34-1.99-1.24-1.82c-0.47,0.05-0.59-0.32-0.56-0.71
	c0.03-0.39-0.15-1.06,0.41-1.04c1.83,0.08,1.36-1.21,1.39-2.19c0.03-0.93,0.05-1.86,0-2.79c-0.05-0.86,0.31-1.12,1.13-1.11
	c0.77,0.02,0.98,0.36,0.96,1.05c-0.03,1.07,0.05,2.15-0.02,3.22c-0.08,1.19,0.1,1.96,1.57,1.76c0.7-0.1,1.48-0.15,1.42,1.01
	c-0.06,1.08-0.84,0.87-1.39,0.79c-1.43-0.21-1.63,0.46-1.61,1.7c0.07,3.94,0.05,7.87,0,11.81c-0.01,0.71,0.57,1.86-0.95,1.9
	c-1.67,0.04-1.04-1.23-1.07-1.99C110.56,32.42,110.61,30.49,110.61,28.55z"/>
<path class="st3" d="M118.29,28.6c0-1.79,0.04-3.59-0.02-5.38c-0.03-0.99,0.61-2.34-1.41-2.38c-0.66-0.02-0.66-1.54,0.02-1.58
	c1.98-0.13,1.32-1.45,1.39-2.46c0.06-0.86,0.02-1.72,0.01-2.58c0-0.59-0.05-1.15,0.85-1.12c0.74,0.03,1.25,0.14,1.21,1.05
	c-0.04,1.15,0.03,2.3-0.02,3.44c-0.05,1.02,0.14,1.66,1.38,1.55c0.62-0.05,1.51-0.35,1.56,0.86c0.05,1.21-0.81,1.02-1.46,0.94
	c-1.32-0.16-1.51,0.47-1.49,1.61c0.06,4.01,0.03,8.03,0.01,12.04c0,0.8,0.31,1.82-1.15,1.76c-1.39-0.06-0.85-1.09-0.87-1.73
	C118.25,32.61,118.29,30.61,118.29,28.6z"/>
<path class="st4" d="M128.38,27.61c0,2.37,0.02,4.73-0.01,7.1c-0.01,0.72,0.29,1.67-1.04,1.64c-1.2-0.03-0.89-0.9-0.9-1.54
	c-0.02-4.73-0.02-9.46,0-14.19c0-0.64-0.31-1.48,0.91-1.5c1.35-0.02,1.02,0.9,1.03,1.62C128.39,23.03,128.38,25.32,128.38,27.61z"/>
<path class="st5" d="M37.92,22.93c0.7,0.04,1.78,0.05,2.84,0.19c2.88,0.38,4.67,2.2,4.88,4.83c0.22,2.89-1.32,5.15-4.11,5.96
	c-2.38,0.7-4.83,0.26-7.25,0.38c-0.74,0.04-0.76-0.45-0.76-0.98c0.01-3.07,0.04-6.15-0.02-9.22c-0.02-0.98,0.39-1.22,1.26-1.17
	C35.69,22.98,36.62,22.93,37.92,22.93z"/>
<path class="st5" d="M33.52,15.6c0-0.43-0.11-0.9,0.02-1.28c0.44-1.26-1.13-3.34,0.91-3.78c4.34-0.93,7.79,0.66,8.52,3.44
	c1,3.85-1.12,6.74-5.08,6.94c-4.37,0.22-4.37,0.22-4.37-4.03C33.52,16.46,33.52,16.03,33.52,15.6z"/>
<path class="st5" d="M103.27,27.55c-0.05,4.31-2.71,7.25-6.53,7.2c-3.65-0.04-6.46-3.17-6.43-7.15c0.03-3.9,3.03-7.08,6.62-7.02
	C100.57,20.65,103.31,23.66,103.27,27.55z"/>
<path class="st5" d="M59.29,34.74c-3.9,0-6.91-2.99-6.96-6.91c-0.05-4.01,3.05-7.26,6.89-7.24c3.98,0.02,7.07,3.11,7.07,7.07
	C66.29,31.7,63.29,34.74,59.29,34.74z"/>
</svg>
