<?xml version="1.0" encoding="utf-8"?>
<!-- Generator: Adobe Illustrator 23.0.1, SVG Export Plug-In . SVG Version: 6.00 Build 0)  -->
<svg version="1.1" id="Layer_1" xmlns="http://www.w3.org/2000/svg" xmlns:xlink="http://www.w3.org/1999/xlink" x="0px" y="0px"
	 viewBox="0 0 160.8 79.88" style="enable-background:new 0 0 160.8 79.88;" xml:space="preserve">
<path d="M11.85,9.19c43.66,0,87.31,0,130.97,0c0,21.44,0,42.87,0,64.31c-43.66,0-87.31,0-130.97,0
	C11.85,52.06,11.85,30.62,11.85,9.19z M60.81,44.34c-0.03,0.16-0.06,0.31-0.09,0.45c-0.21,1.03-0.42,2.05-0.62,3.08
	c-0.06,0.29-0.05,0.59,0.25,0.79c0.31,0.21,0.66,0.13,0.97-0.01c0.45-0.21,0.89-0.44,1.32-0.68c0.08-0.04,0.12-0.19,0.12-0.29
	c-0.01-0.65-0.12-1.31-0.05-1.95c0.15-1.4,0.85-2.64,1.72-3.81c0.19-0.25,0.45-0.48,0.72-0.66c0.16-0.11,0.45-0.18,0.61-0.12
	c0.13,0.04,0.24,0.31,0.23,0.47c-0.08,1.19-0.19,2.37-0.31,3.56c-0.05,0.52-0.17,1.04-0.23,1.56c-0.03,0.34,0.34,0.75,0.71,0.87
	c0.31,0.1,0.71,0.01,0.95-0.31c0.27-0.35,0.55-0.73,0.66-1.13c0.23-0.83,0.42-1.67,0.51-2.52c0.11-1.11,0.71-1.93,1.73-2.54
	c0.17-0.1,0.45-0.21,0.6-0.15c0.15,0.06,0.25,0.31,0.29,0.49c0.15,0.8-0.1,1.58-0.23,2.36c-0.12,0.73-0.31,1.45-0.34,2.18
	c-0.04,1.22,1.17,1.87,2.4,1.31c0.44-0.2,0.85-0.49,1.22-0.79c0.43-0.35,0.81-0.76,1.23-1.17c0.06,0.15,0.1,0.26,0.14,0.37
	c0.47,1.24,1.41,1.78,2.9,1.68c1.29-0.09,2.15-0.74,2.79-1.65c0.3-0.43,0.54-0.9,0.82-1.34c0.07-0.12,0.17-0.28,0.3-0.31
	c0.57-0.15,1.16-0.25,1.76-0.38c0.04,0.38,0.07,0.7,0.12,1.03c0.22,1.39,1.26,2.2,2.75,2.13c0.81-0.04,1.43-0.41,2-0.87
	c0.35-0.29,0.69-0.59,0.98-0.84c0.27,0.21,0.51,0.4,0.75,0.58c0.73,0.54,1.52,0.63,2.32,0.19c0.47-0.25,0.88-0.59,1.28-0.92
	c0.31-0.25,0.57-0.55,0.9-0.88c0.05,0.18,0.09,0.32,0.13,0.44c0.18,0.47,0.3,0.96,0.55,1.4c0.32,0.59,0.9,0.94,1.67,0.86
	c0.38-0.04,0.76-0.2,1.09-0.38c0.87-0.46,1.54-1.11,2.07-1.86c0.15-0.22,0.32-0.43,0.51-0.68c0.07,0.23,0.12,0.42,0.19,0.6
	c0.56,1.5,2.25,2.04,3.76,1.16c0.51-0.3,0.96-0.7,1.4-1.07c0.29-0.24,0.52-0.54,0.79-0.82c0.11,0.2,0.2,0.37,0.31,0.53
	c0.43,0.66,1.06,1.01,1.95,0.98c0.78-0.03,1.42-0.32,1.97-0.78c0.23-0.19,0.44-0.4,0.65-0.6c0.91,0.81,1.71,0.9,2.72,0.21
	c0.64-0.44,1.22-0.95,1.76-1.49c0.77-0.77,1.29-1.68,1.71-2.63c0.23-0.51,0.11-0.86-0.36-1.09c-0.28,0.46-0.56,0.92-0.85,1.38
	c-0.54,0.86-1.21,1.63-2.08,2.26c-0.44,0.31-0.72,0.24-0.91-0.23c-0.18-0.45-0.18-0.89,0.04-1.33c0.19-0.38,0.38-0.76,0.54-1.16
	c0.34-0.81,0.72-1.62,0.62-2.51c-0.03-0.24-0.14-0.5-0.29-0.7c-0.22-0.28-0.47-0.3-0.8-0.11c-0.31,0.19-0.59,0.42-0.9,0.64
	c-1.3-0.59-2.48-0.3-3.54,0.52c-1.22,0.95-2.04,2.12-2.37,3.53c-0.26,1.1-0.93,1.98-1.95,2.63c-0.72,0.47-1.56,0.19-1.78-0.57
	c-0.08-0.29-0.12-0.61-0.08-0.91c0.15-1.14,0.37-2.28,0.51-3.42c0.06-0.54,0.36-0.78,0.93-0.94c0.68-0.19,1.34-0.44,1.97-0.73
	c0.67-0.31,0.8-0.96,0.37-1.5c-0.17-0.21-0.38-0.38-0.6-0.59c-0.53,0.69-1.18,1.2-2.12,1.44c0.03-0.2,0.05-0.36,0.07-0.52
	c0.06-0.51,0.14-1.02,0.16-1.54c0.02-0.52-0.26-0.86-0.85-0.97c-0.49-0.1-1-0.11-1.54-0.16c0.02,0.19,0.03,0.3,0.05,0.41
	c0.16,0.98,0.13,1.96-0.09,2.93c-0.04,0.19-0.11,0.27-0.36,0.24c-0.41-0.05-0.83-0.05-1.28-0.08c-0.05,0.26-0.1,0.5-0.15,0.74
	c-0.06,0.26,0.06,0.43,0.32,0.53c0.26,0.09,0.53,0.17,0.81,0.23c0.2,0.05,0.28,0.12,0.25,0.31c-0.33,1.79-0.98,3.46-2.19,4.95
	c-0.28,0.34-0.61,0.67-0.98,0.94c-0.48,0.35-1.01,0.17-1.2-0.35c-0.03-0.08-0.05-0.17-0.07-0.26c-0.34-1.36-0.27-2.69,0.24-4.02
	c0.23-0.6,0.35-1.23,0.46-1.85c0.07-0.36-0.12-0.67-0.53-0.82c-0.42-0.15-0.85-0.12-1.17,0.18c-0.24,0.23-0.51,0.49-0.6,0.78
	c-0.3,0.93-0.52,1.89-0.77,2.83c-0.09,0.34-0.11,0.69-0.22,1.02c-0.24,0.76-0.71,1.39-1.41,1.89c-0.61,0.43-1.27,0.32-1.68-0.26
	c-0.32-0.45-0.37-0.9-0.12-1.41c0.64-1.25,1.29-2.5,1.83-3.77c0.91-2.13,1.51-4.33,1.35-6.63c-0.03-0.5-0.16-1-0.35-1.47
	c-0.32-0.79-1.28-1.02-2.01-0.46c-0.38,0.28-0.71,0.65-0.94,1.03c-1.05,1.74-1.63,3.63-2.06,5.55c-0.11,0.49-0.24,0.98-0.36,1.47
	c-1.2-0.06-2.11,0.37-2.92,1.04c-0.88,0.73-1.46,1.61-1.87,2.6c-0.31,0.75-1.24,1.2-2.05,1.01c0-0.4,0.01-0.79,0-1.18
	c-0.02-0.74-0.16-1.46-0.61-2.11c-0.3-0.44-0.72-0.65-1.25-0.53c-1.1,0.24-2.18,0.56-3.07,1.22c-0.96,0.71-1.55,1.63-1.97,2.64
	c-0.31,0.76-0.8,1.42-1.31,2.08c-0.33,0.43-0.79,0.52-1.29,0.56c-0.32-0.56-0.19-1.12-0.13-1.68c0.1-0.95,0.23-1.89,0.29-2.84
	c0.07-1.1-0.86-1.72-2.08-1.42c-0.86,0.21-1.52,0.69-2.1,1.27c-0.12,0.12-0.23,0.25-0.37,0.4c-0.13-0.36-0.2-0.64-0.33-0.91
	c-0.33-0.67-1.02-0.97-1.83-0.81c-0.59,0.12-1.1,0.39-1.52,0.76c-0.46,0.4-0.88,0.84-1.36,1.3c-0.07-0.55-0.24-1.04-0.88-1.26
	c-0.58-0.2-1.15-0.12-1.76,0.01c0.06,0.53,0.12,1.04,0.17,1.55c0.12,1.19-0.99,2.33-2.35,2.41c-0.2,0.01-0.3-0.03-0.31-0.22
	c-0.01-0.26-0.03-0.52-0.08-0.77c-0.13-0.72-0.23-1.45-0.44-2.16c-0.18-0.57-0.66-0.79-1.32-0.66c-0.71,0.14-1.42,0.29-2.08,0.54
	c-1.19,0.44-1.94,1.31-2.56,2.27c-0.4,0.62-0.76,1.26-1.21,1.86c-1.35,1.79-3.15,3.1-5.53,3.7c-2.42,0.62-4.4-0.32-5.05-2.44
	c-0.25-0.82-0.35-1.68-0.37-2.53c-0.05-2.18,0.61-4.22,1.75-6.14c0.75-1.27,1.78-2.32,3.21-3.05c0.84-0.43,1.72-0.67,2.7-0.46
	c0.82,0.17,1.32,0.7,1.28,1.34c-0.05,0.77-0.59,1.27-1.47,1.35c-0.51,0.04-1.02,0.05-1.53,0.06c-0.52,0.01-0.67,0.11-0.61,0.57
	c0.03,0.24,0.14,0.52,0.33,0.69c0.24,0.21,0.57,0.38,0.89,0.46c1.43,0.33,2.72,0,3.82-0.8c1.05-0.76,1.45-1.78,1.1-2.94
	c-0.34-1.13-1.28-1.75-2.57-1.97c-1.66-0.27-3.26-0.07-4.78,0.56c-1.28,0.53-2.31,1.33-3.28,2.2c-3.51,3.16-4.84,6.94-3.99,11.25
	c0.59,2.98,3.05,4.05,5.73,4.27c1.22,0.1,2.41-0.22,3.54-0.63c1.97-0.72,3.46-1.94,4.75-3.38c0.16-0.18,0.32-0.35,0.52-0.56
	c0.07,0.2,0.12,0.35,0.17,0.5c0.54,1.49,2.14,2.14,3.8,1.53c0.96-0.35,1.67-0.95,2.14-1.75c0.16-0.27,0.3-0.56,0.45-0.83
	c0.21-0.38,0.55-0.6,1.05-0.67c0.33-0.04,0.66-0.15,0.95-0.29C60.02,44.83,60.4,44.58,60.81,44.34z M51.9,31.86
	c0.01,0.01,0.03,0.02,0.04,0.03c0.63-0.42,1.24-0.87,1.89-1.26c0.41-0.25,0.86-0.54,1.33-0.63c0.88-0.17,1.79-0.27,2.7-0.29
	c2.42-0.05,4.73,0.45,6.98,1.2c1.3,0.44,2.57,0.97,3.89,1.35c4.51,1.28,8.87,0.98,13.03-1.08c0.95-0.47,1.88-0.96,2.79-1.48
	c0.55-0.31,1.08-0.66,1.57-1.04c0.47-0.37,0.87-0.81,1.3-1.22c-0.02-0.01-0.04-0.03-0.06-0.04c-0.59,0.43-1.17,0.85-1.76,1.28
	c-0.02-0.02-0.05-0.04-0.07-0.06c1.17-1.1,2.17-2.29,2.78-3.7c-0.05,0.02-0.08,0.05-0.1,0.08c-1.05,1.61-2.47,2.94-4.15,4.06
	c-0.54,0.36-1.1,0.73-1.73,0.92c-1.64,0.52-3.37,0.62-5.11,0.56c-2.45-0.09-4.8-0.6-7.09-1.36c-1.4-0.47-2.79-0.97-4.26-1.24
	c-3.4-0.63-6.68-0.42-9.81,0.99c-0.89,0.4-1.78,0.78-2.65,1.2c-0.55,0.27-1.07,0.6-1.59,0.91c-0.15,0.09-0.27,0.21-0.41,0.32
	c-0.13,0.11-0.25,0.22-0.38,0.34c0.74-0.4,1.46-0.79,2.17-1.17c0.02,0.03,0.04,0.05,0.05,0.08C52.79,31.01,52.34,31.44,51.9,31.86z
	 M96.58,34.25c0.09,0.26,0.14,0.54,0.27,0.79c0.18,0.35,0.81,0.62,1.16,0.5c1.05-0.34,1.72-0.99,1.94-1.95
	c0.18-0.77-0.36-1.29-1.27-1.3C97.53,32.28,96.65,33.11,96.58,34.25z M36.28,55.78c7.1,0,14.18,0,21.24,0c0-0.13,0-0.23,0-0.33
	c-7.09,0-14.16,0-21.24,0C36.28,55.57,36.28,55.66,36.28,55.78z M118.38,55.46c-7.1,0-14.18,0-21.27,0
	c0.01,0.13,0.02,0.23,0.02,0.33c7.1,0,14.17,0,21.25,0C118.38,55.67,118.38,55.58,118.38,55.46z M84.66,53.23
	c-0.26-0.07-0.41-0.02-0.54,0.16c-0.19,0.27-0.4,0.53-0.61,0.79c-0.46,0.6-0.93,1.19-1.41,1.81c-0.1-0.11-0.17-0.2-0.24-0.28
	c-0.59-0.76-1.19-1.52-1.77-2.29c-0.15-0.2-0.3-0.27-0.55-0.19c0,1.59,0,3.17,0,4.77c0.14-0.01,0.25-0.01,0.4-0.02
	c0-1.35,0-2.67,0-4.07c0.74,0.94,1.43,1.82,2.15,2.72c0.72-0.91,1.4-1.78,2.09-2.64c0.03,0.01,0.06,0.02,0.08,0.02
	c0,1.32,0,2.64,0,3.98c0.17-0.01,0.28-0.01,0.41-0.02C84.66,56.37,84.66,54.81,84.66,53.23z M75.63,55.59
	c0-1.42-1.16-2.46-2.73-2.46c-1.58,0-2.77,1.06-2.77,2.47c0,1.41,1.17,2.46,2.74,2.47C74.44,58.07,75.63,57.01,75.63,55.59z
	 M66.24,57.98c0-1.61,0-3.18,0-4.76c-0.15,0-0.27,0-0.44,0c0,0.74,0,1.46,0,2.17c-1.16,0-2.28,0-3.44,0c0-0.74,0-1.46,0-2.17
	c-0.16,0-0.28,0-0.41,0c0,1.59,0,3.16,0,4.75c0.15,0,0.27,0,0.43,0c0-0.74,0-1.46,0-2.2c1.16,0,2.29,0,3.46,0c0,0.75,0,1.48,0,2.21
	C65.98,57.98,66.09,57.98,66.24,57.98z M89.25,57.64c0-0.65,0-1.26,0-1.9c1.04,0,2.06,0,3.1,0c-0.01-0.12-0.01-0.22-0.02-0.35
	c-1.03,0-2.05,0-3.07,0c0-0.63,0-1.23,0-1.85c1.16,0,2.29,0,3.43,0c0-0.12,0-0.21,0-0.32c-1.29,0-2.57,0-3.86,0
	c0,1.59,0,3.16,0,4.76c1.3,0,2.59,0,3.89,0c0-0.11,0-0.21,0-0.33C91.55,57.64,90.42,57.64,89.25,57.64z M117.88,33.55
	c-0.09,0.26-0.17,0.52-0.28,0.85c-0.11-0.34-0.2-0.6-0.28-0.85c-0.18,0-0.34,0-0.53,0c0,0.43-0.01,0.84,0.01,1.25
	c0,0.06,0.17,0.11,0.33,0.2c0-0.36,0-0.61,0-0.86c0.13,0.21,0.18,0.43,0.27,0.64c0.03,0.07,0.14,0.16,0.19,0.15
	c0.08-0.01,0.19-0.09,0.22-0.16c0.09-0.2,0.14-0.41,0.2-0.61c0.06,0.19,0.07,0.38,0.06,0.56c-0.01,0.24,0.11,0.27,0.32,0.19
	c0-0.46,0-0.9,0-1.36C118.21,33.55,118.05,33.55,117.88,33.55z M115.8,33.82c0,0.38,0,0.74,0,1.11c0.13,0,0.22,0,0.35,0
	c0-0.38,0-0.74,0-1.1c0.46-0.05,0.46-0.05,0.42-0.29c-0.35,0-0.7,0-1.05,0c-0.25,0-0.22,0.11-0.16,0.25
	C115.5,33.79,115.64,33.8,115.8,33.82z"/>
<path d="M88.99,40.26c0.06,0.66,0.12,1.32,0.16,1.98c0.06,0.79-0.49,1.41-1.35,1.55c-0.64,0.11-1.15-0.12-1.33-0.67
	c-0.44-1.35-0.23-2.63,0.64-3.81c0.24-0.32,0.59-0.5,1.04-0.42c0.47,0.09,0.74,0.38,0.83,0.78c0.04,0.19,0.04,0.39,0.06,0.59
	C89.03,40.26,89.01,40.26,88.99,40.26z"/>
<path d="M112.3,38.84c-0.1,0.47-0.22,1.04-0.34,1.62c-0.04,0.18-0.06,0.35-0.1,0.53c-0.14,0.57-0.78,1.12-1.44,1.22
	c-0.34,0.05-0.63-0.06-0.78-0.35c-0.71-1.32-0.45-2.77,0.66-3.87c0.33-0.33,0.76-0.47,1.26-0.29
	C112.03,37.85,112.3,38.24,112.3,38.84z"/>
<path d="M79.06,39.34c0.09,0.66,0.13,1.23,0.24,1.78c0.12,0.59,0.44,1.1,0.94,1.52c0.19,0.16,0.24,0.33,0.16,0.54
	c-0.21,0.53-0.58,0.97-1.15,1.24c-0.67,0.32-1.45-0.01-1.69-0.73c-0.43-1.24-0.26-2.42,0.6-3.48C78.39,39.9,78.72,39.65,79.06,39.34
	z"/>
<path d="M54.97,40.86c0.06,0.55,0.1,1.08,0.2,1.61c0.11,0.61,0.44,1.14,0.97,1.57c0.19,0.16,0.23,0.32,0.14,0.53
	c-0.2,0.45-0.52,0.84-0.96,1.13c-0.52,0.35-1.22,0.28-1.59-0.2c-0.2-0.26-0.36-0.58-0.42-0.89c-0.21-1.09,0.03-2.11,0.72-3.04
	C54.26,41.25,54.56,41,54.97,40.86z"/>
<path d="M93.63,31.44c0,0.65,0.06,1.25-0.01,1.85c-0.27,2.23-1.16,4.31-2.17,6.36c-0.01,0.02-0.03,0.02-0.05,0.03
	C91.02,37.99,92.41,32.22,93.63,31.44z"/>
<path d="M57.61,28.19c1.42-0.41,2.88-0.59,4.38-0.57c2.49,0.04,4.83,0.64,7.12,1.46c2.72,0.97,5.54,1.54,8.49,1.48
	c0.24,0,0.48-0.01,0.71-0.03c0.23-0.01,0.45-0.03,0.7,0c-0.1,0.03-0.2,0.06-0.31,0.09c-3.66,0.98-7.25,0.71-10.78-0.47
	c-1.37-0.46-2.73-0.94-4.12-1.33C61.8,28.27,59.73,28.06,57.61,28.19z"/>
<path d="M75.18,55.64c0,1.2-0.98,2.11-2.29,2.1c-1.3,0-2.31-0.93-2.32-2.13c0-1.2,1.01-2.12,2.32-2.12
	C74.2,53.5,75.18,54.42,75.18,55.64z"/>
</svg>
