<?xml version="1.0" encoding="utf-8"?>
<!-- Generator: Adobe Illustrator 23.0.1, SVG Export Plug-In . SVG Version: 6.00 Build 0)  -->
<svg version="1.1" id="Layer_1" xmlns="http://www.w3.org/2000/svg" xmlns:xlink="http://www.w3.org/1999/xlink" x="0px" y="0px"
	 viewBox="0 0 160 45" style="enable-background:new 0 0 160 45;" xml:space="preserve">
<style type="text/css">
	.st0{fill:#C6DF81;}
	.st1{fill:#A5CD39;}
	.st2{fill:#FEFEFE;}
</style>
<path d="M36.5,22.15c0.6-1.34,0.97-2.79,2.08-3.87c2.33-2.26,5.79-2.53,8.45-0.65c0.26,0.18,0.43,0.54,0.95,0.43
	c0-2.23,0.04-4.48-0.02-6.73c-0.02-0.94,0.15-1.36,1.24-1.34c3.23,0.03,3.24-0.02,3.23,3.23c-0.01,5.99-0.06,11.98-0.01,17.96
	c0.01,1.16-0.24,1.73-1.48,1.53c-0.33-0.05-0.68-0.04-1.01,0c-1.18,0.15-2.01-0.07-1.55-1.93c-1.68,1.66-3.32,2.56-5.34,2.49
	c-2.91-0.11-5.32-2.12-6.23-5.15c-0.08-0.26,0.02-0.59-0.32-0.75C36.5,25.63,36.5,23.89,36.5,22.15z"/>
<path class="st0" d="M122.91,14.36c0.2-0.01,0.4-0.03,0.59-0.04c0,0.39,0,0.77,0,1.16c-0.08,0.04-0.16,0.06-0.25,0.05
	C122.85,15.23,122.76,14.83,122.91,14.36z"/>
<path class="st1" d="M122.91,14.36c0.3,0.33,0.3,0.75,0.35,1.16c-0.65,4.57-1.3,9.14-1.95,13.71c-0.1,0.71-0.32,1.43-0.3,2.14
	c0.03,1.26-0.71,1.2-1.65,1.34c-3.25,0.5-5.23-0.5-6.21-3.88c-0.78-2.69-2.25-5.19-3.69-7.76c-0.35,2.15-0.7,4.3-1.03,6.45
	c-0.22,1.42-0.42,2.85-0.62,4.28c-0.09,0.63-0.42,0.85-1.07,0.89c-3.28,0.22-3.36,0.23-2.93-3.02c0.73-5.53,1.57-11.05,2.35-16.57
	c0.11-0.8,0.43-0.91,1.32-0.92c2.68-0.04,3.9,1.25,4.78,3.68c1.43,3.97,3.25,7.79,5.15,11.65c0.49-3.39,0.98-6.78,1.47-10.17
	c0.06-0.43,0.13-0.86,0.21-1.28c0.4-2.2,0.4-2.2,2.68-1.8C122.13,14.32,122.52,14.33,122.91,14.36z"/>
<path d="M85.38,18.8c5.13-4.94,10.91-1.09,11.52,3.81c0.36,2.92,0.26,5.68-1.41,8.16c-2.06,3.07-6.54,3.88-9.73,0.61
	c0,2.22-0.08,4.21,0.03,6.18c0.06,1.18-0.34,1.44-1.45,1.42c-2.99-0.07-2.99-0.01-2.99-3.01c0-5.93,0.02-11.87-0.02-17.8
	c-0.01-1.03,0.18-1.56,1.32-1.37c0.38,0.06,0.78,0.05,1.16,0C85.09,16.63,85.9,16.93,85.38,18.8z"/>
<path d="M63.47,24.88c0-4.97,3.26-8.07,8.2-8.29c3.98-0.18,8.54,2.8,8.45,8.38c-0.07,4.83-3.67,8.5-8.35,8.44
	C66.68,33.35,63.47,30.05,63.47,24.88z"/>
<path class="st1" d="M98.98,32.68c-2.4,0-2.45-0.01-2.13-2.36c0.84-6.14,1.73-12.27,2.57-18.41c0.09-0.64,0.34-0.84,0.92-0.76
	c0.1,0.01,0.19,0.01,0.29,0.02c1.14,0.2,2.61,0.04,3.32,0.7c0.76,0.71-0.02,2.12-0.18,3.22c-0.77,5.47-1.6,10.93-2.35,16.4
	C101.17,33.31,99.8,32.47,98.98,32.68z"/>
<path d="M58.43,18.39c1.48-2.02,3.33-2.46,5.53-1.71c0.71,0.24,1.26,0.56,0.7,1.44c-0.15,0.24-0.22,0.53-0.3,0.81
	c-0.34,1.23-0.51,2.38-2.41,1.55c-1.31-0.58-2.45,0.32-2.83,1.91c-0.57,2.4-0.48,4.87-0.48,7.32c0,3.01,0,2.95-2.97,3.03
	c-1.14,0.03-1.55-0.17-1.52-1.44c0.09-4.48,0.06-8.97,0.02-13.45c-0.01-0.9,0.16-1.35,1.16-1.2c0.47,0.07,0.97,0.07,1.44,0
	C58.08,16.45,58.7,16.89,58.43,18.39z"/>
<path class="st2" d="M48,24.9c-0.11,0.93-0.09,1.92-0.52,2.8c-0.65,1.3-1.63,2.13-3.19,2.04c-1.47-0.09-2.42-0.89-2.87-2.24
	c-0.56-1.68-0.6-3.41-0.14-5.11c0.46-1.7,1.78-2.64,3.37-2.57c1.53,0.07,2.79,1.21,3.12,2.91C47.91,23.43,47.93,24.16,48,24.9z"/>
<path class="st2" d="M92.47,24.98c-0.03,0.81,0.08,1.62-0.21,2.42c-0.57,1.63-1.65,2.59-3.05,2.58c-1.4-0.01-2.61-0.98-3.14-2.54
	c-0.52-1.55-0.48-3.15-0.16-4.7c0.39-1.87,1.72-2.78,3.54-2.67c1.55,0.09,2.79,1.44,3.01,3.32C92.53,23.92,92.47,24.45,92.47,24.98z
	"/>
<path class="st2" d="M75.65,24.79c0,2.86-1.47,4.81-3.58,4.92c-2.44,0.13-4.08-1.68-4.12-4.63c-0.01-0.67,0.06-1.35,0.22-2
	c0.43-1.75,1.95-2.96,3.61-2.96c1.72,0,3.16,1.24,3.61,3.12C75.51,23.8,75.75,24.35,75.65,24.79z"/>
</svg>
