<?xml version="1.0" encoding="utf-8"?>
<!-- Generator: Adobe Illustrator 23.0.1, SVG Export Plug-In . SVG Version: 6.00 Build 0)  -->
<svg version="1.1" id="Layer_1" xmlns="http://www.w3.org/2000/svg" xmlns:xlink="http://www.w3.org/1999/xlink" x="0px" y="0px"
	 viewBox="0 0 160 45" style="enable-background:new 0 0 160 45;" xml:space="preserve">
<style type="text/css">
	.st0{fill:#EA0029;}
	.st1{fill:#B3B2B1;}
	.st2{fill:#F2F2F2;}
	.st3{fill:#F8F8F8;}
	.st4{fill:#F4F4F4;}
	.st5{fill:#FEFEFE;}
	.st6{fill:#F6F6F5;}
	.st7{fill:#FDFDFD;}
	.st8{fill:#FAFAFA;}
	.st9{fill:#F1F1F1;}
</style>
<path class="st0" d="M27.31,41.79c-6.55,0-13.11-0.05-19.66,0.04c-1.68,0.02-2.03-0.35-1.7-2.05c2.28-11.63,4.47-23.28,6.64-34.94
	c0.24-1.3,0.81-1.69,2.16-1.68c13.34,0.06,26.68,0.06,40.02,0c1.63-0.01,1.94,0.47,1.65,1.98C54.2,16.54,52,27.96,49.89,39.38
	c-0.34,1.83-0.93,2.51-2.92,2.46C40.42,41.69,33.87,41.79,27.31,41.79z"/>
<path class="st1" d="M111.94,29.61c-4.16,3.58-4.16,3.58-6.16-0.32c-0.25,0.91-0.53,1.65-0.66,2.41c-0.27,1.59-1.48,1.03-2.36,1.03
	c-1.23-0.01-0.96-0.99-0.83-1.7c0.23-1.28,0.44-2.58,0.87-3.8c0.36-1.01-0.23-2.67,1.67-2.78c1.74-0.1,3.36-0.19,3.84,2.15
	c0.33,1.59,1.05,1.87,2.11,0.28c0.97-1.45,2.08-2.76,4.27-2.54c1.43,0.15,1.71,0.7,1.46,1.88c-0.36,1.72-0.82,3.43-1.11,5.16
	c-0.29,1.73-1.56,1.48-2.63,1.33c-1.54-0.21-0.46-1.26-0.48-1.96C111.94,30.46,111.94,30.16,111.94,29.61z"/>
<path class="st1" d="M100.35,13.26c0.38,0,0.78-0.05,1.15,0.01c1.16,0.17,2.74-0.62,3.37,0.74c0.69,1.47,0.2,3.04-0.99,4.2
	c-0.47,0.45-0.52,0.76-0.39,1.37c0.14,0.62,1.21,1.56,0.03,1.89c-1.05,0.29-2.52,0.67-3.16-0.97c-0.11-0.29-0.26-0.56-0.39-0.84
	c-0.25-0.54-0.64-0.85-1.27-0.79c-0.65,0.07-0.91,0.51-0.99,1.09c-0.1,0.69-0.15,1.36-1,1.63c-1.77,0.56-2.55-0.03-2.26-1.87
	c0.25-1.59,0.66-3.15,0.93-4.74c0.21-1.29,0.84-1.88,2.19-1.75C98.49,13.33,99.42,13.26,100.35,13.26z"/>
<path class="st1" d="M87.26,24.44c0.69,0,1.38-0.02,2.07,0c1.04,0.04,2.43-0.36,2.86,0.88c0.45,1.3,0.13,2.72-0.84,3.83
	c-0.44,0.5-1.09,0.8-0.69,1.71c0.25,0.56,1.19,1.5-0.12,1.81c-0.95,0.23-2.18,0.54-2.91-0.67c-0.12-0.2-0.17-0.43-0.29-0.63
	c-0.34-0.54-0.31-1.4-1.29-1.4c-1.02,0.01-0.9,0.88-1.16,1.45c-0.24,0.52-0.18,1.15-1.01,1.34c-1.87,0.42-2.61-0.23-2.22-2.11
	c0.16-0.75,0.38-1.48,0.55-2.23C83.14,24.45,83.14,24.44,87.26,24.44z"/>
<path class="st1" d="M89.56,13.31c1.27,0,2.11-0.02,2.96,0.01c0.86,0.02,1.47,0.49,1.78,1.26c1.12,2.78-1.74,7-4.75,7.06
	c-0.15,0-0.31,0-0.46,0c-5.65,0.04-6.05-0.53-4.43-5.95C85.54,12.78,87.9,13.39,89.56,13.31z"/>
<path class="st1" d="M64.75,32.77c-0.77,0-1.54,0.05-2.31-0.01c-1.72-0.13-2.54-0.97-2.04-2.76c0.41-1.46,0.3-3.11,1.33-4.35
	c1.13-1.36,6.89-1.8,8.32-0.67c0.29,0.23,0.56,0.55,0.68,0.89c1.05,3.01-1.67,6.88-4.83,6.91C65.51,32.78,65.13,32.78,64.75,32.77
	C64.75,32.78,64.75,32.78,64.75,32.77z"/>
<path class="st1" d="M124.12,16.46c1.11,0.25,2.34,0.28,2.36,1.94c0.02,1.66-0.76,2.56-2.3,2.97c-1.6,0.43-3.21,0.15-4.82,0.22
	c-1.18,0.05-2.11-0.38-2.56-1.55c-0.18-0.46-0.15-1,0.27-1.25c0.98-0.59,2.17-0.67,3.04-0.04c1,0.72,1.81,0.85,3.46-0.04
	c-1.75-0.34-2.89-0.56-4.03-0.8c-0.9-0.19-1.89-0.31-2-1.52c-0.09-1.08,0.25-2.05,1.25-2.53c2.34-1.1,4.82-0.7,7.22-0.35
	c0.98,0.15,0.89,1.29,0.83,2.15c-1.27,0.35-2.57,0.05-3.66,0.24C123.4,15.99,123.8,16.16,124.12,16.46z"/>
<path class="st1" d="M65.23,18c-1.21-0.19-2.4-0.52-2.22-2.06c0.19-1.57,1.34-2.43,2.81-2.59c1.44-0.16,2.91,0,4.37-0.06
	c1.28-0.05,2.29,0.5,2.29,1.71c0,1.57-1.45,0.9-2.32,1.03c-0.37,0.06-0.76-0.05-1.14-0.08c-0.21-0.03-0.42-0.09-0.62-0.16
	c0.02,0.38,0.41,0.43,0.6,0.66c1.34,0.31,3.15,0.03,3.17,2.15c0.02,1.68-1.59,2.93-3.7,3.02c-1.14,0.05-2.29-0.01-3.44,0.01
	c-1.95,0.03-2.84-0.87-2.54-2.84c0.73-0.32,1.5-0.05,2.24-0.18c0.79-0.13,1.47,0.22,2.31,0.43C66.43,18.54,65.69,18.51,65.23,18z"/>
<path class="st1" d="M146.81,17.5c0,0.77,0.02,1.54-0.01,2.3c-0.03,0.64,0.3,1.56-0.69,1.69c-0.84,0.11-1.88,0.55-2.5-0.47
	c-0.79-1.28-1.67-1.16-2.48-0.14c-0.52,0.64-1.12,0.67-1.82,0.73c-1.6,0.14-1.88-0.36-1.12-1.78c0.9-1.69,1.67-3.46,2.41-5.22
	c0.42-0.99,1.05-1.33,2.11-1.37C146.7,13.09,146.69,13.05,146.81,17.5z"/>
<path class="st1" d="M115.74,32.75c1.24-2.69,2.19-5.02,3.37-7.24c1.16-2.18,3.31-0.96,4.97-0.99c1.47-0.02,0.81,1.53,0.89,2.4
	c0.12,1.29,0.09,2.6,0.07,3.91c-0.01,0.7,0.38,1.72-0.76,1.84c-0.82,0.08-1.9,0.57-2.45-0.56c-0.52-1.08-1.71-1.03-2.03-0.48
	C118.83,33.27,117.46,32.6,115.74,32.75z"/>
<path class="st1" d="M76.64,24.45c0.69,0,1.39-0.01,2.08,0c1.37,0.02,2.91-0.27,2.83,1.96c-0.09,2.29-1,3.46-3.02,3.55
	c-0.85,0.04-1.7,0.06-2.54,0c-1.02-0.08-1.74,0.32-1.8,1.31c-0.1,1.6-1.12,1.51-2.25,1.54c-1.01,0.02-1.38-0.25-1.14-1.32
	c0.42-1.87,0.72-3.77,1.08-5.65c0.19-0.95,0.7-1.47,1.76-1.4C74.63,24.5,75.63,24.45,76.64,24.45z"/>
<path class="st1" d="M96.99,26.69c1.27,0.82,2.22,0.51,3.12,0.58c0.65,0.05,1.28,0.08,1.23,0.97c-0.04,0.71-0.4,1.16-1.14,1.2
	c-0.92,0.04-1.85,0.03-2.77,0.05c-0.48,0.01-1,0.09-1.01,0.68c-0.02,0.63,0.52,0.66,0.99,0.67c0.77,0.02,1.54,0.01,2.31,0.02
	c0.66,0.01,1.25,0.11,1.19,1c-0.05,0.69-0.48,0.9-1.09,0.9c-2.08,0-4.16,0.01-6.24,0c-0.85,0-1-0.48-0.84-1.23
	c0.44-2.02,0.88-4.05,1.26-6.09c0.14-0.79,0.58-1,1.28-1c1.93,0.01,3.85,0,5.78,0.01c0.65,0,1.3,0.05,1.22,0.96
	c-0.07,0.88-0.75,0.81-1.37,0.85C99.73,26.35,98.51,26.04,96.99,26.69z"/>
<path class="st1" d="M78.94,13.3c0.61,0,1.23-0.05,1.84,0.01c1.12,0.11,2.65-0.55,2.97,1.29c0.33,1.92-0.96,3.84-2.78,4.15
	c-0.75,0.13-1.54,0.13-2.29,0.05c-1.39-0.14-2.37,0.14-2.62,1.74c-0.26,1.67-1.64,1.11-2.57,1.02c-1.37-0.14-0.53-1.11-0.44-1.76
	c0.09-0.68,0.22-1.36,0.37-2.03C74.44,13.3,74.45,13.3,78.94,13.3z"/>
<path class="st1" d="M131.67,16.15c3.23-2.95,3.23-2.95,5.47-2.76c0.24,0.56-0.22,0.9-0.51,1.16c-1.83,1.65-2.43,3.42-0.8,5.56
	c0.32,0.42,0.57,1.19-0.15,1.33c-0.97,0.19-2.17,0.67-2.9-0.56c-0.5-0.84-0.92-1.73-1.39-2.64c-1.08,1.07,0.08,3.43-2.42,3.38
	c-1.3-0.03-1.89-0.37-1.58-1.75c0.35-1.57,0.72-3.15,0.94-4.74c0.24-1.72,1.26-2.18,2.74-1.84c1.75,0.4,0.46,1.57,0.52,2.41
	C131.59,15.85,131.64,16,131.67,16.15z"/>
<path class="st1" d="M110.48,21.57c-1.37,0.2-1.91-0.36-1.58-1.69c0.2-0.82,0.39-1.64,0.61-2.45c0.37-1.34,0.51-2.5-1.49-2.34
	c-0.58,0.05-1.07-0.15-1.07-0.88c0-0.87,0.61-0.95,1.26-0.95c2.53-0.01,5.06-0.01,7.59,0c0.44,0,1.03-0.07,1.08,0.54
	c0.05,0.54-0.21,1.29-0.78,1.21c-3.66-0.52-3.1,2.36-3.7,4.38C112.11,20.38,112.31,21.95,110.48,21.57z"/>
<path class="st2" d="M65.23,18c0.59,0.1,1.2,0.14,1.77,0.31c0.51,0.15,1.55-0.15,1.33,0.74c-0.22,0.89-1.33,0.92-1.91,0.48
	c-1.24-0.94-2.59-0.66-3.92-0.73C63.23,17.91,64.49,18.84,65.23,18z"/>
<path class="st3" d="M124.12,16.46c-1.03-0.17-2.05-0.34-3.08-0.51c1.97-1.47,3.9,0.34,5.82-0.27
	C126.12,16.54,124.87,15.63,124.12,16.46z"/>
<path class="st4" d="M69,16.45c-0.85,0.04-1.56-0.29-2.2-0.93c0.8-0.2,1.69-1.09,2.22,0.43C69.01,16.12,69.01,16.28,69,16.45z"/>
<path class="st5" d="M14.45,36.32c-0.32-1.16,0.16-2.29,0.48-3.34c0.87-2.89,0.74-5.55-0.89-8.14c-0.67-1.06-0.83-1.8,0.92-2.06
	c3.65-0.55,7.26-1.34,10.88-2.11c1.24-0.26,1.78-0.03,1.39,1.3c-0.37,1.26,0.33,1.31,1.21,1.02c3.07-1.01,6.12-2.07,8.83-3.89
	c0.56-0.38,1.39-0.73,1.23-1.51c-0.19-0.91-1.19-0.92-1.9-0.95c-3.64-0.11-7.21,0.51-10.79,1.06c-2.28,0.35-4.57,0.72-6.81,1.27
	c-1.32,0.33-1.68,0.05-1.4-1.24c0.46-2.11,0.92-4.21,1.29-6.33c0.15-0.83,0.49-1.19,1.32-1.25c7.75-0.58,15.51-1.56,23.24,0.27
	c0.3,0.07,0.61,0.1,0.91,0.18c5.12,1.48,6.22,4.92,2.72,8.95c-3.65,4.21-8.42,6.96-13.32,9.4c-5.78,2.88-11.76,5.33-17.96,7.22
	C15.37,36.29,14.97,36.58,14.45,36.32z"/>
<path class="st6" d="M100.22,16.6c-0.55-0.13-1.47,0.25-1.48-0.62c-0.02-1.23,1.08-0.73,1.74-0.79c0.57-0.05,1.5-0.16,1.5,0.59
	C101.97,16.92,100.87,16.44,100.22,16.6z"/>
<path class="st2" d="M87.66,26.66c0.54,0.17,1.54-0.28,1.48,0.59c-0.07,1.01-1.14,0.8-1.88,0.8c-0.56,0-1.52,0.23-1.46-0.63
	C85.88,26.27,87,26.84,87.66,26.66z"/>
<path class="st7" d="M87.56,17.69c0.57-0.75-0.23-2.63,1.9-2.59c1.24,0.02,1.51,0.7,1.22,1.61c-0.35,1.09,0.08,2.83-2.01,2.7
	C87.59,19.35,87.4,18.78,87.56,17.69z"/>
<path class="st8" d="M67.06,28.31c-0.22,0.78,0.14,2.45-1.91,2.59c-1.05,0.07-1.53-0.5-1.22-1.38c0.43-1.2-0.22-3.2,2.09-3.22
	C67.13,26.29,67.27,26.95,67.06,28.31z"/>
<path class="st9" d="M76.89,26.66c0.55,0.16,1.52-0.29,1.54,0.52c0.02,1.09-1.06,0.88-1.77,0.86c-0.6-0.02-1.65,0.32-1.51-0.78
	C75.28,26.32,76.29,26.82,76.89,26.66z"/>
<path class="st2" d="M78.7,16.61c-0.54-0.21-1.64,0.37-1.55-0.67c0.08-0.95,1.16-0.74,1.88-0.72c0.62,0.01,1.67-0.22,1.58,0.7
	C80.52,16.92,79.41,16.47,78.7,16.61z"/>
</svg>
