<?xml version="1.0" encoding="utf-8"?>
<!-- Generator: Adobe Illustrator 23.0.1, SVG Export Plug-In . SVG Version: 6.00 Build 0)  -->
<svg version="1.1" id="Layer_1" xmlns="http://www.w3.org/2000/svg" xmlns:xlink="http://www.w3.org/1999/xlink" x="0px" y="0px"
	 viewBox="0 0 299.11 96.44" style="enable-background:new 0 0 299.11 96.44;" xml:space="preserve">
<style type="text/css">
	.st0{fill:#F19100;}
	.st1{fill:#6B1D60;}
	.st2{fill:#007F76;}
	.st3{fill:#387BC2;}
	.st4{fill:#FEFEFE;}
	.st5{fill:#6B1C60;}
	.st6{fill:#FDFDFD;}
	.st7{fill:#F3A64C;}
	.st8{fill:#8A5882;}
	.st9{fill:#4C9890;}
	.st10{fill:#6594CD;}
	.st11{fill:#E0D5DE;}
	.st12{fill:#6E2264;}
	.st13{fill:#6A1C60;}
	.st14{fill:#5D0050;}
	.st15{fill:#5E0051;}
	.st16{fill:#620156;}
	.st17{fill:#66015B;}
	.st18{fill:#67015B;}
	.st19{fill:#640F58;}
	.st20{fill:#650F59;}
	.st21{fill:#68165C;}
	.st22{fill:#620B56;}
	.st23{fill:#640B58;}
	.st24{fill:#650C59;}
	.st25{fill:#66115B;}
	.st26{fill:#641058;}
	.st27{fill:#FEFDFC;}
	.st28{fill:#FCEAD9;}
	.st29{fill:#FCF1E4;}
	.st30{fill:#FDFCFD;}
	.st31{fill:#FDFCFC;}
	.st32{fill:#FCFBFB;}
	.st33{fill:#FDFDFE;}
	.st34{fill:#F18F06;}
	.st35{fill:#F18F05;}
	.st36{fill:#18877D;}
	.st37{fill:#007B70;}
	.st38{fill:#83A8D6;}
	.st39{fill:#91B0D9;}
</style>
<g>
	<path class="st0" d="M123.08,7.79c4.06,2.17,5.39,6.74,5.19,13.04c-0.19,5.93-0.03,11.89-0.04,17.84
		c-0.01,6.73-2.67,10.81-7.03,10.83c-4.37,0.01-8.73,0.01-13.1,0c-4.36-0.01-7.05-4.12-7.06-10.79c-0.01-6.86-0.02-13.71,0-20.57
		c0.02-5.21,2.04-9.05,5.14-9.89c3.92-0.46,7.84-0.05,11.76-0.22c1.6-0.07,3.21,0.31,4.81-0.24C122.87,7.79,122.97,7.79,123.08,7.79
		z"/>
	<path class="st1" d="M186.23,40.05c-0.35,5.56-2.45,8.79-6.12,9.37c-4.3-0.39-8.59-0.04-12.89-0.21c-0.47-0.02-1.24,0.72-1.38-0.81
		c1.78-2.94,2.49-6.37,2.42-10.39c-0.11-6.45-0.08-12.9-0.01-19.35c0.04-3.96-0.76-7.28-2.67-9.95c0.22-1.27,0.89-0.62,1.33-0.63
		c4.1-0.06,8.19-0.02,12.29-0.04c0.53,0,1.08,0.22,1.58-0.24c0.11,0,0.22,0,0.32,0c2.88,1.66,4.97,4.33,5.13,9.46
		C186.04,24.85,186.04,32.45,186.23,40.05z"/>
	<path class="st2" d="M142.2,7.79c4.39,2.71,5.32,4.89,5.32,12.51c0,6.28,0.02,12.56,0,18.84c-0.02,6.31-2.65,10.33-6.78,10.36
		c-4.72,0.03-9.44,0.01-14.55,0.01c2.91-3.49,3.5-7.79,3.4-12.62c-0.12-6.03-0.08-12.06-0.01-18.09c0.05-3.95-0.75-7.27-2.61-9.99
		c0.15-1.35,0.85-0.71,1.28-0.72c4.02-0.05,8.04-0.02,12.06-0.04c0.52,0,1.07,0.22,1.57-0.24C141.99,7.79,142.09,7.79,142.2,7.79z"
		/>
	<path class="st3" d="M161.97,7.79c0.27,0.73,0.82,0.66,1.23,0.99c2.3,1.82,3.64,4.61,3.66,8.63c0.03,7.44,0.03,14.87,0,22.31
		c-0.02,5.31-2.59,9.6-6.03,9.73c-4.95,0.18-9.9,0.05-15.34,0.05c3.59-4.1,3.53-9.53,3.46-15.03c-0.07-4.96-0.08-9.92,0.01-14.87
		c0.08-4.48-0.76-8.27-2.97-11.29c1.09-0.56,2.22-0.2,3.33-0.25c4-0.19,8,0.3,12-0.27C161.54,7.79,161.76,7.79,161.97,7.79z"/>
	<path class="st4" d="M142.2,86.74c0.1-1.33,0.78-0.9,1.29-0.99c2.11-0.63,2.05-0.64,2.14-3.91c0.08-3.01-0.39-6.08,0.35-9.03
		c0.57-0.73,1.22-0.66,1.89-0.42c2.26,1.27,3.22,3.85,3.22,7.44c0,3.14,0.65,5.65,2.89,6.45c0.07,0.16,0.14,0.31,0.21,0.47
		C150.2,86.74,146.2,86.74,142.2,86.74z"/>
	<path class="st5" d="M174.29,86.74c-4.92-4.43-6.38-14.07-3.23-21.54c0.86-2.03,1.96-3.66,3.92-3.99
		c-3.04,5.71-2.74,12.02-2.22,18.32c0.22,2.68,1,5.08,2.84,6.17c0.32,0.19,0.5,0.59,0.63,1.04
		C175.58,86.74,174.94,86.74,174.29,86.74z"/>
	<path class="st6" d="M93.29,85.76c-0.33,0.16-0.67,0.32-1,0.48c0-8.28,0-16.55,0-24.83c0.33,0.01,0.67,0.01,1,0.02
		c0.66,0.58,0.74,1.56,0.74,2.58c0.02,6.53,0.03,13.06-0.02,19.59C94.01,84.43,94.13,85.52,93.29,85.76z"/>
	<path class="st7" d="M122.76,7.79c-0.29,0.71-0.77,0.49-1.17,0.49c-5.13,0-10.26-0.02-15.39-0.03c0.04-0.15,0.05-0.3,0.03-0.46
		C111.74,7.79,117.25,7.79,122.76,7.79z"/>
	<path class="st8" d="M180.77,7.79c-0.46,0.88-1.1,0.47-1.65,0.47c-4.01,0.04-8.03,0.01-12.04,0.03c-0.51,0-1.08-0.33-1.51,0.41
		c-0.23-0.31-0.45-0.61-0.68-0.92C170.18,7.79,175.48,7.79,180.77,7.79z"/>
	<path class="st9" d="M141.88,7.79c-0.46,0.88-1.1,0.47-1.65,0.48c-3.87,0.04-7.73,0-11.6,0.04c-0.56,0-1.2-0.37-1.66,0.49
		c-0.32-0.18-0.56-0.48-0.65-1C131.51,7.79,136.69,7.79,141.88,7.79z"/>
	<path class="st10" d="M161.32,7.79c-0.47,0.83-1.1,0.48-1.66,0.48c-4.56,0.04-9.11,0.03-13.67,0.04c-0.18-0.06-0.28-0.22-0.22-0.52
		C150.95,7.79,156.14,7.79,161.32,7.79z"/>
	<path class="st11" d="M181.42,86.74c0.98-1.22,3.5-1.22,4.21,0C184.23,86.74,182.82,86.74,181.42,86.74z"/>
	<path class="st1" d="M136.1,86.22c-0.02,0.17-0.04,0.35-0.06,0.52c-1.08,0-2.16,0-3.24,0c0.05-0.1,0.06-0.22,0.05-0.34
		C133.91,85.3,134.99,84.89,136.1,86.22z"/>
	<path class="st4" d="M136.1,86.22c-1.08,0.06-2.16,0.12-3.25,0.18c-0.12-0.22-0.25-0.43-0.37-0.65c-1.94-1.88-2.2-5.01-2.33-8.04
		c-0.24-5.45-0.26-10.92,1.68-15.87c-0.02-0.93-0.03-1.76,0.78-2.06c1.33-0.49,2.62-0.49,3.95,0c0.8,0.29,0.8,1.12,0.78,2.05
		c-0.32,1.25,0.47,1.89,0.67,2.87c1.2,5.99,1.18,11.99,0.15,18.01c-0.25,1.47-0.92,2.38-1.78,3.01
		C136.29,85.88,136.19,86.05,136.1,86.22z"/>
	<path class="st12" d="M146.13,72.84c-0.03,3.55-0.06,7.09-0.08,10.64c-0.01,3.23-0.49,3.66-2.56,2.27
		c0.24-8.11,0.19-16.21,0.02-24.32c0.34-0.38,0.72-0.24,1.09-0.25c1.73-0.04,2.01,0.23,1.96,2.92
		C146.52,67.01,147.07,70.02,146.13,72.84z"/>
	<path class="st5" d="M186.94,67.34c0.32-1.82,0.65-3.65,0.97-5.47c0.07-0.42,0.16-0.88,0.47-0.88c0.3,0,0.41,0.45,0.49,0.86
		c1.69,8.08,3.38,16.15,5.08,24.25c-2.71,0.42-2.7,0.42-3.48-3.32c-0.31-1.49-0.66-2.96-0.99-4.44c-0.2-0.39-0.45-0.71-0.57-1.18
		C188.13,73.94,187.52,70.65,186.94,67.34z"/>
	<path class="st13" d="M153.98,86.27c-2.12,0.19-2.8-0.63-3.11-3.81c-0.07-0.73-0.24-1.47-0.2-2.19c0.17-3.35-0.81-5.71-2.6-7.42
		c0.92-1.19,2.11-2.01,2.35-4.13c0.25-2.16,0.09-4.09-1.1-5.57c-0.36-0.45-0.81-0.79-1.02-1.69c0.92-0.45,1.78-0.39,2.65-0.08
		c1.75,1.18,2.71,3.18,2.58,6.16c-0.14,3.37-1.66,4.74-4.02,5.61c3.76,1.67,3.72,5.95,3.75,10.19
		C153.26,84.46,153.5,85.43,153.98,86.27z"/>
	<path class="st13" d="M136.38,85.71c2.01-2.87,2.03-6.74,2.07-10.46c0.05-4.8,0.15-9.74-2.27-13.63c0.42-0.59,0.77,0.22,1.17,0.22
		c5.23,5.34,5.44,16.53,1.29,22.33C138.01,85.03,137.38,86.06,136.38,85.71z"/>
	<path class="st1" d="M123.42,86.17c-0.21-0.03-0.56,0.35-0.49-0.43c0.35-3.95,0.13-7.92,0.12-11.87c-0.1-0.13-0.13-0.25-0.1-0.38
		c0.03-0.13,0.06-0.19,0.1-0.19c0.02-3.41,0.02-6.81,0.07-10.22c0.01-0.53-0.3-1.3,0.31-1.6c0.3,0.25,0.63,0.24,0.95,0.18
		c0.97-0.19,1.16,0.54,1.15,1.87c-0.03,6.86-0.09,13.73,0.02,20.59C125.58,87.06,124.13,85.51,123.42,86.17z"/>
	<path class="st1" d="M159.37,61.48c0.11-0.01,0.22-0.02,0.33-0.03c0.08,0.09,0.12,0.19,0.11,0.3c-0.01,0.12-0.03,0.18-0.06,0.18
		c0,7.93-0.01,15.86-0.01,23.79c0.1,0.14,0.12,0.26,0.07,0.36c-0.05,0.08-0.09,0.12-0.14,0.12l-0.15,0.04l-0.15-0.07
		c-0.36-0.26-0.74-0.21-1.11-0.17c-0.86,0.1-1.13-0.59-1.14-1.78c-0.01-6.93-0.01-13.85,0-20.78c0-1.2,0.28-1.87,1.14-1.77
		C158.63,61.71,159.01,61.76,159.37,61.48z"/>
	<path class="st4" d="M150.95,61.38c-0.75,0-1.5,0-2.68,0c2.57,1.64,2.99,4.47,2.55,7.64c-0.29,2.12-1.15,3.73-2.76,3.83
		c-0.64,0-1.29-0.01-1.93-0.01c-0.03-2.64-0.07-5.28-0.08-7.92c-0.01-3.88,0-3.88-2.53-3.49c-0.31-0.02-0.62-0.05-0.92-0.07
		C145.38,61.23,148.17,60.34,150.95,61.38z"/>
	<path class="st5" d="M131.83,61.84c0.16-0.03,0.33-0.14,0.47-0.07c0.3,0.16,0.18,0.42,0.05,0.73c-2.65,5.96-2.05,12.47-1.34,18.99
		c0.18,1.65,0.94,2.87,1.48,4.26c-1.27-0.07-2.01-1.45-2.72-2.75C126.89,77.71,126.14,67.98,131.83,61.84z"/>
	<path class="st1" d="M113.32,85.72c0.03-0.83,0.06-1.66,0.09-2.48c0.26-6.51,0.08-13.03,0.09-19.55c0-1.67,0.35-2.15,1.39-2.05
		c0.73,0.07,0.9,0.54,0.9,1.53c-0.01,7.1-0.02,14.21,0.01,21.31c0,1.23-0.32,1.63-1.06,1.51C114.26,85.91,113.76,86.19,113.32,85.72
		z"/>
	<path class="st6" d="M186.94,67.34c1.35,2.98,1.53,6.6,2.35,9.87c0,0.17,0,0.45-0.04,0.47c-1.55,0.43-3.1,0.99-4.59-0.36
		c1.05-2.29,1.21-5.1,1.9-7.61C186.76,68.96,186.82,68.13,186.94,67.34z"/>
	<path class="st14" d="M93.29,85.76c0.47-0.34,0.28-1,0.28-1.52c0.01-6.91,0-13.81,0.02-20.72c0-0.75-0.06-1.44-0.3-2.09
		c0.96,0,1.92,0.01,2.88,0.01c0.08,0.09,0.12,0.19,0.11,0.3c-0.01,0.12-0.02,0.18-0.05,0.18c-0.01,7.93-0.01,15.85-0.02,23.78
		c0.09,0.15,0.11,0.27,0.06,0.36c-0.05,0.08-0.09,0.12-0.14,0.12C95.19,86.05,94.19,86.77,93.29,85.76z"/>
	<path class="st15" d="M113.32,85.72c2.3,0.06,2.31,0.06,2.31-3.36c0-6.12,0-12.24,0-18.36c0-1.15,0.02-2.16-1.06-2.1
		c-1.03,0.06-0.89,1.12-0.89,2.09c-0.01,5.54,0.01,11.08-0.01,16.63c0,0.88,0.2,1.83-0.26,2.62c-0.03-6.83-0.03-13.67-0.12-20.5
		c-0.02-1.72,0.66-1.4,1.24-1.31c0.56,0.08,1.47-0.75,1.45,1.24c-0.04,3.54,0.01,7.08,0.03,10.62c0.08,0.13,0.11,0.26,0.08,0.39
		c-0.03,0.13-0.05,0.19-0.08,0.19c-0.01,3.03-0.04,6.05-0.04,9.08c-0.01,3.46-0.57,4.09-2.78,3.07c-0.01,0,0-0.12,0.02-0.15
		C113.23,85.81,113.28,85.77,113.32,85.72z"/>
	<path class="st16" d="M159.37,61.48c-1.99,0.12-2,2.1-1.96,4.46c0.09,5.34,0.11,10.68-0.01,16.02c-0.05,2.39,0.11,4.11,1.96,4.21
		c-0.75,0.03-1.5,0.05-2.26,0.08c-0.35-4.18-0.13-8.37-0.13-12.55c0-4.1-0.21-8.21,0.13-12.3
		C157.86,61.42,158.61,61.45,159.37,61.48z"/>
	<path class="st16" d="M123.42,86.17c2.01-0.09,2-2.11,1.96-4.45c-0.08-5.26-0.09-10.52,0-15.77c0.04-2.36,0.03-4.34-1.96-4.46
		c0.48-0.03,0.97-0.02,1.45-0.09c0.63-0.1,0.82,0.27,0.82,1.25c-0.03,7.45,0.05,14.89-0.05,22.34
		C125.6,87.58,124.15,85.7,123.42,86.17z"/>
	<path class="st1" d="M157.11,61.39c0,8.28,0,16.57,0,24.85c-0.31,0-0.63,0-0.94,0c0.61-0.63,0.61-1.5,0.61-2.44
		c-0.01-6.66-0.04-13.31,0.02-19.96c0.01-1.2-0.42-1.81-0.92-2.48C156.39,60.79,156.76,60.82,157.11,61.39z"/>
	<path class="st17" d="M165.83,48.4c0.43,0.92,1.07,0.58,1.63,0.59c3.65,0.03,7.3,0,10.94,0.03c0.57,0,1.19-0.31,1.69,0.4
		c-4.71,0.03-9.42,0.06-14.12,0.06c-0.22,0-0.69,0.37-0.62-0.47C165.38,48.78,165.67,48.61,165.83,48.4z"/>
	<path class="st18" d="M186.23,40.05c-0.09-0.37-0.26-0.75-0.26-1.12c-0.02-6.85-0.02-13.7,0-20.56c0-0.37,0.17-0.75,0.26-1.12
		C186.23,24.85,186.23,32.45,186.23,40.05z"/>
	<path class="st19" d="M165.21,61.36c2.62,0.08,2.62,0.08,2.63,4.18c0,0.49,0,0.98,0,1.87c-0.97-2.14-0.93-5.14-2.88-5.55
		C164.79,61.39,164.91,61.26,165.21,61.36z"/>
	<path class="st20" d="M101.69,61.39c2.75-0.01,2.75-0.01,2.69,4.3c-0.01,0.4-0.04,0.8-0.08,1.49c-0.87-2.12-0.9-4.95-2.82-5.35
		c-0.08-0.1-0.14-0.22-0.12-0.32C101.43,61.26,101.57,61.32,101.69,61.39z"/>
	<path class="st1" d="M101.69,61.39c-0.07,0.15-0.14,0.29-0.21,0.44c-1.75,0.04-3.5,0.07-5.24,0.11c-0.02-0.16-0.04-0.33-0.07-0.49
		C98.01,60.56,99.85,60.69,101.69,61.39z"/>
	<path class="st12" d="M165.21,61.36c-0.08,0.17-0.16,0.33-0.25,0.5c-1.74,0.03-3.48,0.05-5.22,0.08c-0.04-0.15-0.05-0.31-0.05-0.48
		C161.53,60.51,163.37,60.74,165.21,61.36z"/>
	<path class="st21" d="M178.44,63.04c2.38-0.22,2.4-0.19,1.88,4.93C179.89,66.07,179.55,64.29,178.44,63.04z"/>
	<path class="st22" d="M180.37,85.07c-0.57-0.13-1.14-0.26-1.84-0.43c0.9-1.39,1.29-3.12,1.84-5.33
		C180.37,81.52,180.37,83.22,180.37,85.07z"/>
	<path class="st23" d="M164.8,86.04c1.44-0.5,2.46-1.61,2.81-4.17C168.2,86.44,168.2,86.44,164.8,86.04z"/>
	<path class="st24" d="M101.41,85.81c1.55-0.53,1.83-0.84,2.79-3.14c0.6,3.71,0.56,3.76-2.79,3.52c-0.13-0.09-0.18-0.17-0.13-0.25
		C101.32,85.85,101.37,85.81,101.41,85.81z"/>
	<path class="st25" d="M161.77,73.61c0.93-0.29,1.53-1.12,2.06-2.7c0,1.91,0,3.35,0,5.01C163.33,74.63,162.78,73.64,161.77,73.61z"
		/>
	<path class="st15" d="M116.01,73.87c0-0.19,0-0.39,0-0.58c2.35,0,4.69,0.01,7.04,0.01c0,0.19,0,0.38,0,0.57
		C120.7,73.87,118.35,73.87,116.01,73.87z"/>
	<path class="st26" d="M100.35,71.67c0,1.27,0,2.53,0,4.38c-0.5-1.46-0.95-2.33-2.22-2.25C99.2,73.1,99.91,72.68,100.35,71.67z"/>
	<path class="st5" d="M111.33,73.97c-1.72,0-3.43,0-5.15,0c0-0.11,0-0.23,0-0.34c1.73,0,3.47,0,5.2,0
		C111.36,73.74,111.35,73.86,111.33,73.97z"/>
	<path class="st1" d="M184.66,77.31c1.55,0.69,3.09,0.92,4.63-0.1c0.28,0.29,0.2,0.72,0.19,1.13c-1.28-0.01-2.55-0.02-3.83-0.03
		C185.18,78.31,184.65,78.45,184.66,77.31z"/>
	<path class="st1" d="M101.41,85.81c-0.03,0.13-0.03,0.25,0,0.38c-1.75,0-3.51,0.01-5.26,0.01c0.03-0.16,0.05-0.32,0.08-0.48
		C97.95,85.75,99.68,85.78,101.41,85.81z"/>
	<path class="st1" d="M159.67,86.2c0.01-0.16,0.04-0.32,0.07-0.48c1.28,0,2.55,0,3.83,0c0,0.16,0.01,0.32,0.01,0.48
		C162.27,86.2,160.97,86.2,159.67,86.2z"/>
	<path class="st27" d="M117.55,35.21c-2.85,0.57-5.61,0.61-8.52-0.18c1.38-0.42,1.21-1.25,0.65-2.64c-0.74-1.86-0.74-4.08-0.81-6.23
		c-0.04-1.16,0.38-1.37,1-1.36c2.26,0.02,4.52-0.01,6.78,0.02c0.7,0.01,2.92,2.98,3.02,4.02c0.11,1.19-0.23,2.1-0.87,2.69
		c-0.31,0.29-0.69,0.55-1.04,0.57c-0.81,0.03-1.23,0.99-1.36,1.81C116.27,34.71,117.24,34.23,117.55,35.21z"/>
	<path class="st28" d="M115.59,21.72c-1.05,0.36-1.05,0.36-1.99,1.86c-0.22-1.83,0.59-2.42,1.36-2.79c0.81-0.38,1.49-0.77,1.57-2.75
		c0.88,1.64,0.41,2.4-0.19,3.12C116.14,21.5,115.99,22.03,115.59,21.72z"/>
	<path class="st29" d="M115.59,21.72c0.25-0.18,0.5-0.37,0.75-0.55c0.99,0.32,1.52-0.49,1.8-2.3c0.31,2.21,0.16,2.82-0.95,3.2
		c-0.78,0.27-1.42,0.83-2.01,1.66C114.77,22.63,115.49,22.36,115.59,21.72z"/>
	<path class="st30" d="M175.89,30.65c1.19-1.37,2.52-2.28,2.6-5.29c0.06-2.15,1.49-3.5,3.1-4.77c-0.28,1.89-1.28,2.35-1.58,3.92
		c1.01-0.52,1.42-1.99,2.5-2.38c-0.36,1.73-1.3,2.56-1.52,4.15c0.7-0.9,1.39-1.81,2.17-2.83c-0.05,2.35-1.58,5.05-2.98,5.1
		c-0.82,0.03-1.27,0.6-1.75,1.39c-1.66,2.71-3.33,5.4-5,8.09c-0.4,0.65-0.76,1.52-1.42,0.44c-0.64-1.05-0.06-1.57,0.34-2.22
		c1.17-1.92,2.65-3.39,3.58-5.66L175.89,30.65z"/>
	<path class="st31" d="M175.92,30.6c-0.05,0.04-0.12,0.14-0.13,0.12c-1.64-1.89-4.19-1.17-5.35-4.33c-0.46-1.27-0.99-2.76-0.14-4.07
		c0.84-1.3,1.83-0.59,2.67,0.14c0.96,0.83,1.78,1.99,1.58,3.91c-0.1,1.02,0.28,1.48,0.65,2.07c0.38,0.61,1.05,1.06,0.69,2.22
		C175.89,30.65,175.92,30.6,175.92,30.6z"/>
	<path class="st32" d="M177.65,32.3c0.35,0.05,3.53,4.82,3.53,5.16c0,0.52-0.17,0.91-0.44,1.25c-0.31,0.39-0.59,0.38-0.85-0.03
		c-0.93-1.48-1.85-2.98-2.78-4.46c-0.23-0.36-0.27-0.69-0.05-1.06C177.27,32.83,177.5,32.52,177.65,32.3z"/>
	<path class="st6" d="M139.55,42.64c-2.11,0-3.83,0-5.54,0c-0.12-0.19-0.24-0.39-0.35-0.58c2.27-0.4,2.63-2.47,2.46-5.12
		c-0.07-1.05-0.24-1.94-0.78-2.61c-1.24-1.56-1.58-3.66-1.56-5.98c0.02-2.15,0.08-4.3,0.09-6.45c0.01-1.56,0.31-2.45,1.51-2.25
		c1.13,0.19,2.13,0.45,2.56-2.25c0.33-2.07,2.18-2.11,3.48-2.62c-0.59,1.22-1.58,1.29-2.31,2.05c-0.75,0.78-1.72,1.76-0.18,2.96
		c0.28,0.22,0.32,0.64,0.33,1.05c0.03,3.3,0.4,6.6,0.01,9.89c-0.12,0.99-0.38,1.88-0.79,2.67
		C136.24,37.74,136.39,39.54,139.55,42.64z"/>
	<path class="st33" d="M153.53,35.88c-0.22-3.88,0.14-7.52,1.44-10.98c0.66-1.74,0.64-3.83,0.37-5.79c-0.13-0.92-0.1-1.69,0.38-2.15
		c0.27-0.26,0.79-0.24,1.08-0.01c0.5,0.4,0.38,1.25,0.32,1.98c-0.21,2.85,0.03,5.51,0.99,8.1c1.26,3.39,0.84,7.23,0.87,10.92
		c0.03,4.56,0.01,4.56-3.01,4.56c-0.43,0-0.87-0.05-1.29,0.01c-0.82,0.11-1.19-0.37-1.15-1.68
		C153.57,39.18,153.53,37.53,153.53,35.88z"/>
	<path class="st1" d="M95.86,73.95c0,3.22,0,6.44,0,9.66c0,1.09,0.1,2.19-1.01,2.16c-1-0.03-0.94-1-0.94-2.02c0-6.6,0-13.2,0-19.81
		c0-1-0.08-2,0.93-2.04c1.1-0.04,1.02,1.04,1.02,2.14C95.85,67.34,95.86,70.65,95.86,73.95z"/>
	<path class="st34" d="M111.36,32.26c-1.09-1.57-1.32-3.33-1.31-5.23c0.01-0.57,0.15-0.92,0.56-0.92c0.4,0,0.59,0.3,0.52,0.91
		C110.95,28.69,111.43,30.31,111.36,32.26z"/>
	<path class="st35" d="M117.56,29.34c0.13-0.43-0.24-1.3,0.37-1.28c0.38,0.01,0.63,0.56,0.6,1.22c-0.02,0.61-0.19,1.23-0.58,1.28
		C117.3,30.66,117.62,29.82,117.56,29.34z"/>
	<path class="st36" d="M135.9,20.39c0.53,0.47,1.49-0.61,1.44,1.22c-0.05,1.84-0.97,1.35-1.66,1.39c-0.6,0.03-1.33,0.35-1.28-1.32
		C134.47,19.69,135.47,20.99,135.9,20.39z"/>
	<path class="st37" d="M138.77,21.98c0.04,0.59-0.08,0.99-0.5,0.95c-0.44-0.04-0.48-0.53-0.37-1.03c0.1-0.46-0.11-1.32,0.46-1.25
		C138.86,20.71,138.67,21.52,138.77,21.98z"/>
	<path class="st38" d="M154.55,32.26c0.03,1.97-0.38,4.34,0.2,5.78c0.61,1.51,2.37-0.06,3.8,1c-1.52,0.76-2.82,0.44-4.1,0.34
		c-0.29-0.02-0.49-0.43-0.49-0.86c-0.01-2.13-0.01-4.27,0.03-6.4c0.01-0.51,0.25-0.97,0.62-0.94c1.24,0.12,2.53-0.55,3.73,0.43
		C157.12,32.43,155.75,31.21,154.55,32.26z"/>
	<path class="st39" d="M154.55,32.26c1.18-1.36,2.54-0.28,3.79-0.65C157.14,32.75,155.78,31.67,154.55,32.26z"/>
</g>
</svg>
