<?xml version="1.0" encoding="utf-8"?>
<!-- Generator: Adobe Illustrator 23.0.1, SVG Export Plug-In . SVG Version: 6.00 Build 0)  -->
<svg version="1.1" id="Layer_1" xmlns="http://www.w3.org/2000/svg" xmlns:xlink="http://www.w3.org/1999/xlink" x="0px" y="0px"
	 viewBox="0 0 160 45" style="enable-background:new 0 0 160 45;" xml:space="preserve">
<style type="text/css">
	.st0{fill:#F1D3E4;}
	.st1{fill:#BC2B7F;}
	.st2{fill:#BE3183;}
	.st3{fill:#BC297E;}
	.st4{fill:#BD2C80;}
	.st5{fill:#DC91BD;}
	.st6{fill:#BE3082;}
	.st7{fill:#BF3384;}
	.st8{fill:#D986B6;}
	.st9{fill:#E2A5C8;}
	.st10{fill:#EDC7DD;}
	.st11{fill:#D57BB0;}
	.st12{fill:#E8B7D3;}
	.st13{fill:#EFCDE1;}
</style>
<path class="st0" d="M158.25,7.36c0.31,0.01,0.63,0.02,0.94,0.04c0,1.67,0,3.33,0,5c-0.37-0.03-0.74-0.07-1.11-0.1
	C156.73,10.6,156.75,8.95,158.25,7.36z"/>
<path class="st1" d="M64.31,37.16c-1.71-1.75-0.67-4.17-1.52-6.39c-1.96,0.68-3.42,1.9-4.67,3.45c-0.49,0.44-1,0.86-1.58,1.18
	c-3.29,1.86-6.69,4.37-10.53,2.07c-3.45-2.06-1.97-5.93-2.17-9.08c-0.18-2.95-0.05-5.92-0.05-8.88c0.07-2.13-0.22-4.33,1.3-6.15
	c0.63-1.3-0.91-3.96,1.7-3.85c1.86,0.08,2.15,2.35,2.18,4c0.09,5.47,0.19,10.95-0.02,16.42c-0.15,4.1,1.49,4.18,4.34,2.4
	c6.6-4.12,12-8.7,9.99-17.88c-0.9-4.13-0.32-4.26,3.02-4.15c1.89,2.23,0.88,5.22,2,7.66c0.29,5.62,0.83,11.24-0.64,16.79
	C67.21,36.5,67.03,38.59,64.31,37.16z"/>
<path class="st2" d="M1.32,21.47c0.33-3.3-1.76-8.61,0.74-11.25c2.74-2.9,8.18-0.94,12.42-0.92c2.14,0.01,6.29-1.53,6.17,1.36
	c-0.14,3.54-4.25,1.44-6.62,1.66c-2.31,0.21-4.66-0.04-6.98,0.08c-1.44,0.07-2.71,0.87-2.64,2.44c0.07,1.66,1.63,1.42,2.71,1.37
	c4.3-0.18,8.65,0.61,12.91-0.57c1.7-0.47,3.53-0.78,3.75,1.68c0.24,2.76-2.08,2.07-3.54,2.11c-3.83,0.1-7.66,0.1-11.48-0.04
	c-3.06-0.11-4.61,0.81-4.53,4.23c0.25,11.94-1.35,9.91,9.57,9.65c1.99-0.05,3.99,0.01,5.99,0.05c0.98,0.02,1.57,0.6,1.57,1.54
	c0,0.92-0.6,1.6-1.55,1.61c-5.32,0.03-10.64,0.12-15.95-0.08c-1.94-0.07-2.61-1.65-2.55-3.61C1.39,29.28,1.32,25.78,1.32,21.47z"/>
<path class="st3" d="M113.11,35.35c0.01-6.32,0.01-12.64,0.02-18.96c0.03-1-0.02-2,0.11-2.98c0.17-1.36-0.84-3.63,1.04-3.84
	c2.49-0.28,2.53,2.35,2.58,4.01c0.18,5.66,0.16,11.32,0.06,16.98c-0.05,3.04,1.05,3.36,3.6,2.18c7.76-3.57,11.12-9.01,10.65-17.51
	c-0.07-1.32-0.39-2.79,0.06-3.95c0.72-1.89,2-2.78,3.15-0.13c2.32,8.44,1.42,16.93,0.31,25.41c-0.09,0.7-0.8,0.98-1.54,0.9
	c-2.67-1.31-1.83-3.83-2.04-5.98c-1.12-1.68-2.05-0.69-3.18,0.1c-3.3,2.32-6.37,5.02-10.31,6.3
	C115.6,37.95,113.72,37.77,113.11,35.35z"/>
<path class="st3" d="M42.28,40.17c-2.66-3.62-0.89-7.73-1.23-11.59c-0.25-2.8-0.18-5.65,0.02-8.47c0.31-4.55-1.67-4.29-4.59-2.37
	c-6.62,4.36-12.51,9.08-9.84,18.44c0.4,1.4,0.43,3.46-1.51,3.56c-2.07,0.12-3.54-1.71-3.11-3.66c0.84-3.76,0.58-7.53,0.88-11.28
	c0.06-0.76,0.36-1.76,0.91-2.2c4.68-3.68,8.84-8.14,14.62-10.21c1.99-0.71,4.22-1.59,5.67,1.06c1.2,2.03,0.31,4.26,0.59,6.38
	c0.2,5.82-0.31,11.65,0.28,17.48C45.09,38.7,45.6,41.53,42.28,40.17z"/>
<path class="st2" d="M112.03,16.44c-0.91,4.49-2.86,0.97-4.05,0.37c-4.14-2.1-8.02-1.77-11.65,0.91c-3.87,2.86-5.96,6.65-4.94,11.61
	c1.5,7.36,10.17,10.22,17.02,5.84c1-0.64,2.92-4.52,3.88,0.22c-2.92,5.16-8.46,6.52-16.06,3.96c-2.79-1.58-4.91-3.89-6.91-6.34
	c-1.06-0.56-1.25-1.54-1.23-2.61c-0.72-11.8,4.98-18.87,14.68-18.22C106.4,12.43,109.4,14.02,112.03,16.44z"/>
<path class="st4" d="M136.04,5.27c7.1-0.82,14.25-2.53,21.1,1.17c0.89,1.89,0.92,3.85-0.13,5.62c-3.47,5.87-7.87,10.9-13.89,14.27
	c-2.47,1.38-4.55,1.38-4.4-2.38c3.85-3.32,7.69-6.66,11.11-10.44c1.27-1.4,3.15-2.67,2.02-5.07c-1.54-0.97-3.25-0.65-4.88-0.64
	c-6.15,0.04-7.56,1.22-7.34,7.23c0.17,4.63-1.35,9.13-0.55,13.82c0.32,1.91-0.41,4.09-3.38,3.43c-1.12-6.7-0.53-13.43-0.25-20.13
	C135.56,9.87,135.27,7.5,136.04,5.27z"/>
<path class="st5" d="M136.45,32.17c2.26-0.87,1.87-2.84,1.87-4.62c0.01-4.78,0.15-9.56-0.09-14.33c-0.24-4.71,2.07-6.88,6.41-6.61
	c3.18,0.19,6.94-1.86,9.48,1.83c-2.29,1.88-5.05,1.37-7.65,1.36c-3.74-0.02-5.37,1.82-5.73,5.37c-0.28,2.74,0.53,5.71-1.54,8.12
	c-0.07,1.78-0.16,3.45,2.56,2.78c6.03-1.47,15.57-13.58,15.39-19.64c0.37,0.31,0.74,0.61,1.1,0.92c-0.06,1.65-0.11,3.29-0.17,4.94
	c-4.44,6.41-9.33,12.12-16.35,16.22c-2.63,1.54-5.23,5.25-6.54,8.87C134.82,35.46,133.34,33.26,136.45,32.17z"/>
<path class="st6" d="M67.37,7.21c0.81-3.84,1.92-1.74,3.23-0.24c1.56,1.79-1.16,6.19,2.51,5.9c4.36-0.34,8.78-2.06,11.47-6.19
	c0.66-1.02,0.83-2.97,2.6-1.02c1.26,2.75-0.44,4.37-2.35,5.74c-2.55,1.82-5.43,3-8.42,3.97c-5.86,1.91-6.92,3.71-5.47,9.74
	c0.43,1.78,0.73,3.5,0.73,5.31c0,2.38-1.24,2.79-3.22,2.19c-1.58-3.49-0.43-7.17-0.73-10.75c-0.17-1.98,0.12-3.99-0.46-5.94
	C66.65,13.02,68.18,10.13,67.37,7.21z"/>
<path class="st7" d="M68.87,32.49c2.33-0.19,2.45-1.87,2.26-3.59c-0.14-1.29-0.6-2.55-0.82-3.83c-1.16-6.92-0.2-8.02,6.59-10.83
	c4.17-1.73,9.51-2.56,10.28-8.57c3.2,4.41-0.75,6.1-3.38,7.46c-3.16,1.63-3.37,3.04-1.73,5.95c2.03,3.59,3.49,7.51,5.2,11.29
	c0.57,0.99,0.87,1.98-0.05,2.93c-0.69,0.72-1.31,0.57-1.83-0.23c-1.99-4.56-3.95-9.13-5.99-13.67c-0.64-1.43-0.29-4.12-3.32-2.97
	c-2.24,0.85-5.05,0.94-4.65,4.63c0.36,3.29,0.36,6.63,0.5,9.95c0.08,1.96-0.29,3.43-2.8,2.44c-0.27-0.15-0.4-0.34-0.39-0.57
	C68.76,32.61,68.8,32.49,68.87,32.49z"/>
<path class="st8" d="M136.45,32.17c-1.96,1.37-1.06,3.42-1.26,5.21c-0.64,1.09-1.32,1.22-2.04,0.08c1.86-1.75,1.03-4.02,1.07-6.07
	c0.11-6.74,0.12-13.49,0.16-20.24c1.82-1.61-0.45-4.37,1.67-5.89c-0.34,8.56,0.83,17.15-0.39,25.7
	C135.59,31.33,136.17,31.77,136.45,32.17z"/>
<path class="st0" d="M42.28,40.17c2.63-0.27,1.87-2.26,1.89-3.8c0.05-5.66,0.06-11.31,0.09-16.97c0.33-0.44,0.66-0.47,0.99-0.01
	c0.07,4.3,0.15,8.59,0.2,12.89c0.06,5.04,2.11,6.43,6.84,4.53c1.97-0.79,3.89-1.72,5.84-2.59c-1.37,2.76-4.03,3.69-6.67,4.55
	c-2.6,0.85-5.71-0.04-7.85,2.5C43.32,41.61,42.48,40.86,42.28,40.17z"/>
<path class="st9" d="M96.22,39.34c5.95,1.1,11.6,0.99,16.06-3.96c0.27-0.03,0.55-0.04,0.83-0.03c1.29,1.61,2.98,2.22,5,1.98
	c1.07-0.52,2.14-0.77,3.15,0.12c-6.3,0.43-12.1,3.14-18.29,3.96C100.59,41.72,97.94,41.75,96.22,39.34z"/>
<path class="st10" d="M68.87,32.49c0.15,0.3,0.24,0.61,0.28,0.94c-1.28,0.95-0.6,2.48-1.07,3.64c-1.11,2.69-2.43,3.14-3.76,0.1
	c2.91,0.25,2.62-1.83,2.64-3.65c0.06-5.31,0.1-10.62,0.14-15.93c-0.34-1.01-0.93-2.13,0.96-2.14
	C68.84,21.11,67.41,26.87,68.87,32.49z"/>
<path class="st11" d="M121.27,37.45c-1.05-0.04-2.1-0.08-3.15-0.12c3.49-2.52,6.97-5.07,10.48-7.56c2.27-1.61,2.91-0.66,2.5,1.72
	C127.38,32.74,124.67,35.67,121.27,37.45z"/>
<path class="st12" d="M68.05,15.45c-0.32,0.71-0.64,1.42-0.96,2.14c-1.15-2.33-0.44-4.86-0.79-7.28c1.26-0.72,0.76-2.04,1.06-3.09
	C69.01,9.84,67.91,12.7,68.05,15.45z"/>
<path class="st10" d="M85.4,33.06c2.43,0.36,1.76-1.44,1.88-2.7c0.27,0.01,0.53,0.02,0.8,0.04c0.92,0.63,1.15,1.58,1.23,2.61
	C88.03,34.52,86.75,36.63,85.4,33.06z"/>
<path class="st13" d="M45.24,19.39c-0.33,0-0.66,0.01-0.99,0.01c-0.06-1.98-0.11-3.96-0.17-5.94c0.34-0.03,0.67-0.06,1.01-0.09
	C45.14,15.37,45.19,17.38,45.24,19.39z"/>
</svg>
