<?xml version="1.0" encoding="utf-8"?>
<!-- Generator: Adobe Illustrator 23.0.1, SVG Export Plug-In . SVG Version: 6.00 Build 0)  -->
<svg version="1.1" id="Layer_1" xmlns="http://www.w3.org/2000/svg" xmlns:xlink="http://www.w3.org/1999/xlink" x="0px" y="0px"
	 viewBox="0 0 160 45" style="enable-background:new 0 0 160 45;" xml:space="preserve">
<style type="text/css">
	.st0{fill:#545758;}
	.st1{fill:#555859;}
	.st2{fill:#0698DC;}
	.st3{fill:#4F5354;}
	.st4{fill:#2F4495;}
	.st5{fill:#2F4697;}
	.st6{fill:#1A6EB9;}
	.st7{fill:#2F4394;}
	.st8{fill:#2754A2;}
	.st9{fill:#1971BB;}
	.st10{fill:#2654A2;}
	.st11{fill:#2160AC;}
	.st12{fill:#28519F;}
	.st13{fill:#0F83CA;}
	.st14{fill:#1871BB;}
	.st15{fill:#0C88CE;}
	.st16{fill:#0892D6;}
	.st17{fill:#0D86CD;}
	.st18{fill:#1182C9;}
	.st19{fill:#2061AE;}
	.st20{fill:#049EE0;}
	.st21{fill:#2161AD;}
	.st22{fill:#039EE0;}
	.st23{fill:#1F63AF;}
	.st24{fill:#304294;}
	.st25{fill:#55595A;}
	.st26{fill:#676A6B;}
	.st27{fill:#565A5B;}
	.st28{fill:#636566;}
	.st29{fill:#5F6263;}
	.st30{fill:#4E5152;}
	.st31{fill:#4E5253;}
	.st32{fill:#626566;}
	.st33{fill:#56595A;}
	.st34{fill:#535657;}
	.st35{fill:#656768;}
	.st36{fill:#575A5B;}
	.st37{fill:#5A5D5E;}
	.st38{fill:#494C4E;}
	.st39{fill:#4C5051;}
	.st40{fill:#F7F7F7;}
	.st41{fill:#FEFEFE;}
	.st42{fill:#FDFDFD;}
	.st43{fill:#EEEEEE;}
	.st44{fill:#ECECEC;}
	.st45{fill:#E6E7E7;}
	.st46{fill:#F9F9F9;}
	.st47{fill:#D9DADA;}
</style>
<path class="st0" d="M143.97,20.4c1.45-1.83,2.92-3.65,4.36-5.48c0.34-0.44,0.79-0.53,1.27-0.53c1.42,0.01,2.8-0.56,4.42-0.3
	c-1.3,2.23-2.97,4-4.55,5.82c-0.77,0.89-0.77,1.52-0.21,2.46c1.62,2.71,3.05,5.55,5.07,8c0,0.11,0,0.21,0,0.32
	c-1.86,0.04-3.92,0.6-5.53-0.02c-1.59-0.62-1.79-2.96-2.69-4.49c-0.88-1.51-1.61-3.1-2.41-4.66
	C143.37,21.05,144.14,20.84,143.97,20.4z"/>
<path class="st1" d="M115.23,5.06c1.2,0.54,2.25,1.27,2.22,2.74c-0.03,1.33-0.75,2.31-1.97,2.86c-1.36,0.61-2.95,0.13-3.64-1.07
	c-0.7-1.23-0.27-2.91,0.93-3.84c0.37-0.29,0.94-0.19,1.18-0.68C114.38,5.06,114.8,5.06,115.23,5.06z"/>
<path class="st2" d="M7.22,25.25c1.99-2.82,2-2.82,4.81-0.68c0.45,1.94-1.2,4.17-2.87,3.87c-0.65-0.64-1.3-1.28-1.94-1.92
	C7.22,26.11,7.22,25.68,7.22,25.25z"/>
<path class="st3" d="M82.54,40.31c-0.29-1.59,1.11-2.76,1.06-4.34c-0.02-0.62,0.87-0.33,1.36-0.38c0.46-0.05,0.96,0.07,0.84,0.64
	c-0.29,1.45,0.65,2.69,0.59,4.09c-0.21,0-0.43,0-0.64,0c-0.85-0.78-1.71-0.78-2.56,0C82.97,40.31,82.75,40.31,82.54,40.31z"/>
<path class="st1" d="M125.26,16.47c1.7-1.04,3.2-2.14,5.07-2.52c3.28-0.66,4.99,0.67,4.8,3.94c-0.2,3.35-0.61,6.69-0.77,10.04
	c-0.14,2.82-0.04,2.82-2.86,2.89c-2.38,0.06-2.55-0.16-2.31-2.61c0.29-3.02,0.58-6.05,0.76-9.08c0.11-1.87-1-2.47-2.68-1.58
	c-1.5,0.79-2.25,2.1-2.4,3.73c-0.25,2.7-0.46,5.41-0.59,8.13c-0.05,0.97-0.22,1.49-1.33,1.41c-1.21-0.08-2.77,0.42-3.57-0.16
	c-0.98-0.71,0-2.25,0.07-3.43c0.18-3.35,0.63-6.68,0.64-10.05c0-0.85-0.91-1.86-0.03-2.49c0.63-0.44,1.64-0.32,2.48-0.47
	C125,13.78,125,13.78,125.26,16.47z"/>
<path class="st1" d="M64.05,28.43c-1.58,1.04-3.04,2.02-4.78,2.44c-3.22,0.79-5.16-0.69-4.98-3.96c0.16-2.93,0.47-5.85,0.72-8.77
	c0.02-0.21,0-0.43,0.05-0.64c0.2-0.94-0.62-2.28,0.07-2.73c1.17-0.76,2.77-0.7,4.19-0.74c1.27-0.04,0.92,1.16,0.89,1.82
	c-0.11,2.34-0.38,4.68-0.57,7.02c-0.09,1.12-0.16,2.24-0.17,3.35c-0.01,1.3,0.74,1.66,1.91,1.4c1.56-0.35,2.96-1.88,3.14-3.66
	c0.28-2.8,0.79-5.61,0.38-8.44c-0.1-0.7,0.16-0.99,0.81-1.05c0.42-0.04,0.85-0.1,1.27-0.16c3.12-0.44,3.11-0.44,3.13,2.78
	c0.03,4.33-1.08,8.59-0.65,12.93c0.06,0.57-0.25,0.75-0.75,0.76c-1.12,0.02-2.24,0.11-3.36,0.08C63.7,30.81,64.43,29.39,64.05,28.43
	z"/>
<path class="st1" d="M100.21,21.74c-0.02,6.27-4.28,10.08-10.43,9.33c-3.44-0.42-5.84-2.76-6.2-6.48
	c-0.69-7.1,4.06-11.88,10.93-10.58C98.11,14.69,100.23,17.54,100.21,21.74z"/>
<path class="st1" d="M51.08,26.76c0.07,2.67-0.18,3.06-2.41,3.81c-2.01,0.67-4.06,0.85-6.14,0.44c-3.27-0.64-5.28-3.06-5.65-6.81
	c-0.65-6.67,4.35-11.44,10.71-10.21c3.36,0.65,5.79,4.72,4.82,8.01c-0.24,0.81-0.84,0.67-1.41,0.68c-2.51,0.04-5.01,0.13-7.52,0.1
	c-1.27-0.02-1.49,0.5-1.33,1.64c0.43,3.07,2.74,4.61,5.75,3.79C48.98,27.91,49.94,27.35,51.08,26.76z"/>
<path class="st1" d="M143.97,20.4c0.84,0.6-0.3,0.72-0.27,1.13c-0.7,0.42-0.47,1.13-0.51,1.73c-0.16,2.12-0.31,4.25-0.36,6.37
	c-0.02,0.95-0.41,1.19-1.25,1.17c-1.22-0.03-2.75,0.45-3.58-0.12c-1.05-0.71-0.05-2.24,0.02-3.4c0.38-6.05,0.85-12.1,1.37-18.15
	c0.09-1.07-0.65-2.44,0.33-3.14c0.78-0.55,2.04-0.44,3.08-0.62c0.1-0.02,0.21-0.04,0.31-0.07c1.06-0.19,1.34,0.28,1.32,1.3
	c-0.09,3.76-0.5,7.49-0.83,11.23c-0.07,0.84-0.17,1.69-0.13,2.53C143.49,20.94,143.8,20.39,143.97,20.4z"/>
<path class="st1" d="M108.24,9.03c-0.45,6.33-0.95,12.66-1.32,18.99c-0.16,2.74-0.04,2.74-2.75,2.79c-2.38,0.04-2.55-0.22-2.35-2.77
	c0.56-7.07,1.35-14.12,1.48-21.21c0-0.05-0.03-0.12-0.01-0.16c0.88-1.82,2.69-0.83,4.01-1.3c0.98-0.35,0.99,0.48,1.02,1.12
	c0.04,0.85,0.01,1.7,0.01,2.56C108.31,9.03,108.28,9.03,108.24,9.03z"/>
<path class="st1" d="M78.48,16.14c1.2-1.32,2.65-2.23,4.49-2.33c1.09-0.06,1.68,0.28,1.11,1.5c-0.22,0.48-0.43,0.98-0.56,1.49
	c-0.18,0.66-0.45,0.74-1.15,0.58c-2.29-0.51-3.94,0.69-4.31,3.06c-0.44,2.85-0.61,5.73-0.66,8.61c-0.02,1.23-0.34,1.78-1.74,1.77
	c-3.62-0.04-3.48,0.05-3.19-3.56c0.31-3.92,1.12-7.84,0.37-11.8c-0.13-0.66,0.11-0.89,0.67-0.97c1.16-0.17,2.32-0.37,3.48-0.47
	C78.62,13.88,77.78,15.49,78.48,16.14z"/>
<path class="st1" d="M112.94,30.79c-2.57,0.06-2.7-0.1-2.49-2.77c0.33-4.18,0.65-8.37,0.96-12.56c0.15-2,2.53-0.88,3.82-1.41
	c0.96-0.4,1.16,0.4,1.18,1.13c0.08,3.25-0.46,6.47-0.64,9.71c-0.08,1.43-0.3,2.87-0.17,4.3c0.12,1.27-0.26,1.79-1.54,1.6
	C113.69,30.75,113.31,30.79,112.94,30.79z"/>
<path class="st4" d="M25.28,20.16c-0.18-0.51-0.18-0.91,0.52-0.6c2.59,1.14,5.05,2.52,6.86,4.78c0.75,0.93,1.02,1.99-0.07,2.94
	c-2.35-1.42-4.41-3.25-6.78-4.65C24.9,22.1,25.55,20.97,25.28,20.16z"/>
<path class="st5" d="M15.46,24.57c0.19,0.54,0.14,0.88-0.54,0.58c-2.63-1.19-5.07-2.64-6.91-4.92c-0.6-0.75-0.79-1.59-0.21-2.46
	c1.31,0.2,2.21,1.19,3.32,1.77c0.7,0.37,1.3,0.98,2.02,1.23C15.05,21.39,15.67,22.71,15.46,24.57z"/>
<path class="st6" d="M28.04,19.51c-0.96-0.42-1.93-0.84-2.89-1.26c-0.26-0.35-0.45-0.74-0.44-1.18c0.04-2.48-0.28-4.97,0.13-7.45
	c1.47,1.07,2.66,2.43,3.86,3.77c-0.65,1.44-0.58,2.96-0.46,4.48C28.29,18.43,28.52,19.01,28.04,19.51z"/>
<path class="st7" d="M21,27.21c0.79-0.04,1.57-0.08,2.53-0.12c-1.15,3.11-2.78,5.74-5.29,7.77c-0.49,0.39-1.08,0.67-1.76,0.39
	c-0.42-0.67,0-1.23,0.31-1.75c1.03-1.71,2.03-3.44,2.95-5.21C20.03,27.74,20.39,27.34,21,27.21z"/>
<path class="st8" d="M21,27.21c-1.71,2.56-3.26,5.22-4.52,8.04c-0.79,0.05-1.19-0.49-1.57-1.05c-0.44-0.57-0.19-1.1,0.1-1.61
	c0.88-1.56,1.78-3.1,2.63-4.67c0.31-0.57,0.71-1.08,1.5-0.77C19.77,27.17,20.38,27.19,21,27.21z"/>
<path class="st9" d="M10.42,14.99c0.73-0.69,1.46-1.38,2.19-2.06c1.4,1.12,3.13,1.75,4.38,3.08c-0.36,0.96-0.72,1.93-1.08,2.89
	c-1.94-0.53-3.42-1.86-5.05-2.93C10.54,15.76,10.41,15.39,10.42,14.99z"/>
<path class="st10" d="M25.28,20.16c-0.05,2.01,1.63,2.6,2.89,3.57c1.49,1.16,3.33,1.89,4.42,3.55c-0.35,0.5-0.75,0.96-1.29,1.27
	c-2.06-0.91-3.68-2.5-5.59-3.64c-0.37-0.22-0.31-0.65-0.53-0.95C25.22,22.7,25.25,21.43,25.28,20.16z"/>
<path class="st11" d="M24.85,9.62c0.66,2.86,0.18,5.75,0.3,8.63c-0.79-0.13-1.57-0.27-2.28-0.65c-0.08-2.59-0.35-5.18,0.04-7.77
	C23.51,9.31,24.17,9.4,24.85,9.62z"/>
<path class="st12" d="M22.91,9.82c0.54,2.19,0.28,4.41,0.33,6.63c0.01,0.42,0.05,0.86-0.37,1.15c-0.84-0.1-1.68-0.21-2.52-0.31
	c0.31-1.76-0.07-3.56,0.29-5.32C21.29,11.14,21.84,10.2,22.91,9.82z"/>
<path class="st6" d="M14.64,25.87c0.73,0.24,1.46,0.48,2.19,0.71c0.22,0.63-0.14,1.13-0.44,1.61c-0.96,1.56-1.73,3.23-2.76,4.75
	c-0.84-0.66-1.59-1.4-2.23-2.25c0.64-1.72,1.68-3.21,2.67-4.73C14.19,25.78,14.43,25.75,14.64,25.87z"/>
<path class="st8" d="M15.46,24.57c-0.09-1.75-0.99-2.77-2.6-3.54c-1.8-0.87-3.39-2.16-5.07-3.27c0.18-0.74,0.74-1.14,1.35-1.49
	c2.18,1.32,4.47,2.48,6.41,4.17C15.53,21.82,15.49,23.2,15.46,24.57z"/>
<path class="st13" d="M28.04,19.51c-0.32-1.5-0.36-3.02-0.3-4.55c0.03-0.69,0.07-1.41,0.97-1.57c0.75,0.52,1.37,1.17,1.92,1.89
	c0.15,1.87,0.55,3.76-0.36,5.57C29.53,20.4,28.79,19.96,28.04,19.51z"/>
<path class="st14" d="M23.88,28.44c0.31-0.87,0.62-1.75,0.93-2.62c1.9,0.67,3.37,2,4.92,3.21c0.24,0.19,0.49,0.44,0.3,0.82
	c-0.55,0.73-1.2,1.36-1.93,1.91c-1.37-0.81-2.59-1.83-3.95-2.66C23.92,28.96,23.74,28.75,23.88,28.44z"/>
<path class="st15" d="M16.99,16.01c-1.6-0.83-3.39-1.38-4.38-3.08c0.62-0.62,1.24-1.24,1.86-1.85c1.51,0.1,2.55,1.09,3.65,1.94
	c0.2,0.16,0.2,0.47,0.01,0.71C17.75,14.49,17.37,15.25,16.99,16.01z"/>
<path class="st16" d="M30.28,20.85c0.21-1.85-0.34-3.75,0.36-5.57c0.61,0.58,1.25,1.14,1.84,1.73c1.52,1.54,1.3,3.37-0.52,4.51
	C31.1,22.05,30.78,21.22,30.28,20.85z"/>
<path class="st17" d="M23.88,28.44c1.34,1.18,3.25,1.65,4.21,3.31c-0.75,0.74-1.5,1.49-2.25,2.23c-0.9-0.78-1.76-1.61-2.81-2.2
	c-0.29-0.16-0.67-0.37-0.47-0.85C23,30.11,23.44,29.28,23.88,28.44z"/>
<path class="st18" d="M14.64,25.87c-0.88,0.54-1.06,1.55-1.49,2.36c-0.48,0.92-1.18,1.63-1.75,2.45c-0.85-0.64-1.59-1.39-2.23-2.23
	c2.09-0.45,2.34-2.27,2.87-3.87C12.9,25,13.77,25.44,14.64,25.87z"/>
<path class="st19" d="M13.63,32.93c0.11-1.75,1.47-2.91,2.09-4.42c0.28-0.68,0.73-1.29,1.1-1.93c0.77,0.19,1.54,0.38,2.32,0.56
	c-0.38,0.04-0.73,0.15-0.93,0.51c-1.07,1.92-2.15,3.84-3.2,5.78c-0.12,0.21-0.07,0.51-0.1,0.77C14.39,33.88,13.98,33.44,13.63,32.93
	z"/>
<path class="st20" d="M22.57,30.95c0.78,0.54,1.59,1.05,2.35,1.62c0.47,0.35,0.91,0.76,0.93,1.42c-0.78,1.17-1.76,1.83-3.19,1.11
	c-1.73-0.87-1.9-1.55-0.81-3.14C22.07,31.61,22.33,31.28,22.57,30.95z"/>
<path class="st21" d="M15.56,20.44c-2.26-1.21-4.61-2.27-6.41-4.17c0.42-0.43,0.85-0.86,1.27-1.29c1.24,1.51,3.11,2.13,4.62,3.26
	c0.29,0.22,0.59,0.43,0.88,0.65C15.92,19.44,15.82,19.96,15.56,20.44z"/>
<path class="st22" d="M18.13,13.73c-0.82-1.44-2.52-1.66-3.66-2.65c2-2.27,2.89-2.36,4.69-0.66c0.7,0.66,0.78,1.1,0.09,1.78
	C18.8,12.63,18.5,13.21,18.13,13.73z"/>
<path class="st23" d="M30.03,29.85c-1.26-1.22-2.66-2.23-4.16-3.12c-0.41-0.24-0.87-0.41-1.06-0.91c0.13-0.62,0.25-1.24,0.38-1.85
	c1.53,1.09,3.08,2.16,4.59,3.28c0.53,0.4,1.26,0.59,1.53,1.3C30.88,28.98,30.45,29.42,30.03,29.85z"/>
<path class="st24" d="M20.64,11.97c0.22,1.2,0.42,2.39,0.39,3.63c-0.02,0.69-0.19,1.23-0.68,1.69c-0.89,0.07-1.78,0.13-2.88,0.22
	C18.26,15.43,19.19,13.56,20.64,11.97z"/>
<path class="st25" d="M70.8,35.42c0.29,0.81,0.09,1.81,1.35,1.69c0.62-0.06,0.87,0.54,0.79,1.14c-0.12,0.88-0.81,1.04-1.53,1.08
	c-0.5,0.03-1.15,0.19-1.09-0.69c0.03-0.53-0.03-0.94-0.74-0.92c-0.67,0.03-0.56,0.49-0.59,0.89c-0.02,0.31,0.01,0.73-0.44,0.68
	c-0.42-0.04-0.35-0.46-0.36-0.77c-0.01-0.59-0.02-1.17,0-1.76c0.02-0.4-0.18-1.03,0.34-1.1c0.64-0.09,0.41,0.59,0.47,0.95
	c0.07,0.45,0.36,0.46,0.69,0.46c0.36,0,0.61-0.11,0.63-0.53C70.32,36.2,70.23,35.81,70.8,35.42z"/>
<path class="st26" d="M46.31,37.63c0.28-0.3,0.38-0.43,0.49-0.52c0.55-0.44,0.48-1.62,1.59-1.38c0.21,0.05,0.21,3.23,0.01,3.43
	c-0.32,0.31-0.6,0.19-0.68-0.2c-0.09-0.46-0.07-0.94-0.1-1.42c-0.15,0.03-0.27,0.02-0.34,0.08c-0.63,0.48-0.62,1.64-1.69,1.62
	c-0.2,0-0.33-3.08-0.13-3.39c0.08-0.11,0.23-0.24,0.35-0.25c0.24-0.01,0.37,0.19,0.39,0.41C46.26,36.49,46.28,36.96,46.31,37.63z"/>
<path class="st27" d="M77.4,39.21c0.34-1.03,0.68-2.07,1.04-3.1c0.11-0.3,0.3-0.56,0.69-0.55c0.41,0.01,0.51,0.31,0.61,0.62
	c0.2,0.6,0.42,1.2,0.63,1.79c0.15,0.43,0.59,0.99,0.18,1.28c-0.56,0.41-0.51-0.45-0.82-0.65c-0.99-0.63-1.45,0.27-2.03,0.85
	C77.6,39.37,77.5,39.29,77.4,39.21z"/>
<path class="st0" d="M61.34,37.4c0.23-0.75-0.5-1.97,1.08-1.83c0.76,0.07,1.46,0.09,1.41,1.23c-0.05,1.17,0.68,2.61-1.49,2.54
	C60.6,39.29,61.74,37.98,61.34,37.4z"/>
<path class="st28" d="M93.91,37.01c0.78-0.2,0.45-1.36,1.54-1.45c-0.31,1.14-0.75,2.28,0.08,3.32c0.15,0.19,0.08,0.44-0.2,0.44
	c-0.18,0-0.45-0.1-0.53-0.24c-0.25-0.43-0.27-1.01-0.73-1.25c-0.4,0.06-0.36,0.3-0.39,0.49c-0.06,0.38,0.16,1.02-0.47,0.97
	c-0.55-0.05-0.35-0.67-0.38-1.06c-0.03-0.37-0.06-0.75,0.01-1.11c0.09-0.51-0.36-1.39,0.44-1.45
	C94.01,35.61,93.44,36.59,93.91,37.01z"/>
<path class="st29" d="M100.31,39.33c-0.43-1.08-0.46-2.33-0.1-3.32c0.37-0.99,1.59-0.41,2.42-0.34c0.45,0.04,0.58,3.36,0.15,3.58
	c-0.42,0.21-0.58-0.09-0.59-0.45c-0.02-0.59-0.02-1.17-0.02-1.76c0-0.46-0.04-0.83-0.67-0.85c-0.63-0.02-0.68,0.35-0.67,0.81
	c0.01,0.78,0,1.55,0,2.33C100.66,39.33,100.48,39.33,100.31,39.33z"/>
<path class="st30" d="M99.41,37.49c-0.09,1.17-0.61,1.91-1.89,1.87c-1.26-0.04-1.59-0.84-1.58-1.94c0.01-1.24,0.64-1.91,1.85-1.89
	C99,35.56,99.38,36.41,99.41,37.49z"/>
<path class="st31" d="M41.64,37.34c0,1.15-0.4,1.97-1.71,2.01c-1.23,0.04-1.69-0.65-1.72-1.79c-0.03-1.19,0.44-1.99,1.7-2.03
	C41.1,35.5,41.65,36.18,41.64,37.34z"/>
<path class="st32" d="M55.02,37.29c0.18-0.6-0.51-1.78,0.99-1.73c0.7,0.02,1.4,0.1,1.56,0.99c0.14,0.76-0.26,1.18-0.93,1.43
	c-0.27,0.1-0.64,0.01-0.75,0.43c-0.09,0.35,0.13,1.02-0.55,0.86c-0.52-0.12-0.25-0.72-0.3-1.1C55,37.91,55.02,37.64,55.02,37.29z"/>
<path class="st33" d="M49.5,35.82c2.21-0.59,2.49-0.48,3.64,1.45c0.57-0.45,0.26-1.57,1.4-1.74c-0.15,1.25-0.73,2.25-1.2,3.28
	c-0.21,0.46-0.78,0.81-1.19,0.46c-0.74-0.64,0.45-0.47,0.41-0.74c-0.12-1.01-0.3-2.02-1.45-2.43C50.63,35.74,49.96,36.33,49.5,35.82
	z"/>
<path class="st34" d="M64.33,39.2c0.35-1.02,0.68-2.06,1.05-3.07c0.1-0.29,0.26-0.58,0.68-0.56c0.42,0.01,0.52,0.34,0.63,0.62
	c0.23,0.59,0.45,1.19,0.62,1.8c0.12,0.42,0.63,0.95,0.2,1.26c-0.52,0.37-0.54-0.45-0.84-0.63c-0.93-0.58-1.5,0.08-1.96,0.98
	C64.58,39.45,64.46,39.33,64.33,39.2z"/>
<path class="st35" d="M107.65,37.28c-0.15,0.7-1.19,0.13-1.1,0.98c0.09,0.85,1.1,0.06,1.36,0.85c-0.73,0.37-1.72,0.57-2.03-0.09
	c-0.45-0.96-0.49-2.25,0.03-3.2c0.32-0.59,1.27-0.34,1.96-0.06c-0.22,0.82-1.3-0.01-1.31,0.87
	C106.55,37.4,107.38,36.85,107.65,37.28z"/>
<path class="st36" d="M60.9,35.52c-0.21,1.26-0.74,2.24-1.19,3.23c-0.24,0.53-0.83,0.92-1.29,0.47c-0.68-0.66,0.38-0.42,0.5-0.72
	c0.17-0.42-0.16-0.68-0.27-1.01c-0.21-0.62-0.76-1.12-0.7-1.93c1.07,0.09,0.85,1.17,1.48,1.59C60.13,36.92,59.73,35.72,60.9,35.52z"
	/>
<path class="st0" d="M75.72,39.21c-0.8,0.08-1.82,0.53-2.06-0.19c-0.34-1-0.45-2.28,0.09-3.25c0.27-0.49,1.22-0.21,1.9-0.07
	c-0.25,0.89-1.49-0.01-1.39,1.02c0.07,0.72,0.86,0.14,1.17,0.54c0.05,0.84-1.37,0.02-1.2,1.02C74.4,39.14,75.37,38.33,75.72,39.21z"
	/>
<path class="st37" d="M92.33,38.72c-0.81,0.9-1.66,0.87-2.31,0.07c-0.71-0.88-0.66-1.93,0.15-2.75c0.65-0.66,1.44-0.83,2.39,0.23
	c-1.23-0.11-2.24-0.14-2.11,1.33C90.56,38.86,91.39,38.78,92.33,38.72z"/>
<path class="st37" d="M45.11,36.51c-1.43-0.55-2.08-0.26-2.1,0.9c-0.03,1.26,0.69,1.55,1.87,1.29c-0.68,0.87-1.44,0.87-2.19,0.26
	c-0.75-0.61-0.73-2.15-0.04-2.9C43.34,35.32,44.02,35.36,45.11,36.51z"/>
<path class="st38" d="M49.5,35.82c0.54,0.11,1.15-0.18,1.62,0.29c-0.77-0.02-1.14,0.28-1.08,1.12c0.05,0.62-0.05,1.26-0.1,1.88
	c-0.01,0.07-0.15,0.12-0.5,0.4C49.24,38.16,49.13,37,49.5,35.82z"/>
<path class="st39" d="M104.62,35.43c0.5,1.21,0.39,2.28,0.19,3.31c-0.1,0.52-0.65,0.83-1.11,0.53c-0.79-0.52,0.13-0.49,0.3-0.72
	c0.31-0.41,0.15-0.91,0.19-1.37C104.24,36.65,104.04,36.06,104.62,35.43z"/>
<path class="st40" d="M85.15,37.47c-0.14,0.56,0.25,1.28-0.69,1.23c-0.38-0.02-0.88-0.02-0.58-0.56c0.35-0.62-0.14-1.77,0.74-1.88
	C85.65,36.13,84.72,37.2,85.15,37.47z"/>
<path class="st41" d="M88.73,23.23c0.18-1.9,0.18-3.57,1.03-5.06c0.55-0.98,1.28-1.71,2.52-1.61c1.18,0.1,1.78,0.9,2.1,1.91
	c0.82,2.62,0.79,5.24-0.24,7.8c-0.5,1.25-1.3,2.28-2.83,2.13c-1.48-0.15-1.93-1.39-2.23-2.59C88.84,24.9,88.82,23.93,88.73,23.23z"
	/>
<path class="st42" d="M44.29,20.35c-2.28,0.11-2.38-0.04-1.66-1.86c0.59-1.49,1.72-2.24,3.07-1.97c1.41,0.29,1.76,1.36,1.9,2.61
	c0.09,0.75-0.15,1.05-0.94,1.05C45.76,20.17,44.86,20.31,44.29,20.35z"/>
<path class="st43" d="M72.22,38.21c-0.12,0.33-0.34,0.49-0.7,0.5c-0.6,0.02-0.51-0.4-0.49-0.75c0.01-0.43,0.3-0.52,0.65-0.42
	C71.98,37.63,72.23,37.82,72.22,38.21z"/>
<path class="st44" d="M63.29,38.21c-0.05,0.4-0.31,0.5-0.67,0.5c-0.39-0.01-0.57-0.2-0.53-0.59c0.04-0.33,0.27-0.42,0.55-0.42
	C62.98,37.71,63.27,37.8,63.29,38.21z"/>
<path class="st45" d="M62.51,37.1c-0.34-0.02-0.44-0.23-0.42-0.54c0.02-0.36,0.28-0.42,0.56-0.39c0.32,0.03,0.48,0.24,0.44,0.53
	C63.05,37.02,62.81,37.13,62.51,37.1z"/>
<path class="st46" d="M98.61,37.41c-0.04,0.63-0.05,1.3-0.95,1.31c-0.88,0.01-0.99-0.61-0.99-1.28c0.01-0.69,0.22-1.28,1.05-1.26
	C98.5,36.18,98.58,36.79,98.61,37.41z"/>
<path class="st46" d="M40.88,37.44c0.01,0.71-0.15,1.32-1.04,1.27c-0.79-0.04-0.89-0.63-0.89-1.26c0.01-0.71,0.2-1.31,1.06-1.28
	C40.81,36.2,40.89,36.81,40.88,37.44z"/>
<path class="st40" d="M56.82,36.82c-0.09,0.33-0.24,0.6-0.64,0.54c-0.36-0.05-0.31-0.36-0.32-0.61c0-0.26,0.02-0.56,0.38-0.54
	C56.62,36.23,56.79,36.47,56.82,36.82z"/>
<path class="st47" d="M65.97,36.6c0.16,0.41,0.7,0.75,0.35,1.24c-0.07,0.1-0.46,0.13-0.56,0.04C65.25,37.41,65.81,37.05,65.97,36.6z
	"/>
</svg>
