<?xml version="1.0" encoding="utf-8"?>
<!-- Generator: Adobe Illustrator 23.0.1, SVG Export Plug-In . SVG Version: 6.00 Build 0)  -->
<svg version="1.1" id="Layer_1" xmlns="http://www.w3.org/2000/svg" xmlns:xlink="http://www.w3.org/1999/xlink" x="0px" y="0px"
	 viewBox="0 0 160 45" style="enable-background:new 0 0 160 45;" xml:space="preserve">
<g>
	<g>
		<path d="M76.28,30.85c0-4.56-0.04-9.11,0.04-13.67c0.01-0.75-0.7-2.1,0.85-2.16c1.19-0.05,2.58-0.61,3.41,1.08
			c1.18,2.42,2.59,4.73,3.92,7.08c0.17,0.3,0.22,0.78,1.01,0.66c0-2.23,0.03-4.51-0.01-6.79c-0.02-1.25-0.07-2.17,1.74-2.16
			c1.69,0.01,1.88,0.74,1.86,2.09c-0.05,3.78-0.03,7.57-0.01,11.35c0.01,0.84,0.14,1.67,0.22,2.51c-1.39,0-2.79,0-4.18,0
			c-1.14-3.24-3.14-6-5.11-8.89c0,2.96,0,5.92,0,8.89C78.76,30.85,77.52,30.85,76.28,30.85z"/>
		<path d="M43.27,30.85c0-4.71,0.06-9.43-0.04-14.14c-0.03-1.49,0.51-1.79,1.86-1.79c1.41,0,1.98,0.43,1.83,1.86
			c-0.09,0.84,0.09,1.71-0.04,2.54c-0.27,1.88,0.53,2.35,2.31,2.26c3.85-0.18,3.12,0.47,3.35-3.35c0.07-1.17-1.3-3.35,1.66-3.31
			c1.39,0.02,1.91,0.36,1.88,1.82c-0.09,3.94-0.04,7.88-0.02,11.82c0,0.76,0.14,1.52,0.22,2.28c-1.24,0-2.48,0-3.72,0
			c-0.03-1.22-0.19-2.46-0.05-3.66c0.27-2.17-0.44-2.82-2.71-2.87c-2.5-0.05-3.23,0.79-2.92,3.09c0.15,1.13,0.07,2.29,0.1,3.43
			C45.75,30.85,44.51,30.85,43.27,30.85z"/>
		<path d="M66.05,30.85c-3.67-2.74-5.06-7.54-3.47-11.93c1-2.75,3.6-4.42,6.53-4.21c3.06,0.23,5.35,2.05,5.85,5.03
			c0.97,5.82,0.07,9.08-3.79,11.11C69.46,30.85,67.76,30.85,66.05,30.85z M71.6,23.04c-0.03,0-0.07,0-0.1,0
			c0-0.85,0.13-1.73-0.03-2.55c-0.29-1.56-1.02-2.78-2.89-2.72c-1.76,0.06-2.4,1.23-2.62,2.72c-0.25,1.69-0.27,3.4,0.04,5.09
			c0.28,1.53,1.12,2.57,2.81,2.53c1.61-0.03,2.29-1.17,2.6-2.53C71.6,24.76,71.54,23.89,71.6,23.04z"/>
		<path d="M33.51,30.85c-0.78-0.94-2.13-1.27-2.68-2.43c-0.41-0.86-1.21-2.1-0.09-2.59c0.86-0.37,2.48-0.92,3.17,0.76
			c0.09,0.21,0.14,0.45,0.28,0.63c0.84,1.1,2.02,1,3.18,0.82c0.77-0.12,1.24-0.64,1.23-1.45c-0.01-1.27-1.04-1.59-1.95-2
			c-1.4-0.63-2.9-1.11-4.2-1.9c-1.96-1.2-2.43-3.88-1.18-5.7c2.11-3.09,8.35-3.01,10.32,0.17c0.43,0.7,1.12,1.86,0.41,2.25
			c-0.94,0.52-2.41,0.81-3.34-0.27c-0.51-0.59-0.86-1.29-1.71-1.41c-1.04-0.15-2.11-0.12-2.53,1.05c-0.43,1.18,0.49,1.64,1.39,2.01
			c0.79,0.32,1.6,0.58,2.38,0.9c1.98,0.82,3.79,1.81,4.13,4.24c0.33,2.36-1.09,3.7-2.76,4.91C37.54,30.85,35.52,30.85,33.51,30.85z"
			/>
		<path d="M16.31,30.85c1.48-4.71,3.04-9.4,4.39-14.15c0.45-1.57,1.29-1.75,2.67-1.78c1.44-0.04,1.98,0.49,2.38,1.83
			c1.42,4.72,2.99,9.4,4.5,14.1c-1.24,0-2.48,0-3.72,0c-0.76-1.1-0.18-3.02-2.59-3.11c-2.5-0.1-3.69,0.71-3.91,3.11
			C18.79,30.85,17.55,30.85,16.31,30.85z M23.4,20.11c-0.98,1.56-1.55,3-1.33,4.34c0.12,0.74,1.57,0.29,2.61,0.24
			C24.27,23.23,23.89,21.87,23.4,20.11z"/>
		<path d="M6.08,15.04c3.1-0.03,6.2-0.02,9.29-0.09c1.16-0.03,1.66,0.29,1.67,1.55c0.01,1.41-0.77,1.45-1.79,1.42
			c-1.08-0.03-2.18,0.07-3.25-0.03c-1.55-0.14-2.15,0.3-2.18,2.01c-0.04,1.95,1.11,1.65,2.25,1.65c0.85,0,1.71,0.05,2.56-0.01
			c1.03-0.07,1.31,0.39,1.32,1.36c0.01,1.04-0.24,1.51-1.41,1.55c-1.51,0.05-3.55-0.78-4.38,0.47c-0.73,1.09-0.23,2.99-0.28,4.54
			c-0.01,0.46-0.05,0.93-0.08,1.39c-3.72,0-3.72,0-3.72-3.63C6.08,23.16,6.08,19.1,6.08,15.04z"/>
		<path d="M105.57,30.85c-0.03-4.79-0.03-9.57-0.09-14.36c-0.01-1.02,0.2-1.61,1.39-1.54c1.62,0.09,3.25,0,4.86,0.12
			c1.63,0.12,2.99,0.78,3.64,2.42c0.68,1.73,0.55,3.4-0.84,4.7c-0.76,0.72-0.79,1.03,0.05,1.66c0.91,0.69,1.17,1.79,1.13,2.91
			c-0.05,1.4,0.11,2.76,0.55,4.08c-0.46,0-0.93,0-1.39,0c-0.57-1.23-0.52-2.55-0.55-3.86c-0.04-2.05-1.09-3.08-3.15-3.2
			c-4.43-0.25-4.44-0.28-4.42,4.08c0.01,0.99-0.19,2.01,0.22,2.98C106.5,30.85,106.04,30.85,105.57,30.85z M106.74,19.43
			c0,3.05,0,3.05,2.63,3.06c3.48,0,4.95-0.9,5-3.07c0.05-2.24-1.39-3.19-4.87-3.2C106.74,16.2,106.74,16.2,106.74,19.43z"/>
		<path d="M57.22,30.85c0-4.72,0.06-9.44-0.04-14.16c-0.03-1.54,0.58-1.76,1.9-1.76c1.32,0,1.93,0.22,1.9,1.76
			c-0.1,4.72-0.04,9.44-0.04,14.16C59.7,30.85,58.46,30.85,57.22,30.85z"/>
		<path d="M120.91,30.85c-3.28-2.82-4.52-8.51-2.77-12.59c0.99-2.3,2.77-3.52,5.21-3.55c2.42-0.03,4.45,1.03,5.31,3.36
			c1.18,3.19,1.06,6.49,0.04,9.72c-0.44,1.38-1.74,2.07-2.67,3.05C124.32,30.85,122.62,30.85,120.91,30.85z M118.94,22.87
			c0.04,0,0.08,0,0.12,0c0,1.01-0.12,2.03,0.02,3.01c0.35,2.38,1.99,3.88,4.15,3.98c2.28,0.1,4.13-1.34,4.6-3.75
			c0.42-2.14,0.43-4.32-0.03-6.46c-0.49-2.29-2.29-3.7-4.45-3.67c-2.13,0.03-3.87,1.57-4.26,3.88
			C118.93,20.84,118.98,21.87,118.94,22.87z"/>
		<path d="M94.88,30.85c-3.61-2.81-4.95-8.74-2.92-12.9c1.06-2.17,2.86-3.26,5.2-3.24c2.1,0.02,3.96,0.75,4.91,2.86
			c0.25,0.55,0.69,1.29,0.07,1.67c-0.77,0.48-0.98-0.36-1.23-0.91c-0.8-1.77-2.23-2.5-4.12-2.35c-2.01,0.16-3.26,1.36-3.82,3.21
			c-0.69,2.26-0.68,4.6-0.11,6.87c0.83,3.32,3.94,4.68,7.09,3.33c2.03-0.87,1.33-2.58,1.3-4c-0.02-1.51-1.35-0.81-2.15-0.96
			c-0.62-0.12-1.35,0.17-2.06-0.65c1.77-0.78,3.42-0.38,5.02-0.37c0.46,0,0.62,0.41,0.62,0.82c0.01,2.45,0.71,5.15-2.23,6.61
			C98.6,30.85,96.74,30.85,94.88,30.85z"/>
		<path d="M133.93,30.85c-2.22-1.44-3.03-3.48-2.9-6.1c0.14-2.7,0.01-5.41,0.05-8.11c0.01-0.58-0.37-1.6,0.73-1.55
			c0.88,0.03,0.62,0.92,0.63,1.49c0.03,2.86,0,5.72,0.02,8.57c0.02,3.16,1.43,4.75,4.11,4.72c2.65-0.03,4.05-1.65,4.09-4.79
			c0.03-2.94,0-5.87,0.02-8.81c0-0.5-0.14-1.2,0.67-1.21c0.82-0.01,0.69,0.69,0.69,1.19c0,3.32-0.03,6.64-0.04,9.96
			c-0.01,2.17-1.3,3.53-2.96,4.64C137.34,30.85,135.63,30.85,133.93,30.85z"/>
		<path d="M154.85,20.62c-1.16,3.3-3.77,4-6.83,3.7c-1.9-0.19-2.64,0.43-2.42,2.38c0.15,1.37-0.02,2.76-0.04,4.15
			c-0.46,0-0.93,0-1.39,0c0.52-4.52,0.17-9.05,0.19-13.57c0.01-1.73,0.37-2.61,2.27-2.33c0.83,0.12,1.69,0.07,2.53,0.01
			c2.68-0.2,4.49,1.04,5.7,3.34C154.85,19.07,154.85,19.85,154.85,20.62z M148.02,23.02c0.66,0,0.97,0.01,1.28,0
			c2.59-0.05,4.05-1.26,4.06-3.37c0.01-2.11-1.43-3.35-4.02-3.44c-3.71-0.14-3.63-0.14-3.74,3.87
			C145.53,22.16,145.7,23.69,148.02,23.02z"/>
	</g>
</g>
</svg>
