<?xml version="1.0" encoding="utf-8"?>
<!-- Generator: Adobe Illustrator 19.0.0, SVG Export Plug-In . SVG Version: 6.00 Build 0)  -->
<svg version="1.1" id="Layer_1" xmlns="http://www.w3.org/2000/svg" xmlns:xlink="http://www.w3.org/1999/xlink" x="0px" y="0px"
	 viewBox="0 0 160 46" style="enable-background:new 0 0 160 46;" xml:space="preserve">
<style type="text/css">
	.st0{fill:#FC0000;}
	.st1{fill:#020000;}
	.st2{fill:#221E1F;}
	.st3{fill:#161314;}
</style>
<g>
	<path class="st0" d="M68.6,310.4c0.5,0.1,0.4-0.3,0.5-0.6c0.5-2,1-4.1,1.4-6.1c0.2-0.7,0.4-1,1.2-1c16.1,0,32.3,0,48.4,0
		c0.9,0,1,0.2,0.8,1.1c-0.6,2.4-1.1,4.8-1.6,7.2c-0.2,0.8-0.5,1.1-1.4,1.1c-5.4,0-10.8,0-16.1,0c-0.9,0-1.3,0.2-1.5,1.1
		c-3.5,14.7-7,29.3-10.6,43.9c-0.2,0.8-0.5,1.1-1.4,1.1c-3.7-0.1-7.4,0-11.1,0c-0.8,0-1-0.1-0.8-1c3.6-14.7,7.1-29.4,10.7-44
		c0.3-1.1-0.1-1.1-1-1.1c-5.4,0-10.8,0-16.1,0c-0.4,0-0.9-0.1-1.3-0.1C68.6,311.5,68.6,311,68.6,310.4z"/>
	<path class="st0" d="M279.9,389.9c0.2-0.6-0.3-0.4-0.6-0.4c-8.4-1.2-15.9-4.3-22.7-9.5c-10.4-7.9-16.8-18.3-18.9-31.2
		c-4.3-26.5,13-50.7,38-56.1c1.4-0.3,2.8-0.5,4.2-0.8c0,0,0-0.1,0.1-0.1c0.1-0.2-0.1-0.1-0.1-0.2c4.3,0,8.5,0,12.8,0
		c-0.2,0.6,0.3,0.4,0.5,0.4c8.7,1.2,16.5,4.5,23.4,9.9c10.1,8,16.3,18.4,18.3,31.1c4.1,25.6-12.6,50.1-38.1,55.7
		c-1.4,0.3-2.8,0.5-4.2,0.8c0,0,0,0.1-0.1,0.1c-0.1,0.2,0.1,0.1,0.1,0.2C288.5,389.9,284.2,389.9,279.9,389.9z M286.4,295.1
		c-24.3-0.2-45.5,19.4-45.7,45.2c-0.2,26.2,21.1,46,45.5,46c24.7,0,45.2-19.7,45.7-44.6C332.5,315.5,311.3,295,286.4,295.1z"/>
	<path class="st0" d="M514,321c-0.4-0.2-0.4,0.2-0.4,0.4c-0.4,1.6-0.8,3.3-1.1,4.9c-0.2,0.9-0.5,1.1-1.4,1.1c-1.9-0.1-3.7,0-5.6,0
		c-0.6,0-0.9,0.2-1.1,0.8c-1.6,6.8-3.2,13.5-4.8,20.3c-0.5,2,0.4,3.2,2.5,3.4c1.6,0.1,3.2,0,4.8-0.1c0.7-0.1,0.8,0.1,0.6,0.8
		c-0.6,2.2-1.1,4.4-1.6,6.6c-0.1,0.4-0.2,0.7-0.7,0.8c-4.2,0.6-8.5,0.8-12.7-0.3c-4-1.1-6.8-4.4-6-9.1c0.4-2.3,0.9-4.6,1.5-6.9
		c1.2-5.1,2.5-10.3,3.8-15.4c0.2-0.9,0-1-0.8-0.9c-1.5,0-2.9,0-4.4,0c-0.6,0-0.8-0.1-0.7-0.8c0.6-2.2,1-4.3,1.5-6.5
		c0.1-0.6,0.4-0.9,1-0.8c1.4,0.1,2.8-0.1,4.1,0c1,0.1,1.3-0.3,1.5-1.2c0.3-1.5,0.7-2.9,1-4.3c0.1-0.5,0.3-0.8,0.8-1
		c4.4-2.3,8.7-4.6,13.1-6.9c0.1-0.1,0.3-0.1,0.6-0.2c-0.6,2.7-1.2,5.3-1.8,7.9c-0.4,1.6-0.7,3.3-1.2,4.9c-0.2,0.7-0.1,0.9,0.7,0.9
		c2.2,0,4.4,0,6.6,0C514,319.8,514,320.4,514,321z"/>
	<path class="st0" d="M418.5,340.9c-2.3,1.8-4.4,3.5-6.7,5.2c-1.2,0.9-1.9,2-2.2,3.4c-0.6,3.1-1.5,6.1-2.2,9.1
		c-0.2,0.7-0.5,0.9-1.1,0.9c-3.6,0-7.1,0-10.7,0c-1,0-1-0.4-0.8-1.1c1.8-7.5,3.7-15,5.5-22.6c1.1-4.3,2.1-8.7,3.2-13
		c0.1-0.3,0.2-0.6,0-1.1c-0.8,1.5-1.6,2.9-2.3,4.3c-0.3,0.6-0.7,1.2-1,1.9c-0.2,0.4-0.4,0.5-0.9,0.4c-6.2-1.1-11.7,1.6-14.7,7.2
		c-1.9,3.6-2.9,7.5-3.8,11.4c-0.9,3.9-1.9,7.7-2.7,11.6c-0.2,0.8-0.5,1.1-1.4,1.1c-3.5-0.1-7,0-10.4,0c-0.9,0-1-0.3-0.8-1
		c3.1-12.8,6.2-25.5,9.3-38.3c0.2-0.7,0.4-1,1.2-1c3.3,0,6.6,0,9.9,0c1,0,1,0.3,0.8,1.1c-0.4,1.6-0.8,3.3-1.2,4.9
		c-0.1,0.3-0.2,0.6,0,0.9c1.1-1.3,2.2-2.5,3.4-3.6c3.2-2.9,6.9-4.6,11.3-4.3c1.1,0.1,2.2,0.2,3.2,0.6c1.1,0.5,1.4,0,1.6-0.9
		c1-4.4,2.1-8.8,3.1-13.1c0.2-0.7,0.4-0.9,1.1-0.9c3.5,0,7,0.1,10.5,0c1.1,0,1.1,0.4,0.9,1.2c-2.1,8.7-4.2,17.4-6.3,26.2
		c-0.1,0.4-0.3,0.7-0.1,1.2c2.2-1.9,4.4-3.7,6.7-5.5c2.8-2.4,5.7-4.7,8.5-7.1c0.4-0.3,0.8-0.6,1.4-0.6c5,0,9.9,0,14.9,0
		c0.1,0,0.3,0,0.7,0.1c-1.6,1.2-2.9,2.3-4.3,3.4c-4.5,3.5-9,7-13.5,10.5c-0.7,0.5-0.6,0.9-0.4,1.6c3.1,7.9,6.1,15.8,9.2,23.6
		c0.4,1,0.1,1.1-0.8,1.1c-3.4,0-6.9,0-10.3,0c-0.8,0-1.2-0.2-1.4-1c-1.9-5.5-3.8-11.1-5.7-16.6C418.7,341.6,418.6,341.3,418.5,340.9
		z M403.8,321.5c0,0-0.1-0.1-0.1-0.1c0,0-0.1,0.1-0.1,0.1c0,0.1,0,0.1,0.1,0.2C403.7,321.6,403.7,321.5,403.8,321.5z"/>
	<path class="st0" d="M468.2,342.7c-4.9,0-9.8,0-14.7,0c-0.8,0-1.1,0.2-1.1,1c0,5,3.8,8.8,8.7,8.9c4.1,0.1,7.3-1.5,9.7-4.8
		c0.4-0.5,0.7-0.7,1.4-0.6c3.2,0.5,6.5,0.9,9.7,1.4c0.9,0.1,0.4,0.6,0.2,0.9c-2.8,4.7-6.9,8-12.2,9.6c-6.2,1.9-12.4,1.9-18.4-0.5
		c-7.1-2.9-11.1-9-11.2-16.7c-0.2-10.7,7.6-21.4,20-23.3c4.5-0.7,9.1-0.8,13.5,0.7c6.6,2.2,10.7,7.7,10.9,14.6
		c0.1,2.6,0,5.1-0.6,7.7c-0.2,0.8-0.5,1.1-1.3,1.1C478,342.7,473.1,342.7,468.2,342.7z M463.6,336.1c2.9,0,5.8,0,8.6,0
		c0,0,0.1,0,0.1,0c0.9,0.1,1.1-0.2,1-1.1c-0.1-1.5-0.2-3-0.8-4.4c-1.7-3.9-5.4-5.2-9.7-4.4c-4.9,0.9-7.6,4.2-8.9,8.9
		c-0.2,0.8-0.1,1,0.7,0.9C457.7,336,460.6,336.1,463.6,336.1z"/>
	<path class="st0" d="M349,355.1c-2.4,2.2-5,3.7-8,4.6c-2.1,0.6-4.2,0.9-6.4,0.8c-0.7,0-0.8-0.2-0.6-0.8c1-2.4,1.7-4.8,2.3-7.3
		c0.1-0.5,0.3-0.7,0.9-0.5c5.2,1.7,11-1.2,12.9-6.2c0.6-1.5,1-3.1,1.3-4.8c-4.4,0.7-8.7,0.9-12.9,2.3c-0.7,0.2-0.9,0.2-0.9-0.6
		c0-2.1,0.2-4.1-0.2-6.2c-0.1-0.6,0.2-0.7,0.7-0.7c3.2-0.3,6.3-0.6,9.5-0.9c1.6-0.2,3.2-0.5,4.7-0.7c0.5-0.1,0.9-0.3,1-1
		c0.1-0.8,0.4-1.7,0.5-2.5c0.2-1.4-0.6-3-2.2-3.6c-3.4-1.3-6.7-1.3-9.9,0.6c-0.9,0.5-1.5,1.3-1.9,2.3c-0.2,0.6-0.5,0.7-1.2,0.7
		c-2.1-0.2-2.2-0.2-2.7-2.3c-0.5-2-1-3.9-1.8-5.7c-0.3-0.7-0.1-1,0.5-1.3c2.5-1.4,5.3-2.2,8.2-2.6c4.7-0.6,9.5-0.6,14.1,0.6
		c2.6,0.7,4.9,1.9,6.8,4c2,2.2,2.6,4.9,2.2,7.8c-0.7,5-2.2,9.7-3.3,14.6c-0.7,3.2-1.6,6.4-1.3,9.8c0.1,1.2,0.4,2.3,0.7,3.4
		c0.2,0.5,0.2,0.8-0.5,0.8c-3.7,0-7.3,0-11,0c-0.6,0-0.8-0.4-0.9-0.8C349.5,357.5,349.3,356.4,349,355.1z"/>
	<path class="st0" d="M163.9,322.3c1-0.6,1.9-1.2,2.8-1.7c4.2-2.5,8.8-3.8,13.8-3.6c3.2,0.1,6.1,0.9,8.5,3.1
		c2.6,2.4,3.5,5.4,2.9,8.8c-1.3,7.4-3.4,14.6-5.2,21.8c-0.5,2.2-1.1,4.5-1.6,6.7c-0.1,0.6-0.4,0.9-1,0.9c-3.6,0-7.3,0-10.9,0
		c-0.8,0-0.9-0.3-0.7-1c2-8,4-16,6-23.9c0.3-1.1,0.5-2.2,0.7-3.4c0.5-2.8-1.6-5-4.8-5.2c-4.5-0.2-7.7,2.2-10.5,5.3
		c-2.3,2.5-3.1,5.6-3.9,8.8c-1.5,6.1-3,12.2-4.5,18.3c-0.2,0.8-0.5,1.1-1.3,1.1c-3.5,0-7,0-10.5,0c-0.8,0-1-0.1-0.8-1
		c4-16.3,7.9-32.6,11.8-48.9c0.4-1.6,0.8-3.2,1.1-4.8c0.1-0.6,0.3-0.8,0.9-0.8c3.7,0,7.3,0,11,0c0.9,0,0.8,0.4,0.6,1
		c-1.4,5.9-2.9,11.9-4.3,17.8C164,321.7,164,321.9,163.9,322.3z"/>
	<path class="st0" d="M128,341.5c-4.9,0-9.7,0-14.6,0c-1.1,0-1.3,0.4-1.3,1.4c0.3,5.2,4.2,8.6,9.4,8.5c3.8-0.1,6.8-1.7,8.9-4.8
		c0.4-0.6,0.9-0.8,1.6-0.7c3,0.5,6,0.9,9.1,1.3c1.2,0.2,1.2,0.2,0.5,1.3c-3.8,6.1-9.4,9.4-16.5,10.4c-4.8,0.7-9.5,0.3-14.1-1.6
		c-7.5-3.2-11.6-10.3-11.1-18.3c0.5-9.3,7.6-19.9,20.6-21.7c4.9-0.6,9.7-0.7,14.3,1.3c5.8,2.5,8.8,7.1,9.4,13.3
		c0.3,2.8,0,5.6-0.5,8.4c-0.2,0.9-0.5,1.2-1.5,1.2C137.7,341.5,132.9,341.5,128,341.5z M123.3,334.9c2.4,0,4.8,0,7.2,0
		c2.7,0,2.7,0,2.6-2.7c-0.2-3.5-2.3-6.2-5.7-7c-1.8-0.5-3.7-0.5-5.5,0.1c-4.3,1.3-6.8,4.3-8,8.6c-0.2,0.8-0.2,1.2,0.8,1.2
		C117.5,334.8,120.4,334.9,123.3,334.9z"/>
	<path class="st0" d="M212.3,322.9c3.4-2.4,6.9-4.5,11-5.4c3.6-0.8,7.2-0.9,10.7,0.3c0.7,0.2,1.3,0.5,1.9,0.9
		c2.8,1.6,2.9,1.8,1.8,4.7c-3,8.4-3.7,17-2.3,25.8c0.1,0.7,0.1,1.3-0.1,2c-0.5,2-1,4-1.5,6.1c-0.2,0.7-0.4,1-1.2,0.9
		c-3.6-0.1-7.1,0-10.7,0c-0.9,0-1-0.2-0.8-1c2-8.1,4-16.2,6-24.3c0.2-0.8,0.4-1.5,0.5-2.3c0.7-3.4-1.1-5.7-4.6-5.8
		c-3.5-0.1-6.3,1.5-8.9,3.6c-2.7,2.2-4.1,5.3-5,8.5c-1.9,6.5-3.3,13.2-4.9,19.8c-0.3,1.1-0.6,1.5-1.8,1.5c-3.4-0.1-6.8-0.1-10.2,0
		c-0.8,0-0.9-0.3-0.8-1c3.1-12.8,6.2-25.7,9.3-38.5c0.1-0.6,0.4-0.8,1-0.8c3.5,0,7,0,10.4,0c0.7,0,0.8,0.2,0.7,0.9
		c-0.3,1.3-0.7,2.6-0.8,3.9c0,0-0.1,0.1-0.1,0.1C212.1,322.9,212.2,322.9,212.3,322.9z"/>
	<path d="M403.8,321.5c0,0-0.1,0.1-0.1,0.1c0-0.1,0-0.1-0.1-0.2c0,0,0-0.1,0.1-0.1C403.7,321.4,403.7,321.4,403.8,321.5z"/>
	<path d="M212.3,322.9c-0.1,0-0.2,0-0.2,0c0,0,0.1-0.1,0.1-0.1C212.2,322.8,212.3,322.8,212.3,322.9z"/>
	<path class="st0" d="M291.9,337.2c6-7,12-13.9,18-20.9c0.3-0.4,0.7-0.6,1.2-0.6c2.2,0,4.4,0,6.6,0c0.9,0,0.9,0.4,0.7,1
		c-3,12.9-6,25.9-9,38.8c-0.2,0.9-0.2,2.2-0.8,2.7c-0.7,0.6-1.9,0.2-2.9,0.2c-1.7,0-3.4-0.1-5.2,0c-1,0-1-0.3-0.8-1.1
		c1.3-5.8,2.6-11.7,3.9-17.5c0.3-1.6,0.7-3.1,0.8-4.8c-1.4,1.6-2.8,3.3-4.2,4.9c-4.8,5.7-9.6,11.5-14.4,17.2c-0.5,0.6-1,0.8-1.7,0.8
		c-1.9-0.1-3.8,0-5.7,0c-0.8,0-1.1-0.1-0.9-1c1.6-7.1,3-14.1,4.5-21.2c0-0.2,0-0.4,0-0.7c-0.5,0.1-0.7,0.6-1,0.9
		c-5.7,6.9-11.5,13.9-17.2,20.9c-0.7,0.9-1.5,1.4-2.7,1.3c-3.1-0.1-6.2,0-9.3,0c-0.1-0.5,0.2-0.6,0.4-0.9
		c11.3-13.4,22.7-26.8,34-40.3c0.8-0.9,1.6-1.4,2.8-1.3c1.8,0.1,3.6,0.1,5.4,0c0.9,0,1.1,0.2,0.9,1.1c-0.9,4.4-1.7,8.8-2.6,13.3
		c-0.4,2-0.8,4.1-1.2,6.1C291.8,336.5,291.6,336.9,291.9,337.2c0,0-0.1-0.1-0.1-0.1c0,0,0,0.1-0.1,0.1
		C291.8,337.2,291.8,337.2,291.9,337.2z M282.3,334.8L282.3,334.8L282.3,334.8L282.3,334.8z"/>
	<path class="st0" d="M317.5,327.4c6.4,14.4,1.8,34.2-15.2,43.2c-16.2,8.6-35.1,2.4-43.9-11.1c1.4,0,2.7,0,4.1,0
		c0.3,0,0.5,0.3,0.6,0.6c5.4,6.3,12.2,10,20.5,10.8c16.5,1.5,29.7-9.8,32.6-24c0.9-4.1,0.9-8.2,0-12.3c-0.1-0.3-0.1-0.7-0.1-1
		C316.5,331.6,317,329.6,317.5,327.4z"/>
	<path class="st0" d="M254.6,352.5c-0.9-2.3-1.5-4.5-1.8-6.7c-1.2-8.8,0.5-17,5.6-24.3c5.7-8.2,13.6-13.1,23.4-14.4
		c9.7-1.3,18.5,1.3,26.1,7.5c0.7,0.5,0.7,0.8,0.1,1.5c-1.6,1.8-1.5,1.8-3.5,0.4c-6.2-4.7-13.3-6.7-21-6
		c-14.5,1.3-24.8,12.2-27.1,24.4c-0.9,4.6-0.8,9.1,0.5,13.6c0.2,0.6,0.1,1.1-0.4,1.6C256,350.8,255.4,351.6,254.6,352.5z"/>
	<path class="st0" d="M282.3,305.7c1-1.3,2-2.1,3.1-3c2.3-1.9,4.8-3.4,7.5-4.6c0.7-0.3,1.4-0.4,2.2-0.3c3.5,0.7,6.8,1.8,10,3.3
		c0.2,0.1,0.3,0.2,0.7,0.4c-1.7,0.3-3.2,0.6-4.6,1c-2.6,0.7-5,1.7-7.3,3.1c-0.5,0.3-1,0.5-1.7,0.4
		C289,305.4,285.7,305.3,282.3,305.7z"/>
	<path class="st0" d="M309.2,377.9c1-2.7,1.8-5.4,2.2-8.2c0.1-0.8,0.4-1.6,0.3-2.4c-0.2-1.5,0.5-2.6,1.5-3.6c1.9-2,3.3-4.3,4.7-6.8
		c0.4,0.6,0.4,1.2,0.6,1.8c0.1,0.6,0.2,1.2,0.3,1.8c0.5,3,0.5,6,0.2,9c0,0.4-0.1,0.7-0.4,1C315.8,373.4,312.8,375.9,309.2,377.9z"/>
	<path class="st0" d="M263.3,313.9c1-5,2.9-9.3,5.7-13.2c0.1-0.1,0.3-0.3,0.4-0.4c3.6-1.5,7.4-2.5,11.3-3c0.1,0.5-0.3,0.5-0.5,0.7
		c-3.3,2.7-6,5.9-8,9.7c-0.3,0.6-0.7,0.9-1.2,1.2C268.3,310.2,265.8,311.9,263.3,313.9z"/>
	<path class="st0" d="M321.6,314.6c-4.2-1.4-8.5-2-12.8-1.7c-0.3,0-0.6,0-0.9-0.2c-2.4-1.8-5-3.3-8-4.6c1.2-0.4,2.2-0.7,3.1-1
		c1-0.3,2-0.5,2.9-0.6c2.1-0.3,4.2-0.6,6.4-0.5c0.4,0,0.7,0,1.1,0.2C316.6,308.6,319.4,311.4,321.6,314.6z"/>
	<path class="st0" d="M259.9,305.9c-1.5,4.3-2.2,8.6-2,13.1c0,0.3,0,0.6-0.2,0.8c-1.8,2.4-3.2,5-4.5,7.9c-0.7-1.4-1-2.7-1.3-4.1
		c-0.6-2.6-0.8-5.3-0.7-8c0-1,0.3-1.9,1-2.7C254.6,310.4,257,307.9,259.9,305.9z"/>
	<path class="st0" d="M326.3,358.9c-0.8-4.5-2.2-8.6-4.6-12.5c-0.3-0.5-0.1-1,0-1.5c0.3-2.7,0.3-5.3,0.1-8.2
		c1.4,1.2,2.5,2.4,3.5,3.7c1.6,2,2.8,4.1,3.9,6.4c0.4,0.9,0.6,1.8,0.3,2.8C328.8,352.8,327.8,355.9,326.3,358.9z"/>
	<path class="st0" d="M288.2,375.9c-1.6,1.8-3.2,3.3-5.1,4.5c-6.2,3.9-4.5,3.6-11.2,1.6c-1.7-0.5-3.4-1.2-5.2-2.2
		c1.1-0.3,1.9-0.5,2.8-0.7c2.7-0.6,5.2-1.6,7.5-3c1.2-0.7,2.2-1,3.6-0.7C283,375.9,285.5,376,288.2,375.9z"/>
	<path class="st0" d="M251.5,367.2c2.5,0.6,4.9,1.3,7.4,1.5c1.7,0.2,3.4,0.1,5.1,0.1c0.3,0,0.7-0.1,1,0.1c2.2,1.6,4.5,3,7.2,4.2
		c-2.3,1-4.6,1.6-6.9,1.9c-1.7,0.3-3.3,0.5-5,0.5c-0.4,0-0.7,0-1.1-0.2C256.3,372.9,253.6,370.4,251.5,367.2L251.5,367.2z"/>
	<path class="st0" d="M290,384.1c1.6-1.5,3.2-2.9,4.5-4.6c1.2-1.5,2.3-3.1,3.3-4.8c0.3-0.6,0.7-0.9,1.3-1.1c2.6-0.9,4.9-2.2,7.4-3.8
		c-1,4.5-2.8,8.3-5.3,11.8c-0.2,0.3-0.4,0.4-0.7,0.5c-3.3,1.1-6.6,1.8-10,2.1C290.3,384.2,290.2,384.2,290,384.1z"/>
	<path class="st0" d="M251.3,346.6c-3.7-3-6.5-6.3-8.6-10.2c-0.4-0.7-0.1-1.2,0-1.9c0.4-3.2,1.2-6.3,2.5-9.5
		c0.2,0.9,0.4,1.5,0.6,2.1c0.9,3.4,2.4,6.6,4.4,9.5c0.5,0.7,0.7,1.4,0.6,2.4c-0.2,2.1,0,4.3,0.3,6.4
		C251.1,345.7,251.2,346,251.3,346.6z"/>
	<path class="st0" d="M330.4,337.4c-2-2.4-4-4.4-6.2-6.1c-0.5-0.4-1-0.9-1.6-1.1c-2.1-0.9-3.2-2.5-4-4.6c-0.6-1.6,0.2-2.8,0.4-4.2
		c0-0.4,0.4-0.1,0.6,0c2.9,1.1,5.6,2.6,8.1,4.4c0.4,0.3,0.5,0.6,0.6,1C329.4,330.2,330,333.6,330.4,337.4z"/>
	<path class="st0" d="M242.5,345.4c0.5,0.1,0.6,0.4,0.8,0.6c2.6,2.8,5.6,5.1,9,6.9c1.2,0.6,1.2,0.8,0.3,1.9
		c-0.9,1.1-1.9,2.2-2.8,3.3c-0.4,0.5-0.7,0.5-1.2,0.2c-1-0.7-2.1-1.3-3.1-2c-0.3-0.2-0.5-0.4-0.6-0.7
		C243.7,352.3,242.9,348.9,242.5,345.4z"/>
	<path class="st0" d="M257.5,361.6c-2.1-0.3-4-0.9-5.8-2c1.4,0,2.9-0.1,4.3,0C256.9,359.8,257,360.9,257.5,361.6z"/>
	<path class="st0" d="M251.4,367.2c-0.1,0-0.2-0.1,0-0.2C251.4,367,251.4,367.1,251.4,367.2C251.5,367.2,251.4,367.2,251.4,367.2z"
		/>
	<path class="st1" d="M291.9,337.2c-0.1,0-0.1,0-0.2,0c0,0,0-0.1,0.1-0.1C291.8,337.2,291.9,337.2,291.9,337.2
		C291.9,337.3,291.9,337.2,291.9,337.2z"/>
	<polygon class="st1" points="282.3,334.8 282.3,334.8 282.3,334.8 	"/>
</g>
<g id="XMLID_28_">
	<path id="XMLID_33_" class="st2" d="M104.7,43.2c-0.6-0.4-1.4-0.5-2.1-0.8c-0.7-0.3-1.3-0.6-2-0.9c-1.2-0.7-2.4-1.4-3.4-2.3
		c-2.1-1.8-3.7-4.1-4.7-6.6c-0.3-0.8-0.6-1.7-0.9-2.6c-1.9-7.2-0.7-14,4-20c2.2-2.8,4.8-5.1,8.2-6.2c3.7-1.3,7.6-2.2,11.7-1.3
		c5.6,1.2,5.6,1.2,8.4,3.5c0,2.8,0,5.8,0,9.3c-0.9-1.9-1.6-3.2-2.1-4.6c-3-7.6-11.4-8.6-17.2-4.4c-3.8,2.8-5.5,6.6-6.8,10.8
		c-0.2,0.7-0.3,1.5-0.5,2.3c-1.9,8.3,2.8,18.4,9.3,21.6c7.3,3.6,13.7,1.6,16.6-6c3.3-8.6,6.2-17.4,9.3-26.1c0.2-0.6,0.6-1.2,0.6-1.8
		c-0.2-3.1,2.2-4,4.4-5.7c0.6,1.1,1.1,2,1.4,2.9c2.9,8.2,5.7,16.5,8.6,24.7c1.1,3.1,2.3,6.3,3.6,9.3c1.1,2.6,2.9,4.6,6.1,4.2
		c0,0.8,0,1.5,0,2.3c-5.7,0-11.3,0-17,0c0.1-1.1,0.7-1.8,1.7-2.3c2.8-1.4,3.5-2.7,2.7-5.4c-0.5-2-1.3-3.9-1.9-5.8
		c-0.4-1.2-1.2-1.9-2.6-1.9c-4.2,0-8.4,0-12.5,0c-0.9,2.4-1.8,4.3-2.5,6.4c-1.3,3.8-0.3,5.6,3.5,6.9c1.1,0.4,2.3,0.7,2.3,2.2
		c0,0-21.8,0-23.8,0C106.6,44.5,105.2,43.5,104.7,43.2z M140.8,25.9c-1.8-5.8-3.7-11.2-6.4-17.1c-1.8,6.1-4.7,11.1-5.5,17.1
		C132.9,25.9,136.6,25.9,140.8,25.9z"/>
	<path id="XMLID_32_" class="st2" d="M64.5,43.5c-1.8-1.4-3.2-2.7-3.5-4.7c-0.4-2.3-0.5-4.7-0.2-7.2c0.7,1.4,1.3,2.9,2.1,4.3
		c0.8,1.4,1.8,2.8,2.9,4.1c1.4,1.7,3.3,2.4,5.5,2.3c0.8,0,1.5,0,2.3,0c3,0.2,5.1-0.9,6.4-3.8c1.3-3,0.6-5.6-1.3-7.9
		c-1.6-2-3.5-3.7-6-4.8c-3.1-1.4-5.7-3.5-7.9-6c-3.7-4.2-2.4-11.9,2.4-14.9c5.2-3.2,10.5-3.7,16-0.8c0.4,0.2,0.8,0.6,1.3,1
		c-0.3,2.7-0.6,5.3-1,8.6c-1-2.3-1.7-4.2-2.7-5.9c-1.7-3.2-5.7-4.6-8.9-3.2C66.6,7,66.2,12.9,70.9,17c2,1.8,4.4,3.1,6.8,4.3
		c2.9,1.4,5,3.7,7,6c2.4,2.9,2.1,9-0.5,11.8c-1.2,1.3-3.7,4.6-5.7,5.3C74.5,45.6,65.6,44.4,64.5,43.5z"/>
	<path id="XMLID_31_" class="st2" d="M2.8,2.8C8.9,2.9,15.1,2.9,21.3,3c0.1,0,0.3,0.4,0.6,0.8c-0.9,0.3-1.7,0.5-2.5,0.8
		c-3.5,1.1-4.2,2-4.3,5.8c0,1.9,0,3.9,0,5.8c0,6.8,0,13.6,0,20.4c0,1,0,2.1,0.1,3.1c0.3,1.8,1,2.4,2.8,2.5c2.2,0.1,4.4,0.2,6.6,0
		c1.1-0.1,2.3-0.6,3-1.3c1.7-1.7,3.2-3.7,4.7-5.5c0.5-0.6,1-1.3,2.1-1.7c-1,3.6-2.1,7.3-3.1,10.9c-9.5,0-19.1,0-28.6,0
		c0-0.5,0-1,0-1.5c5.9-1,7-2.1,7-8c0-8.1,0-16.2,0-24.2c0-4.5-1.1-5.7-5.4-6.4c-0.5-0.1-1,0-1.5,0C2.8,3.9,2.8,3.3,2.8,2.8z"/>
	<path id="XMLID_30_" class="st2" d="M36.7,44.5c0.1-1.6,1.4-1.7,2.5-2c3.4-0.7,4.2-2.7,4.6-6c1-7.2,0.4-14.4,0.5-21.5
		c0-2.4-0.4-4.8-0.8-7.2c-0.3-1.8-1.6-2.9-3.3-3.3c-0.9-0.2-1.8-0.1-2.7-0.2c0-0.5,0-1,0-1.5C43.4,2.9,49.3,3,55.3,3
		c0.1,0,0.3,0.4,0.6,0.8c-0.8,0.2-1.4,0.5-2.1,0.7c-3.6,1.1-4.6,2.4-4.7,6c0,3.5,0,6.9,0,10.4c0,5.1,0,10.3,0,15.4
		c0,3.7,0.9,4.8,4.6,6c1.1,0.4,2.3,0.7,2.3,2.2C49.6,44.5,43.2,44.5,36.7,44.5z"/>
	<path id="XMLID_29_" class="st3" d="M37.5,2.9c0,0.5,0,1,0,1.5C36.7,3.8,36.7,3.4,37.5,2.9z"/>
</g>
</svg>
