<?xml version="1.0" encoding="utf-8"?>
<!-- Generator: Adobe Illustrator 23.0.1, SVG Export Plug-In . SVG Version: 6.00 Build 0)  -->
<svg version="1.1" id="Layer_1" xmlns="http://www.w3.org/2000/svg" xmlns:xlink="http://www.w3.org/1999/xlink" x="0px" y="0px"
	 viewBox="0 0 160 45" style="enable-background:new 0 0 160 45;" xml:space="preserve">
<style type="text/css">
	.st0{fill:#030303;}
	.st1{fill:#FCFCFC;}
</style>
<path class="st0" d="M2.84,5.66c50.56,0,101.12,0.01,151.67-0.03c1.35,0,1.66,0.3,1.66,1.65c-0.07,9.78-0.04,19.55-0.04,29.33
	c-50.5,0-100.99-0.01-151.49,0.04c-1.49,0-1.85-0.34-1.84-1.84C2.87,25.09,2.84,15.37,2.84,5.66z M146.41,30.54
	c-0.3-0.08-0.62-0.16-0.79,0.18c-0.44,0.85-1.08,1.22-1.86,0.54c-0.71-0.61-0.78-1.5-0.28-2.29c0.52-0.82,1.19-0.95,1.89-0.16
	c0.33,0.36,0.84,0.49,1.1,0.17c0.4-0.49-0.15-0.87-0.48-1.13c-1.13-0.89-2.28-0.67-3.24,0.24c-0.96,0.91-0.85,2.84,0.1,3.78
	c1.05,1.03,2.31,0.89,3.53-0.4c0.63-0.78,0.69,0.09,0.94,0.34c0.8,0.81,1.73,0.99,2.77,0.6c0.67-0.25,1.04-0.72,1.02-1.49
	c-0.03-1.23-1.11-1.22-1.84-1.62c0.17-0.13,0.34-0.25,0.52-0.38c0.4,0.04,0.94,0.34,1.14-0.09c0.2-0.45-0.19-0.89-0.62-1.14
	c-0.77-0.45-1.57-0.51-2.38-0.08c-0.52,0.27-0.86,0.68-0.81,1.27c0.08,0.96,0.82,1.22,1.61,1.39c0.12,0.02,0.23,0.08,0.34,0.12
	c0.42,0.16,1.11,0.21,0.84,0.85c-0.26,0.61-1.14,0.52-1.37,0.2C147.99,30.61,147.08,30.92,146.41,30.54z M102.57,20.59
	c0-2.82,0-5.63,0-8.45c0-3.61,0-3.61-3.6-3.61c-3.72,0-3.69,0-3.73,3.66c-0.02,1.48,0.65,3.4-0.26,4.33
	c-0.91,0.93-2.84,0.24-4.32,0.27c-2.36,0.05-2.31,0.01-2.38-2.31c-0.06-1.96,0.87-4.65-0.36-5.67c-1.19-0.98-3.78-0.26-5.75-0.29
	c-0.06,0-0.12,0.01-0.18,0c-0.89-0.15-1.08,0.26-1.08,1.1c0.03,7.19,0.04,14.38-0.01,21.57c-0.01,1,0.35,1.19,1.24,1.16
	c1.56-0.06,3.12-0.09,4.67,0.01c1.14,0.07,1.58-0.23,1.52-1.46c-0.1-2.27,0-4.55-0.04-6.83c-0.01-0.77,0.08-1.21,1.04-1.17
	c1.61,0.08,3.24,0.06,4.85,0c0.88-0.03,1.11,0.29,1.1,1.13c-0.05,2.4,0.01,4.79-0.03,7.19c-0.02,0.83,0.19,1.17,1.09,1.13
	c1.55-0.07,3.12-0.1,4.67,0.01c1.22,0.08,1.65-0.22,1.61-1.53C102.51,27.42,102.57,24.01,102.57,20.59z M36.98,16.64
	c-0.05,0-0.09,0-0.14,0c0-0.72,0.04-1.44-0.01-2.16c-0.12-1.96,0.87-4.65-0.38-5.66c-1.2-0.98-3.78-0.26-5.76-0.28
	c-0.12,0-0.24,0.01-0.36,0c-0.74-0.1-0.89,0.26-0.89,0.93c0.04,4.98-0.07,9.96,0.12,14.93c0.14,3.89,2.09,6.77,5.94,7.89
	c3.27,0.95,6.67,0.96,9.94-0.06c3.4-1.06,5.35-3.5,5.68-7.1c0.48-5.21,0.09-10.43,0.23-15.64c0.02-0.86-0.37-0.98-1.08-0.96
	c-1.68,0.03-3.36,0.09-5.03-0.02c-1.17-0.07-1.37,0.36-1.36,1.43c0.04,4.56,0.03,9.11-0.07,13.67c-0.05,2.21-1.32,3.34-3.39,3.34
	c-2.1,0-3.34-1.1-3.43-3.29C36.91,21.32,36.98,18.98,36.98,16.64z M75.75,15.73c-0.28-2.55-0.93-4.89-3.18-6.08
	c-4.34-2.3-8.87-2.44-13.21,0.01c-2.59,1.47-3.48,4.02-3.2,6.92c0.26,2.73,2.06,4.21,4.49,5.02c1.81,0.61,3.67,1.1,5.49,1.68
	c0.79,0.25,1.61,0.52,2.32,0.94c1.21,0.72,1.23,1.91,0.14,2.78c-1.92,1.54-5.37,0.51-5.98-1.84c-0.14-0.53-0.17-0.84-0.82-0.83
	c-2.21,0.04-4.42,0.01-6.64,0.01c0.09,2.51,0.82,4.62,2.77,6.1c3.92,2.97,10.99,3.33,15.16,0.76c2.61-1.61,3.85-4,3.6-7.1
	c-0.24-2.95-2.02-4.57-4.62-5.58c-1.74-0.67-3.53-1.13-5.33-1.57c-0.99-0.24-2.01-0.45-2.86-1.01c-1.03-0.68-1.03-1.68-0.08-2.29
	c1.57-1.02,4.22-0.34,4.88,1.37c0.23,0.59,0.46,0.7,0.98,0.7C71.67,15.73,73.69,15.73,75.75,15.73z M8.59,20.41
	c0,3.42,0.09,6.84-0.04,10.25c-0.06,1.49,0.46,1.74,1.79,1.71c3.84-0.08,7.67,0,11.51-0.04c1.54-0.02,3.64,0.67,4.45-0.3
	c0.78-0.93,0.17-2.97,0.31-4.5c0.11-1.22-0.45-1.35-1.46-1.33c-2.58,0.06-5.16-0.05-7.73,0.05c-1.2,0.04-1.49-0.34-1.47-1.5
	c0.06-4.98,0-9.95,0.05-14.93c0.01-1-0.24-1.37-1.29-1.32c-1.61,0.09-3.24,0.09-4.85,0C8.82,8.46,8.55,8.79,8.57,9.8
	C8.63,13.34,8.59,16.88,8.59,20.41z M117.5,13.12c0,1.26,0.03,2.51-0.01,3.77c-0.02,0.79,0.42,0.84,1.02,0.86
	c0.66,0.02,1.02-0.15,0.97-0.89c-0.04-0.6,0-1.2-0.01-1.79c0-0.44,0.02-0.77,0.58-0.93c1.63-0.44,2.79,0.29,3,1.94
	c0.05,0.41,0.08,0.84,0.22,1.23c0.22,0.61,0.79,0.39,1.24,0.42c0.42,0.03,0.73-0.11,0.64-0.6c-0.18-0.99,0.01-2.1-0.59-2.95
	c-0.44-0.62-0.6-0.89-0.02-1.61c1.26-1.56,0.41-3.69-1.56-3.93c-1.76-0.22-3.78-0.61-5.24,0.21c-0.64,0.36-0.19,2.68-0.24,4.1
	C117.5,13,117.5,13.06,117.5,13.12z M126.68,12.8c0,1.47,0.01,2.67-0.01,3.87c-0.01,0.6,0.05,1.08,0.82,1.07
	c1.8-0.01,3.6-0.01,5.39,0c0.61,0,0.83-0.28,0.85-0.88c0.01-0.62-0.22-0.87-0.83-0.86c-0.96,0.02-1.92-0.04-2.88,0.02
	c-0.86,0.05-1.29-0.11-1.29-1.14c-0.01-1.07,0.48-1.16,1.31-1.11c0.78,0.05,1.56-0.01,2.34,0.01c0.66,0.02,0.8-0.33,0.79-0.9
	c-0.01-0.55-0.26-0.73-0.77-0.72c-0.84,0.02-1.68-0.01-2.52,0.01c-0.64,0.02-1.12,0.03-1.14-0.89c-0.02-1.01,0.48-1.03,1.21-1
	c0.9,0.04,1.8-0.03,2.7,0.02c0.73,0.04,0.9-0.28,0.93-0.94c0.04-0.79-0.36-0.89-0.99-0.85c-0.48,0.03-0.96,0-1.44,0.01
	c-1.43,0.04-3.33-0.46-4.16,0.27C126.01,9.65,126.84,11.61,126.68,12.8z M138.4,17.9c1.99,0.06,3.48-0.88,3.72-2.37
	c0.28-1.7-0.52-2.65-2.77-3.27c-0.4-0.11-0.83-0.15-1.22-0.3c-0.62-0.23-1.65-0.24-1.27-1.3c0.33-0.92,1.26-0.78,2.03-0.64
	c0.49,0.09,0.76,0.51,1.02,0.93c0.45,0.71,1.25,0.56,1.7,0.23c0.48-0.34,0.1-0.97-0.19-1.43c-0.9-1.4-3.23-1.82-5.03-0.96
	c-1.02,0.49-1.58,1.23-1.56,2.38c0.02,1.12,0.66,1.75,1.66,2.08c0.9,0.3,1.82,0.56,2.71,0.88c0.51,0.18,1.05,0.45,1.01,1.1
	c-0.04,0.74-0.63,0.94-1.25,1.05c-1.05,0.19-1.94-0.07-2.4-1.08c-0.44-0.97-1.34-0.73-1.8-0.45c-0.6,0.36-0.12,1.07,0.2,1.54
	C135.78,17.51,137.02,17.87,138.4,17.9z M151.1,13.06c0-1.2-0.05-2.4,0.02-3.6c0.05-0.87-0.36-0.95-1.07-0.95
	c-1.49,0-0.84,1.15-0.79,1.7c0.12,1.48-0.36,1.9-1.87,1.92c-1.59,0.02-2.23-0.39-1.94-1.99c0.05-0.29-0.01-0.6,0.01-0.9
	c0.06-0.91-0.6-0.66-1.1-0.72c-0.61-0.06-0.85,0.16-0.84,0.8c0.03,2.46,0.04,4.92,0,7.38c-0.01,0.75,0.29,0.86,0.95,0.89
	c1.56,0.06,0.8-1.1,0.99-1.75c0.19-0.68-0.49-1.64,0.54-2.05c1.93-0.76,3.17,0.14,3.22,2.25c0.02,0.67-0.41,1.6,0.99,1.57
	c1.29-0.03,0.85-0.88,0.88-1.49C151.14,15.1,151.1,14.08,151.1,13.06z M110.02,12.76c0,1.53,0.03,2.79-0.01,4.04
	c-0.02,0.69,0.22,0.95,0.93,0.94c0.72,0,1.12-0.15,1.08-0.99c-0.04-0.89-0.28-2.23,0.17-2.57c0.63-0.47,1.82-0.2,2.77-0.25
	c0.06,0,0.12-0.01,0.18,0c0.52,0.05,0.76-0.14,0.73-0.71c-0.03-0.52-0.03-0.96-0.73-0.94c-0.72,0.02-1.44-0.03-2.15,0.01
	c-0.82,0.04-0.97-0.39-0.98-1.1c-0.01-0.72,0.27-0.94,0.95-0.91c0.9,0.03,1.8-0.02,2.69,0.01c0.77,0.03,0.84-0.41,0.87-1.02
	c0.03-0.72-0.4-0.75-0.91-0.74c-0.36,0.01-0.72-0.01-1.08,0c-1.43,0.03-3.32-0.48-4.16,0.24C109.35,9.62,110.19,11.57,110.02,12.76z
	 M126.25,30.17c0.78,0.65,0.41,2.1,1.35,2.25c1.25,0.2,0.59-1.63,1.56-1.96c0.31,0.23,0.19,0.55,0.23,0.83
	c0.07,0.43-0.24,1.12,0.46,1.16c0.85,0.05,0.6-0.72,0.61-1.2c0.03-0.96,0-1.92,0.01-2.87c0.01-0.52-0.05-0.97-0.73-0.98
	c-0.51-0.01-0.92,0.04-1.09,0.66c-0.21,0.74-0.52,1.45-0.92,2.54c-0.4-1.12-0.68-1.83-0.91-2.55c-0.19-0.57-0.58-0.67-1.11-0.65
	c-0.72,0.04-0.68,0.53-0.68,1.02c0,0.84-0.05,1.68,0.02,2.51c0.04,0.53-0.37,1.47,0.44,1.5c1.04,0.04,0.44-0.99,0.61-1.54
	C126.16,30.66,126.19,30.44,126.25,30.17z M133.48,23.27c-0.41-1.12-0.71-1.76-0.88-2.43c-0.19-0.75-0.66-0.86-1.33-0.81
	c-0.76,0.06-0.59,0.61-0.6,1.06c-0.02,1.02-0.02,2.04,0,3.06c0.01,0.39-0.15,0.89,0.5,0.94c0.68,0.05,0.53-0.46,0.58-0.85
	c0.06-0.45-0.19-0.96,0.25-1.34c0.88,0.48,0.28,2.16,1.48,2.13c0.99-0.03,0.66-1.38,1.17-1.99c0.05-0.06,0.19-0.05,0.41-0.1
	c0.02,0.37,0.02,0.72,0.08,1.05c0.07,0.41-0.28,1.07,0.51,1.09c0.78,0.02,0.54-0.64,0.56-1.06c0.03-1.02,0.01-2.04,0.01-3.05
	c0-0.4,0.09-0.9-0.55-0.92c-0.51-0.01-1.08-0.17-1.28,0.6C134.2,21.38,133.9,22.08,133.48,23.27z M147.33,22.49
	c0,2.74,0,2.74,2.79,2.62c0.12-0.01,0.24,0.01,0.36,0c0.27-0.03,0.65,0.09,0.68-0.35c0.04-0.45-0.23-0.63-0.66-0.61
	c-0.3,0.01-0.6,0.03-0.89-0.01c-0.42-0.05-1.02,0.22-1.07-0.56c-0.05-0.8,0.53-0.61,0.97-0.63c0.24-0.01,0.48,0.02,0.72-0.01
	c0.27-0.03,0.66,0.07,0.69-0.36c0.03-0.46-0.31-0.53-0.69-0.61c-0.56-0.12-1.59,0.41-1.58-0.49c0-0.89,1.03-0.33,1.59-0.49
	c0.17-0.05,0.36,0,0.53-0.04c0.25-0.07,0.37-0.26,0.36-0.53c-0.01-0.31-0.24-0.33-0.48-0.39C148.28,19.38,147.33,20.08,147.33,22.49
	z M133.02,32.51c1.91,0,2.2-0.06,2.13-0.43c-0.21-1.12-1.14-0.41-1.73-0.59c-0.36-0.11-0.91,0.14-0.94-0.51
	c-0.03-0.76,0.58-0.55,1.01-0.64c0.5-0.11,1.43,0.37,1.34-0.6c-0.07-0.67-0.89-0.24-1.36-0.35c-0.4-0.1-1.07,0.22-0.99-0.6
	c0.06-0.66,0.62-0.38,0.98-0.43c0.29-0.04,0.6,0,0.89-0.01c0.34-0.02,0.79,0.05,0.74-0.48c-0.03-0.32-0.33-0.41-0.65-0.48
	c-2.49-0.53-3.13-0.03-3.13,2.5c0,0.24,0.03,0.48-0.01,0.71C131.04,32.14,131.58,32.87,133.02,32.51z M121.23,21.71
	c0.8,1.29,1.31,2.09,1.8,2.9c0.25,0.43,0.62,0.54,1.06,0.47c0.53-0.09,0.37-0.52,0.38-0.84c0.02-1.13,0.01-2.27,0-3.4
	c0-0.33,0.1-0.74-0.44-0.78c-0.63-0.05-0.64,0.36-0.63,0.8c0.01,0.66,0,1.31,0,2.47c-0.8-1.25-1.3-1.98-1.75-2.74
	c-0.25-0.42-0.57-0.58-1.03-0.53c-0.69,0.07-0.43,0.61-0.44,0.96c-0.03,1.07-0.02,2.15-0.01,3.22c0,0.4-0.09,0.88,0.58,0.85
	c0.69-0.03,0.48-0.55,0.49-0.92C121.25,23.53,121.23,22.88,121.23,21.71z M114.32,22.67c0-0.6,0-1.2,0-1.79
	c0-0.43,0.01-0.86-0.62-0.83c-0.51,0.02-0.56,0.38-0.52,0.74c0.09,0.85-0.24,1.14-1.11,1.14c-0.85,0-1.02-0.36-0.94-1.07
	c0.05-0.45-0.01-0.86-0.63-0.8c-0.67,0.06-0.47,0.57-0.48,0.94c-0.03,0.84-0.08,1.68,0.02,2.51c0.07,0.54-0.53,1.51,0.54,1.55
	c0.98,0.03,0.51-0.9,0.53-1.38c0.02-0.71,0.39-0.79,0.91-0.72c0.41,0.05,0.94-0.25,1.16,0.47c0.17,0.56-0.58,1.78,0.66,1.59
	c1.03-0.15,0.27-1.31,0.47-1.98C114.35,22.92,114.32,22.79,114.32,22.67z M142.04,22.47c0.4,0.95-0.96,2.88,1.65,2.66
	c2-0.17,2.85-0.79,2.84-2.58c-0.01-1.76-0.89-2.36-2.9-2.55C141.31,19.79,142.29,21.43,142.04,22.47z M127.11,20.04
	c-1.62-0.02-1.87,0.04-1.56,1.39c0.28,1.23-1.52,3.41,1.28,3.64c2.22,0.18,3.06-0.6,3.09-2.43
	C129.94,20.84,129.1,20.06,127.11,20.04z M117.44,27.29c-1.31,0.01-2.35,1.18-2.34,2.65c0.01,1.58,1.08,2.68,2.54,2.63
	c1.36-0.05,2.4-1.21,2.39-2.64C120.02,28.41,118.91,27.28,117.44,27.29z M119.76,25.1c-0.74-1.9-1.23-3.45-1.96-4.86
	c-0.22-0.42-1.07-0.44-1.36,0.4c-0.44,1.23-0.94,2.44-1.39,3.67c-0.08,0.22-0.47,0.53-0.02,0.71c0.23,0.1,0.72,0.06,0.81-0.09
	c0.9-1.42,1.75-1.62,2.7-0.04c0.1,0.16,0.53,0.15,0.81,0.16C119.52,25.06,119.67,24.93,119.76,25.1z M141.56,24.93
	c-0.53-1.4-1.07-2.78-1.56-4.17c-0.15-0.44-0.32-0.71-0.84-0.74c-0.55-0.03-0.72,0.29-0.87,0.7c-0.42,1.11-0.88,2.21-1.24,3.33
	c-0.1,0.3-0.72,0.72-0.05,1.01c0.42,0.18,0.69-0.1,0.99-0.48c0.74-0.93,1.61-1.08,2.29,0.1C140.63,25.29,141.03,25.1,141.56,24.93z
	 M122.38,27.2c-0.84,0.28-1.75,0.38-1.9,1.42c-0.15,0.99,0.56,1.34,1.36,1.56c0.23,0.06,0.46,0.13,0.68,0.21
	c0.38,0.14,0.92,0.23,0.75,0.78c-0.18,0.6-0.78,0.46-1.22,0.38c-0.25-0.05-0.47-0.31-0.67-0.51c-0.29-0.3-0.68-0.4-0.94-0.14
	c-0.39,0.39-0.01,0.78,0.26,1.04c0.78,0.73,1.68,0.76,2.66,0.41c0.71-0.25,1.12-0.72,1.08-1.44c-0.06-1.04-0.87-1.31-1.72-1.5
	c-0.45-0.1-0.99-0.1-1.12-0.68c-0.03-0.12,0.12-0.37,0.23-0.41c0.48-0.16,0.91-0.1,1.26,0.34c0.29,0.37,0.74,0.57,1.03,0.11
	c0.26-0.4-0.11-0.83-0.45-1.05C123.29,27.48,122.82,27.37,122.38,27.2z M112.44,32.57c0.69-0.12,1.47-0.26,1.87-1.05
	c0.14-0.28,0.51-0.65,0.17-0.92c-0.35-0.28-0.79-0.2-1.02,0.29c-0.41,0.87-1.11,0.92-1.75,0.4c-0.81-0.66-0.78-1.61-0.26-2.42
	c0.53-0.84,1.25-0.78,1.92-0.07c0.33,0.35,0.8,0.52,1.07,0.12c0.24-0.36-0.12-0.78-0.45-1.05c-0.88-0.71-1.84-0.83-2.81-0.21
	c-1.19,0.76-1.34,1.93-1.04,3.15C110.4,31.93,111.23,32.47,112.44,32.57z M137.78,27.42c0-0.01,0-0.02,0-0.03
	c-0.3,0-0.6-0.02-0.89,0c-0.44,0.04-1.09-0.19-1.18,0.46c-0.09,0.66,0.54,0.46,0.9,0.49c0.65,0.05,0.54,0.51,0.55,0.9
	c0.01,0.65-0.02,1.31,0.01,1.96c0.02,0.48-0.24,1.23,0.57,1.25c0.84,0.02,0.56-0.73,0.61-1.22c0.02-0.24-0.03-0.48,0.01-0.71
	c0.16-0.88-0.65-2.3,1.23-2.26c0.08,0,0.27-0.3,0.23-0.37c-0.1-0.19-0.28-0.44-0.45-0.45C138.86,27.38,138.32,27.42,137.78,27.42z
	 M141.45,30C141.45,30,141.46,30,141.45,30c0.01-0.66,0.01-1.31,0.01-1.97c0-0.42-0.18-0.67-0.65-0.63c-0.4,0.03-0.47,0.3-0.48,0.61
	c-0.01,1.31,0,2.62,0.01,3.94c0,0.34,0.16,0.55,0.53,0.55c0.36,0,0.56-0.18,0.57-0.53C141.46,31.31,141.45,30.66,141.45,30z"/>
<path class="st1" d="M2.84,5.66c0,9.72,0.04,19.43-0.04,29.15c-0.01,1.5,0.35,1.84,1.84,1.84c50.5-0.04,100.99-0.04,151.49-0.04
	c-0.32,0.74-0.97,0.34-1.44,0.34c-17.44,0.03-34.87,0.02-52.31,0.02c-32.77,0-65.55-0.01-98.32,0.04c-1.42,0-1.63-0.4-1.62-1.69
	C2.5,25.91,2.47,16.5,2.5,7.09C2.5,6.63,2.09,5.98,2.84,5.66z"/>
<path class="st0" d="M120.9,12.66c-0.89,0.09-1.44,0-1.46-1.17c-0.02-1.21,0.49-1.44,1.49-1.31c0.89,0.11,2.1-0.23,2.09,1.26
	C123,12.93,121.75,12.51,120.9,12.66z"/>
<path class="st0" d="M149.29,29.29c-0.39-0.07-0.83-0.07-0.95-0.55c-0.02-0.1,0.16-0.32,0.3-0.37c0.54-0.18,1.04-0.21,1.17,0.54
	C149.64,29.04,149.47,29.16,149.29,29.29z"/>
<path class="st0" d="M143.01,22.62c0.37-0.66-0.59-1.78,0.89-1.79c1.11,0,1.65,0.55,1.66,1.67c0.01,1.1-0.47,1.7-1.6,1.72
	C142.46,24.24,143.55,23.01,143.01,22.62z"/>
<path class="st0" d="M128.78,22.51c0.05,1.05-0.41,1.63-1.46,1.64c-1.18,0.01-0.73-0.94-0.68-1.45c0.06-0.57-0.62-1.59,0.6-1.68
	C128.21,20.95,128.85,21.45,128.78,22.51z"/>
<path class="st0" d="M116.19,29.9c0.12-0.86,0.36-1.59,1.36-1.59c1.14,0,1.32,0.86,1.3,1.72c-0.02,0.79-0.23,1.6-1.28,1.55
	C116.5,31.53,116.25,30.75,116.19,29.9z"/>
</svg>
