<?xml version="1.0" encoding="utf-8"?>
<!-- Generator: Adobe Illustrator 23.0.1, SVG Export Plug-In . SVG Version: 6.00 Build 0)  -->
<svg version="1.1" id="Layer_1" xmlns="http://www.w3.org/2000/svg" xmlns:xlink="http://www.w3.org/1999/xlink" x="0px" y="0px"
	 viewBox="0 0 160 45" style="enable-background:new 0 0 160 45;" xml:space="preserve">
<style type="text/css">
	.st0{fill:#8AC33D;}
	.st1{fill:#0E233A;}
	.st2{fill:#11263D;}
	.st3{fill:#0E243B;}
	.st4{fill:#11253C;}
	.st5{fill:#10253D;}
	.st6{fill:#0F233B;}
	.st7{fill:#00001C;}
	.st8{fill:#000124;}
	.st9{fill:#020E2A;}
	.st10{fill:#010A29;}
	.st11{fill:#00092C;}
	.st12{fill:#000527;}
	.st13{fill:#000429;}
	.st14{fill:#FEFEFE;}
	.st15{fill:#FCFDFB;}
	.st16{fill:#6EA23D;}
	.st17{fill:#77A645;}
	.st18{fill:#699F36;}
	.st19{fill:#FBFCFC;}
</style>
<path class="st0" d="M130.82,8.8c4.27,0,8.53-0.07,12.8,0.01c7.46,0.15,13.08,6.22,13.15,14.08c0.06,8.19-5.39,14.49-12.94,14.61
	c-8.65,0.15-17.3,0.16-25.94,0c-7.53-0.14-13.2-6.62-13.1-14.57c0.1-7.75,5.84-13.93,13.24-14.11C122.29,8.71,126.55,8.8,130.82,8.8
	z"/>
<path class="st1" d="M3.23,23.07c0.01-6.33,4.12-10.68,10.13-10.71c5.96-0.04,10.22,4.38,10.24,10.62
	c0.02,6.44-4.3,11.02-10.32,10.95C7.34,33.85,3.22,29.4,3.23,23.07z"/>
<path class="st2" d="M41.43,28.36c-1.55,4.06-4.62,5.86-8.87,5.2c-4.42-0.7-6.49-2.96-6.6-7.45c-0.09-3.7,0.07-7.4-0.06-11.09
	c-0.07-1.93,0.76-2.3,2.46-2.3c1.67,0,2.57,0.29,2.49,2.26c-0.13,3.46,0.03,6.94-0.06,10.4c-0.06,2.3,0.94,3.6,3.19,3.54
	c2.16-0.05,2.74-1.52,2.85-3.55c0.21-4.07-0.75-8.19,0.53-12.21c3.23-0.11,4.12,1.41,3.89,4.58C41,21.24,40.85,24.82,41.43,28.36z"
	/>
<path class="st3" d="M81.82,17.32c-1.17,2.17-0.63,3.23,1.93,3.05c0.8-0.06,1.61,0.04,2.4-0.02c1.65-0.13,1.86,0.94,1.91,2.18
	c0.05,1.25-0.21,2.34-1.69,2.48c-1.14,0.1-2.29,0.1-3.43,0.02c-1.51-0.1-1.63,0.79-1.67,1.94c-0.04,1.15,0.4,1.64,1.56,1.73
	c1.9,0.14,3.86-0.48,5.71,0.39c-0.7,0.54-1.51,0.25-2.28,0.3c-0.46-0.08-0.01,0.68-0.07,0.22c-0.03-0.19,0.06-0.21,0.24-0.22
	c1.49-0.06,2.01,0.67,1.9,2.11c-0.12,1.58-1.25,1.32-2.25,1.37c-3.06,0.17-6.14-0.37-9.17,0.32c-1.3-0.47-0.64-1.58-0.61-2.33
	c0.29-5.94-0.8-11.93,0.56-17.83c3.01,0.96,6.1,0.22,9.15,0.43c1.18,0.08,2.31-0.09,2.34,1.67c0.03,1.68-0.96,1.74-2.22,1.82
	C84.69,17.03,83.19,16.49,81.82,17.32z"/>
<path class="st4" d="M48.91,17.34c-1.89-0.39-5.17,1.83-4.81-2.74c0.12-1.58,0.73-1.89,2.1-1.87c3.32,0.06,6.64,0.08,9.96-0.01
	c1.82-0.05,2.88,0.07,2.91,2.47c0.04,2.68-1.5,2.24-3.04,2.23c-0.57,0-1.14-0.06-1.71-0.09c-1.45,1.31-0.52,2.99-0.62,4.48
	c-0.18,2.86-0.11,5.74-0.03,8.61c0.05,1.64-0.26,2.55-2.23,2.51c-1.88-0.04-1.96-1.05-1.95-2.44c0.03-3.56,0.05-7.12-0.02-10.67
	C49.46,18.99,50.01,17.95,48.91,17.34z"/>
<path class="st5" d="M61.83,13.14c4.71-0.86,4.71-0.86,4.71,3.45c0,2.86,0.21,5.75-0.06,8.59c-0.28,2.94,0.81,3.9,3.61,3.47
	c3.11-0.48,4.69,0.48,3.33,3.89c-3.15,0.74-6.35,0.13-9.53,0.34c-1.9,0.13-1.89-1.1-1.92-2.45C61.87,24.66,62.26,18.9,61.83,13.14z"
	/>
<path class="st6" d="M105.33,14.5c-0.71,1.64-1.18,3.61-3.73,2.8c-1.55,0.81-0.69,2.24-0.75,3.36c-0.14,2.74-0.04,5.49-0.05,8.23
	c0,4.34,0,4.34-4.38,3.66c-0.05-5.03-0.11-10.06-0.16-15.09c-0.92-1.05-2.14-0.38-3.22-0.55c-1.07-0.16-1.23-0.83-1.23-1.7
	c0-0.71,0.07-1.7,0.85-1.63C96.89,13.95,101.26,12.24,105.33,14.5z"/>
<path class="st7" d="M48.91,17.34c1.91,1.93,0.67,4.33,0.89,6.49c0.22,2.16,0.06,4.36,0.05,6.54c0,1.1,0.1,2.07,1.58,2.14
	c1.62,0.07,1.9-0.86,1.89-2.18c-0.02-3.56-0.01-7.12,0-10.67c0-0.92-0.09-1.88,1-2.33c-0.08,4.6-0.32,9.2-0.19,13.79
	c0.07,2.32-1.08,2.2-2.7,2.26c-1.73,0.06-2.4-0.32-2.37-2.23C49.15,26.55,48.97,21.95,48.91,17.34z"/>
<path class="st8" d="M61.83,13.14c0.57,0.06,1.14,0.13,3.05,0.34c-2.86,0.42-2.55,1.72-2.55,2.88c-0.01,4.49,0.09,8.99-0.04,13.48
	c-0.06,2.17,0.79,2.82,2.84,2.73c2.76-0.12,5.53-0.03,8.29-0.03c-3.62,1.8-7.46,0.37-11.18,0.72c-0.69,0.06-0.71-0.73-0.7-1.3
	C61.71,25.68,61.15,19.4,61.83,13.14z"/>
<path class="st9" d="M105.33,14.5c-3.78-1.43-7.71-0.4-11.56-0.66c-0.91-0.06-1.55,0.37-1.53,1.41c0.02,1.08,0.77,1.26,1.63,1.32
	c0.88,0.06,1.89-0.2,2.39,0.89c-0.92-0.02-1.86-0.17-2.77-0.04c-1.73,0.23-2.19-0.45-2.1-2.11c0.08-1.49-0.04-2.64,2.1-2.54
	c3.57,0.17,7.16,0.04,10.74,0.05C105.45,12.82,106.9,12.7,105.33,14.5z"/>
<path class="st10" d="M81.82,17.32c1.14-1.53,2.74-0.45,4.11-0.71c0.92-0.17,1.94-0.05,1.95-1.38c0.01-1.32-0.97-1.29-1.92-1.42
	c-3.02-0.41-6.19,0.93-9.1-0.77c3.42-0.07,6.85-0.09,10.27-0.23c2.18-0.09,1.48,1.46,1.61,2.57c0.15,1.33-0.11,2.18-1.78,2.03
	C85.25,17.26,83.53,17.34,81.82,17.32z"/>
<path class="st11" d="M96.43,32.55c3.3,0.53,4.43-0.87,4.1-4.14c-0.27-2.71-0.08-5.46-0.04-8.2c0.01-1.08-0.35-2.36,1.11-2.91
	c-0.64,4.25-0.17,8.52-0.27,12.77C101.25,33.82,100.18,34.39,96.43,32.55z"/>
<path class="st12" d="M76.9,33.19c2.48-1.42,5.18-0.27,7.74-0.68c1.19-0.19,3.2,0.81,3.19-1.44c-0.01-1.97-1.87-1.08-2.97-1.32
	c-0.33-0.07-0.66-0.13-0.99-0.46c1.55-0.07,3.1-0.14,4.65-0.21c0.85,4.26,0.85,4.27-3.12,4.25C82.57,33.32,79.74,33.24,76.9,33.19z"
	/>
<path class="st13" d="M41.43,28.36c-1.27-3.17-0.54-6.49-0.54-9.72c0-2.76-0.06-5.11-3.52-5.48c4.34-0.67,4.4-0.67,4.32,3.59
	C41.61,20.62,42.03,24.5,41.43,28.36z"/>
<path class="st14" d="M122.01,33.46c-6.13,1.06-10.51-0.93-12.6-5.73c-1.97-4.54-0.64-10.38,3.01-13.18
	c4.27-3.29,9.29-2.84,14.4,1.29c3.55,2.97,3.27,7.02,2.43,10.78C128.44,30.2,126.11,32.97,122.01,33.46z"/>
<path class="st15" d="M149.67,33.19c-1.74,0.55-2.77-0.53-3.85-1.6c-2.34-2.33-4.72-4.61-7.08-6.92c-1.34,2.71,0.39,5.74-0.91,8.46
	c-0.8,0.07-1.61,0.09-2.4,0.21c-2.36,0.36-3.2-0.5-3.1-2.98c0.19-4.93,0.03-9.88,0.08-14.82c0.01-0.95-0.56-2.25,0.63-2.78
	c1.34-0.59,2.05,0.71,2.82,1.48c2.59,2.58,5.13,5.21,8.41,8.56c0-2.52,0-4.15,0-5.78c0-4.87,0.37-5.14,5.44-3.9
	c0.94,1.08,0.68,2.4,0.69,3.65c0.03,4.27,0.04,8.55,0,12.82C150.38,30.82,150.73,32.16,149.67,33.19z"/>
<path class="st16" d="M149.67,33.19c0.02-6.69,0.03-13.38,0.05-20.08c1.9-0.43,1.35,1.11,1.36,1.88c0.07,5.6,0.05,11.19,0.02,16.79
	C151.09,32.61,151.48,34.1,149.67,33.19z"/>
<path class="st17" d="M122.01,33.46c7.36-3.53,9.07-9.8,4.8-17.62c0.71-0.76,1.08-0.28,1.57,0.34c4.23,5.27,1.99,14.62-4.15,17.31
	C123.46,33.83,122.74,34.12,122.01,33.46z"/>
<path class="st18" d="M137.82,33.13c0.05-2.84,0.1-5.68,0.16-8.52c0-0.08,0.19-0.23,0.24-0.21c0.18,0.06,0.34,0.18,0.51,0.28
	c-0.1,2.85-0.21,5.7-0.33,8.54c0,0.03-0.19,0.09-0.28,0.08C138.02,33.27,137.92,33.19,137.82,33.13z"/>
<path class="st19" d="M13.4,28.74c-2.77-0.01-4.96-2.43-5.03-5.56c-0.07-3.17,2.36-5.83,5.22-5.69c2.71,0.13,4.93,2.73,4.88,5.73
	C18.43,26.27,16.14,28.75,13.4,28.74z"/>
</svg>
