<?xml version="1.0" encoding="utf-8"?>
<!-- Generator: Adobe Illustrator 23.0.1, SVG Export Plug-In . SVG Version: 6.00 Build 0)  -->
<svg version="1.1" id="Layer_1" xmlns="http://www.w3.org/2000/svg" xmlns:xlink="http://www.w3.org/1999/xlink" x="0px" y="0px"
	 viewBox="0 0 160 167.7" style="enable-background:new 0 0 160 167.7;" xml:space="preserve">
<g>
	<path d="M76.44,158.52c0.67-7.16,1.2-14.34,2.02-21.48c3.29-28.62,6.6-57.23,10.05-85.83c1.39-11.51,3.11-22.99,4.8-34.46
		c0.7-4.74,4.12-8,8.61-8.1c-0.33,2.81-0.62,5.56-0.99,8.29c-2.94,21.9-6.01,43.79-8.81,65.72c-1.81,14.19-3.27,28.42-4.83,42.64
		c-0.5,4.61-0.39,4.91,4.29,4.57c11.26-0.82,22.51-1.92,33.75-2.93c9.06-0.81,18.12-1.67,27.19-2.45c0.85-0.07,1.74,0.26,2.62,0.4
		c0,0.2,0,0.4,0,0.6c-0.96,0.69-1.83,1.6-2.89,2.02c-7.15,2.82-14.37,5.45-21.51,8.29c-16.87,6.7-33.72,13.46-50.54,20.29
		c-0.84,0.34-1.31,1.61-1.95,2.44C77.64,158.52,77.04,158.52,76.44,158.52z"/>
	<path d="M33.07,55.47c0.21,9.52,0.24,19.04-3.21,28.14c-1.77,4.68-4.25,8.85-9.03,11.05c-1.33,0.61-2.83,1.24-4.24,1.22
		c-2.7-0.04-3.34,1.14-3.34,3.62c0.02,11.61-0.09,23.21-0.24,34.82c-0.02,1.34,0.88,3.69-1.93,3.41c-6.09-0.62-5.96-0.16-5.94-3.62
		C5.28,98.9,5.49,63.68,5.55,28.47c0.01-3.27,1.03-4.79,4.3-4.98c3.29-0.19,6.56-0.77,9.85-0.9c5.15-0.2,8.15,1.96,10.03,6.83
		c2.75,7.14,2.88,14.67,3.33,22.15C33.14,52.87,33.07,54.17,33.07,55.47z M13.23,59.39c0,3.89,0.11,7.78-0.04,11.67
		c-0.1,2.55,1.07,3.15,3.28,2.77c3.9-0.66,5.71-3.51,6.72-6.85c1.8-5.93,2.18-11.99,0.33-17.98c-0.51-1.64-1.41-3.61-2.74-4.41
		c-1.5-0.89-3.81-1.12-5.52-0.67c-0.94,0.24-1.83,2.44-1.92,3.81C13.07,51.6,13.23,55.5,13.23,59.39z"/>
	<path d="M35.49,92.97c0.08-10.62,0.36-21.23,3.25-31.53c0.91-3.24,2.13-6.48,3.75-9.42c2.62-4.75,6.99-4.91,9.8-0.33
		c1.75,2.86,3.16,6.07,4.02,9.31c3.2,12.08,3.84,24.46,3.84,36.89c0,1.8-0.81,2.54-2.48,2.66c-3.79,0.27-7.58,0.66-11.37,0.8
		c-2,0.08-3.08,0.73-2.8,2.83c0.48,3.65,0.85,7.34,1.64,10.93c0.25,1.14,1.68,2.02,2.57,3.02c0.91-0.96,2.21-1.76,2.66-2.9
		c0.92-2.3,1.46-4.77,2.01-7.21c0.58-2.52,2.37-2.44,4.19-2c1.68,0.4,3.87,0.66,3.23,3.32c-1.87,7.74-3.8,15.46-5.76,23.18
		c-0.22,0.85-0.75,1.64-1.25,2.38c-2.62,3.86-6.02,4.33-8.7,0.52c-2.3-3.27-4.02-7.12-5.2-10.96
		C35.74,114.22,35.4,103.6,35.49,92.97z M48.42,84.57c1.38-0.77,3.99-1.65,3.93-2.3c-0.37-4.31-0.99-8.66-2.2-12.8
		c-0.67-2.29-2.63-2.23-3.5,0.08c-1.18,3.14-1.96,6.46-2.54,9.77C43.37,83.68,43.71,83.92,48.42,84.57z"/>
	<path d="M113.15,116.69c-2.01,2.37-3.51,4.51-5.38,6.24c-3.29,3.04-7.12,2.17-8.98-1.9c-0.7-1.54-1.41-3.16-1.63-4.81
		c-1.52-11.38-1.93-22.75,1.71-33.86c1.85-5.65,5.47-9.95,10.82-12.6c1.91-0.94,2.8-2.17,2.39-4.25c-0.51-2.54-0.82-5.15-1.71-7.56
		c-0.44-1.21-1.93-2.77-2.98-2.8c-0.98-0.03-2.32,1.6-2.94,2.8c-0.81,1.56-1.07,3.41-1.57,5.14c-0.29,1.01-0.57,2.03-0.85,3.05
		c-3.1-0.92-4.95-3.1-4.66-5.99c0.7-6.98,1.83-13.91,5.24-20.19c2.88-5.3,6.6-5.57,10.55-1c4.62,5.35,5.28,12.05,5.83,18.57
		c0.69,8.26,0.71,16.58,0.86,24.88c0.22,12.4,0.28,24.81,0.47,37.22c0.03,1.84,0.15,3.44-2.45,3.4c-2.3-0.04-4.59,0.22-4.32-3.24
		C113.62,118.86,113.32,117.89,113.15,116.69z M112.45,84.48c-1,0.5-1.53,0.69-1.98,1.01c-6.84,4.91-7.4,12.11-6.8,19.54
		c0.14,1.74,1.68,3.36,2.58,5.03c1.34-1.46,3.27-2.69,3.91-4.41C112.61,99.02,112.81,92.05,112.45,84.48z"/>
	<path d="M72.87,52.14c0.16-0.4,0.46-1.25,0.83-2.06c0.83-1.8,1.81-3.53,4.23-2.86c2.17,0.6,4.01,1.96,3.88,4.35
		c-0.33,6.18-0.97,12.34-1.48,18.5c-4.46-0.43-6.73,0.93-7.45,5.09c-0.71,4.12-1,8.35-1.01,12.54c-0.02,14.21,0.11,28.43,0.31,42.64
		c0.03,2.37-0.39,3.9-3.04,4.1c-2.43,0.19-4.16-1.18-4.53-3.75c-0.04-0.3-0.04-0.6-0.04-0.9c0.16-25.22,0.28-50.44,0.5-75.67
		c0.04-4.06,0.77-4.65,4.65-4.06C70.81,50.24,71.75,51.37,72.87,52.14z"/>
</g>
</svg>
