<?xml version="1.0" encoding="utf-8"?>
<!-- Generator: Adobe Illustrator 19.0.0, SVG Export Plug-In . SVG Version: 6.00 Build 0)  -->
<svg version="1.1" id="Layer_1" xmlns="http://www.w3.org/2000/svg" xmlns:xlink="http://www.w3.org/1999/xlink" x="0px" y="0px"
	 viewBox="0 0 160 160" style="enable-background:new 0 0 160 160;" xml:space="preserve">
<style type="text/css">
	.st0{fill:#3F1023;}
	.st1{fill:#4B132C;}
	.st2{fill:#F4F1F2;}
	.st3{fill:#0F123F;}
	.st4{fill:#561736;}
	.st5{fill:#131441;}
	.st6{fill:#341219;}
	.st7{fill:#38121E;}
	.st8{fill:#0E1035;}
	.st9{fill:#0E1135;}
	.st10{fill:#0D1140;}
	.st11{fill:#0F123A;}
	.st12{fill:#0E1238;}
	.st13{fill:#2E1010;}
	.st14{fill:#2C1010;}
	.st15{fill:#391220;}
	.st16{fill:#5F1F41;}
	.st17{fill:#411024;}
	.st18{fill:#0F1132;}
	.st19{fill:#0E143E;}
	.st20{fill:#0F1131;}
	.st21{fill:#151443;}
	.st22{fill:#0F1139;}
	.st23{fill:#0B143D;}
	.st24{fill:#331213;}
	.st25{fill:#0E113B;}
	.st26{fill:#0E1133;}
	.st27{fill:#0F1137;}
	.st28{fill:#3C1021;}
	.st29{fill:#0D143D;}
	.st30{fill:#0F113E;}
</style>
<g id="XMLID_88_">
	<path id="XMLID_86_" class="st0" d="M26.9,85.8c-1.3-0.8-2.7-1.3-3.9-2.2c-3.8-2.8-4.8-6.6-2.1-10.3c4.1-5.7,9.8-8.5,16.8-8.1
		c5.8,0.3,9.6,5.2,9.3,11.5c-0.4,1.4-0.4,2.8,0,4.1c1.3,0.1,0.8-1,1-1.5c1.6-5.6,4.2-10.6,8.5-14.5c2.8-2.6,6-4.2,9.7-5
		c0.7-0.3,1.6,0.1,2.2-0.3c1.1,0,2.2,0,3.3,0c1.9,0.5,3.8,1.1,5.4,2.2c2.2,1.4,3.8,3.4,4,6.1c-0.3,0.7-0.3,1.4,0,2
		c-0.6,3.6-2.5,6.3-5.2,8.7c-1.6,1.4-3.1,2.7-4.8,3.8c-0.5,0.4-1,0.4-1.5,0.4c-0.2-0.7,0.4-0.8,0.8-1.2c1.9-1.9,3.2-4.2,3.8-6.8
		c0.4-1,0.3-1.9,0-2.9c-0.6-1.2-0.7-2.6-1.4-3.8c-3.3-5.4-9.4-6-14.1-1.3c-4.3,4.4-6.6,9.9-8.4,15.6c-0.2,0.6,0,1.4-0.8,1.8
		c-1.5-0.2-3-0.2-4.5,0c-0.7-0.8-0.2-1.8-0.2-2.7c-0.2-7-5.1-11.7-12.1-11.4c-3.1,0.1-6.2,0.6-8.8,2.4c-4,2.6-4.2,5.4-0.3,8.5
		c2,1.5,4.4,2.4,6.8,3.2c0.7,0.3,1.5,0.4,2.2,0.6c0.6,0.6,1.5,0,2.1,0.4l0,0c0.6,0.5,1.5,0,2.1,0.4l0,0c0.6,0.5,1.5,0,2.1,0.4
		c1-0.1,1.9,0.4,2.8,0.6c0.6,3.8,0.6,3.8-3.1,3.8c-9.1,0-18.2,0-27.3,0c-0.7,0-1.5-0.2-2.2,0.2c-0.3,0.3-0.6,0.6-0.9,0.9
		C7.8,93.6,8,95.9,8,98.3c0,5.5,0,10.9,0,16.4c-1.1,0.8-2.4,0.4-3.3-1c-0.4-0.6-0.5-1.2-0.4-1.9c0-6.7,0-13.3,0-20
		c0-0.7-0.1-1.4,0.1-2c0.9-1.6,2-2.9,4.1-2.8c0.9-0.4,1.9-0.4,2.8-0.4c5.2,0,10.3,0.1,15.5,0C28.5,86.4,26.2,86,26.9,85.8z"/>
	<path id="XMLID_85_" class="st0" d="M52,90c-0.5-0.8-0.1-1.7-0.2-2.6c-0.1-0.9,0.3-1.2,1.1-1.2c0.7,0,1.4,0,2,0.1
		c1,0.1,1.9,0.4,2.9-0.1c3.4-0.5,6.6-1.6,9.9-2.6c0.2,0.2,0.3,0.4,0.1,0.7c-0.7,0.7-2,0.7-2.5,2c2.5,0,4.9,0,7.2,0
		c8.4,0,16.7,0,25.1,0c0.8,0,1.7-0.2,2.4,0.3c-0.2,0.1-0.3,0.2-0.6,0.2c-11.2,0-22.3,0-33.5,0c10.7,0,21.4,0,32.2,0
		c0.7,0,1.5,0.2,2.2-0.2c2.1,0.4,3.7,1.4,4.2,3.7c-0.1,7.3,0,14.6-0.1,21.9c-0.7,2.5-3,2.9-4.9,3.7c-26.8,0-53.7,0-80.5,0
		c0-0.1,0-0.3,0-0.4c0.6-1-0.4-2.3,0.7-3.2c0.9-0.2,1.9-0.1,2.9-0.1c24.7,0,49.4,0,74.2,0c0.9,0,1.9,0.3,2.8-0.4
		c1.1-0.4,1.2-1.2,1.2-2.3c0-5.5,0-11,0-16.5c0-2.5-0.2-2.7-2.7-2.7c-6.9,0-13.9,0-20.8,0c-7.8,0-15.5,0-23.3,0
		C53.2,90.3,52.5,90.6,52,90c0.4-0.4,0.9-0.3,1.4-0.3c14.7,0,29.4,0,44.1,0c-14.3,0-28.5,0-42.8,0c-0.8,0-2,0.7-2.4-0.7
		C52.1,89.3,52.3,89.7,52,90z"/>
	<path id="XMLID_84_" class="st1" d="M4.4,89.7c0,7.5,0,15,0,22.5c-0.2,0.1-0.3,0.1-0.4-0.1c0-7.4,0-14.9,0-22.3
		C4.2,89.9,4.3,89.8,4.4,89.7z"/>
	<path id="XMLID_83_" class="st2" d="M4.1,112.2c0.1,0,0.3,0,0.4,0.1c0.5,1.6,1.6,2.6,3.3,2.9c0.2,0,0.3,0.1,0.4,0.2
		c0,0.2,0,0.3,0,0.5c-0.1,0-0.3,0-0.4,0c-1.2,0-3,0.5-3.6-0.1C3.6,115.2,4.1,113.5,4.1,112.2z"/>
	<path id="XMLID_82_" class="st3" d="M155.7,112.2c-1.8-0.4-3.6,0.3-5.4-0.3c-0.4-0.9,0.2-1.1,0.8-1.1c1.3,0,2.5-0.2,3.8,0.2
		c0.3,0.3,0.5,0.6,0.8,0.8C155.7,112,155.7,112.1,155.7,112.2z"/>
	<path id="XMLID_81_" class="st4" d="M68.5,59.4c-0.7,0.7-1.5,0.4-2.2,0.3c0-0.1,0.1-0.2,0.2-0.3C67.1,59.4,67.8,59.4,68.5,59.4z"/>
	<path id="XMLID_80_" class="st5" d="M115.7,99.8c1.6-0.6,3.2-1.4,4.5,0.5c0.4,0.6,0.8,0.2,1.2,0c0.4-0.3,0.6-1,1.3-0.9
		c1.4,0,2.7,0,4.1,0c1.4,1.6,2.8,1.2,4.1,0c1.4-0.1,2.7,0,4.1,0c1.7,0.5,2.1,1.8,2.4,3.3c-0.3,2.5-0.2,4.9-0.1,7.4
		c0.1,1.9-1.2,1.4-2.2,1.5c-1,0-2.1,0.3-2-1.4c0.1-1.2,0-2.4,0-3.6c0,1.2,0,2.4,0,3.7c-0.1,1.1,0.4,1.4,1.4,1.4
		c0.9,0,1.9-0.2,2.8,0.2c-1.3,0.7-2.6,0.2-4,0.3c-1,0.1-0.8-0.7-0.8-1.3c0-1.9,0-3.7,0-5.6c0-1.3-0.2-2.5-1.8-2.4
		c-1.5,0.1-1.8,1.3-1.7,2.5c0,1.7-0.1,3.4,0,5.1c0.1,1.2-0.3,1.6-1.6,1.6c-3.4,0-3.4,0.1-3.4-3.3c0-1.2,0-2.3,0-3.5
		c0-1.2,0-2.5-1.6-2.6c-1.7,0-1.9,1.2-2,2.5c0,1.8,0,3.6,0,5.3c0,0.4,0.1,0.8-0.3,1.1c-0.1,0-0.2,0-0.4,0c-1.3-0.3-2.8,0.7-4-0.7
		c0-3.6-0.1-7.2,0.1-10.7c1-0.7,2.1-0.2,3.1-0.4c-0.8,0-1.6,0-2.5,0C116.2,100,115.9,100.1,115.7,99.8z"/>
	<path id="XMLID_79_" class="st5" d="M154.9,111c-1.1,0.7-2.4,0.4-3.6,0.4c-0.5,0-1-0.2-1,0.5c-1.1-0.9-1.2-2.4-2-3.5
		c-0.3-0.4-0.3-1.1-1-1.1c-0.8,0-1,0.7-1.3,1.2c-0.2,0.3-0.3,0.7-0.4,1.1c-0.2,0.8,0.5,2.1-0.5,2.4c-1.3,0.4-2.7,0.1-4.1,0.1
		c-0.5,0-0.5-0.6-0.5-1c0-5.4,0-10.8,0-16.2c0-0.1,0.2-0.2,0.3-0.3c1.4,0.4,2.9-0.3,4.3,0.4c0.1,2.2,0,4.4,0.1,6.6
		c0,0.5-0.3,1.1,0.3,1.5c1.9,0.2,1.8-1.9,3-2.7c1.1-0.6,4.4-1.6,5.4-1c0.4,0.2,0.8,0.6,0.2,1.1c-0.2,0.2-0.4,0.4-0.6,0.6
		c-2.7,2.7-2.7,2.7-0.7,6.1C153.5,108.5,154.2,109.7,154.9,111z"/>
	<path id="XMLID_78_" class="st6" d="M104.4,112.2c-0.4-0.3-0.4-0.8-0.4-1.3c0-6.4,0-12.7,0-19.1c0-0.5-0.1-1.1,0.4-1.5
		c0.4,5.3,0.1,10.7,0.2,16C104.7,108.3,104.9,110.3,104.4,112.2z"/>
	<path id="XMLID_77_" class="st7" d="M100.3,86.6c-0.4,0.5-1,0.4-1.5,0.4c-10.9,0-21.9,0-32.8,0c-0.3,0-0.5-0.1-0.8-0.4
		c11.6,0,23.2,0,34.7,0C100.1,86.5,100.2,86.5,100.3,86.6z"/>
	<path id="XMLID_76_" class="st8" d="M137.4,111.8c-4.4-0.1-4.4-0.1-4.4-4.4c0-0.9,0-1.7,0-2.6c0.1,0,0.3,0,0.4,0
		c0,1.7,0.1,3.4,0,5.1c-0.1,1.6,0.9,1.5,2,1.5c1.1,0,1.7-0.2,1.8-1.6c0.1-2.4-0.4-4.8,0.3-7.1C137.6,105.8,137.6,108.8,137.4,111.8z
		"/>
	<path id="XMLID_75_" class="st9" d="M112.3,108.1c0.4,1.1,0.1,2.2,0.2,3.2c0,0.7-0.4,0.9-1.1,0.7c-1.1-0.1-2.2,0.2-3.3-0.2l0,0
		C107.8,107.4,107.2,107.7,112.3,108.1z"/>
	<path id="XMLID_74_" class="st10" d="M115.7,99.8c0.3,0,0.5,0,0.8,0c0.1,0.1,0.2,0.2,0.1,0.3c0,0.1-0.1,0.1-0.1,0.1
		c-0.8,1.3-0.3,2.6-0.4,4c-0.1,2.4,0,4.8,0,7.2c1.3,0.5,2.7-0.1,4,0.3l0.2,0.1c-1.2,0.7-2.5,0.2-3.7,0.3c-1,0.1-0.8-0.7-0.8-1.3
		C115.6,107.2,115.6,103.5,115.7,99.8z"/>
	<path id="XMLID_73_" class="st5" d="M112.3,108.1c-0.1,0-0.3,0-0.4,0c-3.6,0-3.6,0-3.8,3.7c-0.7-1.1-0.2-2.3-0.3-3.4
		c0-0.4,0.1-0.7,0.6-0.7C109.7,107.9,111.1,107.3,112.3,108.1z"/>
	<path id="XMLID_72_" class="st10" d="M145.5,103.1c-1.1-1-0.4-2.3-0.5-3.5c-0.1-1.6,0-3.2,0-4.7c0.2-0.1,0.3-0.1,0.5,0
		C145.6,97.6,145.5,100.4,145.5,103.1z"/>
	<path id="XMLID_71_" class="st11" d="M135,99.4c-1.4,0.7-2.7,0.6-4.1,0C132.3,98.8,133.6,98.8,135,99.4z"/>
	<path id="XMLID_70_" class="st11" d="M126.7,99.5c-1.4,0.6-2.8,0.6-4.1,0C124,98.8,125.4,98.8,126.7,99.5z"/>
	<path id="XMLID_69_" class="st12" d="M145.4,94.9c-0.2,0-0.3,0-0.5,0c-1.4-0.2-2.8,0.3-4.1-0.3C142.4,94.5,143.9,93.8,145.4,94.9z"
		/>
	<path id="XMLID_68_" class="st13" d="M67.8,84.3c0-0.2-0.1-0.5-0.1-0.7c0.4-0.8,1.1-0.8,1.8-0.7C69.3,83.9,68.4,83.9,67.8,84.3z"/>
	<path id="XMLID_67_" class="st5" d="M108.1,111.8c1.1,0,2.2-0.3,3.3,0.2C110.3,112.1,109.2,112.4,108.1,111.8z"/>
	<path id="XMLID_66_" class="st14" d="M81.3,69.7c-0.5-0.7-0.5-1.4,0-2C81.3,68.3,81.3,69,81.3,69.7z"/>
	<path id="XMLID_65_" class="st5" d="M77.7,97.8c2.4-1,4.2-0.6,4.5,1.3c0.8-1.2,1.7-2.1,3.2-2c0.8,0.1,2.2-0.1,2,1
		c-0.1,1-0.4,2.6-1.8,2.6c-2.7,0-2.8,1.6-3.1,3.6c-0.3,1.8,0.2,3.7-0.4,5.5c-0.1-0.1-0.2-0.2-0.2-0.2c-0.1-1,0-2.1,0-3.1
		c0,0.3,0,0.5,0,0.8c0,2.7-1.1,3.3-3.8,1.9c-0.3-3.5-0.1-7-0.1-10.5c0.6-1.2,1.6-0.4,2.3-0.7c-0.6,0-1.4,0-2.1,0
		C78.1,98,77.9,97.9,77.7,97.8z"/>
	<path id="XMLID_64_" class="st15" d="M99.4,111.8c0.2,0.1,0.9,0.1,0.3,0.5c-0.8,0.5-1.7,0.3-2.6,0.3c-25.9,0-51.8,0-77.7,0
		c-0.1-0.3,0-0.5,0.3-0.6c25.5-0.1,51,0,76.6,0c0.8,0,1.7,0.2,2.4-0.2C98.9,111.8,99.2,111.8,99.4,111.8z"/>
	<path id="XMLID_63_" class="st16" d="M98.7,111.9c-0.8,0.7-1.7,0.4-2.6,0.4c-25.6,0-51.2,0-76.7,0c-0.1,0.2-0.3,0.2-0.4,0
		c0.1-0.6,0.6-0.4,1-0.4C46.2,111.8,72.4,111.8,98.7,111.9z"/>
	<path id="XMLID_62_" class="st17" d="M46.9,86.3c1.2,0.1,2.8-0.7,2.7,1.8c-0.1,1.8-0.5,2.6-2.4,2.3c-0.3,0-0.5,0-0.8,0
		c-1.6,0.2-2.4,0-2.4-2.1c0-2.2,1.1-2.1,2.5-2C46.7,86.3,46.8,86.3,46.9,86.3z"/>
	<path id="XMLID_61_" class="st0" d="M9.1,90.3c0.6-0.6,1.4-0.4,2.2-0.4c9,0,17.9,0,26.9,0c3.6,0,3.6,0,3.6-3.6
		c0.7,1,0.3,2.1,0.3,3.2c0,1.3-1.1,0.8-1.7,0.8c-5.9,0-11.7,0-17.6,0C18.1,90.3,13.6,90.3,9.1,90.3z"/>
	<path id="XMLID_60_" class="st18" d="M89.2,109.8c-0.2-4-0.2-8,0-12c0.1-0.1,0.2-0.2,0.4-0.2c3.9-0.3,3.9-0.3,3.9,3.6
		c0,2.4,0,4.8,0,7.2c0,1.1-0.3,1.7-1.5,1.6C91.1,109.8,90.1,110.2,89.2,109.8z"/>
	<path id="XMLID_59_" class="st19" d="M15.2,98.2c-0.3,0.1-0.4,0.6-0.8,0.4c-2.9-0.7-2.9-0.7-2.9,2.1c0,4,0,8,0,11.9
		c0,1.2,0.4,1.7,1.6,1.7c1.2,0,1.8-0.3,1.7-1.6c-0.1-1.1,0-2.2,0.4-3.3c0,1-0.1,2.1,0,3.1c0.3,1.9-0.6,2.3-2.3,2.3
		c-1.5,0-1.9-0.5-1.9-1.9c0.1-4.2,0.1-8.4,0-12.6c-0.1-2,0.5-2.8,2.5-2.5c0.5,0.1,1.1,0,1.6,0c0,0.1,0.1,0.2,0.1,0.3
		C15.3,98.1,15.3,98.1,15.2,98.2z"/>
	<path id="XMLID_58_" class="st8" d="M57.4,109.8c-1.2-0.2-2.5,0.4-3.9-0.6c0.9-0.3,1.3,0.3,1.8,0.3c1.2,0,1.7-0.3,1.7-1.7
		c-0.1-4.3-0.1-8.7,0-13c0-1.2-0.5-1.5-1.6-1.5c-1.1,0-1.9,0.2-1.8,1.6c0.1,1.1,0,2.2-0.4,3.3c0-1.4,0-2.8,0-4.2c0-0.9,0.5-1,1.2-1
		c1,0,1.9,0,2.9,0C57.7,98.5,57.6,104.1,57.4,109.8z"/>
	<path id="XMLID_57_" class="st19" d="M77.7,97.8c0.1,0,0.2,0,0.3,0.1c0.2,0.1,0.3,0.2,0.4,0.4c0,3.7,0,7.4,0,11.1
		c1.2,0.6,2.4-0.1,3.6,0.3c0,0.1,0.1,0.1,0.2,0.1c-1.3,0.7-2.6,0.2-4,0.3c-0.9,0-0.6-0.7-0.6-1.2C77.6,105.2,77.7,101.5,77.7,97.8z"
		/>
	<path id="XMLID_56_" class="st0" d="M8.2,115.4c-0.1-0.1-0.3-0.2-0.4-0.2c0-7.3,0-14.6,0-21.9c0-0.7-0.3-1.5,0.4-2.2
		C8.2,99.3,8.2,107.4,8.2,115.4z"/>
	<path id="XMLID_55_" class="st20" d="M91.5,95.7c-1.4,0-2.6,0.4-2.5-1.7c0-2,1.1-1.6,2.2-1.6c1.1,0.1,2.5-0.6,2.5,1.6
		C93.7,96,92.6,95.7,91.5,95.7z"/>
	<path id="XMLID_54_" class="st21" d="M89.2,109.8c4.1-0.1,4.1-0.1,4.1-4.1c0-1.9-0.1-3.9,0-5.8c0.1-1.6-0.4-2.3-2.1-2.1
		c-0.7,0.1-1.4,0-2.1,0c1.2-0.9,2.6-0.4,3.8-0.4c0.9,0,0.6,0.9,0.6,1.5c0,3.2-0.1,6.3,0,9.5c0,1.5-0.4,2.1-1.9,1.8
		C91,110,89.9,110.7,89.2,109.8z"/>
	<path id="XMLID_53_" class="st22" d="M27.3,101.5c0.6,1.5,0.6,3,0,4.5C26.7,104.5,26.6,103,27.3,101.5z"/>
	<path id="XMLID_52_" class="st11" d="M41.3,105.6c-0.7-1.3-0.7-2.5,0-3.8C41.8,103.1,41.8,104.4,41.3,105.6z"/>
	<path id="XMLID_51_" class="st13" d="M45,84.1c1.5-0.5,3-0.5,4.5,0C48,84.2,46.5,84.3,45,84.1z"/>
	<path id="XMLID_50_" class="st9" d="M32.2,110.1c1.4-0.6,2.7-0.6,4.1,0C34.9,110.4,33.6,110.4,32.2,110.1z"/>
	<path id="XMLID_49_" class="st23" d="M24.3,103.1c-0.6-0.7-0.7-1.4,0.1-2.1c0.4,0.6,0.5,1.3,0.4,2.1
		C24.7,103.3,24.5,103.3,24.3,103.1z"/>
	<path id="XMLID_48_" class="st18" d="M63.2,110.1c1.2-0.5,2.5-0.6,3.7,0C65.6,110.4,64.4,110.4,63.2,110.1z"/>
	<path id="XMLID_47_" class="st24" d="M74.3,71.8c0.8,0.9,0.4,1.9,0.4,2.9c0,0-0.1,0.1-0.2,0.1c-0.1,0-0.1,0-0.2-0.1
		C74.3,73.7,74.3,72.7,74.3,71.8z"/>
	<path id="XMLID_46_" class="st13" d="M19,112.2c0.1,0,0.3,0,0.4,0c0,0.1,0,0.3,0,0.4c-0.2,1,0.4,2-0.4,2.9
		C19,114.4,19,113.3,19,112.2z"/>
	<path id="XMLID_45_" class="st12" d="M43.8,101.9c0.6,1.1,0.6,2.2,0,3.3C43.5,104.1,43.5,103,43.8,101.9z"/>
	<path id="XMLID_44_" class="st25" d="M24.3,103.1c0.2,0,0.3,0,0.5,0c0.3,0.6,0.3,1.1,0,1.7C24.1,104.4,24.4,103.7,24.3,103.1z"/>
	<path id="XMLID_43_" class="st9" d="M47.5,110.1c1-0.6,1.9-0.5,2.9,0C49.4,110.4,48.4,110.4,47.5,110.1z"/>
	<path id="XMLID_42_" class="st14" d="M57.8,86.2c-0.9,0.8-1.9,0.6-2.9,0.1C55.9,86.3,56.8,86.2,57.8,86.2z"/>
	<path id="XMLID_41_" class="st26" d="M18.1,110.1c1-0.6,1.9-0.6,2.9,0C20.1,110.4,19.1,110.4,18.1,110.1z"/>
	<path id="XMLID_40_" class="st5" d="M69.4,97.3c0.9-0.2,1.7-0.1,2.5,0.4c-0.1,0.1-0.1,0.1-0.2,0.2c-0.8,0.2-1.6,0.3-2.3-0.1l0,0
		c-0.1-0.1-0.1-0.1-0.1-0.2c0-0.1,0-0.1,0.1-0.1C69.3,97.4,69.4,97.3,69.4,97.3z"/>
	<path id="XMLID_39_" class="st27" d="M61,100.2c0.5,0,0.9,0.1,1.4,0.1c-0.5,0.5-1,0.3-1.4,0.4C60.7,100.6,60.8,100.4,61,100.2z"/>
	<path id="XMLID_38_" class="st0" d="M34.7,85c-0.7-0.1-1.5,0.3-2.1-0.4C33.3,84.5,34,84.6,34.7,85z"/>
	<path id="XMLID_37_" class="st0" d="M38.9,85.8c-0.7-0.1-1.5,0.3-2.1-0.4C37.5,85.4,38.2,85.3,38.9,85.8z"/>
	<path id="XMLID_36_" class="st0" d="M36.7,85.4c-0.7-0.1-1.5,0.3-2.1-0.4C35.4,84.9,36.1,84.9,36.7,85.4z"/>
	<path id="XMLID_35_" class="st0" d="M26.9,85.8c0.3,0.4,1.3-0.1,1.1,0.8c-4.3,0.4-8.6,0.1-13,0.2c-2,0-4.1,0.3-6.1-0.2
		c0.8-0.6,1.7-0.3,2.6-0.3c4.5,0,9,0,13.5,0C25.7,86.2,26.4,86.6,26.9,85.8z"/>
	<path id="XMLID_34_" class="st7" d="M8.9,86.6c6.4,0,12.7,0,19.1,0.1c-0.4,0.5-1,0.4-1.5,0.4c-6,0-12,0-18,0
		C8.7,86.9,8.8,86.7,8.9,86.6z"/>
	<path id="XMLID_33_" class="st6" d="M47.1,80.8c-0.7-1.4-0.7-2.7,0-4.1C47.3,78.1,47.3,79.5,47.1,80.8z"/>
	<path id="XMLID_32_" class="st28" d="M52,90c0-1,0-1.9,0-3.2c0.8,1,0,2.2,0.9,2.5c0.8,0.3,1.8,0.2,2.6,0.2c14,0,27.9,0,41.9,0
		c0.7,0,1.3,0,2,0c0,0.1,0,0.3,0,0.4C83.6,90,67.8,90,52,90L52,90z"/>
	<path id="XMLID_31_" class="st11" d="M120,111.7c-1.3,0-2.7,0.5-4-0.3C117.3,111.6,118.7,111,120,111.7z"/>
	<path id="XMLID_30_" class="st29" d="M116.4,100.3c0-0.1,0-0.3,0-0.4c1.1,0.2,2.3-0.5,3.6,0.9C118.6,100.1,117.5,100.3,116.4,100.3
		z"/>
	<path id="XMLID_29_" class="st19" d="M119.7,106.1c0,0.9,0,1.8,0,2.7c-0.1,0-0.1,0-0.2,0c0-0.9,0-1.8,0-2.8
		C119.5,106.1,119.6,106.1,119.7,106.1z"/>
	<path id="XMLID_28_" class="st5" d="M110.3,108.5c1.1-0.1,1.6,0.2,1.6,1.4c0,1.2-0.5,1.5-1.6,1.5c-1.1,0-1.8-0.2-1.8-1.6
		C108.6,108.6,109.3,108.4,110.3,108.5z"/>
	<path id="XMLID_113_" class="st5" d="M24.5,103.2c-0.3-0.7-0.2-1.4-0.1-2.2c-1.1-4-4.8-5.3-8.1-2.8c-0.4,0.3-0.8,0.9-1.1-0.1
		c-0.4,0-0.8-0.1-1.3-0.2c0.2,0,0.4,0,0.6,0c0.2,0,0.4-0.1,0.6-0.2c-0.9-0.9-2-0.3-3-0.4c-1.1-0.2-1.4,0.3-1.4,1.4c0,5,0,10,0,15
		c0,0.5-0.2,1.3,0.6,1.3c1.4,0.1,2.8,0.5,4-0.2c0.8-0.5,0.2-1.8,0.3-2.7c0-0.1,0-0.1,0-0.2c0-2.6,0-2.6,2.4-1.9c1-0.3,1.9-0.3,2.9,0
		c2.6-0.8,3.7-2.3,3.8-5.3C24.7,104.3,24.8,103.7,24.5,103.2z M11.3,112.9c0.1-3.8,0-7.5,0-11.3c0-0.5,0-1,0-1.3
		C11.3,104.4,11.4,108.7,11.3,112.9c0,0.8,0.2,1.2,0.5,1.4C11.4,114.1,11.2,113.7,11.3,112.9z M13.3,114.5c-0.2,0-0.4,0-0.6,0
		c0.2,0,0.3,0,0.5,0c0.6,0,1.1,0,1.4-0.2C14.3,114.5,13.9,114.6,13.3,114.5z M11.8,114.3C11.8,114.3,11.8,114.3,11.8,114.3
		C11.8,114.3,11.8,114.3,11.8,114.3z M15.1,113.4c0-0.1,0-0.3,0-0.4c-0.1-0.6-0.1-1.1,0-1.7c0,0.5,0,1.1,0,1.6
		C15.1,113,15.1,113.2,15.1,113.4z M20.1,105.1c-0.6,1.1-1.4,2-2.9,1.5c-1.5-0.5-1.5-1.8-1.5-3c0-1.2,0-2.5,1.6-3
		c1.6-0.4,2.2,0.6,2.8,1.7C20.6,103.3,20.6,104.2,20.1,105.1z"/>
	<path id="XMLID_21_" class="st22" d="M20.1,105.1c0-0.9,0-1.8,0-2.7c1,0.8,0.3,1.8,0.3,2.8c0,0-0.1,0-0.2,0
		C20.2,105.2,20.2,105.1,20.1,105.1z"/>
	<path id="XMLID_106_" class="st5" d="M56.2,109.5c0.7-0.2,1-0.8,1-2c-0.1-4.2-0.1-8.5,0-12.8c0-1-0.2-1.5-0.9-1.7
		c0.2,0,0.5,0,0.8-0.1c0.1,0,0.2-0.1,0.4-0.2c-0.4-0.8-1.2-0.4-1.8-0.4c-3,0-2.6-0.4-2.7,2.5c0,1.1,0,2.2,0,3.5
		c-4.5-2.8-8.3-1.3-9.1,3.4c0.3,1.1,0.3,2.2,0,3.3c0.4,2.3,1.1,4.3,3.7,4.9c1-0.3,1.9-0.2,2.9,0c1.1,0.1,1.7-1,2.6-1.4
		c0.6,1.6,2.1,2,4.5,1.1C57,109.5,56.6,109.5,56.2,109.5z M51.2,106.7c-1.5,0.5-2.2-0.6-2.9-1.7c-0.4-0.9-0.4-1.8,0-2.6
		c0.6-1.1,1.2-2.1,2.7-1.7c1.5,0.4,1.8,1.6,1.8,2.8C52.9,104.9,52.7,106.3,51.2,106.7z M53.5,95.5C53.5,95.6,53.5,95.6,53.5,95.5
		C53.5,95.6,53.5,95.6,53.5,95.5z M53.6,97.3C53.6,97.3,53.6,97.3,53.6,97.3C53.6,97.3,53.6,97.3,53.6,97.3
		C53.8,97.1,53.6,97.5,53.6,97.3z M54.8,109.4c0.2,0,0.4,0.1,0.6,0.1C55.2,109.5,55,109.5,54.8,109.4z"/>
	<path id="XMLID_15_" class="st25" d="M48.4,102.4c0,0.9,0,1.8,0,2.6c-1-0.8-0.4-1.8-0.3-2.8c0,0,0.1,0,0.2,0
		C48.3,102.3,48.3,102.4,48.4,102.4z"/>
	<path id="XMLID_14_" class="st11" d="M53.4,103c0.3,0.5,0.3,1.1,0.1,1.2c-0.5,0.1-0.2-0.4-0.3-0.6C53.2,103.5,53.4,103.3,53.4,103z
		"/>
	<path id="XMLID_101_" class="st5" d="M74.8,109.4c-0.6-2.5,0-5.1-0.3-7.6c-0.2-1.7-0.4-3.6-2.6-4.2c-0.2,0-0.3,0.1-0.5,0.1
		c-0.7,0-1.4,0.1-2.1-0.1c-0.2,0-0.4-0.1-0.5-0.1c-0.5,0-1,0-1.6,0c0.7-0.1,1.3,0,2-0.1c0.1-0.1,0.1-0.2,0.2-0.2
		c-1.9-0.5-3.9-0.3-5.8,0.2c-1.3,0.4-2.5,1.1-2.7,2.7c0.3,0.3,0.6,0.2,0.9,0.2c0.1,0,0.3-0.1,0.2-0.2c-0.1-0.3,0.3,0.1,0,0.2
		c-0.4,0.2-0.8-0.1-1.1,0.3c1.8,0.5,3.6,1.3,5.2-0.4c0.4-0.4,1.2-0.3,1.8-0.3c0.7,0,1.3-0.1,1.5,0.8c0.2,1-0.6,1.1-1.2,1.3
		c-1.7,0.4-3.4,0.6-5,1.1c-1.7,0.5-3.2,1.5-3.1,3.5c0,1.8,0.9,3.1,2.9,3.4c1.2-0.2,2.5-0.2,3.7,0c0.1,0,0.3,0,0.4,0
		c1.3-0.2,2.4-1.8,3.9,0c0.4,0.5,2,0.1,3,0.1C74.6,110.2,74.9,110,74.8,109.4z M66.9,107.8c-0.9,0-1.9-0.3-1.7-1.4
		c0.4-2,2.4-1.5,3.8-2.1c0.5-0.2,0.9-0.1,0.9,0.7C69.9,106.3,68.5,107.7,66.9,107.8z"/>
	<path id="XMLID_11_" class="st11" d="M69.3,97.4c0,0.1,0.1,0.2,0.1,0.3c-0.9,0-1.9,0-2.8,0c0-0.1,0-0.2,0-0.3
		C67.5,97.4,68.4,97.4,69.3,97.4z"/>
	<path id="XMLID_10_" class="st23" d="M69.3,97.8c0.8,0,1.6,0,2.3,0.1C70.9,98.4,70.1,98.4,69.3,97.8z"/>
	<path id="XMLID_95_" class="st5" d="M41.3,101.9c-0.7-3-2.5-4.4-5.8-4.6c0,0,0,0,0,0c-3.8-0.8-6.8,0.7-8.3,4.2
		c-0.1,1.5-0.1,3,0,4.5c0.8,2.4,2.5,3.7,4.9,4.1c1.4-0.2,2.7-0.3,4.1,0c2.7-0.3,4.3-1.9,5-4.5C41.2,104.4,41.2,103.1,41.3,101.9z
		 M35.4,97.4c-0.4,0.2-0.8,0.2-1.2,0.1C34.6,97.5,35,97.6,35.4,97.4z M36.6,105.2c-0.2,1.1-1.1,2-2.3,2c-1.2,0-2.1-0.7-2.3-1.9
		c-0.4-1.9-0.4-3.7,1.6-4.9c0.5-0.4,0.9-0.4,1.4,0C36.9,101.4,37,103.3,36.6,105.2z"/>
	<path id="XMLID_6_" class="st30" d="M35,100.3c-0.5,0-0.9,0-1.4,0c0.3-0.9,1-0.4,1.5-0.4c0,0,0,0.1,0,0.2
		C35.1,100.2,35,100.3,35,100.3z"/>
	<path id="XMLID_5_" class="st11" d="M35.6,97.3c-0.5,0.7-1.1,0.5-1.7,0.2C34.4,97.4,35,97.4,35.6,97.3
		C35.6,97.3,35.6,97.3,35.6,97.3z"/>
	<path id="XMLID_4_" class="st27" d="M82.1,109.7c-1.2,0-2.4,0-3.6,0c0,0-0.1-0.1-0.1-0.1c0-0.1,0-0.1,0.1-0.2c0.2,0,0.4,0,0.6,0
		c2,0.3,3.1-0.3,2.7-2.6c-0.1-0.5,0-1,0.3-1.5C82.1,106.7,82.1,108.2,82.1,109.7z"/>
	<path id="XMLID_3_" class="st11" d="M78.4,98.2c-0.1-0.1-0.3-0.2-0.4-0.4c1.1,0,2.1,0,3.2,0c0,0.1,0,0.2,0,0.4
		C80.3,98.2,79.4,98.2,78.4,98.2z"/>
	<path id="XMLID_2_" class="st21" d="M89.6,103.6c0-1.2,0.1-2.5,0-3.7c-0.1-1.3,0.4-1.8,1.7-1.8c1.3,0,1.6,0.5,1.6,1.7
		c-0.1,2.6-0.1,5.2,0,7.8c0,1.2-0.4,1.7-1.6,1.7c-1.2,0-1.8-0.3-1.7-1.6C89.7,106.4,89.6,105,89.6,103.6z"/>
	<path id="XMLID_1_" class="st5" d="M91.2,94.9c-0.6-0.1-1.6,0.2-1.5-0.8c0-1.2,1.1-0.8,1.7-0.8c0.6,0,1.5-0.2,1.4,0.9
		C92.7,95.2,91.8,94.8,91.2,94.9z"/>
</g>
</svg>
