<?xml version="1.0" encoding="utf-8"?>
<!-- Generator: Adobe Illustrator 23.0.1, SVG Export Plug-In . SVG Version: 6.00 Build 0)  -->
<svg version="1.1" id="Layer_1" xmlns="http://www.w3.org/2000/svg" xmlns:xlink="http://www.w3.org/1999/xlink" x="0px" y="0px"
	 viewBox="0 0 160 45" style="enable-background:new 0 0 160 45;" xml:space="preserve">
<style type="text/css">
	.st0{fill:#EA3137;}
	.st1{fill:#1B1B1B;}
	.st2{fill:#303030;}
	.st3{fill:#2F2F2F;}
	.st4{fill:#313131;}
	.st5{fill:#333333;}
	.st6{fill:#323232;}
	.st7{fill:#C23941;}
	.st8{fill:#2E2E2E;}
	.st9{fill:#2D2D2D;}
	.st10{fill:#1E1E1E;}
	.st11{fill:#212121;}
	.st12{fill:#171717;}
	.st13{fill:#181818;}
	.st14{fill:#B33F44;}
	.st15{fill:#A33740;}
	.st16{fill:#111111;}
	.st17{fill:#F9EAEA;}
	.st18{fill:#B64350;}
	.st19{fill:#B55458;}
	.st20{fill:#B43A37;}
	.st21{fill:#BC3941;}
	.st22{fill:#0E0E0E;}
	.st23{fill:#C1595C;}
	.st24{fill:#BC3F3F;}
	.st25{fill:#D7D7D7;}
</style>
<path class="st0" d="M76.73,21.9c1.8-2.73,3.81-5.25,6.69-6.94c0.42-0.24,0.87-0.4,1.37-0.28c3.3-0.2,6.6-0.33,9.9,0.06
	c0.24,3.53-0.03,7.02-0.69,10.49c-0.42,2.21-1.99,3.41-3.67,4.56c-0.59,0.55-1.55,0.14-2.11,0.78c-5.52,1.09-11.04,1.13-16.56-0.03
	c-0.76-0.49-1.29-1.1-1.05-2.1c0.12-0.48,0.43-0.78,0.9-0.92c1.5-1.17,2.92-2.41,3.77-4.16l0,0.01
	C75.98,23.08,76.45,22.58,76.73,21.9z"/>
<path class="st0" d="M65.95,22.63c-0.01-0.12-0.02-0.24-0.04-0.37c0.54-0.71-0.11-1.36-0.11-2.03c-0.01-2.79-0.29-5.59,0.19-8.38
	c0.27-1.56,0.74-3.1,0.64-4.72c0.99-2.34,2.6-3.49,5.22-4.16c4.68-1.2,9.32-1.17,13.94-0.49c2.37,0.35,5.21,0.24,6.76,2.83
	c0.28,0.97,1.18,1.93,0,2.9c-2.85,0.07-5.7,0.01-8.53,0.26c-1.44,0.12-2.83,0.79-4.24,1.22c-1.29,0.35-2.18,1.24-2.98,2.24
	l-0.01-0.03c-1.08,1.01-2.23,1.98-2.89,3.35c-1.97,2.65-4.16,5.1-6.54,7.38C66.89,23.01,66.42,23.03,65.95,22.63z"/>
<path class="st1" d="M117.67,42.75c0.43-0.32,1.09-0.41,1.25-1.32c-2.01,0-3.93,0.02-5.85-0.02c-0.42-0.01-1.37,0.42-0.99-0.75
	c1.06-0.27,2.13-0.13,3.2-0.07c2.02-0.02,4.05-0.04,6.07-0.04c0.33,0,0.77-0.15,0.94,0.27c0.16,0.4-0.23,0.63-0.42,0.9
	c-0.88,1.23-1.97,1.93-3.61,1.85c-2.67-0.13-5.36-0.07-8.04-0.09c0.21-0.94,0.95-0.43,1.43-0.47
	C113.65,42.82,115.68,43.29,117.67,42.75z"/>
<path class="st2" d="M90.41,41.38c-0.43,0.49-1.37,1.02,0.1,1.37c0.03,0.63,1.15-0.16,0.98,0.74c-1.25,0.03-2.5,0.06-3.75,0.08
	c-0.69,0.01-1.2-0.21-1-1.06c0.28-1.22,3.13-3.81,4.4-4.01c0.36,0.28,0.97,0.15,1.17,0.7c-0.03,0.68-0.71,1-0.91,1.59
	C91.2,41.21,90.68,41.08,90.41,41.38z"/>
<path class="st3" d="M55.01,42.74c1.63-0.15,2.47-1.38,3.28-2.55c1.02-1.47,2.27-2.2,4.06-1.7c-1.64,3.54-3.9,5.19-6.88,4.99
	C55.51,43.12,55.18,42.98,55.01,42.74z"/>
<path class="st4" d="M79.66,39.24c-0.77,0.84-1.63,1.6-2.28,2.52c-1.02,1.46-2.24,2.25-4.34,1.64c1.4-1.63,2.71-3.26,4.14-4.77
	c0.52-0.55,1.36-0.22,2.06-0.13C79.46,38.7,79.67,38.91,79.66,39.24z"/>
<path class="st4" d="M55.1,43.49c-1.85,0.02-3.7,0.11-5.55,0.05c-1.36-0.04-1.71-0.76-0.88-1.86c0.75-1,1.65-1.88,2.48-2.81
	c0.76,0.06,1.85-0.9,2.12,0.68c-0.59,0.74-1.15,1.49-1.77,2.2c-0.34,0.4-0.41,0.69,0.08,0.99c0.78,0.57,1.66,0.09,2.48,0.25
	C54.44,43.08,55.06,42.7,55.1,43.49z"/>
<path class="st5" d="M105.98,39.25c-1.17,0.57-2.18,1.23-2.91,2.43c-1.24,2.03-1.46,2.03-4.34,1.76c1.46-1.59,2.76-3.17,4.24-4.56
	c0.63-0.59,1.65-0.62,2.57-0.38C105.46,38.88,105.6,39.14,105.98,39.25z"/>
<path class="st2" d="M66.73,39.27c-1.07,0.51-1.57,1.56-2.23,2.43c-1.07,1.42-2.23,2.5-4.29,1.67c1.32-1.6,2.57-3.3,4.2-4.67
	c0.39-0.33,0.73-0.33,1.14-0.22C65.91,38.8,66.58,38.63,66.73,39.27z"/>
<path class="st4" d="M42.92,39.24c-1.18,0.55-1.99,1.56-2.65,2.58c-1.02,1.57-2.34,2.06-4.37,1.61c1.75-1.89,3.02-4.04,5.53-4.92
	C41.89,38.83,42.59,38.65,42.92,39.24z"/>
<path class="st6" d="M73.84,40.19c-0.34,0.41-0.81,0.76-1.01,1.22c-0.79,1.85-2.11,2.56-4.19,2.05c0.49-1.07,1.43-1.79,2.1-2.7
	c0.32-0.44,1.03-0.76,0.45-1.48c0.63-0.95,1.53-0.71,2.34-0.42C74.12,39.07,74.14,39.65,73.84,40.19z"/>
<path class="st6" d="M85.65,41.71c-0.86,1.72-2.22,2.27-4.19,1.68c0.84-1,1.61-1.96,2.43-2.87c0.44-0.49,0.6-0.88-0.07-1.26
	c0.81-1.1,1.93-0.54,2.88-0.4c0.59,0.09,0.31,0.75,0.09,1.17C86.48,40.64,85.62,40.87,85.65,41.71z"/>
<path class="st7" d="M66.63,7.14c1.23,1.36,0.06,2.69-0.24,3.9c-0.7,2.84-0.33,5.67-0.47,8.51c-0.04,0.91,1.63,1.83-0.02,2.72
	C65.21,17.18,65.15,12.12,66.63,7.14z"/>
<path class="st8" d="M96.89,38.49c0.41-0.03,0.84-0.13,1.24-0.06c0.82,0.13,1.88-0.49,2.41,0.45c0.33,0.59-1.93,2.45-2.93,2.49
	c-0.36-0.3-0.96-0.16-1.18-0.69c-0.1-0.49,0.26-0.87,0.31-1.33C96.75,39.05,96.69,38.74,96.89,38.49z"/>
<path class="st9" d="M115.28,40.59c-1.05,0.72-2.13,0.51-3.2,0.07c0.96-1.35,1.96-2.61,3.91-2.16c0.3,0.32,0.27,0.64,0.01,0.97
	C115.71,39.81,115.22,40.03,115.28,40.59z"/>
<path class="st10" d="M85.65,41.71c-0.58-0.78,0.29-0.97,0.58-1.38c0.23-0.33,0.66-0.62,0.5-1.04c-0.17-0.43-0.73-0.38-1.06-0.33
	c-0.61,0.09-1.3-0.19-1.83,0.31c-1.39-0.01-2.78-0.01-4.17-0.02c-0.31-0.15-0.42-0.41-0.42-0.74c2.25-0.03,4.5-0.05,6.75-0.08
	c0.54-0.01,1.11-0.02,1.39,0.55c0.25,0.52-0.18,0.89-0.46,1.25C86.52,40.74,86.08,41.22,85.65,41.71z"/>
<path class="st11" d="M73.84,40.19c-0.27-2.1-1.52-1.34-2.65-0.9c-1.49-0.01-2.97-0.01-4.46-0.02c-0.39-0.26-0.79-0.52-1.18-0.78
	c2.54-0.02,5.08-0.05,7.62-0.07c0.48,0,1.01-0.01,1.24,0.5C74.66,39.48,74.4,39.93,73.84,40.19z"/>
<path class="st12" d="M115.99,39.47c0-0.32-0.01-0.64-0.01-0.97c2.71,0,5.41,0,8.12,0C121.52,39.9,118.66,38.88,115.99,39.47z"/>
<path class="st13" d="M42.92,39.24c-0.56-0.12-1.11-0.26-1.5-0.72c2.69,0,5.38,0,8.07,0C48.83,39.46,47.83,39.57,42.92,39.24z"/>
<path class="st12" d="M91.49,43.49c-0.3-0.38-0.72-0.28-1.12-0.32c-0.13-0.01-0.39,0.04-0.3-0.2c0.04-0.11,0.29-0.15,0.44-0.22
	c2.31,0,4.62,0,6.92,0C95.58,44.09,93.48,43.34,91.49,43.49z"/>
<path class="st13" d="M105.98,39.25c-0.46-0.07-0.75-0.23-0.45-0.75c2.28,0,4.56,0,6.85,0C110.34,39.77,108.13,39.16,105.98,39.25z"
	/>
<path class="st13" d="M96.47,40.61c0.38,0.25,0.76,0.5,1.14,0.75c-2.4,0.01-4.8,0.01-7.2,0.02c0.25-0.27,0.49-0.54,0.74-0.8
	C92.93,39.87,94.7,39.8,96.47,40.61z"/>
<path class="st13" d="M96.89,38.49c0.11,0.27,0.22,0.54,0.33,0.81c-1.65,0.68-3.29,0.73-4.93-0.05c-0.39-0.25-0.77-0.5-1.16-0.75
	C93.05,38.5,94.97,38.49,96.89,38.49z"/>
<path class="st14" d="M75.29,23.36c-0.41,2.15-1.94,3.34-3.71,4.33c-0.1-0.13-0.09-0.26,0.02-0.39
	C72.83,25.99,74.06,24.68,75.29,23.36z"/>
<path class="st15" d="M94.69,14.74c-3.3-0.02-6.6-0.04-9.9-0.06c3.25-0.85,6.53-0.48,9.81-0.26C94.64,14.42,94.66,14.63,94.69,14.74
	z"/>
<path class="st16" d="M117.67,42.75c0.11,0.04,0.27,0.04,0.32,0.12c0.3,0.44-0.15,0.29-0.27,0.29c-1.94,0.01-3.88,0-5.82,0.02
	c-0.57,0.01-1.19-0.19-1.67,0.31c-0.28,0.03-0.7,0.16-0.44-0.37c0.25-0.52,0.79-0.46,1.27-0.45
	C113.25,42.69,115.46,42.72,117.67,42.75z"/>
<path class="st17" d="M71.6,27.31c-0.01,0.13-0.01,0.26-0.02,0.39c-0.21,0.24-0.42,0.48-0.63,0.71c-0.42,0.53-0.52,1.25-1,1.74
	c-0.93-0.79-0.29-1.56,0.05-2.31C70.32,27.1,70.93,27.09,71.6,27.31z"/>
<path class="st18" d="M92.56,8.21c0.5-0.97-0.11-1.93,0-2.9c0.36,0.53,0.77,1.03,1.06,1.59C94.23,8.08,93.84,8.53,92.56,8.21z"/>
<path class="st19" d="M69.94,30.14c-0.29-0.94,0.49-1.26,1-1.74c-0.29,0.89,0.5,1.42,0.72,2.14C71.03,30.7,70.54,30.17,69.94,30.14z
	"/>
<path class="st20" d="M73.9,15.24c0.4-1.6,1.38-2.7,2.89-3.35C75.91,13.08,75.1,14.33,73.9,15.24z"/>
<path class="st21" d="M76.8,11.92c0.42-1.51,1.47-2.18,2.98-2.24C78.79,10.43,77.8,11.18,76.8,11.92z"/>
<path class="st22" d="M55.1,43.49c-1.12-0.74-2.42,0-3.58-0.44c-0.03-0.01-0.03-0.11-0.02-0.16c0.01-0.06,0.06-0.1,0.08-0.16
	c1.14,0,2.28,0,3.42,0c0.11,0.28,1.48-0.23,0.46,0.74C55.34,43.49,55.22,43.49,55.1,43.49z"/>
<path class="st11" d="M53.27,39.55c-0.44-1.08-1.49-0.22-2.12-0.68c0.82-0.95,1.87-0.22,2.8-0.49
	C54.09,39.06,53.55,39.22,53.27,39.55z"/>
<path class="st7" d="M65.95,22.63c0.47,0,0.94,0,1.41,0c-0.13,0.67-0.51,1.32-1.16,1.25C65.73,23.82,65.93,23.08,65.95,22.63z"/>
<path class="st23" d="M88.23,30.58c0.33-1.27,1.4-0.53,2.11-0.78C89.81,30.53,89.02,30.55,88.23,30.58z"/>
<path class="st24" d="M76.73,21.9c0.13,1.1-0.33,1.61-1.45,1.46C75.6,22.71,75.97,22.12,76.73,21.9z"/>
<path class="st25" d="M92.29,39.25c1.64,0.02,3.29,0.03,4.93,0.05c0.13,0.65-0.48,0.89-0.75,1.31c-1.77-0.01-3.55-0.02-5.32-0.04
	C91.26,39.9,91.89,39.68,92.29,39.25z"/>
</svg>
