<?xml version="1.0" encoding="utf-8"?>
<!-- Generator: Adobe Illustrator 19.0.0, SVG Export Plug-In . SVG Version: 6.00 Build 0)  -->
<svg version="1.1" id="Layer_1" xmlns="http://www.w3.org/2000/svg" xmlns:xlink="http://www.w3.org/1999/xlink" x="0px" y="0px"
	 viewBox="0 0 160 44" style="enable-background:new 0 0 160 44;" xml:space="preserve">
<style type="text/css">
	.st0{fill:#FC0000;}
	.st1{fill:#020000;}
	.st2{fill:#F07F1F;}
	.st3{fill:#898989;}
</style>
<g>
	<path class="st0" d="M68.6,309.4c0.5,0.1,0.4-0.3,0.5-0.6c0.5-2,1-4.1,1.4-6.1c0.2-0.7,0.4-1,1.2-1c16.1,0,32.3,0,48.4,0
		c0.9,0,1,0.2,0.8,1.1c-0.6,2.4-1.1,4.8-1.6,7.2c-0.2,0.8-0.5,1.1-1.4,1.1c-5.4,0-10.8,0-16.1,0c-0.9,0-1.3,0.2-1.5,1.1
		c-3.5,14.7-7,29.3-10.6,43.9c-0.2,0.8-0.5,1.1-1.4,1.1c-3.7-0.1-7.4,0-11.1,0c-0.8,0-1-0.1-0.8-1c3.6-14.7,7.1-29.4,10.7-44
		c0.3-1.1-0.1-1.1-1-1.1c-5.4,0-10.8,0-16.1,0c-0.4,0-0.9-0.1-1.3-0.1C68.6,310.5,68.6,310,68.6,309.4z"/>
	<path class="st0" d="M279.9,388.9c0.2-0.6-0.3-0.4-0.6-0.4c-8.4-1.2-15.9-4.3-22.7-9.5c-10.4-7.9-16.8-18.3-18.9-31.2
		c-4.3-26.5,13-50.7,38-56.1c1.4-0.3,2.8-0.5,4.2-0.8c0,0,0-0.1,0.1-0.1c0.1-0.2-0.1-0.1-0.1-0.2c4.3,0,8.5,0,12.8,0
		c-0.2,0.6,0.3,0.4,0.5,0.4c8.7,1.2,16.5,4.5,23.4,9.9c10.1,8,16.3,18.4,18.3,31.1c4.1,25.6-12.6,50.1-38.1,55.7
		c-1.4,0.3-2.8,0.5-4.2,0.8c0,0,0,0.1-0.1,0.1c-0.1,0.2,0.1,0.1,0.1,0.2C288.5,388.9,284.2,388.9,279.9,388.9z M286.4,294.1
		c-24.3-0.2-45.5,19.4-45.7,45.2c-0.2,26.2,21.1,46,45.5,46c24.7,0,45.2-19.7,45.7-44.6C332.5,314.5,311.3,294,286.4,294.1z"/>
	<path class="st0" d="M514,320c-0.4-0.2-0.4,0.2-0.4,0.4c-0.4,1.6-0.8,3.3-1.1,4.9c-0.2,0.9-0.5,1.1-1.4,1.1c-1.9-0.1-3.7,0-5.6,0
		c-0.6,0-0.9,0.2-1.1,0.8c-1.6,6.8-3.2,13.5-4.8,20.3c-0.5,2,0.4,3.2,2.5,3.4c1.6,0.1,3.2,0,4.8-0.1c0.7-0.1,0.8,0.1,0.6,0.8
		c-0.6,2.2-1.1,4.4-1.6,6.6c-0.1,0.4-0.2,0.7-0.7,0.8c-4.2,0.6-8.5,0.8-12.7-0.3c-4-1.1-6.8-4.4-6-9.1c0.4-2.3,0.9-4.6,1.5-6.9
		c1.2-5.1,2.5-10.3,3.8-15.4c0.2-0.9,0-1-0.8-0.9c-1.5,0-2.9,0-4.4,0c-0.6,0-0.8-0.1-0.7-0.8c0.6-2.2,1-4.3,1.5-6.5
		c0.1-0.6,0.4-0.9,1-0.8c1.4,0.1,2.8-0.1,4.1,0c1,0.1,1.3-0.3,1.5-1.2c0.3-1.5,0.7-2.9,1-4.3c0.1-0.5,0.3-0.8,0.8-1
		c4.4-2.3,8.7-4.6,13.1-6.9c0.1-0.1,0.3-0.1,0.6-0.2c-0.6,2.7-1.2,5.3-1.8,7.9c-0.4,1.6-0.7,3.3-1.2,4.9c-0.2,0.7-0.1,0.9,0.7,0.9
		c2.2,0,4.4,0,6.6,0C514,318.8,514,319.4,514,320z"/>
	<path class="st0" d="M418.5,339.9c-2.3,1.8-4.4,3.5-6.7,5.2c-1.2,0.9-1.9,2-2.2,3.4c-0.6,3.1-1.5,6.1-2.2,9.1
		c-0.2,0.7-0.5,0.9-1.1,0.9c-3.6,0-7.1,0-10.7,0c-1,0-1-0.4-0.8-1.1c1.8-7.5,3.7-15,5.5-22.6c1.1-4.3,2.1-8.7,3.2-13
		c0.1-0.3,0.2-0.6,0-1.1c-0.8,1.5-1.6,2.9-2.3,4.3c-0.3,0.6-0.7,1.2-1,1.9c-0.2,0.4-0.4,0.5-0.9,0.4c-6.2-1.1-11.7,1.6-14.7,7.2
		c-1.9,3.6-2.9,7.5-3.8,11.4c-0.9,3.9-1.9,7.7-2.7,11.6c-0.2,0.8-0.5,1.1-1.4,1.1c-3.5-0.1-7,0-10.4,0c-0.9,0-1-0.3-0.8-1
		c3.1-12.8,6.2-25.5,9.3-38.3c0.2-0.7,0.4-1,1.2-1c3.3,0,6.6,0,9.9,0c1,0,1,0.3,0.8,1.1c-0.4,1.6-0.8,3.3-1.2,4.9
		c-0.1,0.3-0.2,0.6,0,0.9c1.1-1.3,2.2-2.5,3.4-3.6c3.2-2.9,6.9-4.6,11.3-4.3c1.1,0.1,2.2,0.2,3.2,0.6c1.1,0.5,1.4,0,1.6-0.9
		c1-4.4,2.1-8.8,3.1-13.1c0.2-0.7,0.4-0.9,1.1-0.9c3.5,0,7,0.1,10.5,0c1.1,0,1.1,0.4,0.9,1.2c-2.1,8.7-4.2,17.4-6.3,26.2
		c-0.1,0.4-0.3,0.7-0.1,1.2c2.2-1.9,4.4-3.7,6.7-5.5c2.8-2.4,5.7-4.7,8.5-7.1c0.4-0.3,0.8-0.6,1.4-0.6c5,0,9.9,0,14.9,0
		c0.1,0,0.3,0,0.7,0.1c-1.6,1.2-2.9,2.3-4.3,3.4c-4.5,3.5-9,7-13.5,10.5c-0.7,0.5-0.6,0.9-0.4,1.6c3.1,7.9,6.1,15.8,9.2,23.6
		c0.4,1,0.1,1.1-0.8,1.1c-3.4,0-6.9,0-10.3,0c-0.8,0-1.2-0.2-1.4-1c-1.9-5.5-3.8-11.1-5.7-16.6C418.7,340.6,418.6,340.3,418.5,339.9
		z M403.8,320.5c0,0-0.1-0.1-0.1-0.1c0,0-0.1,0.1-0.1,0.1c0,0.1,0,0.1,0.1,0.2C403.7,320.6,403.7,320.5,403.8,320.5z"/>
	<path class="st0" d="M468.2,341.7c-4.9,0-9.8,0-14.7,0c-0.8,0-1.1,0.2-1.1,1c0,5,3.8,8.8,8.7,8.9c4.1,0.1,7.3-1.5,9.7-4.8
		c0.4-0.5,0.7-0.7,1.4-0.6c3.2,0.5,6.5,0.9,9.7,1.4c0.9,0.1,0.4,0.6,0.2,0.9c-2.8,4.7-6.9,8-12.2,9.6c-6.2,1.9-12.4,1.9-18.4-0.5
		c-7.1-2.9-11.1-9-11.2-16.7c-0.2-10.7,7.6-21.4,20-23.3c4.5-0.7,9.1-0.8,13.5,0.7c6.6,2.2,10.7,7.7,10.9,14.6
		c0.1,2.6,0,5.1-0.6,7.7c-0.2,0.8-0.5,1.1-1.3,1.1C478,341.7,473.1,341.7,468.2,341.7z M463.6,335.1c2.9,0,5.8,0,8.6,0
		c0,0,0.1,0,0.1,0c0.9,0.1,1.1-0.2,1-1.1c-0.1-1.5-0.2-3-0.8-4.4c-1.7-3.9-5.4-5.2-9.7-4.4c-4.9,0.9-7.6,4.2-8.9,8.9
		c-0.2,0.8-0.1,1,0.7,0.9C457.7,335,460.6,335.1,463.6,335.1z"/>
	<path class="st0" d="M349,354.1c-2.4,2.2-5,3.7-8,4.6c-2.1,0.6-4.2,0.9-6.4,0.8c-0.7,0-0.8-0.2-0.6-0.8c1-2.4,1.7-4.8,2.3-7.3
		c0.1-0.5,0.3-0.7,0.9-0.5c5.2,1.7,11-1.2,12.9-6.2c0.6-1.5,1-3.1,1.3-4.8c-4.4,0.7-8.7,0.9-12.9,2.3c-0.7,0.2-0.9,0.2-0.9-0.6
		c0-2.1,0.2-4.1-0.2-6.2c-0.1-0.6,0.2-0.7,0.7-0.7c3.2-0.3,6.3-0.6,9.5-0.9c1.6-0.2,3.2-0.5,4.7-0.7c0.5-0.1,0.9-0.3,1-1
		c0.1-0.8,0.4-1.7,0.5-2.5c0.2-1.4-0.6-3-2.2-3.6c-3.4-1.3-6.7-1.3-9.9,0.6c-0.9,0.5-1.5,1.3-1.9,2.3c-0.2,0.6-0.5,0.7-1.2,0.7
		c-2.1-0.2-2.2-0.2-2.7-2.3c-0.5-2-1-3.9-1.8-5.7c-0.3-0.7-0.1-1,0.5-1.3c2.5-1.4,5.3-2.2,8.2-2.6c4.7-0.6,9.5-0.6,14.1,0.6
		c2.6,0.7,4.9,1.9,6.8,4c2,2.2,2.6,4.9,2.2,7.8c-0.7,5-2.2,9.7-3.3,14.6c-0.7,3.2-1.6,6.4-1.3,9.8c0.1,1.2,0.4,2.3,0.7,3.4
		c0.2,0.5,0.2,0.8-0.5,0.8c-3.7,0-7.3,0-11,0c-0.6,0-0.8-0.4-0.9-0.8C349.5,356.5,349.3,355.4,349,354.1z"/>
	<path class="st0" d="M163.9,321.3c1-0.6,1.9-1.2,2.8-1.7c4.2-2.5,8.8-3.8,13.8-3.6c3.2,0.1,6.1,0.9,8.5,3.1
		c2.6,2.4,3.5,5.4,2.9,8.8c-1.3,7.4-3.4,14.6-5.2,21.8c-0.5,2.2-1.1,4.5-1.6,6.7c-0.1,0.6-0.4,0.9-1,0.9c-3.6,0-7.3,0-10.9,0
		c-0.8,0-0.9-0.3-0.7-1c2-8,4-16,6-23.9c0.3-1.1,0.5-2.2,0.7-3.4c0.5-2.8-1.6-5-4.8-5.2c-4.5-0.2-7.7,2.2-10.5,5.3
		c-2.3,2.5-3.1,5.6-3.9,8.8c-1.5,6.1-3,12.2-4.5,18.3c-0.2,0.8-0.5,1.1-1.3,1.1c-3.5,0-7,0-10.5,0c-0.8,0-1-0.1-0.8-1
		c4-16.3,7.9-32.6,11.8-48.9c0.4-1.6,0.8-3.2,1.1-4.8c0.1-0.6,0.3-0.8,0.9-0.8c3.7,0,7.3,0,11,0c0.9,0,0.8,0.4,0.6,1
		c-1.4,5.9-2.9,11.9-4.3,17.8C164,320.7,164,320.9,163.9,321.3z"/>
	<path class="st0" d="M128,340.5c-4.9,0-9.7,0-14.6,0c-1.1,0-1.3,0.4-1.3,1.4c0.3,5.2,4.2,8.6,9.4,8.5c3.8-0.1,6.8-1.7,8.9-4.8
		c0.4-0.6,0.9-0.8,1.6-0.7c3,0.5,6,0.9,9.1,1.3c1.2,0.2,1.2,0.2,0.5,1.3c-3.8,6.1-9.4,9.4-16.5,10.4c-4.8,0.7-9.5,0.3-14.1-1.6
		c-7.5-3.2-11.6-10.3-11.1-18.3c0.5-9.3,7.6-19.9,20.6-21.7c4.9-0.6,9.7-0.7,14.3,1.3c5.8,2.5,8.8,7.1,9.4,13.3
		c0.3,2.8,0,5.6-0.5,8.4c-0.2,0.9-0.5,1.2-1.5,1.2C137.7,340.5,132.9,340.5,128,340.5z M123.3,333.9c2.4,0,4.8,0,7.2,0
		c2.7,0,2.7,0,2.6-2.7c-0.2-3.5-2.3-6.2-5.7-7c-1.8-0.5-3.7-0.5-5.5,0.1c-4.3,1.3-6.8,4.3-8,8.6c-0.2,0.8-0.2,1.2,0.8,1.2
		C117.5,333.8,120.4,333.9,123.3,333.9z"/>
	<path class="st0" d="M212.3,321.9c3.4-2.4,6.9-4.5,11-5.4c3.6-0.8,7.2-0.9,10.7,0.3c0.7,0.2,1.3,0.5,1.9,0.9
		c2.8,1.6,2.9,1.8,1.8,4.7c-3,8.4-3.7,17-2.3,25.8c0.1,0.7,0.1,1.3-0.1,2c-0.5,2-1,4-1.5,6.1c-0.2,0.7-0.4,1-1.2,0.9
		c-3.6-0.1-7.1,0-10.7,0c-0.9,0-1-0.2-0.8-1c2-8.1,4-16.2,6-24.3c0.2-0.8,0.4-1.5,0.5-2.3c0.7-3.4-1.1-5.7-4.6-5.8
		c-3.5-0.1-6.3,1.5-8.9,3.6c-2.7,2.2-4.1,5.3-5,8.5c-1.9,6.5-3.3,13.2-4.9,19.8c-0.3,1.1-0.6,1.5-1.8,1.5c-3.4-0.1-6.8-0.1-10.2,0
		c-0.8,0-0.9-0.3-0.8-1c3.1-12.8,6.2-25.7,9.3-38.5c0.1-0.6,0.4-0.8,1-0.8c3.5,0,7,0,10.4,0c0.7,0,0.8,0.2,0.7,0.9
		c-0.3,1.3-0.7,2.6-0.8,3.9c0,0-0.1,0.1-0.1,0.1C212.1,321.9,212.2,321.9,212.3,321.9z"/>
	<path d="M403.8,320.5c0,0-0.1,0.1-0.1,0.1c0-0.1,0-0.1-0.1-0.2c0,0,0-0.1,0.1-0.1C403.7,320.4,403.7,320.4,403.8,320.5z"/>
	<path d="M212.3,321.9c-0.1,0-0.2,0-0.2,0c0,0,0.1-0.1,0.1-0.1C212.2,321.8,212.3,321.8,212.3,321.9z"/>
	<path class="st0" d="M291.9,336.2c6-7,12-13.9,18-20.9c0.3-0.4,0.7-0.6,1.2-0.6c2.2,0,4.4,0,6.6,0c0.9,0,0.9,0.4,0.7,1
		c-3,12.9-6,25.9-9,38.8c-0.2,0.9-0.2,2.2-0.8,2.7c-0.7,0.6-1.9,0.2-2.9,0.2c-1.7,0-3.4-0.1-5.2,0c-1,0-1-0.3-0.8-1.1
		c1.3-5.8,2.6-11.7,3.9-17.5c0.3-1.6,0.7-3.1,0.8-4.8c-1.4,1.6-2.8,3.3-4.2,4.9c-4.8,5.7-9.6,11.5-14.4,17.2c-0.5,0.6-1,0.8-1.7,0.8
		c-1.9-0.1-3.8,0-5.7,0c-0.8,0-1.1-0.1-0.9-1c1.6-7.1,3-14.1,4.5-21.2c0-0.2,0-0.4,0-0.7c-0.5,0.1-0.7,0.6-1,0.9
		c-5.7,6.9-11.5,13.9-17.2,20.9c-0.7,0.9-1.5,1.4-2.7,1.3c-3.1-0.1-6.2,0-9.3,0c-0.1-0.5,0.2-0.6,0.4-0.9
		c11.3-13.4,22.7-26.8,34-40.3c0.8-0.9,1.6-1.4,2.8-1.3c1.8,0.1,3.6,0.1,5.4,0c0.9,0,1.1,0.2,0.9,1.1c-0.9,4.4-1.7,8.8-2.6,13.3
		c-0.4,2-0.8,4.1-1.2,6.1C291.8,335.5,291.6,335.9,291.9,336.2c0,0-0.1-0.1-0.1-0.1c0,0,0,0.1-0.1,0.1
		C291.8,336.2,291.8,336.2,291.9,336.2z M282.3,333.8L282.3,333.8L282.3,333.8L282.3,333.8z"/>
	<path class="st0" d="M317.5,326.4c6.4,14.4,1.8,34.2-15.2,43.2c-16.2,8.6-35.1,2.4-43.9-11.1c1.4,0,2.7,0,4.1,0
		c0.3,0,0.5,0.3,0.6,0.6c5.4,6.3,12.2,10,20.5,10.8c16.5,1.5,29.7-9.8,32.6-24c0.9-4.1,0.9-8.2,0-12.3c-0.1-0.3-0.1-0.7-0.1-1
		C316.5,330.6,317,328.6,317.5,326.4z"/>
	<path class="st0" d="M254.6,351.5c-0.9-2.3-1.5-4.5-1.8-6.7c-1.2-8.8,0.5-17,5.6-24.3c5.7-8.2,13.6-13.1,23.4-14.4
		c9.7-1.3,18.5,1.3,26.1,7.5c0.7,0.5,0.7,0.8,0.1,1.5c-1.6,1.8-1.5,1.8-3.5,0.4c-6.2-4.7-13.3-6.7-21-6
		c-14.5,1.3-24.8,12.2-27.1,24.4c-0.9,4.6-0.8,9.1,0.5,13.6c0.2,0.6,0.1,1.1-0.4,1.6C256,349.8,255.4,350.6,254.6,351.5z"/>
	<path class="st0" d="M282.3,304.7c1-1.3,2-2.1,3.1-3c2.3-1.9,4.8-3.4,7.5-4.6c0.7-0.3,1.4-0.4,2.2-0.3c3.5,0.7,6.8,1.8,10,3.3
		c0.2,0.1,0.3,0.2,0.7,0.4c-1.7,0.3-3.2,0.6-4.6,1c-2.6,0.7-5,1.7-7.3,3.1c-0.5,0.3-1,0.5-1.7,0.4
		C289,304.4,285.7,304.3,282.3,304.7z"/>
	<path class="st0" d="M309.2,376.9c1-2.7,1.8-5.4,2.2-8.2c0.1-0.8,0.4-1.6,0.3-2.4c-0.2-1.5,0.5-2.6,1.5-3.6c1.9-2,3.3-4.3,4.7-6.8
		c0.4,0.6,0.4,1.2,0.6,1.8c0.1,0.6,0.2,1.2,0.3,1.8c0.5,3,0.5,6,0.2,9c0,0.4-0.1,0.7-0.4,1C315.8,372.4,312.8,374.9,309.2,376.9z"/>
	<path class="st0" d="M263.3,312.9c1-5,2.9-9.3,5.7-13.2c0.1-0.1,0.3-0.3,0.4-0.4c3.6-1.5,7.4-2.5,11.3-3c0.1,0.5-0.3,0.5-0.5,0.7
		c-3.3,2.7-6,5.9-8,9.7c-0.3,0.6-0.7,0.9-1.2,1.2C268.3,309.2,265.8,310.9,263.3,312.9z"/>
	<path class="st0" d="M321.6,313.6c-4.2-1.4-8.5-2-12.8-1.7c-0.3,0-0.6,0-0.9-0.2c-2.4-1.8-5-3.3-8-4.6c1.2-0.4,2.2-0.7,3.1-1
		c1-0.3,2-0.5,2.9-0.6c2.1-0.3,4.2-0.6,6.4-0.5c0.4,0,0.7,0,1.1,0.2C316.6,307.6,319.4,310.4,321.6,313.6z"/>
	<path class="st0" d="M259.9,304.9c-1.5,4.3-2.2,8.6-2,13.1c0,0.3,0,0.6-0.2,0.8c-1.8,2.4-3.2,5-4.5,7.9c-0.7-1.4-1-2.7-1.3-4.1
		c-0.6-2.6-0.8-5.3-0.7-8c0-1,0.3-1.9,1-2.7C254.6,309.4,257,306.9,259.9,304.9z"/>
	<path class="st0" d="M326.3,357.9c-0.8-4.5-2.2-8.6-4.6-12.5c-0.3-0.5-0.1-1,0-1.5c0.3-2.7,0.3-5.3,0.1-8.2
		c1.4,1.2,2.5,2.4,3.5,3.7c1.6,2,2.8,4.1,3.9,6.4c0.4,0.9,0.6,1.8,0.3,2.8C328.8,351.8,327.8,354.9,326.3,357.9z"/>
	<path class="st0" d="M288.2,374.9c-1.6,1.8-3.2,3.3-5.1,4.5c-6.2,3.9-4.5,3.6-11.2,1.6c-1.7-0.5-3.4-1.2-5.2-2.2
		c1.1-0.3,1.9-0.5,2.8-0.7c2.7-0.6,5.2-1.6,7.5-3c1.2-0.7,2.2-1,3.6-0.7C283,374.9,285.5,375,288.2,374.9z"/>
	<path class="st0" d="M251.5,366.2c2.5,0.6,4.9,1.3,7.4,1.5c1.7,0.2,3.4,0.1,5.1,0.1c0.3,0,0.7-0.1,1,0.1c2.2,1.6,4.5,3,7.2,4.2
		c-2.3,1-4.6,1.6-6.9,1.9c-1.7,0.3-3.3,0.5-5,0.5c-0.4,0-0.7,0-1.1-0.2C256.3,371.9,253.6,369.4,251.5,366.2L251.5,366.2z"/>
	<path class="st0" d="M290,383.1c1.6-1.5,3.2-2.9,4.5-4.6c1.2-1.5,2.3-3.1,3.3-4.8c0.3-0.6,0.7-0.9,1.3-1.1c2.6-0.9,4.9-2.2,7.4-3.8
		c-1,4.5-2.8,8.3-5.3,11.8c-0.2,0.3-0.4,0.4-0.7,0.5c-3.3,1.1-6.6,1.8-10,2.1C290.3,383.2,290.2,383.2,290,383.1z"/>
	<path class="st0" d="M251.3,345.6c-3.7-3-6.5-6.3-8.6-10.2c-0.4-0.7-0.1-1.2,0-1.9c0.4-3.2,1.2-6.3,2.5-9.5
		c0.2,0.9,0.4,1.5,0.6,2.1c0.9,3.4,2.4,6.6,4.4,9.5c0.5,0.7,0.7,1.4,0.6,2.4c-0.2,2.1,0,4.3,0.3,6.4
		C251.1,344.7,251.2,345,251.3,345.6z"/>
	<path class="st0" d="M330.4,336.4c-2-2.4-4-4.4-6.2-6.1c-0.5-0.4-1-0.9-1.6-1.1c-2.1-0.9-3.2-2.5-4-4.6c-0.6-1.6,0.2-2.8,0.4-4.2
		c0-0.4,0.4-0.1,0.6,0c2.9,1.1,5.6,2.6,8.1,4.4c0.4,0.3,0.5,0.6,0.6,1C329.4,329.2,330,332.6,330.4,336.4z"/>
	<path class="st0" d="M242.5,344.4c0.5,0.1,0.6,0.4,0.8,0.6c2.6,2.8,5.6,5.1,9,6.9c1.2,0.6,1.2,0.8,0.3,1.9
		c-0.9,1.1-1.9,2.2-2.8,3.3c-0.4,0.5-0.7,0.5-1.2,0.2c-1-0.7-2.1-1.3-3.1-2c-0.3-0.2-0.5-0.4-0.6-0.7
		C243.7,351.3,242.9,347.9,242.5,344.4z"/>
	<path class="st0" d="M257.5,360.6c-2.1-0.3-4-0.9-5.8-2c1.4,0,2.9-0.1,4.3,0C256.9,358.8,257,359.9,257.5,360.6z"/>
	<path class="st0" d="M251.4,366.2c-0.1,0-0.2-0.1,0-0.2C251.4,366,251.4,366.1,251.4,366.2C251.5,366.2,251.4,366.2,251.4,366.2z"
		/>
	<path class="st1" d="M291.9,336.2c-0.1,0-0.1,0-0.2,0c0,0,0-0.1,0.1-0.1C291.8,336.2,291.9,336.2,291.9,336.2
		C291.9,336.3,291.9,336.2,291.9,336.2z"/>
	<polygon class="st1" points="282.3,333.8 282.3,333.8 282.3,333.8 	"/>
</g>
<g id="XMLID_58_">
	<path id="XMLID_56_" class="st2" d="M25.6,27.1C18,26,13.2,20.9,13.5,14.3c0.3-6.5,5.6-11.8,12.1-12C31.8,2.2,37,6.9,37.9,13.9
		c-3.7-2.6-7.5-4.2-12-4.2c0,2.3,0,4.4,0,6.8c4.6,0.4,8.3,2.4,10.6,6.7c1.4,2.7,1.8,5.6,1.1,8.6c-1.2,5.2-6.2,10.1-13.3,9.4
		c-5.6-0.6-10.4-5.4-10.7-11.2c1.9,0.9,3.6,2.1,5.6,2.8c2,0.7,4.1,1,6.4,1.5C25.6,31.6,25.6,29.4,25.6,27.1z"/>
	<path id="XMLID_55_" class="st2" d="M156.4,24.2c0,1.4,0,2.6,0,3.9c-33.5,0-66.9,0-100.4,0c0-1.4,0-2.7,0-3.9
		C89.5,24.2,122.9,24.2,156.4,24.2z"/>
	<path id="XMLID_54_" class="st3" d="M61.5,9.7c-0.2,1.2,0.5,1.2,1.2,1.2c2,0,4,0,5.9,0.1c1.2,0,2.4,0.2,3.6,0.4
		c2.4,0.4,3.3,1.5,3.4,4c0.1,3-0.7,4.7-3.1,5c-3.1,0.4-6.3,0.5-9.5,0.5c-1.4,0-2.9-0.1-4.3-0.5c-2.4-0.6-3.3-2.1-3.2-4.9
		c1.6,0,3.1,0,4.7,0c0.3,0,0.7,0.2,1,0.5c1.8,1.6,6.5,1.9,8.4,0.5c0.1-0.1,0.1-0.3,0.2-0.4c-0.6-1.1-1.6-1-2.6-1
		c-2.5-0.1-5,0-7.5-0.2c-1.7-0.1-3.2-0.7-3.9-2.5c-0.7-1.9-0.6-3.6,0.6-5.1c0.5-0.6,1.3-1.2,2-1.4c4.3-0.8,8.6-0.9,12.9-0.1
		c2.7,0.5,3.2,1.3,3.5,4.5c-2.1-0.2-4.1,0.5-6.3-0.6C66.4,8.5,63.9,8.9,61.5,9.7z"/>
	<path id="XMLID_53_" class="st3" d="M157.7,12.2c-2,0-3.8,0-5.7,0c-0.4-1.5-1.6-2-3-2.2c-0.7-0.1-1.4,0-2.1,0
		c-3.1,0-4.7,2.8-3.3,5.6c0.2,0.3,0.5,0.7,0.8,0.7c1.7,0.2,3.4,0.4,5.2,0.3c1.2,0,2.1-0.8,2.4-1.9c1.9,0,3.7,0,5.5,0
		c0.4,3.6-1.3,5.8-4.6,6.3c-3.5,0.5-6.9,0.5-10.4,0c-2.9-0.4-4.7-2.2-4.7-5.1c0-1.7-0.1-3.5,0-5.2c0.1-2.3,1.7-4.2,3.9-4.7
		c4-0.7,8-0.7,12,0.1C156.5,6.6,157.6,8.5,157.7,12.2z"/>
	<path id="XMLID_52_" class="st3" d="M106.2,10c0,1.7,0,3.1,0,4.4c0,2.3,0.2,2.4,2.5,2.4c0.2,0,0.5,0,1-0.1c0.2-0.7,0.5-1.5,0.9-2.5
		c1.4,0,3,0,4.5,0c1.2,4-1.5,7-5.1,6.8c-1.8-0.1-3.6,0-5.5-0.1c-2.2-0.1-3.5-1.2-3.8-3.4c-0.3-2.4-0.3-4.8-0.5-7.4
		c-0.7,0-1.5-0.1-2.5-0.2c0-1.3,0-2.5,0-3.9c0.8-0.1,1.7-0.2,2.6-0.3c0.1-1,0.1-2,0.2-3.2c1,0,1.9,0,2.7,0c0.9,0,1.8,0,2.8,0
		c0.1,1.1,0.1,2.1,0.2,3.2c2.8,0,5.5,0,8.4,0c0,1.5,0,2.7,0,4.2C111.9,10,109.2,10,106.2,10z"/>
	<path id="XMLID_50_" class="st2" d="M42.9,37.8c3.4-8.4,2.4-16-4-22.9c2.1,0,3.9,0,5.9,0c0.3-3.1-0.7-5.7-1.6-8.5
		C51.1,13.9,51.4,29.6,42.9,37.8z"/>
	<path id="XMLID_49_" class="st2" d="M8.7,5.8c-3.6,8.4-2.4,16,3.9,23c-2.1,0-3.9,0-5.9,0C6.5,32.1,7.5,35,9,38.1
		C0.7,30-0.3,15.2,8.7,5.8z"/>
	<path id="XMLID_48_" class="st3" d="M103.4,33c-0.2,1.7-0.3,3.2-0.5,4.7c0.2,0.1,0.3,0.2,0.5,0.3c0.5-0.4,1.2-0.7,1.4-1.3
		c0.3-0.6,0.3-1.5,0.5-2.2c0.2-0.8,0.2-1.7,1.5-1.6c0,2,0,3.9,0,6c-0.9,0.1-2.1,0.3-3.2,0.2c-1.4-0.2-2.8-0.3-4.3,0
		c-1,0.2-1.7-0.7-1.6-1.5c0.1-1.5,0.5-3,0.8-4.4c0-0.2,0.6-0.3,1.3-0.6c-0.2,1.8-0.3,3.3-0.5,5c1,0.4,1.7,0.1,2-0.8
		c0.2-0.7,0.2-1.5,0.4-2.2C101.8,33.9,101.8,32.9,103.4,33z"/>
	<path id="XMLID_47_" class="st3" d="M131,39.1c-1.9,0.2-2,0.1-2-2.5c-0.6,0-1.3,0-2.1,0c-0.1,0.8-0.2,1.5-0.4,2.5
		c-0.5,0-1,0.1-1.6,0.1c0.4-2.1,0.7-3.9,1-5.9c0.5,0,0.9-0.1,1.6-0.1c-0.1,0.7-0.2,1.3-0.4,2c0.7,0,1.4,0.1,1.9,0.1
		c0.7-0.7,0.2-2.4,1.9-2.1C131,35.1,131,37,131,39.1z"/>
	<path id="XMLID_46_" class="st3" d="M140.2,39.1c-2,0.1-3.6,0.2-5.1,0.1c-0.4,0-1.1-0.9-1.1-1.4c0-1.4,0.3-2.8,0.5-4.2
		c0-0.2,0.7-0.4,1.4-0.7c-0.2,1.8-0.4,3.2-0.6,4.8c1.2,0.3,2.1,0.3,2.3-1.2c0.1-0.7,0.3-1.5,0.4-2.2c0.1-1.2,0.8-1.2,1.8-1
		C139.8,35.2,138.7,37,140.2,39.1z"/>
	<path id="XMLID_45_" class="st3" d="M144.5,35.6c1.5-0.7,1.5-3.2,4-2.1c-0.8,0.9-1.4,1.6-2.3,2.5c0.4,0.6,0.8,1.3,1.2,2
		c0.2,0.4,0.2,0.9,0.2,1.3c-0.5,0-1.2,0.1-1.4-0.1c-0.5-0.5-0.7-1.3-1.1-1.9c-0.1-0.2-0.3-0.4-0.5-0.7c-1.1,0.7,0.2,3.2-2.4,2.8
		c0.4-2,0.7-3.9,1-5.9c0.5,0,0.9,0,1.4,0C144.6,34.1,144.5,34.7,144.5,35.6z"/>
	<path id="XMLID_44_" class="st3" d="M120.8,36.3c0.4,0.9,0.9,1.7,1.3,2.6c-1.6,0.4-1.6,0.4-2.6-1.5c-1.6,1.6-1.6,1.6-3.2,1.7
		c0.8-1.2,1.5-2.2,2.3-3.4c-0.3-0.7-0.7-1.6-1.1-2.5c1.8-1.2,1.7,0.9,2.4,1.3c1-0.2,1-2.4,2.9-1.2C122.2,34.4,121.5,35.4,120.8,36.3
		z"/>
	<path id="XMLID_43_" class="st3" d="M62.4,33.4c-0.3,0.8,0.4,1.9-0.8,2.1c-0.3,0-0.7-0.7-1.2-1.4c-0.4,0.3-1.2,0.5-1.4,1
		c-0.3,0.6-0.3,1.5-0.1,2.1c0.3,0.8,1.1,0.8,1.7,0.4c0.7-0.4,1.1-0.2,1.3,0.6c-1.6,1.3-2.9,1.4-4,0.4c-1.2-1-1.4-2.6-0.5-4.1
		C58.3,33,60,32.5,62.4,33.4z"/>
	<path id="XMLID_42_" class="st3" d="M107,31.3c-1.5,1.2-6.9,1.2-8.4-0.1C101.6,30.9,104.3,31,107,31.3z"/>
	<path id="XMLID_41_" class="st3" d="M66.8,30.7c1.7-0.5,1.9,0.5,2.2,1.5C67.5,32.9,67.3,31.7,66.8,30.7z"/>
	<path id="XMLID_102_" class="st3" d="M136.2,14.7c0-1.4,0.1-2.7,0-3.9c-0.2-2.3-1.3-4.2-3.6-4.7c-4.1-0.9-8.3-0.9-12.4,0
		c-1.8,0.4-3.3,1.5-3.5,3.5c-0.2,2.2-0.3,4.5-0.1,6.8c0.3,3.1,2,4.6,5.1,4.7c3,0.1,5.9,0.1,8.9,0c3.5-0.1,4.7-1.2,5.7-5.1
		c-2.4,0.6-4.9-0.9-6.7,1.3c-0.1,0.1-0.4,0.2-0.6,0.2c-1.6,0-3.2,0.1-4.8,0c-1.6-0.2-2-0.8-1.6-2.6C127,14.7,131.6,14.7,136.2,14.7z
		 M121.9,11.3c1.4-2.6,3.7-1.9,5.6-1.8c1,0,2.8-0.5,2.8,1.8C127.6,11.3,124.9,11.3,121.9,11.3z"/>
	<path id="XMLID_99_" class="st3" d="M92.1,15.8c-0.3,0-0.8,0.1-1,0.3c-2,2-4.4,1.2-6.6,0.9c-1.4-0.1-1.9-1-1.4-2.5
		c2.3,0,4.5,0,6.8,0c2.3,0,4.6,0,7.3,0c-0.2-2.1-0.3-3.8-0.7-5.5c-0.4-1.6-1.6-2.8-3.3-3.2c-4.1-0.8-8.3-0.9-12.4,0
		c-1.8,0.4-3.2,1.4-3.4,3.5c-0.2,2.3-0.4,4.7-0.3,7c0.2,2.3,1.6,3.9,4,4.2c2.4,0.3,4.8,0.3,7.2,0.3c1.6,0,3.3-0.1,4.9-0.5
		c2.2-0.5,3.2-2.1,3-4.7C95,15.8,93.5,15.7,92.1,15.8z M86.6,9.1c3-0.1,4,0.4,4.4,2.3c-0.8,0-1.5,0-2.3,0c-2,0-3.9,0-5.9,0
		C83.2,9.6,84,9.2,86.6,9.1z"/>
	<path id="XMLID_96_" class="st3" d="M89,33c-1.6-0.4-3.5,1-3.8,2.7c-0.4,2.5,0.2,3.4,2.7,3.6c0.2,0,0.3,0.1,0.5,0.2
		c0,0.1,0,0.3,0,0.4c-1,0.1-1.9,0.2-3.2,0.4c0.1,0.4,0.1,0.8,0.3,1c1.6,1,4,0.2,4.5-1.6c0.6-2,0.9-4.1,1.2-6
		C90.2,33.3,89.6,33.1,89,33z M88.6,37.2c-0.2,0.3-0.9,0.6-1.3,0.5c-0.4-0.1-0.7-0.7-0.8-1.2c-0.2-1.4,0.9-2.2,2.8-1.8
		C89.1,35.6,89,36.5,88.6,37.2z"/>
	<path id="XMLID_93_" class="st3" d="M156.1,33.9c-0.6-0.2-1.1-0.4-1.7-0.6c-2.6-0.6-4.8,1.6-4.3,4.2c0.2,1.1,0.9,2,1.9,1.9
		c1.2,0,2.4-0.6,3.7,0c0.2,0.1,0.7-0.3,1-0.5C155,37.1,156.2,35.6,156.1,33.9z M152,37.7c-0.5-2.7-0.1-3.2,2.4-2.8
		C153.8,37.8,153.8,37.8,152,37.7z"/>
	<path id="XMLID_66_" class="st3" d="M113.9,37.6c-0.9,0-1.9,0-2.8,0c0-0.1,0-0.3,0-0.4c0.9-0.3,1.9-0.4,2.8-0.8
		c0.5-0.3,0.9-1.1,0.9-1.6c0-0.5-0.6-1.1-1.1-1.5c-1-0.8-2.1-0.2-2.9,0.4c-1.4,0.9-2,3.3-1.2,4.6c0.6,1,2.9,1.5,4.1,0.8
		C114.4,38.7,114.6,38.2,113.9,37.6z M113.7,35c-0.9,0.3-1.6,0.5-2.2,0.8c-0.1-0.2-0.1-0.4-0.2-0.5C111.8,34.7,112.3,33.9,113.7,35z
		"/>
	<path id="XMLID_62_" class="st3" d="M70.1,34.3c-0.3-1-1-1.5-2-1.5c-1.6-0.1-3.2,1.2-3.5,2.9c-0.3,1.9,0.2,3.2,1.6,3.4
		c1.1,0.2,2.4,0.3,3.3-0.8c-0.6-2.1-2.8,0.7-3.5-1.3c0.9-0.2,1.8-0.3,2.6-0.6C69.6,36.1,70.3,35.4,70.1,34.3z M68.8,35
		c-0.9,0.3-1.6,0.5-2.5,0.8C67.2,34,67.2,34,68.8,35z"/>
	<path id="XMLID_59_" class="st3" d="M80.3,32.9c-1.8-0.1-3.4,1.5-3.4,3.4c-0.1,2,0.7,2.9,2.5,3c1.9,0,3.4-1.4,3.5-3.3
		C83,34.2,81.9,32.9,80.3,32.9z M81,36.9c-0.3,0.9-1.1,1.3-1.8,0.9c-0.4-0.2-0.8-1-0.8-1.6c0-1.2,0.8-1.9,1.9-2
		C81.4,34.9,81.3,35.9,81,36.9z"/>
</g>
</svg>
