<?xml version="1.0" encoding="utf-8"?>
<!-- Generator: Adobe Illustrator 19.0.0, SVG Export Plug-In . SVG Version: 6.00 Build 0)  -->
<svg version="1.1" id="Layer_1" xmlns="http://www.w3.org/2000/svg" xmlns:xlink="http://www.w3.org/1999/xlink" x="0px" y="0px"
	 viewBox="0 0 160 102" style="enable-background:new 0 0 160 102;" xml:space="preserve">
<style type="text/css">
	.st0{fill:#FC0000;}
	.st1{fill:#020000;}
	.st2{fill:#FBFAFB;}
	.st3{fill:#141414;}
	.st4{fill:#B7849D;}
	.st5{fill:#A56BAB;}
	.st6{fill:#F3B2AC;}
	.st7{fill:#88B4CD;}
	.st8{fill:#2BBCBD;}
	.st9{fill:#707FB7;}
	.st10{fill:#E8CBD0;}
	.st11{fill:#DCD7E7;}
	.st12{fill:#EEA094;}
	.st13{fill:#EA5C60;}
	.st14{fill:#91D9DE;}
	.st15{fill:#9F98C6;}
	.st16{fill:#0D0D0D;}
</style>
<g>
	<path class="st0" d="M68.6,338.4c0.5,0.1,0.4-0.3,0.5-0.6c0.5-2,1-4.1,1.4-6.1c0.2-0.7,0.4-1,1.2-1c16.1,0,32.3,0,48.4,0
		c0.9,0,1,0.2,0.8,1.1c-0.6,2.4-1.1,4.8-1.6,7.2c-0.2,0.8-0.5,1.1-1.4,1.1c-5.4,0-10.8,0-16.1,0c-0.9,0-1.3,0.2-1.5,1.1
		c-3.5,14.7-7,29.3-10.6,43.9c-0.2,0.8-0.5,1.1-1.4,1.1c-3.7-0.1-7.4,0-11.1,0c-0.8,0-1-0.1-0.8-1c3.6-14.7,7.1-29.4,10.7-44
		c0.3-1.1-0.1-1.1-1-1.1c-5.4,0-10.8,0-16.1,0c-0.4,0-0.9-0.1-1.3-0.1C68.6,339.5,68.6,339,68.6,338.4z"/>
	<path class="st0" d="M279.9,417.9c0.2-0.6-0.3-0.4-0.6-0.4c-8.4-1.2-15.9-4.3-22.7-9.5c-10.4-7.9-16.8-18.3-18.9-31.2
		c-4.3-26.5,13-50.7,38-56.1c1.4-0.3,2.8-0.5,4.2-0.8c0,0,0-0.1,0.1-0.1c0.1-0.2-0.1-0.1-0.1-0.2c4.3,0,8.5,0,12.8,0
		c-0.2,0.6,0.3,0.4,0.5,0.4c8.7,1.2,16.5,4.5,23.4,9.9c10.1,8,16.3,18.4,18.3,31.1c4.1,25.6-12.6,50.1-38.1,55.7
		c-1.4,0.3-2.8,0.5-4.2,0.8c0,0,0,0.1-0.1,0.1c-0.1,0.2,0.1,0.1,0.1,0.2C288.5,417.9,284.2,417.9,279.9,417.9z M286.4,323.1
		c-24.3-0.2-45.5,19.4-45.7,45.2c-0.2,26.2,21.1,46,45.5,46c24.7,0,45.2-19.7,45.7-44.6C332.5,343.5,311.3,323,286.4,323.1z"/>
	<path class="st0" d="M514,349c-0.4-0.2-0.4,0.2-0.4,0.4c-0.4,1.6-0.8,3.3-1.1,4.9c-0.2,0.9-0.5,1.1-1.4,1.1c-1.9-0.1-3.7,0-5.6,0
		c-0.6,0-0.9,0.2-1.1,0.8c-1.6,6.8-3.2,13.5-4.8,20.3c-0.5,2,0.4,3.2,2.5,3.4c1.6,0.1,3.2,0,4.8-0.1c0.7-0.1,0.8,0.1,0.6,0.8
		c-0.6,2.2-1.1,4.4-1.6,6.6c-0.1,0.4-0.2,0.7-0.7,0.8c-4.2,0.6-8.5,0.8-12.7-0.3c-4-1.1-6.8-4.4-6-9.1c0.4-2.3,0.9-4.6,1.5-6.9
		c1.2-5.1,2.5-10.3,3.8-15.4c0.2-0.9,0-1-0.8-0.9c-1.5,0-2.9,0-4.4,0c-0.6,0-0.8-0.1-0.7-0.8c0.6-2.2,1-4.3,1.5-6.5
		c0.1-0.6,0.4-0.9,1-0.8c1.4,0.1,2.8-0.1,4.1,0c1,0.1,1.3-0.3,1.5-1.2c0.3-1.5,0.7-2.9,1-4.3c0.1-0.5,0.3-0.8,0.8-1
		c4.4-2.3,8.7-4.6,13.1-6.9c0.1-0.1,0.3-0.1,0.6-0.2c-0.6,2.7-1.2,5.3-1.8,7.9c-0.4,1.6-0.7,3.3-1.2,4.9c-0.2,0.7-0.1,0.9,0.7,0.9
		c2.2,0,4.4,0,6.6,0C514,347.8,514,348.4,514,349z"/>
	<path class="st0" d="M418.5,368.9c-2.3,1.8-4.4,3.5-6.7,5.2c-1.2,0.9-1.9,2-2.2,3.4c-0.6,3.1-1.5,6.1-2.2,9.1
		c-0.2,0.7-0.5,0.9-1.1,0.9c-3.6,0-7.1,0-10.7,0c-1,0-1-0.4-0.8-1.1c1.8-7.5,3.7-15,5.5-22.6c1.1-4.3,2.1-8.7,3.2-13
		c0.1-0.3,0.2-0.6,0-1.1c-0.8,1.5-1.6,2.9-2.3,4.3c-0.3,0.6-0.7,1.2-1,1.9c-0.2,0.4-0.4,0.5-0.9,0.4c-6.2-1.1-11.7,1.6-14.7,7.2
		c-1.9,3.6-2.9,7.5-3.8,11.4c-0.9,3.9-1.9,7.7-2.7,11.6c-0.2,0.8-0.5,1.1-1.4,1.1c-3.5-0.1-7,0-10.4,0c-0.9,0-1-0.3-0.8-1
		c3.1-12.8,6.2-25.5,9.3-38.3c0.2-0.7,0.4-1,1.2-1c3.3,0,6.6,0,9.9,0c1,0,1,0.3,0.8,1.1c-0.4,1.6-0.8,3.3-1.2,4.9
		c-0.1,0.3-0.2,0.6,0,0.9c1.1-1.3,2.2-2.5,3.4-3.6c3.2-2.9,6.9-4.6,11.3-4.3c1.1,0.1,2.2,0.2,3.2,0.6c1.1,0.5,1.4,0,1.6-0.9
		c1-4.4,2.1-8.8,3.1-13.1c0.2-0.7,0.4-0.9,1.1-0.9c3.5,0,7,0.1,10.5,0c1.1,0,1.1,0.4,0.9,1.2c-2.1,8.7-4.2,17.4-6.3,26.2
		c-0.1,0.4-0.3,0.7-0.1,1.2c2.2-1.9,4.4-3.7,6.7-5.5c2.8-2.4,5.7-4.7,8.5-7.1c0.4-0.3,0.8-0.6,1.4-0.6c5,0,9.9,0,14.9,0
		c0.1,0,0.3,0,0.7,0.1c-1.6,1.2-2.9,2.3-4.3,3.4c-4.5,3.5-9,7-13.5,10.5c-0.7,0.5-0.6,0.9-0.4,1.6c3.1,7.9,6.1,15.8,9.2,23.6
		c0.4,1,0.1,1.1-0.8,1.1c-3.4,0-6.9,0-10.3,0c-0.8,0-1.2-0.2-1.4-1c-1.9-5.5-3.8-11.1-5.7-16.6C418.7,369.6,418.6,369.3,418.5,368.9
		z M403.8,349.5c0,0-0.1-0.1-0.1-0.1c0,0-0.1,0.1-0.1,0.1c0,0.1,0,0.1,0.1,0.2C403.7,349.6,403.7,349.5,403.8,349.5z"/>
	<path class="st0" d="M468.2,370.7c-4.9,0-9.8,0-14.7,0c-0.8,0-1.1,0.2-1.1,1c0,5,3.8,8.8,8.7,8.9c4.1,0.1,7.3-1.5,9.7-4.8
		c0.4-0.5,0.7-0.7,1.4-0.6c3.2,0.5,6.5,0.9,9.7,1.4c0.9,0.1,0.4,0.6,0.2,0.9c-2.8,4.7-6.9,8-12.2,9.6c-6.2,1.9-12.4,1.9-18.4-0.5
		c-7.1-2.9-11.1-9-11.2-16.7c-0.2-10.7,7.6-21.4,20-23.3c4.5-0.7,9.1-0.8,13.5,0.7c6.6,2.2,10.7,7.7,10.9,14.6
		c0.1,2.6,0,5.1-0.6,7.7c-0.2,0.8-0.5,1.1-1.3,1.1C478,370.7,473.1,370.7,468.2,370.7z M463.6,364.1c2.9,0,5.8,0,8.6,0
		c0,0,0.1,0,0.1,0c0.9,0.1,1.1-0.2,1-1.1c-0.1-1.5-0.2-3-0.8-4.4c-1.7-3.9-5.4-5.2-9.7-4.4c-4.9,0.9-7.6,4.2-8.9,8.9
		c-0.2,0.8-0.1,1,0.7,0.9C457.7,364,460.6,364.1,463.6,364.1z"/>
	<path class="st0" d="M349,383.1c-2.4,2.2-5,3.7-8,4.6c-2.1,0.6-4.2,0.9-6.4,0.8c-0.7,0-0.8-0.2-0.6-0.8c1-2.4,1.7-4.8,2.3-7.3
		c0.1-0.5,0.3-0.7,0.9-0.5c5.2,1.7,11-1.2,12.9-6.2c0.6-1.5,1-3.1,1.3-4.8c-4.4,0.7-8.7,0.9-12.9,2.3c-0.7,0.2-0.9,0.2-0.9-0.6
		c0-2.1,0.2-4.1-0.2-6.2c-0.1-0.6,0.2-0.7,0.7-0.7c3.2-0.3,6.3-0.6,9.5-0.9c1.6-0.2,3.2-0.5,4.7-0.7c0.5-0.1,0.9-0.3,1-1
		c0.1-0.8,0.4-1.7,0.5-2.5c0.2-1.4-0.6-3-2.2-3.6c-3.4-1.3-6.7-1.3-9.9,0.6c-0.9,0.5-1.5,1.3-1.9,2.3c-0.2,0.6-0.5,0.7-1.2,0.7
		c-2.1-0.2-2.2-0.2-2.7-2.3c-0.5-2-1-3.9-1.8-5.7c-0.3-0.7-0.1-1,0.5-1.3c2.5-1.4,5.3-2.2,8.2-2.6c4.7-0.6,9.5-0.6,14.1,0.6
		c2.6,0.7,4.9,1.9,6.8,4c2,2.2,2.6,4.9,2.2,7.8c-0.7,5-2.2,9.7-3.3,14.6c-0.7,3.2-1.6,6.4-1.3,9.8c0.1,1.2,0.4,2.3,0.7,3.4
		c0.2,0.5,0.2,0.8-0.5,0.8c-3.7,0-7.3,0-11,0c-0.6,0-0.8-0.4-0.9-0.8C349.5,385.5,349.3,384.4,349,383.1z"/>
	<path class="st0" d="M163.9,350.3c1-0.6,1.9-1.2,2.8-1.7c4.2-2.5,8.8-3.8,13.8-3.6c3.2,0.1,6.1,0.9,8.5,3.1
		c2.6,2.4,3.5,5.4,2.9,8.8c-1.3,7.4-3.4,14.6-5.2,21.8c-0.5,2.2-1.1,4.5-1.6,6.7c-0.1,0.6-0.4,0.9-1,0.9c-3.6,0-7.3,0-10.9,0
		c-0.8,0-0.9-0.3-0.7-1c2-8,4-16,6-23.9c0.3-1.1,0.5-2.2,0.7-3.4c0.5-2.8-1.6-5-4.8-5.2c-4.5-0.2-7.7,2.2-10.5,5.3
		c-2.3,2.5-3.1,5.6-3.9,8.8c-1.5,6.1-3,12.2-4.5,18.3c-0.2,0.8-0.5,1.1-1.3,1.1c-3.5,0-7,0-10.5,0c-0.8,0-1-0.1-0.8-1
		c4-16.3,7.9-32.6,11.8-48.9c0.4-1.6,0.8-3.2,1.1-4.8c0.1-0.6,0.3-0.8,0.9-0.8c3.7,0,7.3,0,11,0c0.9,0,0.8,0.4,0.6,1
		c-1.4,5.9-2.9,11.9-4.3,17.8C164,349.7,164,349.9,163.9,350.3z"/>
	<path class="st0" d="M128,369.5c-4.9,0-9.7,0-14.6,0c-1.1,0-1.3,0.4-1.3,1.4c0.3,5.2,4.2,8.6,9.4,8.5c3.8-0.1,6.8-1.7,8.9-4.8
		c0.4-0.6,0.9-0.8,1.6-0.7c3,0.5,6,0.9,9.1,1.3c1.2,0.2,1.2,0.2,0.5,1.3c-3.8,6.1-9.4,9.4-16.5,10.4c-4.8,0.7-9.5,0.3-14.1-1.6
		c-7.5-3.2-11.6-10.3-11.1-18.3c0.5-9.3,7.6-19.9,20.6-21.7c4.9-0.6,9.7-0.7,14.3,1.3c5.8,2.5,8.8,7.1,9.4,13.3
		c0.3,2.8,0,5.6-0.5,8.4c-0.2,0.9-0.5,1.2-1.5,1.2C137.7,369.5,132.9,369.5,128,369.5z M123.3,362.9c2.4,0,4.8,0,7.2,0
		c2.7,0,2.7,0,2.6-2.7c-0.2-3.5-2.3-6.2-5.7-7c-1.8-0.5-3.7-0.5-5.5,0.1c-4.3,1.3-6.8,4.3-8,8.6c-0.2,0.8-0.2,1.2,0.8,1.2
		C117.5,362.8,120.4,362.9,123.3,362.9z"/>
	<path class="st0" d="M212.3,350.9c3.4-2.4,6.9-4.5,11-5.4c3.6-0.8,7.2-0.9,10.7,0.3c0.7,0.2,1.3,0.5,1.9,0.9
		c2.8,1.6,2.9,1.8,1.8,4.7c-3,8.4-3.7,17-2.3,25.8c0.1,0.7,0.1,1.3-0.1,2c-0.5,2-1,4-1.5,6.1c-0.2,0.7-0.4,1-1.2,0.9
		c-3.6-0.1-7.1,0-10.7,0c-0.9,0-1-0.2-0.8-1c2-8.1,4-16.2,6-24.3c0.2-0.8,0.4-1.5,0.5-2.3c0.7-3.4-1.1-5.7-4.6-5.8
		c-3.5-0.1-6.3,1.5-8.9,3.6c-2.7,2.2-4.1,5.3-5,8.5c-1.9,6.5-3.3,13.2-4.9,19.8c-0.3,1.1-0.6,1.5-1.8,1.5c-3.4-0.1-6.8-0.1-10.2,0
		c-0.8,0-0.9-0.3-0.8-1c3.1-12.8,6.2-25.7,9.3-38.5c0.1-0.6,0.4-0.8,1-0.8c3.5,0,7,0,10.4,0c0.7,0,0.8,0.2,0.7,0.9
		c-0.3,1.3-0.7,2.6-0.8,3.9c0,0-0.1,0.1-0.1,0.1C212.1,350.9,212.2,350.9,212.3,350.9z"/>
	<path d="M403.8,349.5c0,0-0.1,0.1-0.1,0.1c0-0.1,0-0.1-0.1-0.2c0,0,0-0.1,0.1-0.1C403.7,349.4,403.7,349.4,403.8,349.5z"/>
	<path d="M212.3,350.9c-0.1,0-0.2,0-0.2,0c0,0,0.1-0.1,0.1-0.1C212.2,350.8,212.3,350.8,212.3,350.9z"/>
	<path class="st0" d="M291.9,365.2c6-7,12-13.9,18-20.9c0.3-0.4,0.7-0.6,1.2-0.6c2.2,0,4.4,0,6.6,0c0.9,0,0.9,0.4,0.7,1
		c-3,12.9-6,25.9-9,38.8c-0.2,0.9-0.2,2.2-0.8,2.7c-0.7,0.6-1.9,0.2-2.9,0.2c-1.7,0-3.4-0.1-5.2,0c-1,0-1-0.3-0.8-1.1
		c1.3-5.8,2.6-11.7,3.9-17.5c0.3-1.6,0.7-3.1,0.8-4.8c-1.4,1.6-2.8,3.3-4.2,4.9c-4.8,5.7-9.6,11.5-14.4,17.2c-0.5,0.6-1,0.8-1.7,0.8
		c-1.9-0.1-3.8,0-5.7,0c-0.8,0-1.1-0.1-0.9-1c1.6-7.1,3-14.1,4.5-21.2c0-0.2,0-0.4,0-0.7c-0.5,0.1-0.7,0.6-1,0.9
		c-5.7,6.9-11.5,13.9-17.2,20.9c-0.7,0.9-1.5,1.4-2.7,1.3c-3.1-0.1-6.2,0-9.3,0c-0.1-0.5,0.2-0.6,0.4-0.9
		c11.3-13.4,22.7-26.8,34-40.3c0.8-0.9,1.6-1.4,2.8-1.3c1.8,0.1,3.6,0.1,5.4,0c0.9,0,1.1,0.2,0.9,1.1c-0.9,4.4-1.7,8.8-2.6,13.3
		c-0.4,2-0.8,4.1-1.2,6.1C291.8,364.5,291.6,364.9,291.9,365.2c0,0-0.1-0.1-0.1-0.1c0,0,0,0.1-0.1,0.1
		C291.8,365.2,291.8,365.2,291.9,365.2z M282.3,362.8L282.3,362.8L282.3,362.8L282.3,362.8z"/>
	<path class="st0" d="M317.5,355.4c6.4,14.4,1.8,34.2-15.2,43.2c-16.2,8.6-35.1,2.4-43.9-11.1c1.4,0,2.7,0,4.1,0
		c0.3,0,0.5,0.3,0.6,0.6c5.4,6.3,12.2,10,20.5,10.8c16.5,1.5,29.7-9.8,32.6-24c0.9-4.1,0.9-8.2,0-12.3c-0.1-0.3-0.1-0.7-0.1-1
		C316.5,359.6,317,357.6,317.5,355.4z"/>
	<path class="st0" d="M254.6,380.5c-0.9-2.3-1.5-4.5-1.8-6.7c-1.2-8.8,0.5-17,5.6-24.3c5.7-8.2,13.6-13.1,23.4-14.4
		c9.7-1.3,18.5,1.3,26.1,7.5c0.7,0.5,0.7,0.8,0.1,1.5c-1.6,1.8-1.5,1.8-3.5,0.4c-6.2-4.7-13.3-6.7-21-6
		c-14.5,1.3-24.8,12.2-27.1,24.4c-0.9,4.6-0.8,9.1,0.5,13.6c0.2,0.6,0.1,1.1-0.4,1.6C256,378.8,255.4,379.6,254.6,380.5z"/>
	<path class="st0" d="M282.3,333.7c1-1.3,2-2.1,3.1-3c2.3-1.9,4.8-3.4,7.5-4.6c0.7-0.3,1.4-0.4,2.2-0.3c3.5,0.7,6.8,1.8,10,3.3
		c0.2,0.1,0.3,0.2,0.7,0.4c-1.7,0.3-3.2,0.6-4.6,1c-2.6,0.7-5,1.7-7.3,3.1c-0.5,0.3-1,0.5-1.7,0.4
		C289,333.4,285.7,333.3,282.3,333.7z"/>
	<path class="st0" d="M309.2,405.9c1-2.7,1.8-5.4,2.2-8.2c0.1-0.8,0.4-1.6,0.3-2.4c-0.2-1.5,0.5-2.6,1.5-3.6c1.9-2,3.3-4.3,4.7-6.8
		c0.4,0.6,0.4,1.2,0.6,1.8c0.1,0.6,0.2,1.2,0.3,1.8c0.5,3,0.5,6,0.2,9c0,0.4-0.1,0.7-0.4,1C315.8,401.4,312.8,403.9,309.2,405.9z"/>
	<path class="st0" d="M263.3,341.9c1-5,2.9-9.3,5.7-13.2c0.1-0.1,0.3-0.3,0.4-0.4c3.6-1.5,7.4-2.5,11.3-3c0.1,0.5-0.3,0.5-0.5,0.7
		c-3.3,2.7-6,5.9-8,9.7c-0.3,0.6-0.7,0.9-1.2,1.2C268.3,338.2,265.8,339.9,263.3,341.9z"/>
	<path class="st0" d="M321.6,342.6c-4.2-1.4-8.5-2-12.8-1.7c-0.3,0-0.6,0-0.9-0.2c-2.4-1.8-5-3.3-8-4.6c1.2-0.4,2.2-0.7,3.1-1
		c1-0.3,2-0.5,2.9-0.6c2.1-0.3,4.2-0.6,6.4-0.5c0.4,0,0.7,0,1.1,0.2C316.6,336.6,319.4,339.4,321.6,342.6z"/>
	<path class="st0" d="M259.9,333.9c-1.5,4.3-2.2,8.6-2,13.1c0,0.3,0,0.6-0.2,0.8c-1.8,2.4-3.2,5-4.5,7.9c-0.7-1.4-1-2.7-1.3-4.1
		c-0.6-2.6-0.8-5.3-0.7-8c0-1,0.3-1.9,1-2.7C254.6,338.4,257,335.9,259.9,333.9z"/>
	<path class="st0" d="M326.3,386.9c-0.8-4.5-2.2-8.6-4.6-12.5c-0.3-0.5-0.1-1,0-1.5c0.3-2.7,0.3-5.3,0.1-8.2
		c1.4,1.2,2.5,2.4,3.5,3.7c1.6,2,2.8,4.1,3.9,6.4c0.4,0.9,0.6,1.8,0.3,2.8C328.8,380.8,327.8,383.9,326.3,386.9z"/>
	<path class="st0" d="M288.2,403.9c-1.6,1.8-3.2,3.3-5.1,4.5c-6.2,3.9-4.5,3.6-11.2,1.6c-1.7-0.5-3.4-1.2-5.2-2.2
		c1.1-0.3,1.9-0.5,2.8-0.7c2.7-0.6,5.2-1.6,7.5-3c1.2-0.7,2.2-1,3.6-0.7C283,403.9,285.5,404,288.2,403.9z"/>
	<path class="st0" d="M251.5,395.2c2.5,0.6,4.9,1.3,7.4,1.5c1.7,0.2,3.4,0.1,5.1,0.1c0.3,0,0.7-0.1,1,0.1c2.2,1.6,4.5,3,7.2,4.2
		c-2.3,1-4.6,1.6-6.9,1.9c-1.7,0.3-3.3,0.5-5,0.5c-0.4,0-0.7,0-1.1-0.2C256.3,400.9,253.6,398.4,251.5,395.2L251.5,395.2z"/>
	<path class="st0" d="M290,412.1c1.6-1.5,3.2-2.9,4.5-4.6c1.2-1.5,2.3-3.1,3.3-4.8c0.3-0.6,0.7-0.9,1.3-1.1c2.6-0.9,4.9-2.2,7.4-3.8
		c-1,4.5-2.8,8.3-5.3,11.8c-0.2,0.3-0.4,0.4-0.7,0.5c-3.3,1.1-6.6,1.8-10,2.1C290.3,412.2,290.2,412.2,290,412.1z"/>
	<path class="st0" d="M251.3,374.6c-3.7-3-6.5-6.3-8.6-10.2c-0.4-0.7-0.1-1.2,0-1.9c0.4-3.2,1.2-6.3,2.5-9.5
		c0.2,0.9,0.4,1.5,0.6,2.1c0.9,3.4,2.4,6.6,4.4,9.5c0.5,0.7,0.7,1.4,0.6,2.4c-0.2,2.1,0,4.3,0.3,6.4
		C251.1,373.7,251.2,374,251.3,374.6z"/>
	<path class="st0" d="M330.4,365.4c-2-2.4-4-4.4-6.2-6.1c-0.5-0.4-1-0.9-1.6-1.1c-2.1-0.9-3.2-2.5-4-4.6c-0.6-1.6,0.2-2.8,0.4-4.2
		c0-0.4,0.4-0.1,0.6,0c2.9,1.1,5.6,2.6,8.1,4.4c0.4,0.3,0.5,0.6,0.6,1C329.4,358.2,330,361.6,330.4,365.4z"/>
	<path class="st0" d="M242.5,373.4c0.5,0.1,0.6,0.4,0.8,0.6c2.6,2.8,5.6,5.1,9,6.9c1.2,0.6,1.2,0.8,0.3,1.9
		c-0.9,1.1-1.9,2.2-2.8,3.3c-0.4,0.5-0.7,0.5-1.2,0.2c-1-0.7-2.1-1.3-3.1-2c-0.3-0.2-0.5-0.4-0.6-0.7
		C243.7,380.3,242.9,376.9,242.5,373.4z"/>
	<path class="st0" d="M257.5,389.6c-2.1-0.3-4-0.9-5.8-2c1.4,0,2.9-0.1,4.3,0C256.9,387.8,257,388.9,257.5,389.6z"/>
	<path class="st0" d="M251.4,395.2c-0.1,0-0.2-0.1,0-0.2C251.4,395,251.4,395.1,251.4,395.2C251.5,395.2,251.4,395.2,251.4,395.2z"
		/>
	<path class="st1" d="M291.9,365.2c-0.1,0-0.1,0-0.2,0c0,0,0-0.1,0.1-0.1C291.8,365.2,291.9,365.2,291.9,365.2
		C291.9,365.3,291.9,365.2,291.9,365.2z"/>
	<polygon class="st1" points="282.3,362.8 282.3,362.8 282.3,362.8 	"/>
</g>
<g id="XMLID_27_">
	<path id="XMLID_167_" class="st2" d="M3.3,25.9c2.6,4.7,5.5,9.2,7.8,14.1c1.1,2.4,0.8,5.4,0.1,8.1c-0.9,3.5-3.3,4.4-7.9,3.2
		C3.3,42.7,3.3,34.3,3.3,25.9z"/>
	<path id="XMLID_47_" class="st3" d="M10.9,29.4C8,25,5.2,20.7,7,15c0.6-2.1,1.2-4,4.2-3c0.6,0.2,2.1,0.8,2.2-0.5
		c0.2-1.6,1.1-3.5-0.3-4.8C11.7,5.5,8.4,6.8,6.9,8C5,9.5,5.8,12.5,3.3,13.5c0,1.1,0,2.3,0,3.4c0,1.8,0,3.7,0,5.5c0,1.1,0,2.3,0,3.4
		c2.6,4.7,5.5,9.2,7.8,14.1c1.1,2.4,0.8,5.4,0.1,8.1c-0.9,3.5-3.3,4.4-7.9,3.2c0,1.4,0,2.7,0,4.1c1.4-0.4,1.6,1.5,2.7,1.5
		c1.1,0,2.3,0,3.4,0c1.2-0.2,2.1-1.2,2.5-2C15.5,46.2,16.2,37.6,10.9,29.4z"/>
	<path id="XMLID_165_" class="st3" d="M20.5,23.9c0.8-1,0.9-2.2,1.5-3.1c0.7-1.1,1.5-2.6,3.6-2.1c1.8,0.4,2.3,1.4,2.5,3
		c0.1,0.7-0.5,1.8,0.7,2c1.3,0.2,1.5-1.1,1.7-1.8c0.6-2,1.6-3.4,3.7-3.3c2.5,0.2,2.7,2.3,2.9,4.2c0.8,8.1,0.2,16.2,0.4,24.3
		c0.1,1.8-0.6,3.7,1.3,5.3c0.7,0.6,0.2,2.3-0.6,3.4c-0.5,0.7-1.1,1-1.7,0.7c-1.1-0.6-1.3-1.7-1.4-2.9c-0.7-7.6-0.2-15.3-0.3-22.9
		c0-2.3,0.4-5.3-2.2-5.8c-1.5-0.3-2.3,2.9-3.2,4.7c-0.7,1.5-0.7,3-0.7,4.6c0,6.4,0.1,12.8,0,19.2c0,1.1,0.5,2.9-1.4,2.9
		c-1.8,0-1.4-1.7-1.4-2.9c0-8.1,0-16.2,0-24.3c0-1.5,0.2-3.4-1.5-3.7c-1.8-0.3-2.6,1.3-3.3,3c-0.9,2.3-1.3,4.5-1.2,6.9
		c0.1,6.2,0.1,12.3,0,18.5c0,1,0.3,2.5-1.4,2.5c-1.7,0-1.4-1.5-1.4-2.6c0-10.7,0-21.5,0-32.2c0-1-0.6-2.5,1.3-2.6
		c2.1-0.1,1.3,1.7,1.5,2.7C20,22.4,19.5,23.1,20.5,23.9z"/>
	<path id="XMLID_161_" class="st3" d="M47.6,37.5c0-5.4,0-10.7,0-16.1c0-1-0.4-2.5,1.5-2.3c1.8,0.2,1.2,1.6,1.3,2.6
		c0.1,0.7-1.2,1.5,0,2c1.3,0.5,1.6-1,1.7-1.6c0.6-2.1,1.6-3.5,4-3.4c2.8,0.2,3,2.6,3.1,4.4c0.3,8.2,0.2,16.4,0.4,24.6
		c0,1.6-0.5,3.2,1.1,4.7c0.7,0.6,0.4,2.3-0.5,3.4c-0.5,0.7-1,1.1-1.6,0.8c-1.2-0.5-1.2-1.7-1.4-2.9C56.3,47.8,57,41.9,56.8,36
		c-0.1-2.7,0-5.5,0-8.2c0-1.1-0.4-2.2-1.5-2.3c-1-0.1-2.1,0-2.7,1.3c-1,2.2-2.2,4.3-2.2,6.9c0.1,6.3,0,12.5,0,18.8
		c0,0.7,0.1,1.4,0,2c-0.2,0.8-0.2,1.9-1.5,1.9c-1.3,0-1.4-1.1-1.4-1.9c-0.1-2.8,0-5.7,0-8.5C47.6,43.2,47.6,40.3,47.6,37.5
		C47.6,37.5,47.6,37.5,47.6,37.5z"/>
	<path id="XMLID_157_" class="st4" d="M116.3,49.8c2.5-1.3,1.8,0.9,2.1,2c0,12.6,0,25.2,0,37.8c-0.1,1.2-0.3,2.4-1.6,3.1
		c-0.9-0.9-0.6-2.1-0.8-3.1C116.2,76.4,116.3,63.1,116.3,49.8z"/>
	<path id="XMLID_156_" class="st4" d="M118.3,42.9c-1,0.3-0.2,1.9-1.4,1.9c-0.2,0-0.4-0.7-0.6-1.1c0-11.7,0-23.3,0-35
		c0.8-1.2,1.4-0.2,2,0.1C118.3,20.2,118.3,31.5,118.3,42.9z"/>
	<path id="XMLID_155_" class="st5" d="M144.6,79.3c-0.4,1.1,0.5,2.8-1.3,3.3c-0.8,0.2-1-0.6-1.2-1.2c0-9.4,0-18.8,0-28.2
		c0.2-0.7,0.3-1.3,1.2-1.3c0.9,0,1,0.7,1.2,1.3C144.5,61.9,144.6,70.6,144.6,79.3z"/>
	<path id="XMLID_154_" class="st6" d="M108.9,53.2c0.2-0.4,0.4-0.9,0.6-1.3c1,0.1,1.4,0.7,1.4,1.6c0,9.2-0.1,18.4-0.1,27.7
		c0,0.3-0.4,0.6-0.5,0.8c-0.8-0.8-0.5-2.2-1.5-2.8C108.7,70.5,108.8,61.8,108.9,53.2z"/>
	<path id="XMLID_153_" class="st7" d="M136.6,50.2c0,13.7,0,27.4,0,41.1c-0.2,0-0.4,0-0.7,0c0-13.7,0-27.4,0-41.1
		C136.2,50.2,136.4,50.2,136.6,50.2z"/>
	<path id="XMLID_152_" class="st8" d="M130.5,55.1c0.2-0.6-0.2-1.7,0.6-1.7c1.2-0.1,0.8,1.2,0.8,1.8c0.1,7.7,0,15.5,0.1,23.2
		c0,4.7,0.1,9.3,0,14c0,0.9,0.8,2.5-1.3,2.5c0-1.4,0-2.7-0.1-4.1C130.6,79,130.5,67.1,130.5,55.1z"/>
	<path id="XMLID_151_" class="st5" d="M142.2,20.3c0.3-0.4,0.3-1.3,1-1.1c1.3,0.5,1.2,1.9,1.3,3.1c0,6.7-0.1,13.4-0.1,20.1
		c0,1.1-0.4,2.3,0.6,3.2c0,0.3,0,0.5,0,0.8c-1.2,0-3,1.5-3-1.3C142.6,36.9,142.2,28.6,142.2,20.3z"/>
	<path id="XMLID_150_" class="st9" d="M138.8,50c0,13.1,0,26.2,0,39.3c-0.2,0-0.4,0-0.7,0c0-13.1,0-26.2,0-39.2
		C138.3,50,138.6,50,138.8,50z"/>
	<path id="XMLID_149_" class="st10" d="M156.5,55.9c-1-0.1-2.3-1.4-2.9-0.1c-0.8,1.7,0.7,2.6,2.5,3.5c-2.1,0.6-2.5,2.5-3.9,4.7
		c0-7.4,0-13.9,0-20.4C153.7,47.7,157.4,51,156.5,55.9z"/>
	<path id="XMLID_148_" class="st8" d="M134.7,89.6c0,0.9,0,1.8,0,2.7c-0.2,0.2-0.4,0.5-0.6,0.7c-0.9-0.2-0.9-0.9-0.9-1.6
		c0-13.2,0.1-26.4,0.2-39.6c0.8,0.2,0.8,1,1.3,1.5c0,11.8,0,23.7,0,35.5c-0.1,0.1-0.2,0.2-0.2,0.2C134.5,89.2,134.6,89.4,134.7,89.6
		z"/>
	<path id="XMLID_147_" class="st10" d="M116.3,49.8c-0.1,13.3-0.2,26.5-0.2,39.8c-0.4,0-0.8-0.1-1.2-0.1c0-13.2,0-26.5,0-39.7
		C115.4,49.8,115.9,49.8,116.3,49.8z"/>
	<path id="XMLID_146_" class="st9" d="M122.5,55.3c0,0.5,0.1,0.9,0.1,1.4c-0.1,12.8-0.1,25.6-0.2,38.4c-0.2,0-0.5,0.1-0.7,0.1
		c-0.2-0.3-0.4-0.5-0.6-0.8c-0.1-0.4-0.1-0.9-0.2-1.3c0.1-11.5,0.1-23,0.2-34.4C121.2,57.4,120.3,55.7,122.5,55.3z"/>
	<path id="XMLID_145_" class="st6" d="M110.9,45.1c-0.1,1.2-1,1.3-1.9,1.4c-0.7-8,0-16-0.4-24c1.5-1,0.2-3.1,1.5-4.2
		c1.2,1.1,0.6,2.6,0.6,3.9C110.9,29.8,110.9,37.5,110.9,45.1z"/>
	<path id="XMLID_144_" class="st5" d="M120.3,44.9c-1.4,0-0.9-1.2-1.2-2c0-11.4,0-22.8,0-34.2c0.3-0.6-0.3-1.8,0.9-1.8
		c0.7,0,0.4,1.1,0.6,1.7C120.5,20.8,120.4,32.8,120.3,44.9z"/>
	<path id="XMLID_143_" class="st11" d="M122.5,95c0.1-12.8,0.1-25.6,0.2-38.4c0.4,0,0.8,0.1,1.3,0.1c0,12.8,0,25.5-0.1,38.3
		C123.4,95,122.9,95,122.5,95z"/>
	<path id="XMLID_142_" class="st5" d="M120.6,93c-0.2,0.6,0.1,1.6-0.7,1.7c-1,0.1-0.7-0.9-0.7-1.5c-0.1-1.2,0-2.5-0.1-3.7
		c0-5,0.3-10,0.1-15c-0.3-7.5,1-15,0.2-22.5c1-0.3,1,0.5,1.2,1.1C120.6,66.5,120.6,79.7,120.6,93z"/>
	<path id="XMLID_141_" class="st12" d="M111.5,49.8c1.8,0.2,1.3,1.6,1.3,2.6c0,11.2,0,22.4-0.1,33.6c-0.6,0-1.2,0-1.8,0
		c-0.1-0.4-0.1-0.8-0.2-1.3c1-1,0.6-2.4,0.6-3.6C111.5,70.7,111.5,60.2,111.5,49.8z"/>
	<path id="XMLID_140_" class="st9" d="M121.3,8.9c2.5,0.9,0.7,3.1,1.3,4.6c0,10.5-0.1,21-0.1,31.5c0,0-0.1-0.1-0.1-0.1
		c-0.4,0-0.7,0-1.1,0c0,0-0.2,0.1-0.2,0.1C121.2,33,121.3,20.9,121.3,8.9z"/>
	<path id="XMLID_139_" class="st8" d="M130.4,9.9c0.2-0.9,0.5-1.7,1.4-0.6c0.3,0.3,0.2,1.1,0.2,1.7c0,11.3-0.1,22.6-0.1,33.9
		c-2.1-0.3-1.2-1.9-1.2-2.9C130.5,31.3,130.5,20.6,130.4,9.9z"/>
	<path id="XMLID_138_" class="st10" d="M116.2,8.7c0,11.7,0,23.3,0,35c-0.5,0-0.9-0.1-1.4-0.1c0-10.4,0.1-20.9,0.1-31.3
		c0-0.8,0.2-1.6-0.7-2.1C114.2,8.7,115.3,8.8,116.2,8.7z"/>
	<path id="XMLID_137_" class="st8" d="M133.4,43.1c0-12.1,0-24.1,0-36.2c0.4,0,0.9,0,1.3,0c0,11.3,0,22.7,0,34
		C134,41.5,134.5,42.8,133.4,43.1z"/>
	<path id="XMLID_136_" class="st12" d="M110.8,15.6c0-0.5,0-0.9,0.1-1.4c0.1-0.7-0.1-1.9,1-1.9c1.1,0,0.9,1.1,0.9,1.8
		c0.1,1.8,0,3.6,0,5.4c0,7.5,0,15,0,22.5c0,1.1,0.7,2.7-1.3,2.9c0-8.6,0-17.3,0-25.9C111.4,17.9,111.9,16.6,110.8,15.6z"/>
	<path id="XMLID_135_" class="st7" d="M135.7,42.6c0-11.2,0-22.4,0-33.6c0.2,0,0.5,0,0.7,0c0,11.2,0,22.4,0,33.6
		C136.2,42.6,135.9,42.6,135.7,42.6z"/>
	<path id="XMLID_134_" class="st9" d="M137.8,42.9c0-10.9,0-21.8,0-32.7c0.4,0,0.8-0.1,1.1-0.1c0,11,0,21.9,0,32.9
		C138.5,42.9,138.2,42.9,137.8,42.9z"/>
	<path id="XMLID_133_" class="st8" d="M128.9,91.4c0-10.8,0-21.7,0-32.5c1.5,0.1,1.1,1.2,1.1,2c0,9.5,0,19,0,28.5
		C130,90.2,130.3,91.3,128.9,91.4z"/>
	<path id="XMLID_132_" class="st11" d="M122.5,45c0-10.5,0.1-21,0.1-31.5c0.4,0,0.9,0.1,1.3,0.1c0,10.9,0,21.8,0,32.8
		C123.4,45.9,122.9,45.5,122.5,45z"/>
	<path id="XMLID_131_" class="st7" d="M126.6,46.4c-0.5,0.8-1.1,0.8-1.6,0.1c0-9.1,0.1-18.2,0.1-27.3c0-1.5-0.2-3,0.8-4.3
		c0.2,0.3,0.5,0.5,0.7,0.8C126.6,25.9,126.6,36.2,126.6,46.4z"/>
	<path id="XMLID_130_" class="st8" d="M128.9,42.8c0-10.1,0-20.3,0-30.4c1.2,0,1.1,0.9,1.1,1.7c0,9,0,18.1,0,27.1
		C130,41.9,130,42.8,128.9,42.8z"/>
	<path id="XMLID_129_" class="st11" d="M142.1,53.2c0,9.4,0,18.8,0,28.2c-0.2,0-0.4,0-0.6-0.1c-0.1-0.2-0.4-0.3-0.4-0.5
		c-0.3-9-0.3-18,0-27.1c0-0.2,0.3-0.3,0.4-0.5C141.8,53.2,142,53.2,142.1,53.2z"/>
	<path id="XMLID_128_" class="st13" d="M108.9,53.2c-0.1,8.7-0.1,17.3-0.2,26c-0.9,0.7-1.4,0.5-1.4-0.7c0-8.3,0-16.6,0-24.9
		c0-0.6-0.2-1.5,0.9-1.5C108.8,52.1,108.7,52.8,108.9,53.2z"/>
	<path id="XMLID_127_" class="st14" d="M128.9,91.4c1.4-0.1,1.1-1.2,1.1-2c0-9.5,0-19,0-28.5c0-0.8,0.3-1.9-1.1-2
		c-0.3-1.6-0.9-3.4,1.6-3.7c0.1,11.9,0.1,23.8,0.2,35.8c0,1.4,0,2.7,0.1,4.1c-0.6,0.4-1.3,1.4-1.8-0.1
		C128.4,93.7,128.5,92.6,128.9,91.4z"/>
	<path id="XMLID_126_" class="st13" d="M108.7,22.6c0.4,8-0.3,16,0.4,24c-0.2,0.7,0.2,1.8-1,1.8c-0.9,0-0.8-1-0.8-1.6
		c0-7.5-0.1-15-0.1-22.5C107.3,23.4,107.2,22.3,108.7,22.6z"/>
	<path id="XMLID_125_" class="st11" d="M142.2,20.3c-0.1,8.3,0.3,16.5-0.2,24.8c-0.4,0-0.8-0.1-1.1-0.1c0-6.2,0-12.4,0.1-18.7
		c0-2-0.7-4.1,0.5-5.9C141.8,20.4,142,20.4,142.2,20.3z"/>
	<path id="XMLID_124_" class="st14" d="M128.9,42.8c1.2,0,1.1-0.9,1.1-1.7c0-9,0-18.1,0-27.1c0-0.8,0.1-1.7-1.1-1.7
		c-0.4-1.4,0-2.2,1.5-2.4c0.1,10.7,0.1,21.4,0.3,32c0,1-0.9,2.7,1.2,2.9c-0.3,1.9-2.2,1.3-2.7,1C128.2,45.3,128.6,43.9,128.9,42.8z"
		/>
	<path id="XMLID_123_" class="st11" d="M119.4,52.1c0.8,7.5-0.5,15-0.2,22.5c0.2,5,0,10-0.1,15c-0.2,0-0.4,0-0.6,0.1
		c0-12.6,0-25.2,0-37.8C118.8,51.9,119.1,52,119.4,52.1z"/>
	<path id="XMLID_122_" class="st13" d="M105,49.7c0-7.4,0-14.7,0-22.1c0.3,0,0.6,0,1,0c0,7.4,0,14.8,0,22.2
		C105.6,49.7,105.3,49.7,105,49.7z"/>
	<path id="XMLID_121_" class="st14" d="M124.5,56.8c1.5-0.1,3.1-0.3,2.7,2.1c-0.2-0.1-0.4-0.1-0.6,0c-2.2,0.3-1.4,2-1.4,3.2
		c-0.1,11,0,22,0,33c-0.2,0-0.5,0-0.7,0C124.5,82.2,124.5,69.5,124.5,56.8z"/>
	<path id="XMLID_120_" class="st15" d="M141.6,53.2c-0.2,0.2-0.4,0.3-0.4,0.5c-0.4,9-0.3,18,0,27.1c0,0.2,0.3,0.3,0.4,0.5
		c0,1.5,0,3,0,4.5c-0.3,0-0.7,0-1-0.1c0-11.9,0-23.7,0-35.9C142,51,141.3,52.2,141.6,53.2z"/>
	<path id="XMLID_119_" class="st10" d="M111.5,49.8c0,10.5,0,20.9,0,31.4c0,1.2,0.4,2.5-0.6,3.6c-2.3-0.4-1.1-1.7-0.6-2.8
		c0.2-0.3,0.5-0.6,0.5-0.8c0.1-9.2,0.1-18.4,0.1-27.7c0-0.9-0.4-1.5-1.4-1.6C109.3,50.4,110,49.7,111.5,49.8z"/>
	<path id="XMLID_118_" class="st13" d="M101.3,40.9c1-1.8,0.4-3.7,0.6-5.6c0.1-0.6,0.1-1.1,0.9-1.2c0.7-0.1,1.1,0.3,1.1,0.9
		c0,5.5-0.1,11-0.2,16.6c0,0.1-0.7,0.2-1.1,0.3c-0.4-3.4,0.7-6.9-0.6-10.2C101.7,41.4,101.5,41.1,101.3,40.9z"/>
	<path id="XMLID_117_" class="st6" d="M98.3,60.2c-2.8-1.3-2.7-4.2-2.8-6.4c-0.1-1.8,0.8-4.2,2.8-5.4c0.6,1.7-2.7,4.6,1.7,5.1
		c0,1.1-0.1,2.2-0.1,3.3C97.3,57,98.9,59.1,98.3,60.2z"/>
	<path id="XMLID_116_" class="st11" d="M120.6,93c0-13.3,0-26.6,0-39.8c1.2,0.1,1.9,0.8,1.9,2.1c-2.2,0.4-1.2,2.2-1.3,3.3
		c-0.1,11.5-0.2,23-0.2,34.4C120.8,93,120.7,93,120.6,93z"/>
	<path id="XMLID_115_" class="st12" d="M114.9,49.8c0,13.2,0,26.5,0,39.7c-0.9-0.5-0.6-1.4-0.6-2.1c0-11.8,0-23.6,0-35.5
		C114.3,51.2,114,50.3,114.9,49.8z"/>
	<path id="XMLID_114_" class="st9" d="M124.5,56.8c0,12.7,0,25.5,0,38.2c-0.2,0.1-0.4,0.1-0.7,0.1c0,0,0,0,0,0
		c0-12.8,0-25.5,0.1-38.3C124.1,56.6,124.3,56.6,124.5,56.8z"/>
	<path id="XMLID_113_" class="st13" d="M104.9,74.4c0-6.3,0-12.6,0-18.9c0.3,0,0.7-0.1,1-0.1c0,6.4,0,12.7,0,19.1
		C105.6,74.4,105.3,74.4,104.9,74.4z"/>
	<path id="XMLID_112_" class="st15" d="M141.5,20.4c-1.2,1.9-0.5,4-0.5,5.9c-0.1,6.2-0.1,12.4-0.1,18.7c-0.8-0.5-0.6-1.4-0.6-2.2
		c0-9.2,0-18.3,0-27.5c0-0.5,0.2-1,0.3-2.2C142.2,15.8,141.3,18.2,141.5,20.4z"/>
	<path id="XMLID_111_" class="st11" d="M146.5,25.8c0.9,0,1.4,0.4,1.3,1.3c-1.9,0.4-1.3,2-1.2,3c0.9,6.5,0.1,13.1-0.2,19.6
		c-0.3,0-0.6-0.1-0.8-0.1c0.1-7.9,0.1-15.9,0.2-23.8C146,25.9,146.2,25.9,146.5,25.8z"/>
	<path id="XMLID_110_" class="st11" d="M145.7,53.3c1.3,0,2,0.7,2,2c-1.6,0.2-1.3,1.4-1.2,2.4c0.8,6,0.1,12,0,18.1
		c-0.3,0-0.6,0-0.9,0C145.7,68.3,145.7,60.8,145.7,53.3z"/>
	<path id="XMLID_109_" class="st11" d="M121.3,8.9c-0.1,12-0.1,24.1-0.2,36.1c-0.3,0-0.6,0-0.9-0.1c0.1-12.1,0.2-24.2,0.3-36.2
		C120.8,8.7,121.1,8.8,121.3,8.9z"/>
	<path id="XMLID_108_" class="st9" d="M126.6,58.8c0.2,0,0.4,0,0.6,0c0,12.1,0,24.1,0,36.2c-0.2,0.1-0.4,0.1-0.6,0
		C126.6,82.9,126.6,70.9,126.6,58.8z"/>
	<path id="XMLID_107_" class="st10" d="M145.7,75.8c0.3,0,0.6,0,0.9,0c0.2,0,0.4,0.1,0.5,0.2c-0.2,1.7-0.3,3.3-2.6,3.4
		c0-8.7-0.1-17.4-0.1-26.2c0.2,0,0.4,0,0.6,0.1c0,5.3-0.1,10.6,0.1,15.9C145.2,71.4,144.5,73.7,145.7,75.8z"/>
	<path id="XMLID_106_" class="st10" d="M110.8,15.6c1.1,1,0.6,2.4,0.6,3.6c0,8.6,0,17.3,0,25.9c-0.2,0-0.3,0-0.5,0.1
		c0-7.6,0-15.3-0.1-22.9c0-1.3,0.5-2.7-0.6-3.9C109.7,17.3,108.5,16,110.8,15.6z"/>
	<path id="XMLID_105_" class="st11" d="M119.1,8.8c0,11.4,0,22.8,0,34.2c-0.3,0-0.6,0-0.8,0c0-11.4,0-22.7,0-34.1
		C118.5,8.8,118.8,8.8,119.1,8.8z"/>
	<path id="XMLID_104_" class="st12" d="M114.3,10.1c0.8,0.5,0.7,1.4,0.7,2.1c0,10.4-0.1,20.9-0.1,31.3c-1-0.8-0.6-1.9-0.6-2.8
		C114.2,30.6,114.3,20.3,114.3,10.1z"/>
	<path id="XMLID_103_" class="st11" d="M125.9,14.9c-1,1.3-0.7,2.8-0.8,4.3c0,9.1-0.1,18.2-0.1,27.3c-0.2,0-0.3,0-0.4-0.1
		c0.1-10.7,0.2-21.5,0.2-32.2C125.3,14.2,125.7,14.4,125.9,14.9z"/>
	<path id="XMLID_102_" class="st5" d="M146.4,49.8c0.2-6.5,1-13,0.2-19.6c-0.1-1-0.7-2.6,1.2-3c0,6.9,0.1,13.8,0.1,20.6
		c0,0.7,0.2,1.6-0.8,2c-0.2,0-0.3-0.1-0.5-0.1L146.4,49.8z"/>
	<path id="XMLID_101_" class="st9" d="M124.8,14.2c-0.1,10.7-0.2,21.5-0.2,32.2c0,0-0.3,0-0.3,0s-0.3-0.1-0.3-0.1
		c0-10.9,0-21.8,0-32.8C124.2,13.8,124.5,14,124.8,14.2z"/>
	<path id="XMLID_100_" class="st9" d="M126.6,46.4c0-10.2,0-20.5,0-30.7c0.9,0.5,0.6,1.4,0.6,2.1c0,8.9,0,17.9,0,26.8
		C127.3,45.3,127.4,46,126.6,46.4z"/>
	<path id="XMLID_99_" class="st5" d="M147.2,75.9c-0.2-0.1-0.3-0.1-0.5-0.2c0-6,0.8-12,0-18.1c-0.1-0.9-0.4-2.2,1.2-2.4
		c0,6.2,0.1,12.4,0.1,18.5C147.9,74.6,148,75.4,147.2,75.9z"/>
	<path id="XMLID_98_" class="st10" d="M146.5,25.8c-0.2,0-0.5,0-0.7,0c-1.1,0.9-0.6,2.1-0.7,3.2c-0.1,5.6,0,11.1,0,16.7
		c-1.1-0.9-0.6-2.1-0.6-3.2c0-6.7,0.1-13.4,0.1-20.1C147.2,22.4,146.2,24.5,146.5,25.8z"/>
	<path id="XMLID_97_" class="st13" d="M102.6,56.7c0.4,0.1,1.1,0.3,1.1,0.4c0.1,4.6,0.1,9.2-0.4,13.9c-1.4-1.9-0.9-4-0.9-6
		C102.5,62.2,102.6,59.4,102.6,56.7z"/>
	<path id="XMLID_96_" class="st13" d="M100,53.4c-4.4-0.4-1-3.4-1.7-5.1c0.8-0.9-1.7-4.5,2.3-2.7c0,2.5,0,5.1,0,7.6
		C100.3,53.3,100.2,53.3,100,53.4z"/>
	<path id="XMLID_95_" class="st16" d="M40.8,7.7c0.2-1.2-0.1-3,1.5-3c1.6,0,1.9,1.5,1.9,3c0,1.4-0.3,3.1-1.9,3.1
		C40.5,10.7,41.1,8.8,40.8,7.7z"/>
	<path id="XMLID_94_" class="st10" d="M102.6,56.7c-0.1,2.7-0.1,5.5-0.2,8.2c-1.1-0.1-1.5-1.6-2.7-1.5c1-1.9,1-3.9,0.8-6
		C101.3,57.3,101.2,54.8,102.6,56.7z"/>
	<path id="XMLID_93_" class="st4" d="M145.1,45.7c0-5.6,0-11.1,0-16.7c0-1.1-0.5-2.3,0.7-3.2c-0.1,7.9-0.1,15.9-0.2,23.8
		c-0.8-1-0.4-2.1-0.5-3.2C145.1,46.2,145.1,45.9,145.1,45.7z"/>
	<path id="XMLID_92_" class="st4" d="M145.7,75.8c-1.2-2.1-0.5-4.4-0.6-6.6c-0.1-5.3,0-10.6-0.1-15.9c0.2-0.1,0.4-0.1,0.7,0
		C145.7,60.8,145.7,68.3,145.7,75.8z"/>
	<path id="XMLID_67_" class="st6" d="M100.5,53.2c0-2.5,0-5.1,0-7.6c1-1.5,0.5-3.2,0.7-4.7c0.2,0.3,0.4,0.5,0.6,0.8
		c0,3.4,0.1,6.8,0.1,10.2C101.9,52.8,101.5,53.3,100.5,53.2z"/>
	<path id="XMLID_66_" class="st13" d="M100.5,57.4c0.2,2.1,0.2,4.1-0.8,6c-2-0.4-1.1-2.1-1.4-3.2c0.6-1.1-1-3.2,1.5-3.5
		C100.1,56.9,100.3,57.1,100.5,57.4z"/>
	<path id="XMLID_63_" class="st13" d="M150.5,38.6c0,4.3,0,8.5,0,12.8c-0.1,0-0.3,0-0.4,0c0-4.3,0-8.5,0-12.8
		C150.2,38.6,150.3,38.6,150.5,38.6z"/>
	<path id="XMLID_62_" class="st13" d="M150,66.5c0-3.6,0-7.1,0-10.7c0.2,0,0.3,0,0.5,0c0,3.6,0,7.2,0,10.7
		C150.3,66.5,150.2,66.5,150,66.5z"/>
	<path id="XMLID_61_" class="st3" d="M63.5,97.3c0.3-0.8-0.3-2.2,1.3-2.2c1.1,0,0.8,1.2,1,1.9c0.2,1.1-0.4,1.9-1.3,2.1
		C63.2,99.2,63.6,98,63.5,97.3z"/>
	<path id="XMLID_60_" class="st3" d="M78.9,97.3c0.6-0.3,1.2-0.6,1.8-0.9c0.9,1.2,1.1,2.8-0.3,3.2C79,100,78.8,98.5,78.9,97.3z"/>
	<path id="XMLID_59_" class="st11" d="M102,51.9c0-3.4-0.1-6.8-0.1-10.2c1.4,3.3,0.3,6.8,0.6,10.2C102.4,51.9,102.2,51.9,102,51.9z"
		/>
	<path id="XMLID_40_" class="st3" d="M75.3,52.4c-3.4-3.3-3.3-7.7-4.6-11.7c-0.6-1.7-0.3-3.3,0.6-5.1c2.2-4.4,2.6-9.3,2.5-14.2
		c0-1.1,0.1-2.5-1.7-2.3c-1.7,0.2-1.1,1.5-1.1,2.4c0,3.3,0.1,6.5-1,9.7c-0.6,1.6-1.1,3.1-3,2.8c-1.8-0.3-0.9-2-0.9-3.1
		c-0.2-9.2,0.4-18.4-0.3-27.6c-0.9,0-1.8,0-2.7,0c0.2,0.4,0.5,0.8,0.5,1.2c0,16.9-0.1,33.8-0.2,50.7c-0.3,1.3,0.5,1.5,1.6,1.5
		c1,0,1.4-0.5,1.2-1.5c0-4.7,0-9.3,0-14c0-0.6-0.2-1.6,0.7-1.7c1.2-0.2,0.9,0.9,1.1,1.6c0.9,4.5,1.7,9.1,3.5,13.3
		c0.5,1.2,1.3,2.8,2.9,2C75.7,55.6,76.2,53.3,75.3,52.4z"/>
	<path id="XMLID_55_" class="st11" d="M126.6,95c0.2,0.1,0.4,0.1,0.6,0c-1.1,2.2-2.3,2.1-3.4,0c0.2,0,0.4,0,0.7-0.1
		c0.2,0,0.5,0,0.7,0C125.7,95,126.2,95,126.6,95z"/>
	<path id="XMLID_54_" class="st7" d="M133.4,43.1c1.2-0.3,0.6-1.6,1.3-2.2c0,0.9,0.1,1.7,0.1,2.6c0,0.6,0.1,1.5-0.9,1.3
		C133.1,44.6,133.4,43.7,133.4,43.1z"/>
	<path id="XMLID_53_" class="st10" d="M111,86c0.6,0,1.2,0,1.8,0c0,0.7,0.4,1.8-0.7,1.9C110.5,88.1,111,86.8,111,86z"/>
	<path id="XMLID_30_" class="st16" d="M89.7,96.2c-1.8-2.9-3.3-6.3-1.8-9.8c1.3-2.8,1.5-5.6,1.4-8.6c0.1-0.8,0.4-2-0.8-2
		c-1.3,0-0.9,1.1-0.9,1.9c-0.3,2.9,0.3,6-2.4,8.3c-1-1.1-0.6-2.2-0.6-3.3c0-4.4,0.1-8.9,0-13.3c0-0.9,0.7-2.4-0.8-2.5
		c-1.6-0.1-1,1.5-1,2.4c-0.1,9.2,0,18.5,0,27.7c0,0.9-0.3,2,1.1,2.7c1.8-3.3-0.2-7,1.3-10.7c0.8,3.2,1.5,5.8,2.1,8.4
		c0.3,1,0.7,1.9,1.7,2.3c0.4,0.1,1.1,0.1,1.1-0.4C90.3,98.3,90.5,97.4,89.7,96.2z"/>
	<path id="XMLID_50_" class="st7" d="M134.7,53.3c-0.5-0.4-0.5-1.3-1.3-1.5c0-0.6-0.3-1.5,0.6-1.7c0.7-0.1,0.8,0.7,0.8,1.2
		C134.7,52,134.7,52.6,134.7,53.3z"/>
	<path id="XMLID_41_" class="st3" d="M44.9,52.3c-1.5-1.4-1-2.9-1.1-4.4c-0.1-9.2-0.1-18.4-0.1-27.6c0.3-1-0.1-1.4-1.1-1.4
		c-1,0-1.8,0.1-1.5,1.5c0,9.7-0.1,19.3-0.1,29c0,1.5,0,2.9,0.4,4.4c0.3,1.1,0.3,2.3,1.5,2.8c0.7,0.3,1.1-0.2,1.6-0.8
		C45.4,54.6,45.6,53,44.9,52.3z"/>
	<path id="XMLID_46_" class="st3" d="M75,84.7c-0.7-0.9-0.7-1.6,0.5-2C75.4,83.3,75.2,84,75,84.7z"/>
	<path id="XMLID_45_" class="st3" d="M79.7,77.9c-0.8,0.1-1.3-0.4-1.7-1C78.7,77,79.5,77,79.7,77.9z"/>
	<path id="XMLID_44_" class="st12" d="M105,49.7c0.3,0,0.6,0.1,1,0.1c0,0.6,0.2,1.7-0.4,1.7C104.3,51.4,104.9,50.4,105,49.7z"/>
	<path id="XMLID_43_" class="st15" d="M137.8,42.9c0.4,0,0.7,0.1,1.1,0.1c0,0.6,0.2,1.7-0.4,1.7C137.3,44.7,137.8,43.6,137.8,42.9z"
		/>
	<path id="XMLID_42_" class="st12" d="M106,55.3c-0.3,0-0.7,0.1-1,0.1c0-0.7-0.6-1.8,0.6-1.8C106.2,53.6,106,54.7,106,55.3z"/>
	<path id="XMLID_36_" class="st16" d="M80.5,87.9c-0.2-3.3,0.8-6.8-0.8-10c-0.8,0.1-1.3-0.4-1.7-1c-2.2-0.3-1.5,2.3-2.6,3
		c-1.2-0.5-0.4-1.6-1.2-2c-1,0-2,0-3,0c-1.2-0.4-0.1,2.6-1.7,1.3c-1.9-1.6-1.7-0.2-1.7,1c0,6,0.1,12.1,0.1,18.1
		c-0.1,0.7-0.1,1.4,0.8,1.4c0.9,0,0.9-0.7,0.8-1.4c0-3.8,0.1-7.6,0.1-11.4c0-2.5,0.4-4.9,2.3-6.7c0.1-0.5,0.3-0.9,0.8-0.6
		c0.7,0.4,0.4,1.1,0.5,1.8c0.1,5.7,0.1,11.4,0.2,17.1c-0.1,0.7-0.1,1.4,0.8,1.4c0.9,0,0.9-0.7,0.8-1.4c0-4.6,0.1-9.1,0.1-13.7
		c-0.7-0.9-0.7-1.6,0.5-2c0.9-0.6,0.6-2,1.8-2.3c0.2-0.4,0.6-0.9,1-0.5c0.3,0.3,0.2,1,0.3,1.5c0.1,5.3,0.1,10.7,0.2,16
		c0.6-0.3,1.2-0.6,1.8-0.9C80.6,93.6,80.7,90.7,80.5,87.9z"/>
	<path id="XMLID_39_" class="st15" d="M121.3,44.9c0.4,0,0.7,0,1.1,0c-0.1,0.4-0.2,1.1-0.4,1.1C121.2,46.1,121.3,45.4,121.3,44.9z"
		/>
	<path id="XMLID_38_" class="st12" d="M104.9,74.4c0.4,0,0.7,0.1,1.1,0.1c0,0.5,0.2,1.2-0.6,1.2C104.7,75.6,104.8,74.9,104.9,74.4z"
		/>
	<path id="XMLID_37_" class="st15" d="M138.9,10.1c-0.4,0-0.8,0.1-1.1,0.1c0-0.5-0.1-1.2,0.7-1.2C138.6,9,138.8,9.7,138.9,10.1z"/>
	<polygon id="XMLID_35_" class="st9" points="138.5,49 138.5,48.8 138.6,48.8 	"/>
	<path id="XMLID_34_" class="st7" d="M134.7,89.6c-0.1-0.2-0.2-0.4-0.2-0.5c0-0.1,0.1-0.2,0.2-0.2C134.7,89,134.7,89.3,134.7,89.6z"
		/>
	<path id="XMLID_33_" class="st7" d="M134.1,92.9c0.2-0.2,0.4-0.5,0.6-0.7C134.8,92.7,134.6,92.9,134.1,92.9z"/>
	<path id="XMLID_32_" class="st15" d="M121.2,94.3c0.2,0.3,0.4,0.5,0.6,0.8C121.3,95,121.1,94.7,121.2,94.3z"/>
	<path id="XMLID_31_" class="st4" d="M146.6,49.8c0.2,0,0.3,0,0.5,0.1c-0.1,0.1-0.2,0.3-0.3,0.4C146.7,50.1,146.7,49.9,146.6,49.8z"
		/>
	<path id="XMLID_64_" class="st3" d="M89.8,52.4c-1.6-1.8-1.1-3.6-1.2-5.4c-0.1-8.3,0-16.6,0-25c0-1.1,0.5-2.6-1.1-3.2
		c-1.6,0-3.2,0-4.8,0c-1.5,0.6-2.4,1.5-3.1,3c-4,8.6-3.3,17.7-2.7,26.7c0.1,2,0.6,4.1,1.2,5.9c0.4,1,0.5,2.9,2.1,2.6
		c1.2-0.3,2.9-0.8,3.3-2.4c0.3-1.1,0.7-2,2-3.5c-0.6,1.6,0.5,1.8,0.7,2.6c0.3,1.2,0.3,3.2,2.3,2.5C90.2,55.8,90.6,53.3,89.8,52.4z
		 M84.3,47.7c-0.6,1.1-0.8,2.3-2.5,2.2c-1.6-0.1-1.6-1.4-1.7-2.4c-0.8-7.5-1.7-15,1.5-22.3c0.8-1.7,1.8-1.4,2.9-1.4
		c1.6,0,1.3,1.2,1.3,2.2c0,2.7,0,5.5,0,8.7C85.7,38.7,86.5,43.4,84.3,47.7z"/>
	<path id="XMLID_29_" class="st7" d="M126.6,95c-0.5,0-0.9,0-1.4-0.1c0-11,0-22,0-33c0-1.2-0.8-2.9,1.4-3.2
		C126.6,70.9,126.6,82.9,126.6,95z"/>
</g>
</svg>
