<?xml version="1.0" encoding="utf-8"?>
<!-- Generator: Adobe Illustrator 23.0.1, SVG Export Plug-In . SVG Version: 6.00 Build 0)  -->
<svg version="1.1" id="Layer_1" xmlns="http://www.w3.org/2000/svg" xmlns:xlink="http://www.w3.org/1999/xlink" x="0px" y="0px"
	 viewBox="0 0 160 45" style="enable-background:new 0 0 160 45;" xml:space="preserve">
<style type="text/css">
	.st0{fill:#101010;}
	.st1{fill:#E8CBD0;}
	.st2{fill:#141414;}
	.st3{fill:#B7849D;}
	.st4{fill:#A56BAB;}
	.st5{fill:#F3B2AC;}
	.st6{fill:#88B4CD;}
	.st7{fill:#2BBCBD;}
	.st8{fill:#707FB7;}
	.st9{fill:#DCD7E7;}
	.st10{fill:#EEA094;}
	.st11{fill:#EA5C60;}
	.st12{fill:#91D9DE;}
	.st13{fill:#9F98C6;}
	.st14{fill:#7D7D7D;}
</style>
<path class="st0" d="M73.24,1.13c0.34,4.18,0.06,8.38,0.16,12.56c0.01,0.48-0.38,1.24,0.45,1.39c0.81,0.15,1.09-0.47,1.32-1.15
	c0.49-1.45,0.52-2.93,0.5-4.43c-0.01-0.42-0.35-1.15,0.53-1.18c0.93-0.03,0.7,0.73,0.71,1.24c0.03,2.17-0.14,4.34-1.16,6.29
	c-0.42,0.81-0.49,1.57-0.23,2.33c0.6,1.8,0.57,3.84,2.15,5.31c0.36,0.34,0.13,1.4-0.48,1.76c-0.74,0.45-1.17-0.3-1.37-0.81
	c-0.78-1.95-1.18-4.01-1.59-6.07c-0.06-0.31,0.14-0.84-0.45-0.79c-0.53,0.04-0.37,0.55-0.37,0.87c-0.01,2.07,0,4.14,0,6.21
	c-0.42,0.18-0.85,0.17-1.27,0.01c0.03-7.67,0.06-15.33,0.08-23c0-0.18-0.14-0.36-0.21-0.55C72.41,1.13,72.82,1.13,73.24,1.13z"/>
<path class="st1" d="M114.59,25.38c-0.41-0.34-0.91-1.08-1.37-0.39c-0.52,0.79,0.46,1.16,1.05,1.74c-1,0.16-1.06,1.05-1.72,1.93
	c0-3.3,0-6.24,0-9.19c-0.02,1.64,1.48,2.43,2.04,3.73C114.59,23.93,114.59,24.65,114.59,25.38z"/>
<path class="st2" d="M52.72,10.48c0.42-0.37,0.42-0.97,0.68-1.38c0.34-0.53,0.7-1.15,1.63-0.93c0.83,0.19,1.05,0.64,1.11,1.37
	c0.02,0.31-0.22,0.8,0.32,0.89c0.57,0.1,0.66-0.49,0.75-0.81c0.27-0.89,0.71-1.56,1.7-1.49c1.14,0.08,1.23,1.05,1.32,1.9
	c0.36,3.62,0.06,7.25,0.18,10.87c0.03,0.86-0.34,1.79,0.57,2.56c0.3,0.25,0.1,1.05-0.29,1.56c-0.23,0.3-0.49,0.46-0.77,0.3
	c-0.4-0.23-0.59-0.66-0.62-1.15c-0.04-0.62-0.14-1.23-0.15-1.85c-0.02-2.8,0-5.6-0.01-8.39c0-1.11,0.35-2.66-0.98-2.9
	c-0.69-0.13-1.13,1.49-1.51,2.43c-0.25,0.61-0.22,1.21-0.22,1.82c0,2.9,0.02,5.8,0.01,8.7c0,0.51,0.2,1.31-0.66,1.29
	c-0.82-0.02-0.61-0.8-0.61-1.31c-0.01-3.68,0-7.36,0.01-11.03c0-0.67,0.09-1.56-0.69-1.69c-0.81-0.14-1.19,0.59-1.49,1.37
	c-0.4,1.03-0.57,2.04-0.55,3.14c0.04,2.8,0.04,5.59,0.02,8.39c0,0.46,0.15,1.16-0.64,1.15c-0.77-0.01-0.64-0.69-0.64-1.16
	c-0.01-4.87-0.01-9.74,0.01-14.61c0-0.44-0.26-1.15,0.57-1.18c0.97-0.03,0.57,0.76,0.68,1.24C52.52,9.84,52.3,10.17,52.72,10.48z"/>
<path class="st2" d="M83.19,8.23c0.76,0.28,0.51,0.94,0.51,1.45c0.01,3.78-0.03,7.56,0,11.34c0.01,0.82-0.22,1.65,0.52,2.44
	c0.36,0.39,0.18,1.54-0.59,1.82c-0.87,0.31-0.84-0.59-1.04-1.13c-0.12-0.32-0.33-0.61-0.52-0.94c-0.35,0.39-0.55,0.81-0.67,1.31
	c-0.17,0.73-0.93,0.97-1.49,1.09c-0.72,0.16-0.8-0.73-0.96-1.18c-0.31-0.86-0.5-1.79-0.56-2.7c-0.3-4.11-0.61-8.22,1.21-12.14
	c0.33-0.7,0.75-1.11,1.41-1.38C81.74,8.23,82.46,8.23,83.19,8.23z M82.42,15.06c0-1.19,0.02-2.38-0.01-3.56
	c-0.01-0.41,0.21-1.04-0.51-1.08c-0.56-0.03-1.04-0.16-1.42,0.7c-1.45,3.27-1.07,6.62-0.68,9.98c0.06,0.5-0.02,1.19,0.85,1.2
	c0.74,0.01,0.82-0.57,1.08-1.05C82.76,19.27,82.33,17.14,82.42,15.06z"/>
<path class="st2" d="M65.04,16.75c0-2.43-0.02-4.86,0.02-7.29c0.01-0.42-0.29-1.14,0.59-1.14c0.95,0,0.62,0.75,0.66,1.25
	c0.02,0.29-0.54,0.67,0.09,0.85c0.51,0.15,0.48-0.44,0.7-0.67c0.24-0.24,0.13-0.63,0.41-0.95c0.43-0.48,0.84-0.7,1.48-0.63
	c0.72,0.08,1.08,0.5,1.18,1.14c0.14,0.91,0.27,1.84,0.29,2.76c0.04,2.95-0.01,5.9,0.03,8.84c0.01,0.86-0.23,1.74,0.51,2.58
	c0.4,0.45,0.13,1.55-0.61,1.79c-0.87,0.29-0.8-0.61-0.98-1.17c-0.31-0.97-0.18-1.95-0.18-2.92c-0.02-2.9-0.02-5.79-0.01-8.69
	c0-0.61-0.14-1.22-0.75-1.32c-0.51-0.08-1.09,0.19-1.3,0.81c-0.36,1.04-0.89,2-0.86,3.19c0.08,2.89,0.05,5.79,0.05,8.69
	c0,0.58,0.16,1.43-0.74,1.37c-0.73-0.04-0.57-0.83-0.57-1.36C65.04,21.51,65.04,19.13,65.04,16.75z"/>
<path class="st0" d="M46.19,25.45c-0.97-0.28-0.99-1.22-1.2-1.94c-0.15-0.52-0.11-1.03,0.78-0.43c1.02,0.69,2.47-0.35,2.8-1.86
	c0.5-2.32-0.11-4.4-1.6-6.19C44.52,12.1,44.4,5.9,46.62,3.19c0.82-1,1.93-0.83,2.71-0.43c0.75,0.39,0.3,1.49,0.16,2.25
	c-0.08,0.42-0.67,0.24-0.94,0.13c-1.33-0.52-1.63,0.33-1.93,1.31c-0.79,2.57,0.45,4.53,1.78,6.56c2.42,3.7,2.06,7.62,0.48,11.51
	c-0.15,0.37-0.57,0.82-1.12,0.92C47.23,25.44,46.71,25.44,46.19,25.45z"/>
<path class="st0" d="M77.15,35.02c0.34,0.2-0.01,0.72,0.54,0.92c0.47-0.34,0.18-1.49,1.18-1.37c0.2,0.25,0.42,0.46,0.77,0.45
	c0.71,1.47,0.28,3.03,0.36,4.54c0.07,1.28,0.04,2.57,0.06,3.86c-0.27,0.14-0.54,0.28-0.81,0.42c-0.03-2.42-0.06-4.84-0.1-7.26
	c-0.04-0.24,0.01-0.56-0.13-0.7c-0.16-0.17-0.34,0.08-0.45,0.25c-0.53,0.15-0.41,0.8-0.81,1.06c-0.57,0.18-0.59,0.5-0.24,0.91
	c0,2.06-0.01,4.12-0.01,6.18c-0.26,0.13-0.53,0.16-0.8,0.03c-0.01-2.58-0.03-5.16-0.04-7.73c-0.03-0.28,0.11-0.63-0.21-0.8
	c-0.22-0.12-0.34,0.07-0.38,0.29c-0.82,0.82-1.04,1.84-1.04,2.95c0,1.76,0,3.52,0,5.28c-0.27,0.13-0.54,0.17-0.81,0.02
	c0-3.28,0-6.56,0-10.05c0.9,0.51,0.21,1.31,1.31,1.55c0.15,0-0.28-0.79,0.24-0.79C76.23,35.03,76.69,35.02,77.15,35.02z"/>
<path class="st2" d="M84.03,35.07c0.02,1.33-0.12,2.6-0.66,3.88c-0.65,1.54-0.04,3.1,0.83,4.41c0.36,0.54,0.22,0.94,0.2,1.41
	c0,0.06-0.25,0.19-0.37,0.17c-0.57-0.11-0.77-0.57-0.9-1.05c-0.31-1.17-0.61-2.34-0.97-3.77c-0.72,1.7,0.2,3.39-0.6,4.85
	c-0.67-0.29-0.51-0.82-0.52-1.23c-0.02-4.19-0.02-8.37,0.01-12.56c0-0.4-0.28-1.11,0.41-1.12c0.71-0.01,0.41,0.71,0.41,1.11
	c0.03,2.5,0.02,5.01,0.02,7.86c1.38-1.31,1.26-2.68,1.33-3.99C83.49,35.05,83.76,35.06,84.03,35.07z"/>
<path class="st0" d="M62.07,16.54c0-2.52-0.03-4.64,0.02-6.76c0.01-0.51-0.43-1.42,0.59-1.44c1.17-0.02,0.65,0.97,0.65,1.51
	c0.05,3.46-0.01,6.93,0.04,10.39c0.02,1.11-0.31,2.26,0.52,3.34c0.36,0.47,0.12,1.57-0.71,1.72c-0.82,0.16-0.79-0.69-0.9-1.29
	C61.81,21.4,62.28,18.76,62.07,16.54z"/>
<path class="st3" d="M97.23,40.33c-0.03,0.56-0.16,1.07-0.72,1.43c-0.39-0.42-0.29-0.93-0.36-1.4c0.04-6.02,0.07-12.05,0.11-18.07
	c1.15-0.6,0.83,0.4,0.98,0.9C97.24,28.9,97.23,34.61,97.23,40.33z"/>
<path class="st3" d="M97.14,19.13c-0.44,0.12-0.08,0.87-0.65,0.85c-0.1,0-0.18-0.32-0.26-0.49c-0.01-5.3-0.01-10.6-0.02-15.89
	c0.34-0.55,0.63-0.09,0.93,0.06C97.13,8.81,97.13,13.97,97.14,19.13z"/>
<path class="st4" d="M107.97,23.8c0.07-0.3,0.14-0.59,0.54-0.59c0.4,0,0.46,0.3,0.54,0.59c0.01,3.96,0.02,7.92,0.04,11.88
	c-0.18,0.5,0.24,1.26-0.57,1.48c-0.38,0.1-0.45-0.28-0.53-0.56C107.98,32.33,107.97,28.06,107.97,23.8z"/>
<path class="st5" d="M92.86,23.8c0.09-0.2,0.19-0.39,0.28-0.59c0.44,0.04,0.62,0.3,0.62,0.73c-0.01,4.19-0.02,8.37-0.05,12.56
	c0,0.13-0.16,0.25-0.25,0.38c-0.37-0.35-0.2-0.98-0.68-1.27C92.81,31.66,92.84,27.73,92.86,23.8z"/>
<path class="st6" d="M105.43,22.44c0,6.21,0,12.43,0,18.64c-0.1,0-0.2,0-0.3,0c0-6.22,0-12.43,0-18.65
	C105.23,22.44,105.33,22.44,105.43,22.44z"/>
<path class="st7" d="M102.67,24.69c0.07-0.28-0.11-0.76,0.28-0.77c0.55-0.02,0.38,0.53,0.38,0.83c0.03,3.52,0.02,7.04,0.03,10.55
	c0,2.12,0.02,4.24-0.01,6.36c-0.01,0.42,0.35,1.13-0.57,1.13c-0.01-0.62-0.02-1.24-0.03-1.86C102.72,35.51,102.7,30.1,102.67,24.69z
	"/>
<path class="st4" d="M109.3,20.74c-0.54,0-1.38,0.66-1.37-0.6c0.25-3.75,0.07-7.5,0.1-11.25c0.11-0.2,0.13-0.6,0.44-0.48
	c0.6,0.25,0.53,0.87,0.61,1.39c-0.02,3.05-0.06,6.1-0.06,9.14c0,0.49-0.2,1.05,0.28,1.45C109.3,20.51,109.3,20.62,109.3,20.74z"/>
<path class="st8" d="M106.07,40.16c0-5.93,0-11.87,0-17.8c0.11,0,0.22,0,0.33,0c0,5.94,0,11.88,0,17.82
	C106.29,40.17,106.18,40.16,106.07,40.16z"/>
<path class="st1" d="M96.26,22.28c-0.04,6.02-0.07,12.05-0.11,18.07c-0.18-0.02-0.36-0.04-0.54-0.06
	c0.01-6.01,0.01-12.02,0.02-18.03C95.84,22.27,96.05,22.28,96.26,22.28z"/>
<path class="st7" d="M104.58,23.85c0,5.37-0.01,10.75-0.01,16.12c-0.03,0.04-0.09,0.08-0.09,0.11c0.02,0.09,0.06,0.17,0.1,0.25
	c0.01,0.4,0.01,0.81,0.02,1.21c-0.09,0.11-0.18,0.21-0.27,0.32c-0.42-0.07-0.41-0.41-0.41-0.71c0.02-5.99,0.04-11.98,0.07-17.97
	C104.37,23.24,104.36,23.65,104.58,23.85z"/>
<path class="st5" d="M93.81,20.13c-0.04,0.55-0.44,0.6-0.86,0.64c-0.32-3.62,0-7.25-0.17-10.88c0.66-0.48,0.11-1.39,0.69-1.9
	c0.52,0.51,0.28,1.16,0.28,1.75C93.79,13.2,93.8,16.67,93.81,20.13z"/>
<path class="st8" d="M99.05,24.74c0.02,0.21,0.04,0.41,0.06,0.62c-0.03,5.81-0.05,11.62-0.08,17.43c-0.11,0.02-0.22,0.03-0.32,0.05
	c-0.09-0.12-0.17-0.25-0.26-0.37c-0.03-0.2-0.05-0.39-0.08-0.59c0.03-5.21,0.05-10.42,0.11-15.64
	C98.49,25.72,98.06,24.93,99.05,24.74z"/>
<path class="st4" d="M98.17,41.88c-0.1,0.27,0.03,0.74-0.33,0.77c-0.44,0.04-0.32-0.41-0.33-0.68c-0.03-0.56-0.02-1.12-0.02-1.67
	c0.02-2.27,0.13-4.54,0.04-6.81c-0.13-3.4,0.4-6.79,0.1-10.19c0.45-0.12,0.47,0.21,0.54,0.5C98.17,29.83,98.17,35.86,98.17,41.88z"
	/>
<path class="st4" d="M98.04,20.05c-0.65-0.02-0.41-0.57-0.53-0.9c0-5.17,0-10.35,0-15.52c0.13-0.28-0.12-0.83,0.39-0.8
	c0.3,0.02,0.18,0.5,0.27,0.76C98.13,9.08,98.09,14.57,98.04,20.05z"/>
<path class="st9" d="M99.04,42.79c0.03-5.81,0.05-11.62,0.08-17.43c0.19,0.01,0.38,0.03,0.57,0.04c-0.01,5.8-0.02,11.6-0.03,17.4
	C99.45,42.79,99.24,42.79,99.04,42.79z"/>
<path class="st10" d="M93.82,38.7c-0.02-0.19-0.05-0.38-0.07-0.58c0.48-0.47,0.28-1.07,0.28-1.62c0.02-4.75,0.01-9.5,0.01-14.25
	c0.81,0.08,0.6,0.72,0.6,1.18c0,5.09-0.01,10.18-0.03,15.27C94.35,38.7,94.09,38.7,93.82,38.7z"/>
<path class="st8" d="M98.52,3.69c1.13,0.43,0.32,1.41,0.59,2.08c-0.02,4.78-0.04,9.55-0.06,14.32c0,0-0.05-0.03-0.05-0.03
	c-0.16-0.01-0.32-0.01-0.48-0.02c0,0-0.07,0.03-0.07,0.03C98.47,14.61,98.49,9.15,98.52,3.69z"/>
<path class="st7" d="M102.65,4.16c0.08-0.4,0.24-0.78,0.62-0.28c0.18,0.24,0.09,0.7,0.09,1.05c0,4.62,0.01,9.25-0.02,13.87
	c0,0.45,0.41,1.21-0.56,1.28c-0.01-0.57-0.02-1.13-0.03-1.7C102.72,13.65,102.68,8.9,102.65,4.16z"/>
<path class="st1" d="M96.21,3.59c0.01,5.3,0.01,10.6,0.02,15.89c-0.21-0.02-0.42-0.03-0.63-0.05c0.01-4.74,0.02-9.48,0.04-14.22
	c0-0.35,0.07-0.73-0.31-0.97C95.28,3.58,95.79,3.65,96.21,3.59z"/>
<path class="st7" d="M103.98,19.21c0-5.48,0-10.96,0-16.45c0.2,0,0.4,0,0.59-0.01c0,5.15,0,10.3,0,15.46
	C104.27,18.48,104.51,19.07,103.98,19.21z"/>
<path class="st10" d="M93.75,6.73c0.01-0.21,0-0.41,0.03-0.62c0.05-0.34-0.06-0.84,0.43-0.85c0.5-0.01,0.42,0.51,0.43,0.84
	c0.03,0.82,0.01,1.65,0.01,2.47c0,3.4,0.01,6.8-0.01,10.2c0,0.49,0.32,1.21-0.59,1.33c0-3.92,0-7.84-0.02-11.77
	C94.03,7.8,94.24,7.2,93.75,6.73z"/>
<path class="st6" d="M105.41,3.75c0,5.09,0,10.17,0,15.26c-0.1,0-0.21,0-0.31,0c0-5.08,0-10.17,0-15.25
	C105.21,3.75,105.31,3.75,105.41,3.75z"/>
<path class="st8" d="M106.01,19.13c0-4.95,0-9.9-0.01-14.85c0.17-0.01,0.34-0.03,0.51-0.04c-0.01,4.98-0.01,9.96-0.02,14.93
	C106.34,19.15,106.17,19.14,106.01,19.13z"/>
<path class="st7" d="M101.95,41.15c0-4.92-0.01-9.84-0.01-14.77c0.66,0.03,0.5,0.54,0.5,0.91c0.01,4.31,0.01,8.62,0,12.93
	C102.44,40.6,102.6,41.11,101.95,41.15z"/>
<path class="st9" d="M99.05,20.1c0.02-4.77,0.04-9.55,0.06-14.32c0.2,0.01,0.39,0.03,0.59,0.04c0,4.96,0,9.92-0.01,14.88
	C99.47,20.5,99.26,20.3,99.05,20.1z"/>
<path class="st6" d="M100.59,6.42c0.11,0.12,0.22,0.24,0.33,0.36c0,4.65,0.01,9.29,0.01,13.94c-0.23,0.39-0.48,0.36-0.75,0.03
	c0.02-4.13,0.05-8.27,0.07-12.4C100.25,7.69,100.15,7.01,100.59,6.42z"/>
<path class="st7" d="M101.94,19.09c0.01-4.61,0.01-9.22,0.02-13.83c0.56-0.01,0.49,0.39,0.49,0.75c0,4.1,0,8.21-0.01,12.31
	C102.45,18.69,102.47,19.07,101.94,19.09z"/>
<path class="st9" d="M107.97,23.8c0,4.27,0.01,8.54,0.01,12.8c-0.09,0-0.17-0.01-0.26-0.03c-0.06-0.08-0.18-0.15-0.18-0.24
	c-0.13-4.1-0.15-8.19,0.01-12.29c0-0.08,0.13-0.15,0.2-0.22C107.82,23.81,107.89,23.8,107.97,23.8z"/>
<path class="st11" d="M92.86,23.8c-0.03,3.93-0.05,7.87-0.08,11.8c-0.42,0.33-0.64,0.22-0.64-0.31c0-3.76,0-7.53,0.02-11.29
	c0-0.26-0.07-0.68,0.4-0.67C92.85,23.33,92.78,23.63,92.86,23.8z"/>
<path class="st12" d="M101.95,41.15c0.65-0.05,0.49-0.55,0.49-0.93c0.01-4.31,0.01-8.62,0-12.93c0-0.37,0.16-0.88-0.5-0.91
	c-0.12-0.72-0.42-1.52,0.73-1.7c0.03,5.41,0.05,10.83,0.08,16.24c0,0.62,0.02,1.24,0.03,1.86c-0.29,0.2-0.58,0.63-0.83-0.04
	C101.75,42.21,101.8,41.68,101.95,41.15z"/>
<path class="st11" d="M92.78,9.89c0.17,3.62-0.16,7.26,0.17,10.88c-0.09,0.31,0.09,0.83-0.43,0.83c-0.42,0-0.35-0.44-0.35-0.73
	c-0.02-3.4-0.03-6.81-0.03-10.21C92.14,10.26,92.13,9.79,92.78,9.89z"/>
<path class="st9" d="M108.02,8.89c-0.03,3.75,0.15,7.5-0.1,11.25c-0.17-0.02-0.34-0.04-0.51-0.06c0.01-2.82,0-5.65,0.06-8.47
	c0.02-0.9-0.3-1.84,0.23-2.7C107.81,8.9,107.92,8.9,108.02,8.89z"/>
<path class="st9" d="M97.64,23.3c0.3,3.4-0.23,6.79-0.1,10.19c0.09,2.27-0.02,4.54-0.04,6.81c-0.09,0.01-0.17,0.02-0.26,0.02
	c0-5.71,0-11.43,0-17.14C97.37,23.22,97.5,23.26,97.64,23.3z"/>
<path class="st12" d="M101.94,19.09c0.53-0.01,0.51-0.39,0.51-0.76c0-4.1,0-8.21,0.01-12.31c0-0.36,0.06-0.76-0.49-0.75
	c-0.17-0.62,0.01-1.02,0.69-1.1c0.03,4.74,0.06,9.49,0.1,14.23c0,0.57,0.02,1.13,0.03,1.7c-0.28,0.08-0.4,0.66-0.7,0.42
	C101.63,20.14,101.82,19.58,101.94,19.09z"/>
<path class="st11" d="M91.11,22.21c0-3.35,0-6.69,0-10.04c0.15,0,0.29,0,0.44,0c0,3.36,0,6.72,0,10.08
	C91.4,22.24,91.25,22.22,91.11,22.21z"/>
<path class="st13" d="M107.75,23.82c-0.07,0.07-0.19,0.15-0.2,0.22c-0.17,4.1-0.14,8.19-0.01,12.29c0,0.08,0.12,0.16,0.18,0.24
	c0,0.68,0,1.37,0,2.05c-0.15-0.01-0.3-0.02-0.46-0.03c0-5.38,0-10.76,0-16.28C107.91,22.8,107.61,23.37,107.75,23.82z"/>
<path class="st12" d="M99.96,25.43c0.68-0.04,1.4-0.14,1.23,0.93c-0.09-0.02-0.17-0.03-0.26-0.02c-1.02,0.12-0.63,0.92-0.64,1.45
	c-0.03,4.99-0.01,9.99-0.01,14.98c-0.11,0-0.22,0-0.33-0.01C99.96,36.98,99.96,31.2,99.96,25.43z"/>
<path class="st1" d="M94.04,22.25c0,4.75,0.01,9.5-0.01,14.25c0,0.54,0.19,1.15-0.28,1.62c-1.07-0.2-0.49-0.77-0.28-1.26
	c0.09-0.13,0.24-0.25,0.25-0.38c0.02-4.19,0.03-8.37,0.05-12.56c0-0.43-0.18-0.68-0.62-0.73C93.06,22.53,93.36,22.22,94.04,22.25z"
	/>
<path class="st11" d="M89.43,18.21c0.46-0.81,0.2-1.69,0.27-2.54c0.02-0.27,0.06-0.52,0.39-0.55c0.3-0.03,0.5,0.14,0.5,0.43
	c-0.01,2.5-0.03,5.01-0.07,7.51c0,0.05-0.34,0.09-0.52,0.14c-0.17-1.54,0.34-3.13-0.29-4.64C89.62,18.44,89.53,18.33,89.43,18.21z"
	/>
<path class="st9" d="M98.17,41.88c0-6.03,0-12.06,0-18.08c0.56,0.07,0.87,0.36,0.88,0.94c-0.99,0.19-0.56,0.98-0.57,1.5
	c-0.06,5.21-0.08,10.42-0.11,15.64C98.31,41.88,98.24,41.88,98.17,41.88z"/>
<path class="st5" d="M88.82,23.9c-0.02,0.5-0.04,1-0.05,1.49c-1.14,0.13-0.41,1.09-0.7,1.59c-1.71-1.57-1.71-3.6,0-5.38
	C88.36,22.35,86.84,23.7,88.82,23.9z"/>
<path class="st10" d="M95.63,22.27c-0.01,6.01-0.01,12.02-0.02,18.03c-0.4-0.23-0.29-0.63-0.29-0.97c-0.01-5.37-0.01-10.73,0-16.1
	C95.31,22.88,95.22,22.49,95.63,22.27z"/>
<path class="st9" d="M109.94,11.39c0.39,0.02,0.62,0.19,0.6,0.61c-0.86,0.18-0.6,0.9-0.54,1.37c0.39,2.97,0.02,5.93-0.07,8.89
	c-0.13-0.02-0.26-0.04-0.38-0.06c0.02-3.6,0.05-7.2,0.07-10.8C109.72,11.39,109.83,11.39,109.94,11.39z"/>
<path class="st11" d="M91.55,24.77c0,2.89,0.01,5.79,0.01,8.68c-0.17-0.01-0.33-0.03-0.5-0.04c0.01-2.87,0.01-5.73,0.02-8.6
	C91.24,24.8,91.4,24.79,91.55,24.77z"/>
<path class="st13" d="M107.71,8.91c-0.53,0.86-0.22,1.8-0.23,2.7c-0.06,2.82-0.04,5.65-0.06,8.47c-0.38-0.25-0.28-0.64-0.28-0.99
	c-0.01-4.2-0.01-8.39,0-12.59c0-0.19,0.07-0.39,0.16-0.86C107.99,6.84,107.59,7.91,107.71,8.91z"/>
<path class="st8" d="M99.96,25.43c0,5.78,0,11.56-0.01,17.34c-0.1,0.03-0.2,0.05-0.3,0.04c0,0-0.01-0.01-0.01-0.01
	c0.01-5.8,0.02-11.6,0.03-17.4C99.78,25.36,99.88,25.37,99.96,25.43z"/>
<path class="st9" d="M109.6,23.84c0.6,0.01,0.92,0.31,0.92,0.92c-0.8,0.14-0.59,0.79-0.53,1.23c0.35,2.68,0.09,5.36-0.04,8.03
	c0,0-0.01,0.08-0.01,0.08c-0.12-0.01-0.24-0.03-0.36-0.04C109.59,30.65,109.59,27.24,109.6,23.84z"/>
<path class="st9" d="M98.52,3.69c-0.02,5.46-0.05,10.93-0.07,16.39c-0.13-0.01-0.27-0.02-0.4-0.02c0.04-5.49,0.09-10.97,0.13-16.46
	C98.29,3.63,98.4,3.66,98.52,3.69z"/>
<path class="st8" d="M100.93,26.34c0.09-0.01,0.18-0.01,0.26,0.02c0,5.48,0,10.96,0,16.44c-0.09,0.03-0.18,0.02-0.27-0.01
	C100.93,37.31,100.93,31.82,100.93,26.34z"/>
<path class="st1" d="M93.75,6.73c0.49,0.47,0.28,1.07,0.28,1.61c0.02,3.92,0.01,7.84,0.02,11.77c-0.08,0.01-0.16,0.01-0.24,0.03
	c-0.01-3.46-0.02-6.93-0.06-10.39c-0.01-0.59,0.24-1.24-0.28-1.75C93.26,7.5,92.68,6.93,93.75,6.73z"/>
<path class="st9" d="M97.51,3.63c0,5.17,0,10.35,0,15.52c-0.13-0.01-0.25-0.01-0.38-0.02c0-5.16,0-10.32,0-15.48
	C97.26,3.64,97.39,3.64,97.51,3.63z"/>
<path class="st10" d="M95.32,4.25c0.38,0.23,0.31,0.61,0.31,0.97c-0.01,4.74-0.02,9.48-0.04,14.22c-0.47-0.35-0.27-0.85-0.27-1.28
	C95.31,13.52,95.32,8.89,95.32,4.25z"/>
<path class="st9" d="M100.59,6.42c-0.44,0.59-0.34,1.27-0.34,1.94c-0.02,4.13-0.04,8.27-0.07,12.4c-0.07-0.01-0.14-0.02-0.2-0.04
	c0.04-4.88,0.07-9.75,0.11-14.63C100.32,6.1,100.51,6.18,100.59,6.42z"/>
<path class="st4" d="M109.92,22.26c0.1-2.96,0.46-5.92,0.07-8.89c-0.06-0.47-0.33-1.19,0.54-1.37c0.02,3.12,0.04,6.24,0.04,9.37
	c0,0.34,0.1,0.74-0.35,0.92c-0.07-0.02-0.14-0.03-0.21-0.03L109.92,22.26z"/>
<path class="st11" d="M90.04,25.39c0.18,0.06,0.52,0.11,0.52,0.17c0.03,2.1,0.02,4.2,0.02,6.65c-0.82-1.28-0.82-1.28-0.63-3.13
	C89.98,27.85,90.01,26.62,90.04,25.39z"/>
<path class="st8" d="M100.09,6.09c-0.04,4.88-0.07,9.75-0.11,14.63c0,0-0.15,0.01-0.15,0.01s-0.15-0.02-0.15-0.02
	c0-4.96,0-9.92,0.01-14.88C99.83,5.91,99.96,6,100.09,6.09z"/>
<path class="st1" d="M109.58,34.06c0.12,0.01,0.24,0.03,0.36,0.04c-0.08,0.63,0.33,1.53-0.85,1.58c-0.01-3.96-0.02-7.92-0.04-11.88
	c0.09,0,0.17,0.01,0.25,0.03c0,2.41-0.03,4.82,0.02,7.23C109.35,32.06,109.03,33.1,109.58,34.06z"/>
<path class="st8" d="M100.93,20.72c0-4.65-0.01-9.3-0.01-13.94c0.4,0.23,0.29,0.63,0.29,0.96c0.01,4.06,0.01,8.12,0,12.18
	C101.22,20.22,101.29,20.55,100.93,20.72z"/>
<path class="st4" d="M109.95,34.02c0.14-2.68,0.39-5.35,0.04-8.03c-0.06-0.44-0.26-1.09,0.53-1.23c0.02,2.78,0.04,5.57,0.05,8.35
	C110.58,33.53,110.74,34.12,109.95,34.02z"/>
<path class="st1" d="M109.94,11.39c-0.11,0-0.21,0.01-0.32,0.01c-0.51,0.39-0.29,0.95-0.3,1.43c-0.02,2.52-0.01,5.04-0.02,7.56
	c-0.49-0.4-0.28-0.96-0.28-1.45c0-3.05,0.03-6.1,0.06-9.14C110.26,9.84,109.83,10.76,109.94,11.39z"/>
<path class="st11" d="M88.82,23.9c-1.99-0.19-0.46-1.54-0.76-2.29c0.35-0.41-0.77-2.04,1.03-1.24c0,1.15-0.01,2.3-0.01,3.45
	C89,23.84,88.91,23.87,88.82,23.9z"/>
<path class="st0" d="M63.52,3.08c-0.02,0.77-0.21,1.51-0.92,1.43c-0.77-0.08-0.62-0.93-0.61-1.5C62,2.5,61.92,1.7,62.71,1.78
	C63.4,1.85,63.56,2.55,63.52,3.08z"/>
<path class="st1" d="M90.04,25.39c-0.03,1.23-0.06,2.46-0.09,3.69c-0.41-0.22-0.82-0.43-1.23-0.65c0.46-0.87,0.46-1.79,0.36-2.73
	C89.42,25.66,89.4,24.53,90.04,25.39z"/>
<path class="st3" d="M109.3,20.4c0-2.52-0.01-5.04,0.02-7.56c0-0.48-0.21-1.04,0.3-1.43c-0.02,3.6-0.05,7.2-0.07,10.8
	c-0.38-0.44-0.19-0.97-0.25-1.46C109.3,20.62,109.3,20.51,109.3,20.4z"/>
<path class="st3" d="M109.58,34.06c-0.55-0.96-0.23-2-0.25-2.99c-0.06-2.41-0.02-4.82-0.02-7.23c0.1-0.02,0.2-0.02,0.3,0
	C109.59,27.24,109.59,30.65,109.58,34.06z"/>
<path class="st5" d="M89.09,23.82c0-1.15,0.01-2.3,0.01-3.45c0.46-0.66,0.22-1.43,0.33-2.15c0.1,0.11,0.2,0.23,0.29,0.34
	c0.01,1.55,0.02,3.1,0.04,4.65C89.72,23.62,89.54,23.87,89.09,23.82z"/>
<path class="st11" d="M89.08,25.7c0.1,0.94,0.09,1.87-0.36,2.73c-0.92-0.17-0.5-0.94-0.65-1.45c0.29-0.51-0.44-1.46,0.7-1.59
	C88.87,25.49,88.98,25.6,89.08,25.7z"/>
<path class="st11" d="M111.75,17.22c0,1.94,0,3.88,0,5.82c-0.07,0-0.13,0-0.2,0c0-1.96,0-3.93,0-5.89
	C111.62,17.18,111.69,17.2,111.75,17.22z"/>
<path class="st11" d="M111.75,24.97c0,1.62,0,3.25,0,4.87c-0.06,0-0.12,0-0.18,0c0-1.62,0-3.25,0-4.87
	C111.63,24.97,111.69,24.97,111.75,24.97z"/>
<path class="st2" d="M72.73,42.8c0.56,0.04,0.48,0.49,0.54,0.81c0.1,0.51-0.11,0.95-0.65,1.01c-0.45,0.05-0.37-0.4-0.35-0.68
	C72.3,43.52,72.19,43.01,72.73,42.8z"/>
<path class="st2" d="M79.24,43.84c0.27-0.14,0.54-0.28,0.81-0.42c0.4,0.54,0.52,1.25-0.14,1.47C79.31,45.08,79.22,44.36,79.24,43.84
	z"/>
<path class="st9" d="M89.76,23.21c-0.01-1.55-0.02-3.1-0.04-4.65c0.62,1.51,0.11,3.1,0.29,4.64C89.92,23.2,89.84,23.2,89.76,23.21z"
	/>
<path class="st2" d="M77.15,35.02c-0.46,0-0.92,0.01-1.39,0.01c0.19-0.35,0-0.94,0.7-0.96C77.21,34.05,76.92,34.71,77.15,35.02z"/>
<path class="st14" d="M72.13,24.68c0.43,0.16,0.85,0.17,1.27-0.01c0.07,0.49-0.11,0.73-0.63,0.73
	C72.26,25.41,72.05,25.18,72.13,24.68z"/>
<path class="st9" d="M100.93,42.79c0.09,0.03,0.18,0.03,0.27,0.01c-0.51,1.01-1.03,0.94-1.54,0c0.1,0.01,0.2-0.01,0.3-0.04
	c0.11,0,0.22,0,0.33,0.01C100.5,42.78,100.72,42.79,100.93,42.79z"/>
<path class="st14" d="M84.03,35.07c-0.27-0.01-0.54-0.02-0.81-0.03c0.03-0.36-0.21-0.94,0.41-0.93
	C84.22,34.13,84.01,34.7,84.03,35.07z"/>
<path class="st1" d="M93.82,38.7c0.27,0,0.53,0,0.8,0c0.01,0.34,0.19,0.82-0.32,0.87C93.63,39.64,93.83,39.08,93.82,38.7z"/>
<path class="st6" d="M103.98,19.21c0.52-0.14,0.29-0.73,0.59-0.99c0.01,0.39,0.05,0.78,0.03,1.17c-0.01,0.26,0.03,0.7-0.41,0.59
	C103.85,19.89,103.99,19.49,103.98,19.21z"/>
<path class="st6" d="M104.58,23.85c-0.23-0.2-0.22-0.6-0.59-0.68c0.01-0.29-0.12-0.7,0.25-0.78c0.3-0.06,0.34,0.3,0.35,0.55
	C104.6,23.24,104.59,23.55,104.58,23.85z"/>
<path class="st2" d="M77.51,38.1c-0.34-0.42-0.33-0.74,0.24-0.91C77.68,37.49,77.6,37.8,77.51,38.1z"/>
<path class="st2" d="M79.63,35.02c-0.35,0.01-0.57-0.2-0.77-0.45C79.19,34.62,79.53,34.61,79.63,35.02z"/>
<path class="st13" d="M106.01,19.13c0.16,0.01,0.33,0.03,0.49,0.04c0,0.28,0.1,0.76-0.2,0.76
	C105.77,19.93,106.02,19.44,106.01,19.13z"/>
<path class="st10" d="M91.55,24.77c-0.15,0.01-0.31,0.03-0.46,0.04c-0.02-0.32-0.28-0.83,0.27-0.83
	C91.67,23.98,91.56,24.48,91.55,24.77z"/>
<path class="st10" d="M91.11,22.21c0.15,0.02,0.29,0.03,0.44,0.05c0,0.29,0.11,0.78-0.19,0.77C90.82,23.01,91.09,22.52,91.11,22.21z
	"/>
<path class="st2" d="M76.07,36.07c0.04-0.21,0.15-0.4,0.38-0.29c0.32,0.17,0.18,0.52,0.21,0.8C76.4,36.48,76.04,36.49,76.07,36.07z"
	/>
<path class="st14" d="M74.22,44.31c0.27,0.15,0.54,0.11,0.81-0.02c0.09,0.4,0.04,0.73-0.47,0.68
	C74.12,44.94,74.16,44.62,74.22,44.31z"/>
<path class="st14" d="M76.7,44.31c0.27,0.14,0.54,0.11,0.8-0.03c0.09,0.4,0.05,0.73-0.47,0.69C76.61,44.95,76.63,44.63,76.7,44.31z"
	/>
<path class="st2" d="M78.57,36.13c0.11-0.17,0.29-0.41,0.45-0.25c0.14,0.14,0.09,0.46,0.13,0.7C78.91,36.48,78.55,36.55,78.57,36.13
	z"/>
<path class="st13" d="M98.51,20.05c0.16,0.01,0.32,0.01,0.48,0.02c-0.06,0.17-0.1,0.49-0.18,0.49
	C98.45,20.59,98.52,20.28,98.51,20.05z"/>
<path class="st10" d="M91.07,33.41c0.17,0.01,0.33,0.03,0.5,0.04c-0.01,0.22,0.09,0.55-0.27,0.53
	C90.95,33.96,91.04,33.65,91.07,33.41z"/>
<path class="st13" d="M106.52,4.23c-0.17,0.01-0.34,0.03-0.51,0.04c-0.02-0.25-0.06-0.54,0.3-0.53
	C106.38,3.75,106.45,4.06,106.52,4.23z"/>
<path class="st6" d="M104.58,40.32c-0.03-0.08-0.08-0.16-0.1-0.25c-0.01-0.03,0.06-0.07,0.09-0.11
	C104.58,40.09,104.58,40.2,104.58,40.32z"/>
<path class="st6" d="M104.33,41.85c0.09-0.11,0.18-0.21,0.27-0.32C104.63,41.74,104.53,41.84,104.33,41.85z"/>
<path class="st13" d="M98.45,42.47c0.09,0.12,0.17,0.25,0.26,0.37C98.52,42.79,98.43,42.67,98.45,42.47z"/>
<path class="st3" d="M110.02,22.25c0.07,0,0.14,0.01,0.21,0.03c-0.05,0.06-0.1,0.12-0.15,0.18
	C110.06,22.39,110.04,22.32,110.02,22.25z"/>
<polygon class="st8" points="106.33,21.91 106.3,21.82 106.37,21.83 "/>
<path class="st6" d="M100.93,42.79c-0.22-0.01-0.43-0.02-0.65-0.02c0-5-0.01-9.99,0.01-14.98c0-0.52-0.38-1.32,0.64-1.45
	C100.93,31.82,100.93,37.31,100.93,42.79z"/>
</svg>
