<?xml version="1.0" encoding="utf-8"?>
<!-- Generator: Adobe Illustrator 23.0.1, SVG Export Plug-In . SVG Version: 6.00 Build 0)  -->
<svg version="1.1" id="Layer_1" xmlns="http://www.w3.org/2000/svg" xmlns:xlink="http://www.w3.org/1999/xlink" x="0px" y="0px"
	 viewBox="0 0 160 45" style="enable-background:new 0 0 160 45;" xml:space="preserve">
<style type="text/css">
	.st0{fill:#EB2028;}
	.st1{fill:#090909;}
	.st2{fill:#0B0B0C;}
	.st3{fill:#070707;}
	.st4{fill:#080808;}
	.st5{fill:#050708;}
	.st6{fill:#0B0B0B;}
	.st7{fill:#080909;}
	.st8{fill:#07090A;}
	.st9{fill:#DED3D4;}
	.st10{fill:#050505;}
	.st11{fill:#E4E4E4;}
	.st12{fill:#131314;}
	.st13{fill:#3D4647;}
	.st14{fill:#EA000B;}
	.st15{fill:#484D4D;}
	.st16{fill:#EA0010;}
	.st17{fill:#495353;}
	.st18{fill:#EA030F;}
	.st19{fill:#373838;}
	.st20{fill:#141414;}
	.st21{fill:#EB1113;}
	.st22{fill:#384142;}
	.st23{fill:#2A3434;}
	.st24{fill:#FEFBFB;}
	.st25{fill:#FDF8F8;}
	.st26{fill:#FDF4F4;}
	.st27{fill:#EC1D21;}
	.st28{fill:#EA000A;}
	.st29{fill:#EB1C25;}
	.st30{fill:#EA0003;}
	.st31{fill:#EA0313;}
	.st32{fill:#EB0D12;}
	.st33{fill:#EB1821;}
	.st34{fill:#F8F8F8;}
	.st35{fill:#F9F9F9;}
	.st36{fill:#FEFEFE;}
	.st37{fill:#FCFCFC;}
	.st38{fill:#FECCCD;}
	.st39{fill:#EC181E;}
	.st40{fill:#EC2E34;}
</style>
<path class="st0" d="M92.5,7.07c0.46,0.24,0.93,0.48,1.39,0.72c2.6,2.12,1.3,5.2,1.93,7.81C95,20.7,87.25,28.16,82.13,28.78
	c-1.72,0.21-3.08-0.73-4.52-1.4c-3.94-1.82-6.67-5.02-9.35-8.26c-0.98-1.18-1.32-2.64-0.95-4.19c0.58-2.41-0.31-5.24,2-7.17
	c0.47-0.24,0.94-0.47,1.41-0.71c1.41,0.33,2.54-0.82,3.9-0.73c0.2-0.07,0.39-0.14,0.58-0.23c0.74-0.31,1.49-0.58,2.32-0.48
	c2.7,0.58,5.41,0.89,8.12,0.02c0.83-0.08,1.6,0.04,2.21,0.69l0.02,0.12C89.52,5.85,90.88,7.38,92.5,7.07z"/>
<path class="st0" d="M94.6,29.1c-3.15,4.53-7.65,7.34-12.46,9.77c-0.36-0.21-0.71-0.23-1.06,0.01c-3.96-2.04-7.91-4.08-10.93-7.49
	c-1.32-1.48-2.39-3.03-2.15-5.15c0.36-0.6,0.06-1.75,1.33-1.6c0.28,0.17,0.52,0.39,0.73,0.64c0.55,0.82,1.23,1.46,2.25,1.64
	c9.08,6.84,10.1,6.8,18.55-0.74c0.83-0.74,1.58-1.57,2.75-1.8c0.77-0.06,1.37,0.26,1.84,0.86c0.53,0.85-0.04,1.69,0,2.54
	c-0.09,0.24-0.18,0.48-0.27,0.73C95.07,28.8,94.87,28.99,94.6,29.1z"/>
<path class="st1" d="M3.09,20.44c-2.13-2.52-1.91-3.82,0.91-4.74c1.03-0.33,2.24-0.61,3.23-0.37c1.36,0.33,3.92-0.07,3.66,1.82
	c-0.27,1.98-2.21,0.03-3.42,0.22c-1.07,0.16-2.18,0.03-3.7,0.03c1.42,1.93,3.11,1.18,4.5,1.45c1.61,0.31,3.34,0.66,3.49,2.63
	c0.17,2.2-1.65,3.17-3.34,3.16c-2.45-0.01-5.8,1.52-6.73-2.63c2.04-1.32,4.39,0.12,6.49-0.45C6.36,21.75,4.65,21.55,3.09,20.44z"/>
<path class="st2" d="M120.39,17.96c2.46,1.35,4.27,0.5,5.83,1.04c1.28,0.44,2.59,0.82,2.72,2.6c0.12,1.69-1.26,1.99-2.21,2.52
	c-2.31,1.29-4.7,0.79-7.04-0.07c-0.57-0.21-1.25-0.61-1.08-1.22c0.21-0.74,0.7-0.69,1.61-0.5c2.03,0.42,4.23,0.52,7.12-0.34
	c-2.42-1.45-4.32-1.14-6.04-1.46c-1.38-0.25-2.45-0.75-2.48-2.23c-0.03-1.36,0.79-2.17,2.17-2.61c1.87-0.6,3.65-0.55,5.46,0.05
	c0.77,0.26,1.94,0.32,1.61,1.48c-0.26,0.92-1.42,1.23-2.2,0.86C124.34,17.35,122.89,17.19,120.39,17.96z"/>
<path class="st3" d="M140.51,24.84c-3.43-0.02-5.84-2.02-5.81-4.83c0.03-2.75,2.63-4.91,5.87-4.88c3.23,0.04,5.91,2.28,5.89,4.94
	C146.43,22.83,143.89,24.86,140.51,24.84z"/>
<path class="st4" d="M36.67,20.08c-0.09,2.75-2.69,4.77-5.99,4.67c-3.35-0.11-5.8-2.28-5.7-5.06c0.09-2.73,2.62-4.64,6.07-4.58
	C34.47,15.16,36.77,17.19,36.67,20.08z"/>
<path class="st5" d="M38.81,15.81c2.21-0.06,4.44-0.33,6.63-0.12c2.88,0.27,3.68,2.45,1.89,4.72c-0.49,0.63-1.42,0.97-0.12,1.83
	c0.57,0.38,2.01,1.23,0.7,2.24c-1.48,1.15-1.72-0.59-2.37-1.31c-0.41-0.46-0.75-1.1-1.26-1.31c-2.2-0.93-4.08-1.03-4.09,2.2
	c-1.46,0.66-1.74-0.3-1.69-1.36C38.59,20.4,38.07,18.07,38.81,15.81z"/>
<path class="st6" d="M107.64,22.17c1.17-2.07,2.22-3.86,3.19-5.7c0.43-0.81,1.14-1.08,1.82-0.8c1.07,0.44,0.36,1.18,0.04,1.78
	c-1.1,2.05-2.14,4.14-3.37,6.11c-1.06,1.71-2.38,1.65-3.42-0.05c-1.14-1.88-2.17-3.84-3.16-5.81c-0.32-0.62-1.51-1.44-0.08-2.04
	c0.95-0.4,1.55,0.35,1.99,1.17C105.59,18.54,106.55,20.23,107.64,22.17z"/>
<path class="st5" d="M13.66,24.06c-0.07-0.73-0.18-1.45-0.19-2.18c-0.08-6.69,0.76-7.41,7.35-6.25c1.58,0.28,2.51,0.86,2.51,2.86
	c0,2-0.91,2.7-2.51,2.83c-1.57,0.12-3.17-0.07-4.75-0.12c-0.95,0.28-0.61,1.09-0.69,1.72C15.24,23.98,14.98,24.8,13.66,24.06z"/>
<path d="M155.58,24.18c-1.53-1.82-3.06-3.64-5.13-6.11c0,2.22,0.02,3.74-0.01,5.26c-0.01,0.58,0.03,1.26-0.87,1.32
	c-0.95,0.06-1.31-0.43-1.32-1.31c-0.01-0.49-0.09-1,0.01-1.47c0.42-2.05-1.3-5.23,0.85-5.97c2.68-0.93,3.87,2.6,5.71,4.17
	c0.27,0.23,0.19,0.92,0.75,1.1c0.45,0.19,0.92,0.36,1.07,0.91C156.64,22.95,156.38,23.7,155.58,24.18z"/>
<path d="M132.81,19.93c-0.85,1.4,0.97,4.16-1.3,4.19c-2.07,0.02-0.91-2.65-0.9-4.03c0.01-1.53-1.14-4.38,0.96-4.4
	C133.88,15.67,131.88,18.54,132.81,19.93z"/>
<path class="st7" d="M117.1,19.86c-0.87,1.56,1.1,4.57-1.4,4.55c-2.11-0.02-0.89-3.01-0.93-4.62c-0.04-1.34-1.21-3.95,0.9-3.97
	C118.25,15.8,116.12,18.59,117.1,19.86z"/>
<path class="st8" d="M155.58,24.18c0.26-0.74,0.51-1.47,0.77-2.21c0.55-1.49,0.36-3.05,0.39-4.59c0.03-1.22,0.25-2.2,1.84-1.48
	c0.05,2.18,0.21,4.36,0.12,6.54C158.61,24.68,158.17,24.85,155.58,24.18z"/>
<path class="st9" d="M87.86,7.69c-0.74,0-1.49,0-2.23,0c-2.69-0.01-5.38-0.01-8.07,0c-0.78,0-1.56,0.01-2.35,0.01
	c0.56,0.03,1.58,0.04,2.75,0.04c2.61-0.01,5.2-0.01,7.82,0C86.78,7.74,87.67,7.72,87.86,7.69z"/>
<path class="st5" d="M53.53,17.44c-1.4-0.36-3.98,0.99-4-0.85c-0.02-1.89,2.58-0.69,4-0.96c0.83-0.16,1.76-0.21,2.56,0.01
	c1.24,0.34,3.58-1.13,3.53,1.1c-0.03,1.43-2.3,0.44-3.53,0.69C55.24,18.43,54.39,18.43,53.53,17.44z"/>
<path class="st10" d="M53.53,17.44c0.86,0.36,1.71,0.36,2.56-0.01c-0.05,1.97-0.11,3.95-0.16,5.92c-0.02,0.87-0.36,1.37-1.34,1.3
	c-0.89-0.06-0.89-0.7-0.91-1.29C53.61,21.39,53.58,19.42,53.53,17.44z"/>
<path class="st11" d="M3.09,20.44c2.13,0.24,4.26,0.49,6.99,0.8c-3.13,2.97-5.82,0.57-8.39,0.78C2.17,21.49,2.63,20.96,3.09,20.44z"
	/>
<path class="st0" d="M95.44,27.8c-1.27-0.64,0.1-1.53-0.21-2.27c-0.42-0.94-0.91-1.84-1.08-2.87c-0.15-1.18,0.23-2.06,1.4-2.51
	c0.36-0.03,0.65,0.09,0.84,0.41c0.28,1.12-0.26,2.33,0.38,3.41C96.74,25.38,97.25,26.99,95.44,27.8z"/>
<path class="st12" d="M38.81,15.81c0.01,1.92,0.01,3.84,0.02,5.75c0.01,1.07-0.17,2.25,1.35,2.51c-0.81,1.06-1.97,0.8-1.94-0.23
	C38.33,21.17,37.2,18.37,38.81,15.81z"/>
<path class="st13" d="M94.69,7.97c1.02-0.09,2.3-0.72,2.18,1.27c-0.12,1.97-0.11,3.94-0.15,5.92c-0.18,0.05-0.36,0.1-0.54,0.15
	c-0.14-0.12-0.28-0.25-0.42-0.37c-0.84-1.73,0.01-3.68-0.67-5.43C94.83,9.03,94.56,8.55,94.69,7.97z"/>
<path class="st14" d="M94.69,7.97c0.24,0.33,0.49,0.67,0.73,1c0.6,1.9,0.16,3.85,0.29,5.78c0.05,0.46-0.11,0.84-0.48,1.13
	c-1.33-2.55-0.01-5.53-1.35-8.08C94.15,7.85,94.42,7.91,94.69,7.97z"/>
<path class="st15" d="M67.02,24.75c-1.37-2.88-0.46-5.9-0.55-8.86c0.45-0.23,0.77-0.1,0.94,0.37c0.19,1.65,0.84,3.24,0.72,4.94
	C68.06,22.48,68.08,23.79,67.02,24.75z"/>
<path class="st2" d="M158.58,15.9c-1.66-0.17-1.47,0.99-1.6,2.07c-0.16,1.34,0.65,2.84-0.63,3.99c-0.26-0.27-0.53-0.53-0.79-0.8
	c1.41-1.13,0.52-2.68,0.73-4.03C156.52,15.62,156.8,14.44,158.58,15.9z"/>
<path class="st16" d="M69.31,7.77c-1.29,2.29,0.01,5.08-1.41,7.35c-0.15-0.14-0.29-0.27-0.44-0.41c-0.63-1.74-0.33-3.53-0.25-5.31
	c0.12-0.38,0.29-0.74,0.5-1.08C68.01,7.49,68.65,7.59,69.31,7.77z"/>
<path class="st17" d="M67.7,8.33c0,0.29,0,0.59,0.01,0.88c-0.57,1.88-0.11,3.8-0.27,5.7c0.03,0.42-0.12,0.74-0.47,0.98
	c-0.17,0-0.34,0-0.51,0c-0.04-1.96-0.05-3.92-0.13-5.88C66.3,9,66.59,8.35,67.7,8.33z"/>
<path class="st18" d="M92.5,7.62c-1.73,1.16-3.12-0.13-4.62-0.63C89.55,5,90.64,6.78,92.5,7.62z"/>
<path class="st0" d="M74.62,7.22c-1.22,0.69-2.3,2.07-3.9,0.73C71.96,7.34,72.98,5.63,74.62,7.22z"/>
<path class="st19" d="M96.2,15.11c0.17,0.02,0.34,0.03,0.52,0.04c0,1.73,0,3.46,0,5.19c-0.16-0.01-0.31-0.03-0.47-0.04L96,20.4
	C94.81,18.59,95.41,16.85,96.2,15.11z"/>
<path class="st20" d="M13.66,24.06c1.97,0.02,0.71-2.66,2.41-2.87C14.77,21.74,17.36,25.55,13.66,24.06z"/>
<path class="st21" d="M69.34,24.82c-0.45,0.48-0.89,0.95-1.34,1.43c-0.11-0.46-0.22-0.92-0.33-1.38c-0.16-0.95-0.68-2.02,0.77-2.47
	C69.53,22.92,70.02,23.65,69.34,24.82z"/>
<path class="st0" d="M68.57,22.6c-1.37,0.33-0.44,1.57-0.9,2.27c-0.23,0.01-0.44-0.03-0.65-0.12c0.08-1.24,0.15-2.48,0.23-3.72
	C68.29,21.05,68.87,21.45,68.57,22.6z"/>
<path class="st22" d="M96.25,20.31c0.16,0.02,0.31,0.03,0.47,0.04c0.01,1.2,0.03,2.41,0.04,3.61C95.48,22.9,96.29,21.55,96.25,20.31
	z"/>
<path class="st23" d="M94.6,29.1c0.19-0.19,0.39-0.38,0.58-0.58C95.35,29.08,95.15,29.27,94.6,29.1z"/>
<path class="st0" d="M81.08,38.88c0.29-1.15,0.67-1,1.06-0.01C81.78,38.87,81.43,38.88,81.08,38.88z"/>
<path class="st24" d="M68.57,22.6c-0.07-0.83-0.7-1.19-1.32-1.57c-0.09-1.71-0.18-3.43-0.27-5.14c0.08-0.24,0.16-0.47,0.24-0.71
	c0.17,0.01,0.33,0.01,0.5,0.02l0.18-0.09c0.79,4.69,8.71,12.61,13.31,13.03c2.16,0.2,3.96-1.26,5.61-2.45
	c3.57-2.58,7.23-5.16,8.41-9.82c0.1-0.22,0.19-0.46,0.25-0.69c0.16,0.01,0.33,0.01,0.49,0.02l0.23-0.09
	c-0.07,1.76-0.13,3.53-0.2,5.29c-0.83,0.48-1.48,1.09-1.4,2.16c0.33,1.04-0.01,1.76-1.02,2.17c-2.43,2.45-5.15,4.53-7.9,6.62
	c-3.4,2.58-6.23,1.77-9.15-0.51c-1.65-1.29-3.94-1.78-4.95-3.88c-0.89-0.34-1.63-0.86-2.2-1.63c0.12-0.18,0.1-0.35-0.05-0.5
	C69.08,24.08,68.82,23.34,68.57,22.6z"/>
<path class="st25" d="M82.66,10.54c1.58-0.09,2.55,1.06,3.69,1.84c1.4,0.08,1.46,1.32,1.93,2.15c-0.18-1.27-0.96-2.26-1.81-3.21
	c2.73-1.65,4.43,0.08,5.5,2.11c1.06,2.01,0.4,3.98-1.79,5.16c-2.1,1.14-3.99,2.84-6.67,2.25c-0.24-0.94,0.37-1.61,0.73-2.36
	c0.97-2.2-0.67-3.27-1.96-4.49c-0.86-0.81-2.24-0.92-2.88-2.05c-0.14-0.58-0.04-1.1,0.41-1.52C80.77,10.19,81.72,10.26,82.66,10.54z
	"/>
<path class="st26" d="M84.95,19.07c-0.48,0.59-0.96,1.19-1.44,1.78c-1.01,0.59-2.15-0.94-3.13,0.18c-1.21,0.61-2.41,0.77-3.59-0.07
	c-1.08-1.08-3.04-0.15-3.93-1.76c1.21-0.75,2.92,0.47,3.92-0.99c1.77-1.24,1.36-2.42-0.1-3.57c-0.56-0.82-0.66-1.66-0.12-2.52
	c0.86-0.64,1.7-0.43,2.54,0.06C82.07,13.61,85.46,14.69,84.95,19.07z"/>
<path class="st26" d="M76.79,12.09c-0.01,0.84-0.16,1.72,0.69,2.3c-0.56,2.01-1.8,1.1-2.93,0.7c-0.85-1.1-3.33-0.94-2.84-2.87
	c0.49-1.97,2.55-2.23,4.34-2.48c0.51-0.29,1-0.26,1.49,0.05C78.06,10.81,77.4,11.44,76.79,12.09z"/>
<path class="st27" d="M86.47,11.33c2.81,0.88,2.78,2.82,1.89,5.09c-0.43-1.47-1.17-2.78-2.01-4.03
	C86.39,12.03,86.43,11.68,86.47,11.33z"/>
<path class="st28" d="M77.55,6.36c2.69,0.01,5.38,0.01,8.07,0.02C82.93,7.31,80.24,7.34,77.55,6.36z"/>
<path class="st29" d="M74.54,15.09c0.98-0.21,2.13,0.26,2.93-0.7c1.28,1.55,2.39,3.06-0.69,3.82
	C78.49,15.41,75.04,16.31,74.54,15.09z"/>
<path class="st18" d="M77.4,10c-0.45-0.09-0.9-0.17-1.36-0.26c0.95-2.08,2.3-1.55,3.72-0.56c-0.15,0.28-0.36,0.5-0.62,0.68
	C78.57,10.14,78.02,10.48,77.4,10z"/>
<path class="st30" d="M79.04,9.18c0.24,0.01,0.48,0.01,0.71,0c0.97,0.45,1.93,0.9,2.9,1.36c-0.9,0.1-1.8,0.2-2.7,0.3
	C78.61,10.86,78.44,10.24,79.04,9.18z"/>
<path class="st31" d="M76.79,20.96c1.2,0.02,2.39,0.05,3.59,0.07C79.15,22.56,77.96,22.07,76.79,20.96z"/>
<path class="st32" d="M93.59,24.73c0.34-0.72,0.68-1.44,1.02-2.17c1.54,0.71,0.5,1.96,0.63,2.97C94.68,25.26,94.14,25,93.59,24.73z"
	/>
<path class="st33" d="M69.39,25.32c1.06,0.11,1.75,0.71,2.2,1.63C70,27.56,69.78,26.32,69.39,25.32z"/>
<path class="st34" d="M140.25,22.78c-1.46-0.11-3.25-0.36-3.25-2.69c0.01-2.25,1.64-2.72,3.51-2.75c1.91-0.03,3.63,0.6,3.64,2.67
	C144.17,22.06,142.49,22.77,140.25,22.78z"/>
<path class="st35" d="M30.85,22.6c-1.98,0.06-3.67-0.66-3.6-2.79c0.07-2.1,1.92-2.76,3.77-2.68c1.65,0.07,3.34,0.5,3.35,2.66
	C34.38,22.1,32.75,22.56,30.85,22.6z"/>
<path class="st36" d="M43.09,19.56c-0.92-0.36-2.69,0.67-2.61-1.06c0.09-1.89,1.93-0.9,2.97-0.98c0.96-0.07,2.73-0.59,2.65,0.98
	C46.01,20.3,44.13,19.18,43.09,19.56z"/>
<path class="st37" d="M18.04,19.53c-0.9-0.44-2.81,0.96-2.9-0.97c-0.09-2.07,1.86-0.95,2.86-1.04c1.21-0.11,3.28-0.61,3.32,1.05
	C21.36,19.89,19.33,19.44,18.04,19.53z"/>
<path class="st38" d="M95.97,15.2c-0.16-0.02-0.33-0.03-0.49-0.02c-0.02-2.07-0.04-4.14-0.06-6.21
	C96.78,10.94,95.87,13.12,95.97,15.2z"/>
<path class="st0" d="M67.72,15.21c-0.17-0.01-0.33-0.02-0.5-0.02c0.06-2-0.74-4.07,0.49-5.98C67.71,11.21,67.72,13.21,67.72,15.21z"
	/>
<path class="st39" d="M84.95,19.07c-0.82-3.18-2.9-5.19-5.9-6.35c0.02-0.61,0.17-1.04,0.91-0.67
	C84.88,13.62,86.41,15.78,84.95,19.07z"/>
<path class="st40" d="M79.96,12.05c-0.3,0.22-0.61,0.45-0.91,0.67c-0.75-0.21-1.51-0.42-2.26-0.63c0.2-0.7,0.41-1.4,0.61-2.09
	c0.55-0.27,1.1-0.54,1.65-0.81c0.02,0.71,0.22,1.32,0.91,1.66C79.96,11.25,79.96,11.65,79.96,12.05z"/>
</svg>
