<?xml version="1.0" encoding="utf-8"?>
<!-- Generator: Adobe Illustrator 23.0.1, SVG Export Plug-In . SVG Version: 6.00 Build 0)  -->
<svg version="1.1" id="Layer_1" xmlns="http://www.w3.org/2000/svg" xmlns:xlink="http://www.w3.org/1999/xlink" x="0px" y="0px"
	 viewBox="0 0 160 45" style="enable-background:new 0 0 160 45;" xml:space="preserve">
<style type="text/css">
	.st0{fill:#FE0404;}
	.st1{fill:#FE0101;}
	.st2{fill:#FE0000;}
	.st3{fill:#FED9D9;}
	.st4{fill:#FED8D8;}
	.st5{fill:#FEEDED;}
	.st6{fill:#FD4747;}
	.st7{fill:#FE9A9A;}
	.st8{fill:#FED4D4;}
	.st9{fill:#FD9C9C;}
	.st10{fill:#FDD2D2;}
	.st11{fill:#FD2B2B;}
	.st12{fill:#FDA2A2;}
	.st13{fill:#FDA8A8;}
	.st14{fill:#FEF8F8;}
	.st15{fill:#FEFBFB;}
	.st16{fill:#FEF6F6;}
	.st17{fill:#FEF4F4;}
	.st18{fill:#FEF7F7;}
	.st19{fill:#FEF3F3;}
	.st20{fill:#FEEFEF;}
	.st21{fill:#FEF2F2;}
	.st22{fill:#FEFAFA;}
	.st23{fill:#FE0F0F;}
	.st24{fill:#FDD0D0;}
	.st25{fill:#FEC6C6;}
	.st26{fill:#FEC5C5;}
	.st27{fill:#FDACAC;}
	.st28{fill:#FEC1C1;}
	.st29{fill:#FED3D3;}
	.st30{fill:#FEC7C7;}
	.st31{fill:#FEC4C4;}
	.st32{fill:#FE9999;}
	.st33{fill:#FD3737;}
	.st34{fill:#FEC9C9;}
	.st35{fill:#FEBABA;}
	.st36{fill:#FEECEC;}
	.st37{fill:#FED5D5;}
	.st38{fill:#FEDADA;}
	.st39{fill:#FDE6E6;}
	.st40{fill:#FD9898;}
	.st41{fill:#FE0808;}
	.st42{fill:#FE0909;}
	.st43{fill:#FE2626;}
	.st44{fill:#FED2D2;}
	.st45{fill:#FE4949;}
	.st46{fill:#FE1313;}
	.st47{fill:#FE1D1D;}
	.st48{fill:#FEFDFD;}
	.st49{fill:#FE0707;}
	.st50{fill:#FE0B0B;}
	.st51{fill:#FDAFAF;}
	.st52{fill:#FDA5A5;}
	.st53{fill:#FECCCC;}
	.st54{fill:#FE1010;}
	.st55{fill:#FE0C0C;}
	.st56{fill:#FEDEDE;}
	.st57{fill:#FEB4B4;}
	.st58{fill:#FDC5C5;}
	.st59{fill:#FEC2C2;}
	.st60{fill:#FEB7B7;}
	.st61{fill:#FD8686;}
	.st62{fill:#FE7777;}
</style>
<path class="st0" d="M79.36,43.44c-0.07-0.58-1.07-0.74-1.53-1.16c-1.37-1.27-2.14-2.66-2.75-4.09c-1.74-4.12-2.41-8.33-2.71-12.56
	c-0.22-0.12-0.32-0.27-0.37-0.44c-0.1-2.11-0.02-4.23-0.05-6.34c0.03-0.64-0.06-1.27,0.09-1.91c0.44-1.05-0.01-2.14,0.49-3.18
	c0.1-0.21,0.08-0.45,0.37-0.62c0.61-2.91,1.27-5.82,2.71-8.64c0.54-1.06,1.22-2.1,2.3-3.02c1.32-1.13,3.4-1.14,4.72,0.01
	c1.91,1.66,2.65,3.59,3.38,5.5c0.92,2.42,1.36,4.88,1.81,7.35c0.53,0.65,0.62,1.35,0.65,2.06c0.04,0.82-0.19,1.64,0.21,2.45
	c0.07,2.01,0.2,4.02,0,6.04c-0.41,0.81-0.18,1.64-0.22,2.46c-0.03,0.71-0.12,1.41-0.65,2.07c-0.63,3.51-1.25,7.02-3.18,10.38
	c-0.69,1.21-1.36,2.43-3.21,3.25c-0.21,0.09-0.15,0.26-0.05,0.4C80.72,43.44,80.04,43.44,79.36,43.44z"/>
<path class="st1" d="M114.22,12.28c-0.14-1.83,0.71-3.52,2.37-5.28c0,0.55,0.01,0.95,0,1.35c-0.02,0.4-0.06,0.8-0.1,1.19
	c-0.07,0.82-0.11,1.65-0.21,2.47c-0.07,0.55,0.34,0.72,1.19,0.62c0,0.97,0,1.94,0,2.91c-0.43,0.21-0.38,0.68-1.25,0.68
	c-0.49,0-0.39,0.35-0.41,0.56c-0.25,3.04-0.49,6.08-0.71,9.12c-0.03,0.42-0.02,0.81,0.89,1.03c0.64,0.15,0.34,3.18-0.29,3.38
	c-0.74,0.23-1.4,0.13-1.85-0.31c-0.53-0.53-0.71-1.11-0.76-1.71c-0.27-3.39,0.4-6.76,0.61-10.14c0.02-0.4,0.02-0.8,0.03-1.19
	c0.55-0.6-0.6-0.72-0.9-1.08c0.11-1.01,0.21-2.02,0.32-3.04C113.39,12.58,114.01,12.57,114.22,12.28z"/>
<path class="st2" d="M101.73,16.91c0.56-1.21,1.23-2.4,1.66-3.62c0.32-0.91,1.41-0.68,2.24-0.6c1.12,0.1,0.37,0.59,0.25,0.87
	c-0.54,1.24-1.09,2.48-1.76,3.7c-0.58,1.05-0.76,2.09-0.58,3.19c0.48,2.89,0.89,5.79,1.3,8.68c0.05,0.34,0.5,0.82-0.71,0.87
	c-0.94,0.04-1.23-0.15-1.29-0.7c-0.26-2.29-0.6-4.58-1.02-6.88c-0.66,1.08-1.35,2.14-1.43,3.31c-0.08,1.2-0.26,2.39-0.29,3.58
	c-0.01,0.58-0.4,0.71-1.3,0.69c-1.12-0.02-0.75-0.46-0.73-0.79c0.36-4.38,0.74-8.76,1.12-13.14c-0.09-0.59,0.28-1.17,0.09-1.69
	c0.01,0.53,0.11,1.14-0.39,1.7c-3.25,1.42-2.5,3.6-2.86,5.51c-0.47,2.54-0.53,5.11-0.71,7.67c-0.04,0.55-0.3,0.76-1.27,0.74
	c-1.07-0.02-0.81-0.43-0.78-0.78c0.47-5.26,0.94-10.51,1.43-15.77c0.03-0.37-0.15-0.81,0.97-0.8c1.15,0.01,0.88,0.45,0.89,0.82
	c0.01,0.42,0,0.83,0,1.45c0.39-0.75,0.64-1.32,0.98-1.87c0.26-0.42,0.46-0.88,1.59-0.73c0.75,0.1,0.51-0.33,0.53-0.53
	c0.15-1.42,0.27-2.84,0.39-4.26c0.15-0.16,0.1-0.33,0.11-0.5c0.05-0.95,0.35-1.07,1.91-0.71c-0.21,2.78-0.43,5.57-0.64,8.35
	c-0.03,0.34-0.01,0.68-0.01,1.02c-0.24,0.74,0.01,1.47-0.05,2.09C101.21,17.52,101.34,17.2,101.73,16.91z"/>
<path class="st2" d="M61,15.71c-1.09,1.62-1.17,3.34-1.36,5.04c-0.3,2.64-0.48,5.29-0.68,7.94c-0.04,0.45,0.02,0.82-1.11,0.82
	c-1.28,0-0.95-0.48-0.91-0.87c0.52-5.95,1.05-11.89,1.59-17.84c0.14-1.54,0.33-3.07,0.42-4.61c0.03-0.53,0.11-0.83,1.24-0.8
	c1.2,0.03,0.84,0.48,0.81,0.83c-0.22,2.35-0.47,4.69-0.71,7.07c0.8-0.09,0.72-0.56,1.03-0.83c0.42-0.38,0.75-0.91,1.61-0.85
	c0.83,0.06,1.09,0.59,1.31,1.03c0.37,0.74,0.56,1.5,0.59,2.27c0.14,3.4-0.46,6.77-0.71,10.16c-0.09,1.25-0.31,2.5-0.37,3.75
	c-0.03,0.52-0.27,0.69-1.17,0.68c-1.02-0.01-0.87-0.35-0.84-0.74c0.35-3.81,0.7-7.62,1.03-11.44c0.06-0.65,0.13-1.31-0.31-1.94
	C61.39,14.61,61.4,15.48,61,15.71z"/>
<path class="st1" d="M55.01,24.27c1.72,0.32,1.8,0.97,1.45,1.83c-0.42,1.05-0.66,2.13-1.57,3.09c-0.35,0.37-0.71,0.73-1.61,0.71
	c-0.91-0.01-1.22-0.39-1.55-0.76c-1.18-1.35-1.52-2.83-1.66-4.3c-0.33-3.56-0.34-7.12,1.11-10.61c0.3-0.72,0.65-1.43,1.4-2.04
	c1.01-0.81,2.02-0.8,2.86,0.07c1.12,1.17,1.3,2.5,1.47,3.79c0.24,1.79,0.21,3.58,0.13,5.38c-0.03,0.67-0.42,0.83-1.45,0.78
	c-0.91-0.05-1.84,0.01-2.76-0.02c-0.69-0.02-1.01,0.15-0.98,0.53c0.09,1.11-0.02,2.23,0.7,3.29c0.16,0.23,0.22,0.54,0.76,0.55
	c0.62,0.02,0.78-0.32,0.92-0.57C54.54,25.43,54.76,24.84,55.01,24.27z"/>
<path class="st1" d="M105.48,22.23c-0.04-2.51,0.25-5,1.26-7.45c0.29-0.72,0.64-1.43,1.41-2.03c0.92-0.72,2.31-0.66,2.97,0.14
	c0.92,1.12,1.2,2.34,1.34,3.56c0.22,1.85,0.25,3.7,0.13,5.55c-0.04,0.61-0.41,0.82-1.38,0.74c-0.09-0.01-0.19,0-0.29,0
	c-3.68,0.01-3.68,0.01-3.36,2.22c0.09,0.6,0.27,1.18,0.64,1.74c0.14,0.21,0.34,0.36,0.71,0.37c0.36,0,0.57-0.14,0.74-0.34
	c0.31-0.36,0.43-0.75,0.61-1.13c0.11-0.24-0.06-0.69,0.55-0.67c0.66,0.02,1.46,0.32,1.39,0.72c-0.25,1.52-0.55,3.07-2.11,4.37
	c-0.73,0.61-1.85,0.54-2.58-0.13c-1.09-1.01-1.36-2.18-1.66-3.32C105.49,25.13,105.45,23.68,105.48,22.23z"/>
<path class="st2" d="M49.12,5.41c0.05,0,0.1,0,0.15,0c1.28,0.07,3.05-0.34,3.72,0.18c0.63,0.48,0.14,1.47,0.13,2.23
	c0,0.17-0.1,0.34-0.07,0.51c0.16,0.96-0.55,1.34-2.15,1.16c-0.77-0.09-0.95,0.14-0.99,0.57c-0.26,3.1-0.57,6.2-0.86,9.3
	c-0.29,3.16-0.6,6.31-0.83,9.47c-0.05,0.62-0.54,0.66-1.37,0.67c-1.05,0-0.83-0.36-0.8-0.74c0.36-3.95,0.7-7.91,1.05-11.86
	c0.19-2.19,0.36-4.38,0.63-6.57c0.08-0.67-0.22-0.97-1.39-0.84c-1.41,0.16-1.7-0.23-1.55-0.98c0.17-0.85,0.21-1.71,0.23-2.56
	c0.01-0.4,0.21-0.56,0.91-0.54C46.99,5.44,48.06,5.41,49.12,5.41z"/>
<path class="st1" d="M72.34,25.26c0.01,0.13,0.03,0.25,0.04,0.38c-0.54,0.04-0.34,0.29-0.36,0.47c-0.1,0.88-0.23,1.76-0.24,2.65
	c-0.01,0.53-0.23,0.77-1.24,0.75c-1.07-0.02-0.84-0.42-0.81-0.76c0.3-3.36,0.62-6.71,0.91-10.07c0.07-0.83,0.07-1.65,0.05-2.48
	c-0.01-0.45-0.07-0.92-0.84-1.29c-1.41,0.94-1.57,2.11-1.81,3.25c-0.54,2.6-0.65,5.23-0.9,7.85c-0.09,0.97-0.25,1.93-0.25,2.9
	c0,0.61-0.57,0.59-1.3,0.6c-1,0.02-0.77-0.38-0.74-0.7c0.46-5.07,0.93-10.13,1.39-15.2c0.03-0.31,0.06-0.63,0.03-0.94
	c-0.05-0.51,0.29-0.69,1.19-0.69c0.95,0,0.82,0.34,0.82,0.68c0,0.3,0,0.61,0,1.08c0.65-0.61,0.75-1.21,1.42-1.62
	c0.71-0.33,1.41-0.5,2.1,0.02c0.2,0.29,0.4,0.57,0.6,0.86c0.46,0.49,0.16,0.98,0.02,1.48c-0.14,0.53-0.03,1.07-0.05,1.61
	c-0.06,0.78-0.2,1.57-0.17,2.35c-0.26,2.18-0.08,4.35-0.09,6.53C72.12,25.07,72.22,25.17,72.34,25.26z"/>
<path class="st1" d="M90.75,29.89c-0.06-0.39-0.12-0.78-0.2-1.31c-0.85,0.66-0.77,1.62-2.29,1.85c-0.34-0.36-0.02-0.7-0.13-1.03
	c-0.15-0.71,0.21-1.4,0.12-2.11c-0.06-0.5,1-0.49,1.18-0.89c1-1.22,0.89-2.52,0.93-3.84c-1.83,0.41-1.83,0.41-1.83-0.79
	c0-0.31,0.04-0.63-0.01-0.94c-0.12-0.79,0.03-1.47,1.56-1.76c0.42-0.08,0.7-0.32,0.75-0.59c0.12-0.68,0.13-1.37-0.01-2.05
	c-0.04-0.2-0.16-0.43-0.57-0.43c-0.31,0-0.42,0.2-0.54,0.36c-0.25,0.33-0.19,0.75-0.88,0.94c-0.45-0.07-0.61-0.27-0.58-0.51
	c0.11-0.82-0.23-1.62-0.15-2.44c-0.02-0.49,0.06-0.96,0.49-1.39c0.44-0.45,1-0.72,1.96-0.71c0.93,0.02,1.38,0.33,1.71,0.77
	c0.74,0.98,0.99,2.03,1.02,3.08c0.11,3.16-0.47,6.3-0.68,9.45c-0.1,1.39-0.24,2.78,0.1,4.17C92.17,30.26,91.48,30.17,90.75,29.89z"
	/>
<path class="st3" d="M89.8,26.5c-2.13,0.66-1.03,1.96-1.67,2.92l-0.14,0.01l-0.14,0c0.16-1.5,0.32-3,0.48-4.5
	c0.42,0.16,0.43,0.42,0.4,0.66C88.66,26.06,89.09,26.33,89.8,26.5z"/>
<path class="st4" d="M72.14,16.07c-0.19-1.04,0.11-2.06,0.26-3.09c0.17,0.06,0.35,0.11,0.52,0.17c-0.17,1.27-0.34,2.54-0.51,3.82
	C72.02,16.7,72.41,16.35,72.14,16.07z"/>
<path class="st5" d="M88.09,14.35c0.39,0.7,0.19,1.44,0.33,2.16c0.05,0.27-0.21,0.65,0.54,0.76c0.39,0.61-0.16,1.09-0.63,1.59
	c-0.16-1.5-0.32-3-0.48-4.5C87.93,14.35,88.01,14.35,88.09,14.35z"/>
<path class="st6" d="M102.07,6.3c-1.97-0.34-1.67,0.62-2.02,1.21c0-0.42-0.03-0.85,0.02-1.27c0.04-0.38,0.54-0.42,1.05-0.41
	C101.63,5.85,102.29,5.77,102.07,6.3z"/>
<path class="st7" d="M98.88,16.07c0.11-0.63,0.21-1.27,0.32-1.9c0.17,0.64,0.47,1.27-0.02,1.89C99.08,16.07,98.98,16.07,98.88,16.07
	z"/>
<path class="st8" d="M101.73,16.91c-0.11,0.34-0.22,0.69-0.33,1.03c-0.21-0.77-0.36-1.53,0.03-2.27
	C101.69,16.07,101.19,16.53,101.73,16.91z"/>
<path class="st9" d="M90.75,29.89c0.65-0.04,1.35,0.1,1.95-0.17c0.13,0.34-0.04,0.58-0.69,0.53C91.53,30.23,90.76,30.49,90.75,29.89
	z"/>
<path class="st10" d="M112.83,15.88c1.04,0.15,1.41,0.49,0.9,1.08C113.94,16.45,112.55,16.4,112.83,15.88z"/>
<path class="st11" d="M71.8,12.13c-0.69-0.24-1.4-0.16-2.1-0.02C70.75,11.33,70.96,11.33,71.8,12.13z"/>
<path class="st12" d="M114.22,12.28c0.23,0.57-0.6,0.45-1.07,0.56C112.94,12.28,113.66,12.34,114.22,12.28z"/>
<path class="st13" d="M61,15.71c0-0.39,0.29-0.74,0.92-0.82c0.35-0.05,0.52,0.26,0.53,0.5C61.64,14.99,61.44,15.53,61,15.71z"/>
<path class="st14" d="M81.69,2.37c0.99,0.79,1.9,1.6,2.36,2.56c-0.16,0.1-0.36,0.12-0.58,0.09c-0.7-0.21-0.79-0.69-1.24-1.01
	c-0.42-0.31-0.75-0.35-1.01,0.06c-0.4,0.61-0.72,1.23-0.95,1.86C80,6.67,81.3,6.32,81.69,6.61c0.2,0.32,0.27,0.64-0.06,0.95
	c-2.14-0.05-2.82,0.23-3.67,1.49c-0.47,0.71-0.76,1.45-1.07,2.19c-0.13,0.31-0.11,0.78-1.07,0.69c-0.7-0.82-0.2-1.71-0.36-2.55
	c-0.02-0.6,0.1-1.2,0.01-1.8c-0.11-0.01-0.2-0.03-0.27-0.08c0.64-1.84,1.51-3.63,3.57-5.13C79.75,1.83,80.72,1.97,81.69,2.37z"/>
<path class="st15" d="M88.33,18.85c-0.16-0.58,0.43-1.06,0.63-1.59c0.17-0.44,0.34-0.88,0.52-1.32c0.11-0.26,0.4-0.37,0.86-0.35
	c0.41,0.02,0.57,0.16,0.68,0.37c0.48,0.95,0.39,1.92,0.11,2.87c-0.15,0.51-1.2,0.5-1.81,0.76c-0.31,0.13-0.68,0.15-0.68,0.45
	c0.02,0.9,0.01,1.8,0.01,2.73c0.85-0.21,1.22-0.78,2.29-0.63c-0.33,1.45,0,2.96-1.15,4.34c-1.12,0.27-1.5,0.01-1.41-0.65
	c0.04-0.31-0.03-0.62-0.06-0.93C88.33,22.89,88.33,20.87,88.33,18.85z"/>
<path class="st16" d="M83.13,40.02c-0.14,0.48-0.65,0.84-1.17,1.2c-1.09,0.62-2.04,0.62-3.45,0c-0.41-0.23-0.71-0.51-0.91-0.83
	c-0.15-0.25,0.17-0.27,0.44-0.32c0.4,0.01,0.8,0,0.96-0.27c0.51-0.9,1.38-1.77,0.55-2.76c0.46-0.42,1.34-0.36,1.99-0.59
	c0.55-0.19,0.68,0.16,0.79,0.4c0.17,1.15-0.55,2.22-0.74,3.35c0.38-0.03,0.48-0.33,0.87-0.38C82.78,39.76,82.99,39.84,83.13,40.02z"
	/>
<path class="st15" d="M74.15,33c-0.37-1.06-0.59-2.13-0.66-3.21c-0.11-0.24-0.17-0.48,0.02-0.71c0.38-0.16,0.64,0.2,1.02,0.08
	c0.13-0.01,0.26-0.01,0.39,0c0.47,0.05,0.97,0.03,1.41,0.16c0.57,0.3,0.48,0.61,0.06,0.93c-0.11,0.05-0.23,0.1-0.36,0.12
	c-0.25,0.09-0.88-0.1-0.72,0.28c0.12,0.27,0.58-0.31,0.78,0.05c0.56,1.04,0.93,2.11,1.17,3.19c-0.07,0.22-0.22,0.39-0.66,0.29
	c-0.42-0.09-0.84-0.09-1.27-0.06c-0.14,0-0.27-0.02-0.39-0.06C74.59,33.73,74.53,33.33,74.15,33z"/>
<path class="st17" d="M82.01,36.98c-0.13-0.14-0.03-0.56-0.33-0.38c-0.61,0.37-1.58,0.17-2.07,0.58c-0.77,0.44-1.07,1.05-1.63,1.56
	c-0.55,0.5,0.52,0.94,0.23,1.44c-0.26,0.01-0.49,0.04-0.62,0.2c-1.27-0.96-1.57-2.12-2.05-3.25c-0.13-0.14,0-0.22,0.17-0.3
	c0.59-0.14,1.25-0.22,1.61-0.58c0.33-0.23,0.17-0.63,0.78-0.76c0.1-0.01,0.23-0.02,0.28,0.02c1.01,0.83,2.23,0.92,3.64,0.37
	c0.24,0.11,0.39,0.26,0.47,0.43C82.55,36.6,82.65,36.89,82.01,36.98z"/>
<path class="st18" d="M86.97,30.32c-0.07,1.43-0.48,2.82-0.97,4.22c-0.34,0.01-0.44-0.14-0.55-0.28c-0.27-1.02-0.09-2.04-0.12-3.06
	c0.08-0.74,0.05-1.47-0.46-2.17c0.15-1.46,0.02-2.94,0.77-4.37c0.14-0.08,0.3-0.09,0.48-0.04c1.06,1.11,0.77,2.34,0.87,3.54
	c0.02,0.28-0.09,0.56-0.08,0.85C86.82,29.44,87.09,29.88,86.97,30.32z"/>
<path class="st19" d="M73.51,13.98c0.03-1.08,0.32-2.15,0.64-3.21c0.81,0.11,0.61,0.51,0.65,0.82c0.09,0.76-0.1,1.53,0.13,2.28
	c0.22,0.39,0.03,0.82,0.33,1.21c0.11,0.12,0.21,0.25,0.28,0.38c0.1,0.19,0.13,0.38,0.13,0.57c-0.53,1.31,0.01,2.67-0.55,3.98
	c-0.07,0.17-0.12,0.33-0.31,0.47c-0.15,0.08-0.31,0.09-0.47,0.03c-0.87-1.21-0.91-2.49-0.92-3.77
	C73.78,15.82,73.16,14.89,73.51,13.98z"/>
<path class="st17" d="M87.74,20.69c0,1.14,0,2.27,0,3.41c-0.28,0.13,0.23,0.66-0.68,0.46c-0.65-1.27-0.74-2.6-1.13-3.89
	c0.02-0.3-0.33-0.52-0.46-0.78c-0.1-0.87-0.27-1.73-0.41-2.6c0.05-0.33-0.1-0.7,0.55-0.91c1.19,0.58,1.12,1.47,1.58,2.23
	c0.21,0.34,0.28,0.72,0.3,1.09C87.52,20.03,87.43,20.37,87.74,20.69z"/>
<path class="st20" d="M86.29,10.09c0.4,1.7,0.94,3.4,0.94,5.12c-0.12,0.05-0.25,0.07-0.39,0.03c-0.72-0.33-0.71-0.88-1.09-1.31
	c-0.11-0.19-0.36-0.33-0.5-0.51c-0.34-0.61,0.02-1.27-0.31-1.9c-0.76,0.06-0.52,0.63-1.19,0.68c-0.36-0.01-0.48-0.15-0.52-0.34
	c0.21-0.54,0.21-1.09,0.27-1.64c0.56-0.56,1.45-0.25,2.2-0.29C85.94,9.94,86.14,9.98,86.29,10.09z"/>
<path class="st21" d="M72.98,24.1c-0.18-1.31-0.28-2.62,0-3.93c0.17-0.05,0.3-0.04,0.42,0.05c0.68,1.11,0.68,2.3,1.14,3.44
	c0.49,0.62,0.52,1.3,0.72,1.96c0.12,0.3,0.11,0.61,0.13,0.92c-0.01,0.22,0.13,0.43,0.15,0.65c0,0.14-0.06,0.26-0.23,0.37
	c-0.14,0.04-0.29,0.05-0.44,0.03c-1.19-0.8-1.38-1.81-1.61-2.8C73.26,24.56,73.25,24.31,72.98,24.1z"/>
<path class="st14" d="M83.13,40.02c-0.17-0.06-0.35-0.11-0.52-0.17c-0.34-1.3,0.21-2.56,0.51-3.83c0.39-0.62,0.23-1.22-0.17-1.82
	c0.17-0.55,0.24-1.12,1.31-1.38c0.8,0.51,0.3,1.15,0.48,1.72c0,0.68,0.04,1.36-0.09,2.04c-0.1,0.27-0.23,0.54-0.3,0.81
	c-0.03,0.14-0.16,0.26-0.2,0.39c0.19-0.03,0.19-0.3,0.53-0.15c0.07,0.13,0.06,0.25-0.04,0.37C84.29,38.72,84.05,39.46,83.13,40.02z"
	/>
<path class="st22" d="M81.67,7.54c-0.31-0.31-0.24-0.63-0.03-0.94c-0.19-0.84,0.39-1.39,1.75-1.66c0.22,0,0.44,0,0.66,0
	c0.53,0.46,0.68,0.99,0.89,1.52c-0.05,0.57-1.25,0.36-1.52,0.78c-0.38,0.23-0.47,0.54-0.67,0.83c-0.12,0.11-0.27,0.19-0.51,0.18
	C81.78,8.08,81.35,7.92,81.67,7.54z"/>
<path class="st23" d="M73.49,24.68c0.2,1,0.81,1.94,1.44,2.87c0.33,0.62,0.16,1.18-0.48,1.7c-0.09,0.08-0.18,0.16-0.26,0.24
	c-0.13-0.13-0.27-0.27-0.4-0.4c-0.65-0.47-0.23-1.06-0.54-1.57c0-0.11,0-0.23-0.01-0.34c-0.29-0.78-0.07-1.57-0.12-2.35
	C73.12,24.69,73.26,24.63,73.49,24.68z"/>
<path class="st24" d="M72.34,25.26c-0.29,0.01-0.44-0.08-0.45-0.25c-0.08-2.2-0.32-4.4,0.15-6.59c0.27,0.08,0.12,0.27,0.29,0.37
	C72.34,20.95,72.34,23.1,72.34,25.26z"/>
<path class="st25" d="M74.65,14.02c-0.5-0.74-0.14-1.51-0.27-2.27c-0.06-0.33,0.2-0.68-0.23-0.98c0.18-1.11,0.46-2.2,1.06-3.26
	c0.11,0,0.22,0,0.33,0c0.35,0.33-0.1,0.67,0.02,1.01c-0.57,1.42-0.4,2.87-0.44,4.31C75.12,13.23,75.29,13.69,74.65,14.02z"/>
<path class="st26" d="M73.19,20.18l-0.1,0l-0.1-0.01c-0.16-2.07-0.02-4.14,0.53-6.19c-0.09,0.94,0.56,1.85,0.29,2.8
	c-0.48,0.59-0.21,1.2-0.18,1.81C73.65,19.13,73.95,19.71,73.19,20.18z"/>
<path class="st27" d="M83.13,7.15c0.32-0.49,1.26-0.42,1.82-0.69c0.73,1.18,1.07,2.4,1.35,3.63c-0.18,0.01-0.36,0.02-0.54,0.03
	c-0.11-0.05-0.2-0.12-0.26-0.2c-0.23-0.49-0.41-0.99-0.52-1.49C84.82,7.75,84.31,7.29,83.13,7.15z"/>
<path class="st28" d="M86.92,15.21c0.1,0,0.2,0,0.3,0c0.46,1.82,0.56,3.64,0.52,5.48c-0.57-0.23-0.62-0.55-0.48-0.91
	c-0.14-1.26-0.61-2.5-0.55-3.76C86.72,15.73,86.54,15.45,86.92,15.21z"/>
<path class="st29" d="M86.97,30.32c-0.2-0.42-0.51-0.83-0.31-1.29c0.36-0.87,0.07-1.78,0.43-2.66c0.13-0.08,0.27-0.09,0.43-0.04
	C87.56,27.67,87.36,29,86.97,30.32z"/>
<path class="st30" d="M75.9,36.93c-0.12,0.07-0.24,0.14-0.36,0.21c-0.56-0.9-0.88-1.82-1.06-2.77c0.14-0.06,0.29-0.07,0.44-0.04
	C75.68,35.14,76.18,35.98,75.9,36.93z"/>
<path class="st31" d="M84.64,38c-0.02-0.14-0.03-0.28-0.05-0.42c-0.18-0.09-0.25-0.21-0.26-0.35c0.37-0.6,0.09-1.31,0.89-1.85
	c0.28-0.06,0.4,0.04,0.49,0.18C85.46,36.39,85.23,37.22,84.64,38z"/>
<path class="st32" d="M87.53,26.33c-0.09,0.01-0.18,0.01-0.26,0.01c-0.7-0.58-0.72-1.16,0.01-1.74c0.16-0.17,0.31-0.34,0.47-0.51
	C87.8,24.84,87.89,25.59,87.53,26.33z"/>
<path class="st33" d="M81.69,2.37c-0.97-0.23-1.94-0.35-2.91,0C79.9,1.49,80.57,1.49,81.69,2.37z"/>
<path class="st34" d="M73.49,24.68c-0.54,0.82-0.04,1.67-0.25,2.5c-0.58-1.01-0.25-2.04-0.26-3.07
	C73.39,24.22,73.59,24.4,73.49,24.68z"/>
<path class="st35" d="M73.25,27.51c0.55,0.48,0.2,1.07,0.54,1.57c-0.4,0.19-0.11,0.48-0.3,0.71C73.09,29.04,73.17,28.28,73.25,27.51
	z"/>
<path class="st36" d="M72.33,18.79c-0.1-0.12-0.19-0.25-0.29-0.37c0.03-0.78,0.06-1.57,0.09-2.35c0.41,0.26,0.12,0.6,0.28,0.89
	C72.39,17.57,72.36,18.18,72.33,18.79z"/>
<path class="st37" d="M78.5,41.21c1.15,0.37,2.3,0.54,3.45,0C81.03,41.99,79.62,41.99,78.5,41.21z"/>
<path class="st38" d="M74.69,34.37l-0.1-0.01l-0.1,0c-0.09-0.46-0.44-0.89-0.33-1.37c0.64,0.22,0.99,0.53,0.85,0.98
	C75.03,34.15,74.92,34.28,74.69,34.37z"/>
<path class="st39" d="M85.7,35.56c-0.09-0.06-0.17-0.12-0.26-0.19c-0.41-0.39-0.57-0.76,0.29-1.03c0.09,0.07,0.18,0.13,0.27,0.2
	C85.9,34.88,85.8,35.22,85.7,35.56z"/>
<path class="st15" d="M55.22,17.93c0.01,0.09,0.02,0.17,0.02,0.26c0.04,1.11-0.92,1.52-2.72,1.16c-0.34-0.07-0.49-0.18-0.45-0.37
	c0.26-1.21,0.21-2.44,1.08-3.58c0.16-0.21,0.38-0.47,0.75-0.46c0.37,0.01,0.59,0.26,0.72,0.48C55.11,16.23,55.23,17.08,55.22,17.93z
	"/>
<path class="st15" d="M107.84,18.44c0.04-0.77,0.31-1.53,0.69-2.26c0.13-0.25,0.26-0.58,0.9-0.58c0.66,0,0.75,0.33,0.87,0.59
	c0.54,1.14,0.58,2.3,0.48,3.48c-0.08,0.03-0.14,0.08-0.23,0.1C107.91,20.17,107.33,19.77,107.84,18.44z"/>
<path class="st40" d="M107.84,18.44c0.02,0.11,0.1,0.23,0.06,0.34c-0.28,0.8,0.38,1,1.59,0.91c0.43-0.03,0.87-0.02,1.3-0.02
	c0.1,0.27-0.02,0.41-0.53,0.47C107.7,20.43,107.15,20.05,107.84,18.44z"/>
<path class="st41" d="M81.67,7.54c0.01,0.28,0.44,0.42,0.62,0.65c1.15,0.53,1.35,1.29,1.41,2.08c0.12,0.52,0.41,1.04-0.26,1.51
	c-0.84-0.38-0.75-1.02-1.21-1.51c-0.48-0.51-0.71-1.25-1.91-1.24c-1.19,0.01-1.53,0.73-1.91,1.25c-1.02,1.39-1.47,2.88-1.86,4.37
	c-0.09,0.36-0.07,0.75-0.77,0.94c-0.46-0.11-0.39-0.39-0.54-0.59c-0.06-1.05,0.02-2.09,0.93-3.04c0.54-0.98,0.74-2.02,1.41-2.99
	c0.35-0.51,0.86-0.93,1.42-1.34C79.78,7.04,80.74,7.23,81.67,7.54z"/>
<path class="st42" d="M83.39,4.93c-1.06,0.38-1.43,1.01-1.75,1.66c-0.47,0.13-0.95,0-1.43,0.01c-0.46,0.01-0.55-0.12-0.44-0.38
	c0.44-1.01,0.88-2.02,1.71-2.98C82.44,3.71,82.97,4.3,83.39,4.93z"/>
<path class="st43" d="M79.11,3.21c-0.88,2.16-0.6,4.48-2.52,6.5C77.15,7.5,76.24,5.1,79.11,3.21z"/>
<path class="st44" d="M76.15,11.95c-0.05,1.02-0.77,1.99-0.61,3.02c-0.13,0.13-0.05,0.31-0.3,0.4c-0.09-0.06-0.17-0.13-0.26-0.19
	c0.19-1.96-0.04-3.92,0.4-5.88c0.09-0.1,0.24-0.15,0.44-0.13C76.12,10.1,75.45,11.06,76.15,11.95z"/>
<path class="st45" d="M75.83,9.19c-0.07,0.02-0.13,0.04-0.2,0.07c-0.61-0.23-0.01-0.61-0.31-0.87c0.07-0.29,0.15-0.59,0.22-0.88
	c0.02-0.03,0.02-0.06,0.05-0.08c0.05-0.03,0.11-0.05,0.17-0.08C76.03,7.95,75.79,8.57,75.83,9.19z"/>
<path class="st46" d="M78.21,40.19c-0.24-0.43-1.16-0.81-0.89-1.2c0.42-0.61,1.14-1.17,1.63-1.78c0.12-0.16,0.43-0.06,0.66-0.02
	c0.51,0.11,1.05,0.13,0.79,0.64c-0.4,0.78-0.73,1.56-1.23,2.32C78.83,40.67,78.54,40.35,78.21,40.19z"/>
<path class="st47" d="M83.48,35.91c-0.33,1.31-0.35,2.65-0.88,3.94c-0.48,0.33-0.95,0.65-1.69,1.15c0.35-1.48,1.05-2.73,1.09-4.02
	c0.09-0.24,0.18-0.48,0.28-0.72c0.05-0.49,0.3-0.92,1.08-1.29C83.65,35.32,83.61,35.61,83.48,35.91z"/>
<path class="st2" d="M75.25,27.52c0.02-0.1,0.05-0.21,0.07-0.31c-0.06-0.57,0.03-1.14,0.19-1.7c1.3-4.28,2.71-8.55,4.02-12.83
	c0.12-0.39,0.2-0.79,0.44-1.16c0.22-0.34,0.57-0.61,1.28-0.54c0.68,0.06,0.78,0.39,0.81,0.71c0.09,0.97,0.17,1.94-0.01,2.9
	c-0.18,1.02-0.14,2.04-0.37,3.06c-0.41,0.72-0.18,1.49-0.5,2.32c0,0.02,0.17-0.07,0.16-0.08c-0.13-0.27,0.11-0.54,0.04-0.82
	c0.42-2.22,1.26-4.39,1.99-6.58c0.05-0.14,0.19-0.26,0.38-0.35c0.53-0.29-0.14-1.18,1.22-0.99c1.05,0.15,0.33,0.76,0.43,1.16
	c0.1,0.39,0.02,0.79,0.03,1.19c0.18,1.05,0.32,2.09-0.17,3.13c-0.23,0.49-0.11,1.02-0.04,1.53c0.21,1.93-0.34,3.84-0.4,5.76
	c-0.05,1.73-0.39,3.45-0.43,5.17c-0.08,0.43-0.43,0.7-1.22,0.65c-0.9-0.05-1.01-0.47-1.04-0.87c-0.13-1.76,0.36-3.51,0.35-5.26
	c0.46-0.96,0.2-1.97,0.51-2.94c-0.02-0.12-0.12-0.03-0.11-0.02c0.2,0.33-0.15,0.66-0.05,1c-0.47,2.4-1.37,4.75-2.11,7.13
	c-0.14,0.44-0.39,0.87-1.36,0.8c-1.01-0.07-0.94-0.54-0.9-0.98c0.2-2.29,0.35-4.59,0.64-6.88c0.42-0.55,0.14-1.16,0.38-1.72
	c-0.07,0.03,0,0.06,0,0.09c-0.07,0.34-0.17,0.67-0.14,1.01c-0.59,2.44-1.32,4.87-2.14,7.28c-0.14,0.42-0.2,0.86-1.05,1.03
	c-0.5-0.06-1.09,0.16-1.5-0.17C74.78,28.66,74.77,28.06,75.25,27.52z"/>
<path class="st48" d="M76.16,29.41c0.94-0.81,0.82-1.78,1.14-2.68c0.67-1.89,1.2-3.8,1.79-5.7c0.7,0.05,0.33,0.33,0.32,0.53
	c-0.18,2.42-0.36,4.84-0.53,7.26c-0.02,0.26-0.27,0.6,0.54,0.64c0.69,0.03,0.75-0.22,0.84-0.53c0.77-2.46,1.56-4.92,2.35-7.39
	c0.76,0.6,0.31,1.26,0.27,1.9c-0.12,1.83-0.24,3.66-0.34,5.5c-0.01,0.25-0.22,0.59,0.54,0.65c0.71,0.05,0.95-0.15,0.98-0.52
	c0.29-0.01,0.42,0.1,0.51,0.24c-0.01,1.89-0.8,3.68-2.42,5.28c-1.17,1.16-2.75,1.06-3.86-0.14c-1.22-1.31-1.92-2.73-2.13-4.22
	C76.4,29.96,76.69,29.69,76.16,29.41z"/>
<path class="st49" d="M76.16,30.24c0.78,0.68,0.68,1.52,1.14,2.26c0.45,0.72,0.82,1.46,1.55,2.1c0.87,0.76,1.98,0.79,2.86,0.02
	c1.16-1,1.65-2.17,2.07-3.34c0.24-0.67,0.57-1.32,0.55-2.01c0.29-2.94,0.55-5.89,0.68-8.84c0.03-0.74,0.01-1.48,0.02-2.22
	c0.2-0.3-0.45-0.72,0.39-0.92c0.12,0.9,0.24,1.8,0.37,2.7c0.39,1.54,0.74,3.08-0.01,4.62c-0.19,1.48-0.38,2.97-0.56,4.45
	c0.18,0.5-0.13,0.98-0.21,1.47c-0.14,0.79-0.11,1.61-0.97,2.3c-0.28,0.46-0.55,0.91-0.83,1.37c0,0.67-0.45,1.24-1.22,1.73
	c-1.55,0.97-2.43,0.89-3.79-0.37c-0.81-0.41-1.03-0.98-1.11-1.57c-0.42-1.12-0.85-2.25-1.27-3.37c-0.13-0.13-0.12-0.24,0.1-0.34
	C76,30.28,76.08,30.26,76.16,30.24z"/>
<path class="st50" d="M74.69,34.37c0.01-0.16,0.01-0.32,0.31-0.39c0.09,0.01,0.18,0.01,0.27,0c2.25,0.33,2.85,0.96,2.3,2.43
	c-0.45,0.29-0.88,0.6-1.67,0.52C75.42,36.09,75.4,35.18,74.69,34.37z"/>
<path class="st51" d="M77.57,36.41c0.28-1.15-0.52-1.95-2.3-2.43c0.62-0.32,1.21,0.07,1.82,0.02c0.37,0.52,0.74,1.05,1.11,1.57
	C77.66,35.77,78.3,36.26,77.57,36.41z"/>
<path class="st52" d="M75.92,30.29c-0.03,0.11-0.07,0.22-0.1,0.34c-0.26,0.06-0.04,0.48-0.54,0.31c-0.33-0.11-0.74-0.33-0.52-0.62
	C75.08,29.89,75.52,30.2,75.92,30.29z"/>
<path class="st53" d="M75.25,27.52c0.01,0.6-0.38,1.15-0.59,1.72l-0.11,0c0,0-0.11,0.01-0.11,0.01c0.16-0.57,0.32-1.13,0.48-1.7
	C75.04,27.54,75.15,27.53,75.25,27.52z"/>
<path class="st16" d="M81.99,35.94c0.41-0.58,0.81-1.15,1.22-1.73c0.68,0.53,0.71,1.1,0.28,1.7c-0.03-0.24-0.06-0.48-0.1-0.82
	c-0.43,0.46-0.76,0.82-1.1,1.17C82.05,36.19,81.99,36.07,81.99,35.94z"/>
<path class="st54" d="M85.73,34.34c-0.28,0.33-0.25,0.68-0.29,1.03c-0.3,0.62-0.6,1.24-0.91,1.86c-0.68-0.04-0.28-0.31-0.3-0.49
	c0.04-0.72,0.08-1.45,0.12-2.17c0.11-1.39,0.06-2.78,0.54-4.16c0.09-0.24,0.01-0.51,0.46-0.71c0.56,0.46,0.01,1,0.37,1.46
	C85.73,32.22,85.73,33.28,85.73,34.34z"/>
<path class="st55" d="M87.28,24.6c0,0.58-0.01,1.16-0.01,1.74c-0.11,0.9,0,1.82-0.6,2.69c0.04-1.48-0.16-2.95-0.63-4.41
	c-0.27-1.3-0.06-2.6-0.11-3.9c0-0.14,0.13-0.19,0.37-0.13C86.62,21.92,86.95,23.26,87.28,24.6z"/>
<path class="st56" d="M86.29,20.59c-0.52,1.33-0.06,2.69-0.26,4.03l-0.12,0l-0.12,0c0-1.54,0.01-3.08,0.01-4.62
	C86.19,20.13,86.39,20.31,86.29,20.59z"/>
<path class="st3" d="M85.72,31.16c-0.36-0.4-0.08-0.86-0.32-1.29c-0.36,0.17-0.13,0.39-0.27,0.55c-0.15,0.1-0.3,0.1-0.45,0
	c0.18-0.45,0.36-0.91,0.55-1.36C85.98,29.72,85.78,30.45,85.72,31.16z"/>
<path class="st41" d="M75.04,26.62c-0.03-0.32-0.07-0.65-0.1-0.97c-0.04-1.37-0.87-2.71-0.65-4.1c0.06-0.36-0.06-0.74,0.41-1.04
	c0.35-1.53,0.13-3.09,0.62-4.62c0.89,0.14,0.52,0.6,0.69,0.93c0,2.41-0.47,4.82-0.27,7.23c0.04,0.48,0.24,0.96-0.02,1.44
	C75.49,25.86,75.8,26.35,75.04,26.62z"/>
<path class="st42" d="M73.19,20.18c0.03-0.95,0.05-1.91,0.11-2.86c0.01-0.2-0.27-0.56,0.5-0.54c0,1.26,0.37,2.49,0.68,3.73
	c0.17,0.98,0.04,1.96,0.07,2.94c0.01,0.14-0.01,0.29-0.37,0.25C73.85,22.52,73.52,21.35,73.19,20.18z"/>
<path class="st41" d="M75.32,8.38c0.49,0.24,0.1,0.59,0.31,0.87c-0.1,1.98,0.12,3.98-0.64,5.94c-0.62-0.34-0.1-0.79-0.34-1.17
	C74.73,12.13,74.3,10.22,75.32,8.38z"/>
<path class="st28" d="M74.18,23.7c0.55-1.05,0.03-2.14,0.3-3.2c0.08-0.01,0.15-0.01,0.23,0.01c0.08,1.71,0.16,3.42,0.24,5.14
	C74.69,25,74.43,24.35,74.18,23.7z"/>
<path class="st41" d="M75.62,16.8c-0.13-0.3,0.14-0.64-0.3-0.91c-0.03-0.17-0.05-0.34-0.08-0.51c0.1-0.13,0.2-0.27,0.3-0.4
	c0.05,0.2-0.04,0.42,0.3,0.57C76.38,16,76.53,16.44,75.62,16.8z"/>
<path class="st41" d="M86.92,15.21c0.32,1.52,0.48,3.04,0.34,4.57c-0.3-1.15-1-2.24-1.55-3.35c-0.5-0.74-0.37-1.52-0.37-2.3
	c0-0.26,0.15-0.45,0.67-0.25C86.32,14.32,86.62,14.76,86.92,15.21z"/>
<path class="st57" d="M86.01,13.87c-0.75,0.06-0.5,0.42-0.5,0.65c0.02,0.63,0.12,1.26,0.2,1.9c-0.45,0.25-0.04,0.6-0.28,0.88
	c-0.36,0.24-0.12,0.56-0.3,0.83c-0.07,0-0.13,0-0.2,0c0.14-1.54,0.02-3.1,0.51-4.63C85.85,13.51,86.09,13.61,86.01,13.87z"/>
<path class="st48" d="M75.62,16.8c0.3-0.4,0.23-0.83,0.22-1.25c0.53-1.47,0.74-2.98,1.57-4.41c0.42-0.72,0.8-1.46,1.68-2.06
	c0.8-0.55,1.57-0.55,2.37-0.01c1.14,0.78,1.58,1.73,1.98,2.7c-0.02,0.16,0.06,0.29,0.33,0.36c-0.66,2.13-1.31,4.26-1.97,6.39
	c-0.06,0.19-0.1,0.39-0.15,0.59c-0.79-0.4-0.28-0.9-0.3-1.36c0.13-1.96,0.26-3.92,0.36-5.88c0.01-0.28,0.42-0.74-0.58-0.77
	c-0.89-0.03-0.78,0.43-0.87,0.73c-1.4,4.38-2.77,8.76-4.16,13.14c-0.07,0.22-0.18,0.44-0.27,0.66c-0.08,0.09-0.17,0.09-0.26,0.01
	C75.02,22.7,75.42,19.75,75.62,16.8z"/>
<path class="st58" d="M83.7,10.26c-0.47-0.69-0.94-1.39-1.41-2.08c0.1-0.06,0.19-0.12,0.29-0.18c0.47-0.04,0.76,0.15,0.83,0.36
	c0.28,0.79,1.2,1.21,2.34,1.54c0,0.07,0,0.15,0,0.22C85.11,10.35,84.29,9.75,83.7,10.26z"/>
<path class="st59" d="M75.57,25.65c0.09,0,0.17-0.01,0.26-0.01c-0.17,0.52-0.34,1.05-0.51,1.57c-0.18-0.18-0.37-0.36-0.28-0.59
	C75.22,26.3,75.4,25.97,75.57,25.65z"/>
<path class="st60" d="M84.67,30.43c0.15,0,0.3,0,0.45,0c-0.43,1.37-0.6,2.76-0.77,4.15c-0.32-0.57,0.24-1.19-0.32-1.74
	C84.25,32.04,84.46,31.23,84.67,30.43z"/>
<path class="st61" d="M84.24,36.75c0.14,0.15-0.05,0.38,0.3,0.49c0.02,0.12,0.04,0.23,0.05,0.35c-0.15,0.12-0.3,0.25-0.51,0.42
	C83.99,37.54,83.86,37.13,84.24,36.75z"/>
<path class="st0" d="M85.75,9.89c-1.2-0.02-2.07-0.26-2.36-1.04C83.28,8.55,83.16,8.18,82.58,8c-0.13-0.35,0.19-0.61,0.54-0.85
	c1.23-0.26,1.83-0.01,1.99,0.75C85.26,8.57,85.54,9.23,85.75,9.89z"/>
<path class="st17" d="M84.94,18.13c0.07,0,0.13,0,0.2,0c0.14,3.5,0.27,7.01-0.55,10.49c-0.05,0.22-0.17,0.44-0.25,0.66
	c-0.09-0.07-0.18-0.13-0.27-0.2c0.26-3.22,0.52-6.45,0.78-9.67C84.88,18.97,84.9,18.55,84.94,18.13z"/>
<path class="st29" d="M82.88,23.45c-0.27-0.63,0.27-1.29-0.27-1.9c0.1-0.41,0.2-0.82,0.3-1.22C83.16,21.37,83.29,22.42,82.88,23.45z
	"/>
<path class="st62" d="M81.35,17.76c0.28,0.44-0.23,0.94,0.3,1.36c0.14,0.37-0.22,0.69-0.45,1.03
	C81.13,19.35,80.95,18.55,81.35,17.76z"/>
<path class="st27" d="M79.41,21.57c-0.17-0.16,0.04-0.41-0.32-0.53c0.1-0.41,0.2-0.82,0.3-1.22C79.61,20.41,79.79,20.99,79.41,21.57
	z"/>
</svg>
