<?xml version="1.0" encoding="utf-8"?>
<!-- Generator: Adobe Illustrator 23.0.1, SVG Export Plug-In . SVG Version: 6.00 Build 0)  -->
<svg version="1.1" id="Layer_1" xmlns="http://www.w3.org/2000/svg" xmlns:xlink="http://www.w3.org/1999/xlink" x="0px" y="0px"
	 viewBox="0 0 160 45" style="enable-background:new 0 0 160 45;" xml:space="preserve">
<style type="text/css">
	.st0{fill:#EC1B23;}
	.st1{fill:#FDEFEF;}
	.st2{fill:#EA060F;}
	.st3{fill:#EC2227;}
	.st4{fill:#FEFAFA;}
	.st5{fill:#EC1B24;}
	.st6{fill:#EA0711;}
	.st7{fill:#FDF6F6;}
	.st8{fill:#FDF7F7;}
	.st9{fill:#FCE2E3;}
	.st10{fill:#E90911;}
	.st11{fill:#FBD7D8;}
	.st12{fill:#FCE6E6;}
	.st13{fill:#FCE6E5;}
	.st14{fill:#FCE5E5;}
	.st15{fill:#FDEBEC;}
	.st16{fill:#FACECF;}
	.st17{fill:#FDF1F1;}
	.st18{fill:#FBD8D9;}
	.st19{fill:#EC1C25;}
	.st20{fill:#EC1D25;}
	.st21{fill:#EC222B;}
</style>
<g>
	<path class="st0" d="M154.33,15.11c3.55,3.33,3.84,7.65,0.83,12.23c-0.32-0.46-0.67-0.89-1.08-1.28c0.27,0.52,0.79,0.78,1.16,1.2
		c-0.9,3.08-3.6,4.09-6.1,5.34c-1.13,0.4-2.34,0.77-2.9-0.74c-0.7-1.91-1.44-0.52-2.19-0.11c-0.92,0.29-1.45-0.2-1.84-0.94
		c-0.34-0.46-0.48-1.05-0.99-1.54c-0.02,1.04,2.08,2.03,0.05,2.99c-10.86,0.47-21.71,0.13-32.55,0.18c-0.73,0-1.44-0.13-2.05-0.56
		c-0.34-0.34-0.54-0.76-0.6-1.24c1.13-2.86,4.01-4.01,5.99-6.04c0.39-0.4,1.29-0.77,1.59-0.47c3.56,3.52,6.33-1.39,9.71-0.89
		c1.96,0.29,3.38-1.5,3.56-3.65c0.2-2.35-0.99-3.79-3.18-4.57c-4.56-1.62-6.49-0.45-7.53,4.65c-0.27,1.31-0.5,2.65-2.17,2.84
		c-1.19,0.13-1.76-0.69-2.33-1.61c-4.86-7.85-6.02-8.08-14.3-2.96c-1.61,0-1.86-1.83-3.12-2.29c-0.97-0.01-1.26,0.75-1.33,1.42
		c-0.32,3.22-2.08,4.42-5.23,4.33c-3.31-0.1-4.03-2.18-4.25-4.86c-0.03-0.41-0.09-0.88-0.66-0.89c-0.98,2.5-1.14,5.44-3.95,6.84
		c-2.37,0.06-4.5-1-6.73-1.55c-1.82-0.45-3.86-1.34-3.33-3.77c0.46-2.09,2.43-2.2,4.23-2.17c0.86,0.01,1.68,0.27,2.6,0.52
		c-0.89-1.12-2.1-0.93-3.18-0.92c-2.15,0.03-4.29,0.56-4.6,3.02c-0.32,2.49,1.62,3.47,3.73,4.02c0.28,0.07,0.57,0.11,0.85,0.16
		c2.24,0.38,4.69,0.9,4.04,3.88c-0.59,2.73-3.06,2.62-5.32,2.44c-0.85-0.07-1.6-0.72-2.53-0.39c0.53,1,1.76,1.54,1.75,2.86
		c-0.05,0.51-0.26,0.93-0.61,1.29c-1.76,1-3.68,0.58-5.53,0.58c-17.31,0.08-34.61-0.23-51.92,0.12c-0.52,0.16-1.05,0.17-1.58,0.03
		c-6.15-3.13-8.53-6.9-7.91-12.52c0.53-4.76,3.67-8.09,8.78-9.31c1.52,0.75,3.14,0.38,4.71,0.38c41.29,0.02,82.57,0.02,123.84,0.01
		c0.83,0.01,1.7-0.11,2.37,0.67c0.17,0.19,0.15,0.84,0.72,0.5c-0.17-0.23-0.33-0.47-0.49-0.73c-0.16-0.39-0.08-0.72,0.23-0.99
		c2.5-0.66,4.91-0.47,7.21,0.74c-0.11,0.37-0.31,0.66-0.61,0.89c-1.95,1.21-0.5,1.8,0.46,2.48c0.28,0.25,0.53,0.52,0.77,0.81
		c1.06,1.16,1.98,0.37,2.92-0.21C153.97,15.25,154.15,15.18,154.33,15.11z"/>
	<path class="st1" d="M10.78,32.62c0.29-0.07,0.59-0.15,0.88-0.22c8.79-0.65,17.6-0.22,26.4-0.41c11.27-0.24,22.52,0.2,33.82-0.43
		c11.66-0.65,23.39-0.46,35.12,0.24c12.25,0.73,24.59,0.77,36.88-0.16c-0.07-1.36-0.07-2.82,1.77-2.78
		c1.71,0.05,1.91,1.14,1.57,2.73c-0.38,1.8,1.28,0.64,1.92,1.02c-1.34,1.29-3.02,0.78-4.56,0.78c-43.08,0.03-86.16,0.03-129.24,0
		C13.81,33.38,12.13,33.9,10.78,32.62z"/>
	<path class="st2" d="M142.38,11.69c-41.92-0.03-83.83-0.05-125.75-0.12c-1.66,0-3.51,0.65-4.97-0.79c1.29-0.13,2.57-0.38,3.86-0.38
		c41.65-0.02,83.3-0.02,124.95-0.01c0.86,0,1.72,0.15,2.58,0.23c-0.03,0.27-0.02,0.53,0.01,0.8
		C142.93,11.78,142.7,11.85,142.38,11.69z"/>
	<path class="st3" d="M150.2,16.24c-0.1-0.48-0.19-0.96-0.29-1.44c-0.83-1-0.83-2.01-0.05-3.03c0.12-0.15,0.25-0.28,0.39-0.4
		c1.92,0.64,3.87,1.25,4.08,3.75l0.09-0.06C153.07,15.66,151.61,15.87,150.2,16.24z"/>
	<path class="st4" d="M59.26,19.64c-0.33,3.27-2.39,5.15-6,5.03c-2.75-0.09-4.98-0.02-4.27,3.75c0.17,0.9,0.31,2.18-1.24,2.26
		c-1.89,0.1-1.37-1.38-1.55-2.43c-0.2-1.18,0.71-2.81-0.96-3.43c-1.8-0.67-2.41,0.94-3.32,2.04c-2.74,3.32-6.27,4.03-10.16,2.46
		c-3.64-1.48-5.43-5.25-4.62-9.31c0.78-3.93,3.44-5.94,7.18-6.52c3.94-0.62,7.36,1.79,9.02,5.93c0.37,0.92-0.08,2.77,1.72,2.44
		c1.9-0.35,1.25-2.18,1.07-3.25c-0.79-4.66,1.63-5.18,5.43-4.94C56.85,13.98,59.29,15.54,59.26,19.64z"/>
	<path class="st4" d="M96.9,17.61c6.3-6.66,12.38-5.61,15.8,2.77c0.36,0.89,0.62,1.66,1.69,1.48c1.22-0.21,0.81-1.28,0.95-2.07
		c0.33-1.92-1.08-4.81,0.75-5.59c2.21-0.93,5.11-0.57,7.65-0.3c3.21,0.34,4.79,2.48,4.62,5.71c-0.16,3.08-1.97,4.69-4.94,5.05
		c-2.45,0.29-5.93-1.09-5.53,3.61c0.01,0.15-0.93,0.54-1.43,0.54c-0.9,0-1.05-0.73-1.17-1.49c-0.15-0.99,0.61-2.46-1.32-2.62
		c-1.45-0.12-1.98,0.89-2.63,1.86c-1.17,1.77-2.97,2.69-4.85,3.48c-4.55,2.23-7.52-0.21-10.24-3.45
		C94.8,23.48,93.95,20.41,96.9,17.61z"/>
	<path class="st5" d="M97.04,26.21c2.49,2.94,5.61,4.3,9.47,3.83c0,0.25-0.01,0.5-0.01,0.75c-0.45,0.37-0.95,0.68-1.53,0.72
		c-11.16,0.85-22.33,0.86-33.49-0.01c-0.58-0.05-1.08-0.37-1.52-0.75c0-0.26,0-0.52,0-0.78c0.43-0.65,1.1-1.02,1.82-1
		c4.79,0.15,6.57-2.63,6.86-6.91c2.94-2.09,1.73-6.07,3.88-8.53c0.97,1.43,1.01,3.11,0.58,4.59c-0.79,2.77-0.46,5.39,0.55,8.61
		c-0.05-3.61,1.62-4.92,4.64-4.92c2.78,0,4.33,1.13,4.6,3.99c0.09,0.95,0.16,2.07,1.4,2.41C95.51,27.96,95.78,26.39,97.04,26.21z"/>
	<path class="st6" d="M69.95,30.74c12.18,1.38,24.36,1.27,36.55,0.04c0.64,0.27,1.27,0.78,1.91,0.78
		c10.64,0.05,21.28,0.06,31.92,0.01c0.62,0,1.24-0.54,1.86-0.83l0,0c0.56,0.29,1.13,0.59,1.69,0.88c-0.55,2.22-2.33,1.03-3.44,1.03
		C111.73,32.74,83,32.76,54.28,32.7c-14.2-0.02-28.41-0.2-42.61-0.31c1.34-1.31,3.02-0.75,4.54-0.75
		c16.42-0.04,32.83-0.01,49.25-0.05C66.98,31.59,68.68,32.18,69.95,30.74z"/>
	<path class="st7" d="M94.88,29.81c-3.21,0.6-3.15-1.56-2.89-3.61c0.35-2.78-0.86-3.39-3.42-3.31c-2.45,0.08-4.21,0.14-3.82,3.39
		c0.14,1.13,1.03,3.37-1.21,3.42c-2.64,0.05-1.19-2.34-1.51-3.64c-0.28-1.16,0.44-2.62-1.27-3.31c-0.33-0.13-0.63-1.34-0.51-1.41
		c2.97-1.98,0.95-5.39,2.27-7.81c2.68-0.04,2.52,1.87,2.28,3.57c-0.42,3.02,1.27,3.17,3.58,3.16c2.27-0.01,4.01-0.05,3.62-3.12
		c-0.27-2.15-0.25-4.43,3.11-2.91C96.02,17.75,95.88,27.11,94.88,29.81z"/>
	<path class="st8" d="M78.63,22.05c1.6,5.79-0.93,8.1-8.68,7.91c-0.64-0.33-1.36-0.58-1.92-1.02c-0.78-0.62-2.5-0.86-1.57-2.43
		c0.74-1.26,1.83-1.07,2.92-0.18c0.92,0.75,2.08,0.98,3.28,0.93c1.52-0.06,3.16-0.3,3.38-2.04c0.27-2.07-1.66-1.95-3-2.29
		c-0.14-0.04-0.29-0.03-0.43-0.05c-2.56-0.42-5.4-0.46-6.26-3.66c-0.49-1.85,0.19-3.48,1.83-4.51c2.98-1.87,6.05-1.74,9.08-0.1
		c0.71,0.38,1.73,0.85,0.83,1.91c-0.53,0.63-1.15,1.34-2.17,0.6c-0.58-0.42-1.23-0.88-1.91-1c-1.88-0.32-4.28-0.65-4.63,1.77
		c-0.31,2.08,2.12,2.01,3.57,2.19C75.02,20.35,76.93,20.84,78.63,22.05z"/>
	<path class="st9" d="M21.05,13.66c0.87,0,1.76-0.15,2.6,0.04c1.26,0.28,3.27-1.14,3.45,1.99c0.17,2.92-1.7,2.07-2.86,2.14
		c-1.67,0.09-1.79,1.53-1.76,3.26c0.02,1.81,0.02,3.62,0.02,5.42c-0.01,1.62,0.14,3.42-1.66,3.3c-1.53-0.1-1.31-1.74-1.33-3.09
		c-0.03-1.61-0.06-3.22,0.01-4.82c0.1-2.41,0.05-4.48-2.39-4.07c-1.04,0.18-2.1-0.01-2.07-2.06c0.03-2.53,1.43-2.02,2.52-2.09
		C18.73,13.6,19.89,13.66,21.05,13.66z"/>
	<path class="st10" d="M94.88,29.81c0.08-5.19,0.15-10.38,0.23-15.57c1.33,0.74,0.96,2.38,1.8,3.38c-1.11,2.88-1.03,5.75,0.14,8.59
		C96.14,27.3,96.49,29.14,94.88,29.81z"/>
	<path class="st11" d="M150.2,16.24c0.84-2.41,2.38-2.35,4.22-1.18C153.83,18.36,152.55,19.21,150.2,16.24z"/>
	<path class="st12" d="M137.64,18.4c1.09,0.23,1.81,0.97,1.58,2.1c-0.22,1.05-1.03,1.77-2.25,1.47c-0.93-0.23-1.56-0.92-1.45-1.86
		C135.65,19.02,136.35,18.31,137.64,18.4z"/>
	<path class="st13" d="M156.18,20.59c-0.13,1.23-0.78,1.95-1.96,1.86c-0.89-0.07-1.59-0.63-1.67-1.64c-0.1-1.22,0.62-1.95,1.71-2.03
		C155.43,18.69,156.05,19.5,156.18,20.59z"/>
	<path class="st14" d="M139.67,24.67c0.12,1.52-0.59,2.25-1.68,2.34c-1.17,0.1-1.84-0.71-1.93-1.85c-0.08-1.04,0.67-1.62,1.53-1.8
		C138.79,23.1,139.41,23.87,139.67,24.67z"/>
	<path class="st14" d="M142.19,30.74c-1.56,0.3-3.02,0.14-3-1.81c0.01-1.24,1.02-2.12,2.35-1.61
		C143.43,28.04,142.97,29.41,142.19,30.74L142.19,30.74z"/>
	<path class="st15" d="M142.38,11.69c0.26,0.01,0.48-0.08,0.67-0.27c1.53,0.07,2.96,0.35,2.51,2.38c-0.19,0.85-1.01,1.5-1.94,1.26
		C141.7,14.57,141.93,13.14,142.38,11.69z"/>
	<path class="st16" d="M155.24,27.26c-1.48,0.05-3.33,0.69-3.49-1.73c-0.07-1.15,0.74-1.92,1.88-1.77c2.37,0.32,1.79,2.05,1.52,3.58
		C155.16,27.34,155.24,27.26,155.24,27.26z"/>
	<path class="st17" d="M149.86,11.77c0.02,1.01,0.03,2.02,0.05,3.03c-1.44,0.52-3.08,0.7-3.26-1.2
		C146.44,11.3,148.25,11.45,149.86,11.77z"/>
	<path class="st17" d="M141.38,15.47c-0.06,1.31-0.61,2.09-1.77,2.07c-1.11-0.02-1.79-0.71-1.78-1.88c0.01-0.99,0.65-1.55,1.55-1.65
		C140.52,13.88,141.16,14.54,141.38,15.47z"/>
	<path class="st18" d="M149.34,27.11c1.15,0.73,3.13,0.75,2.4,2.72c-0.15,0.41-0.97,0.96-1.31,0.86
		C148.5,30.1,149.65,28.37,149.34,27.11z"/>
	<path class="st19" d="M40.58,21.93c-0.06,3.08-2.59,5.6-5.57,5.31c-3.19-0.31-4.9-2.26-5.03-5.43c-0.13-3,2.5-5.67,5.36-5.64
		C38.23,16.2,40.64,18.84,40.58,21.93z"/>
	<path class="st5" d="M51.08,16.6c3.16-0.01,5.24,0.1,5.11,2.72c-0.13,2.82-2.45,2.5-4.46,2.68c-2.45,0.22-2.69-0.99-2.78-3.02
		C48.83,16.14,50.62,16.58,51.08,16.6z"/>
	<path class="st20" d="M109.89,21.96c-0.1,3.02-2.73,5.55-5.67,5.28c-3.26-0.3-4.86-2.38-5.04-5.47c-0.17-2.99,2.55-5.66,5.42-5.6
		C107.46,16.23,109.98,18.99,109.89,21.96z"/>
	<path class="st21" d="M121.26,21.96c-1.59,0.15-3.12,0.18-3.15-2.47c-0.02-2.26,0.68-3.12,2.94-2.93c1.99,0.17,4.41-0.22,4.44,2.67
		C125.53,21.71,123.51,22.02,121.26,21.96z"/>
</g>
</svg>
